<?xml version="1.0" encoding="UTF-8"?>
<svg width="32px" height="32px" viewBox="0 0 32 32" version="1.1" xmlns="http://www.w3.org/2000/svg" xmlns:xlink="http://www.w3.org/1999/xlink">
    <title>E79D441E-FD98-4FBF-B86F-39D08FEEB2AA</title>
    <g id="-⚙-Design-Guideline" stroke="none" stroke-width="1" fill="none" fill-rule="evenodd" stroke-linecap="round" stroke-linejoin="round">
        <g id="Map-Sensor-icons" transform="translate(-311.000000, -214.000000)" stroke="#FFFFFF" stroke-width="1.5">
            <g id="Icons/Luminary-Copy-12" transform="translate(311.000000, 214.000000)">
                <path d="M16,16.2857143 C15.4870571,16.2857143 15.0714286,15.8700857 15.0714286,15.3571429 C15.0714286,14.8442 15.4870571,14.4285714 16,14.4285714 C16.5129429,14.4285714 16.9285714,14.8442 16.9285714,15.3571429 C16.9285714,15.8700857 16.5129429,16.2857143 16,16.2857143 Z" id="Stroke-1" fill="#FFFFFF"></path>
                <g id="Group-2" transform="translate(3.000000, 7.000000)">
                    <path d="M9.79121531,11.5356329 C8.83690918,10.8627337 8.20216429,9.66915459 8.20216429,8.30858189 C8.20216429,6.94711378 8.8377051,5.75219158 9.79400102,5.07974005" id="Stroke-3"></path>
                    <path d="M6.84097143,13.6106518 C5.17073673,12.4331901 4.06003265,10.3437551 4.06003265,7.9628648 C4.06003265,5.57973597 5.17312449,3.48895791 6.84574694,2.31194388" id="Stroke-5"></path>
                    <path d="M3.91910204,15.9225957 C1.56517347,14.2634043 -1.23710566e-13,11.3193023 -1.23710566e-13,7.9637602 C-1.23710566e-13,4.60508418 1.56835714,1.65829592 3.92626531,2.47730408e-13" id="Stroke-7"></path>
                </g>
                <g id="Group-2-Copy" transform="translate(23.892857, 15.357143) scale(-1, 1) translate(-23.892857, -15.357143) translate(18.785714, 7.000000)">
                    <path d="M9.79121531,11.5356329 C8.83690918,10.8627337 8.20216429,9.66915459 8.20216429,8.30858189 C8.20216429,6.94711378 8.8377051,5.75219158 9.79400102,5.07974005" id="Stroke-3"></path>
                    <path d="M6.84097143,13.6106518 C5.17073673,12.4331901 4.06003265,10.3437551 4.06003265,7.9628648 C4.06003265,5.57973597 5.17312449,3.48895791 6.84574694,2.31194388" id="Stroke-5"></path>
                    <path d="M3.91910204,15.9225957 C1.56517347,14.2634043 -1.23710566e-13,11.3193023 -1.23710566e-13,7.9637602 C-1.23710566e-13,4.60508418 1.56835714,1.65829592 3.92626531,2.47730408e-13" id="Stroke-7"></path>
                </g>
            </g>
        </g>
    </g>
</svg>