<?xml version="1.0" encoding="UTF-8"?>
<svg width="32px" height="32px" viewBox="0 0 32 32" version="1.1" xmlns="http://www.w3.org/2000/svg" xmlns:xlink="http://www.w3.org/1999/xlink">
    <title>3855C26D-FF8C-416B-B674-DCB407A37DB9</title>
    <g id="-⚙-Design-Guideline" stroke="none" stroke-width="1" fill="none" fill-rule="evenodd">
        <g id="Map-Sensor-icons" transform="translate(-311.000000, -214.000000)" fill="#FFFFFF" fill-rule="nonzero">
            <g id="Icons/Luminary-Copy-12" transform="translate(311.000000, 214.000000)">
                <g id="Group">
                    <path d="M23,14.25 C23,14.7332494 22.6082494,15.125 22.125,15.125 C21.6417506,15.125 21.25,14.7332494 21.25,14.25 C21.25,12.3170034 19.6829966,10.75 17.75,10.75 C17.2667506,10.75 16.875,10.3582494 16.875,9.875 C16.875,9.39175063 17.2667506,9 17.75,9 C20.6494945,9 23,11.3505055 23,14.25 Z M26.5,14.25 C26.5,14.7332494 26.1082494,15.125 25.625,15.125 C25.1417506,15.125 24.75,14.7332494 24.75,14.25 C24.75,10.3840068 21.6159932,7.25 17.75,7.25 C17.2667506,7.25 16.875,6.85824937 16.875,6.375 C16.875,5.89175063 17.2667506,5.5 17.75,5.5 C22.5824911,5.5 26.5,9.41750887 26.5,14.25 Z M30,14.25 C30,14.7332494 29.6082494,15.125 29.125,15.125 C28.6417506,15.125 28.25,14.7332494 28.25,14.25 C28.25,8.45101013 23.5489899,3.75 17.75,3.75 C17.2667506,3.75 16.875,3.35824937 16.875,2.875 C16.875,2.39175063 17.2667506,2 17.75,2 C24.5154878,2 30,7.48451225 30,14.25 Z M14.25,9 C14.7332494,9 15.125,9.39175063 15.125,9.875 C15.125,10.3582494 14.7332494,10.75 14.25,10.75 C12.3170034,10.75 10.75,12.3170034 10.75,14.25 C10.75,14.7332494 10.3582494,15.125 9.875,15.125 C9.39175063,15.125 9,14.7332494 9,14.25 C9,11.3505055 11.3505055,9 14.25,9 Z M17.75,23 C17.2667506,23 16.875,22.6082494 16.875,22.125 C16.875,21.6417506 17.2667506,21.25 17.75,21.25 C19.6829966,21.25 21.25,19.6829966 21.25,17.75 C21.25,17.2667506 21.6417506,16.875 22.125,16.875 C22.6082494,16.875 23,17.2667506 23,17.75 C23,20.6494945 20.6494945,23 17.75,23 Z M9,17.75 C9,17.2667506 9.39175063,16.875 9.875,16.875 C10.3582494,16.875 10.75,17.2667506 10.75,17.75 C10.75,19.6829966 12.3170034,21.25 14.25,21.25 C14.7332494,21.25 15.125,21.6417506 15.125,22.125 C15.125,22.6082494 14.7332494,23 14.25,23 C11.3505055,23 9,20.6494945 9,17.75 Z M5.5,17.75 C5.5,17.2667506 5.89175063,16.875 6.375,16.875 C6.85824937,16.875 7.25,17.2667506 7.25,17.75 C7.25,21.6159932 10.3840068,24.75 14.25,24.75 C14.7332494,24.75 15.125,25.1417506 15.125,25.625 C15.125,26.1082494 14.7332494,26.5 14.25,26.5 C9.41750888,26.5 5.5,22.5824911 5.5,17.75 Z M2,17.75 C2,17.2667506 2.39175063,16.875 2.875,16.875 C3.35824937,16.875 3.75,17.2667506 3.75,17.75 C3.75,23.5489899 8.45101012,28.25 14.25,28.25 C14.7332494,28.25 15.125,28.6417506 15.125,29.125 C15.125,29.6082494 14.7332494,30 14.25,30 C7.48451225,30 2,24.5154878 2,17.75 Z" id="Shape"></path>
                </g>
            </g>
        </g>
    </g>
</svg>