<?xml version="1.0" encoding="UTF-8"?>
<svg width="32px" height="32px" viewBox="0 0 32 32" version="1.1" xmlns="http://www.w3.org/2000/svg" xmlns:xlink="http://www.w3.org/1999/xlink">
    <title>DD1D9595-C8F7-4C2E-A20E-E84006B32699</title>
    <g id="-⚙-Design-Guideline" stroke="none" stroke-width="1" fill="none" fill-rule="evenodd" stroke-linecap="round" stroke-linejoin="round">
        <g id="Map-Sensor-icons" transform="translate(-24.000000, -280.000000)" stroke="#FFFFFF" stroke-width="1.5">
            <g id="Icons/Luminary-Copy-4" transform="translate(24.000000, 280.000000)">
                <g id="Group">
                    <path d="M27.9357645,20.6116574 C28.3244978,20.533724 28.5676312,20.320924 28.5676312,20.320924 C29.8994978,19.177124 29.4407645,17.326324 29.4407645,17.326324 C29.1630978,14.9500574 22.0837645,12.597124 22.0837645,12.597124 L18.5795645,8.56792405 C14.0855645,7.16605738 8.41883115,8.80079072 8.41883115,8.80079072 C3.16369782,10.0299907 2.52529782,13.591124 2.52529782,13.591124 L2.52203115,16.4508574 C1.28396448,19.137924 2.53743115,20.3302574 3.30369782,20.7782574" id="Stroke-9"></path>
                    <line x1="10.3687978" y1="21.1348374" x2="21.0909312" y2="21.1348374" id="Stroke-11"></line>
                    <line x1="6.30436448" y1="13.0834374" x2="23.2126312" y2="13.0834374" id="Stroke-13"></line>
                    <line x1="12.6499578" y1="12.989124" x2="12.6499578" y2="8.16705738" id="Stroke-15"></line>
                    <path d="M25.8583512,20.839064 C25.8583512,22.1765307 24.7742845,23.2619974 23.4340178,23.2619974 C22.0965512,23.2619974 21.0106178,22.1765307 21.0106178,20.839064 C21.0106178,19.4997307 22.0965512,18.414264 23.4340178,18.414264 C24.7742845,18.414264 25.8583512,19.4997307 25.8583512,20.839064 Z" id="Stroke-17"></path>
                    <path d="M10.2974912,20.839064 C10.2974912,22.1765307 9.21109115,23.2619974 7.87362448,23.2619974 C6.53475782,23.2619974 5.44975782,22.1765307 5.44975782,20.839064 C5.44975782,19.4997307 6.53475782,18.414264 7.87362448,18.414264 C9.21109115,18.414264 10.2974912,19.4997307 10.2974912,20.839064 Z" id="Stroke-19"></path>
                </g>
            </g>
        </g>
    </g>
</svg>