<?xml version="1.0" encoding="UTF-8"?>
<svg width="32px" height="32px" viewBox="0 0 32 32" version="1.1" xmlns="http://www.w3.org/2000/svg" xmlns:xlink="http://www.w3.org/1999/xlink">
    <title>229C1BE8-BCDF-4BB2-A58F-4307D7203E75</title>
    <g id="-⚙-Design-Guideline" stroke="none" stroke-width="1" fill="none" fill-rule="evenodd" stroke-linecap="round" stroke-linejoin="round">
        <g id="Map-Sensor-icons" transform="translate(-311.000000, -152.000000)" stroke="#FFFFFF" stroke-width="1.5">
            <g id="Icons/Luminary-Copy-11" transform="translate(311.000000, 152.000000)">
                <g id="Group">
                    <path d="M16.0685673,16.4295625 C13.9010202,16.4295625 12.0855696,17.6933281 11.5690625,19.4011562 L20.5690625,19.4011562 C20.0525554,17.6933281 18.2361143,16.4295625 16.0685673,16.4295625 Z" id="Path"></path>
                    <g id="Group-3" transform="translate(7.930696, 12.992716) rotate(15.000000) translate(-7.930696, -12.992716) translate(3.930696, 7.992716)" fill="#FFFFFF">
                        <path d="M7.11866667,3.82133333 C7.11866667,4.10866667 6.88733333,4.34066667 6.59933333,4.34066667 C6.31333333,4.34066667 6.08,4.10866667 6.08,3.82133333 C6.08,3.53333333 6.31333333,3.30133333 6.59933333,3.30133333 C6.88733333,3.30133333 7.11866667,3.53333333 7.11866667,3.82133333 Z" id="Stroke-134"></path>
                        <path d="M5.72533333,7.98133333 C5.72533333,8.26866667 5.494,8.50066667 5.20666667,8.50066667 C4.92,8.50066667 4.68666667,8.26866667 4.68666667,7.98133333 C4.68666667,7.69333333 4.92,7.462 5.20666667,7.462 C5.494,7.462 5.72533333,7.69333333 5.72533333,7.98133333 Z" id="Stroke-136"></path>
                        <path d="M2.41666667,4.464 C2.41666667,4.752 2.18533333,4.98333333 1.89733333,4.98333333 C1.61133333,4.98333333 1.378,4.752 1.378,4.464 C1.378,4.176 1.61133333,3.94466667 1.89733333,3.94466667 C2.18533333,3.94466667 2.41666667,4.176 2.41666667,4.464 Z" id="Stroke-138"></path>
                        <path d="M3.73866667,0.519333333 C3.73866667,0.807333333 3.50733333,1.03866667 3.21933333,1.03866667 C2.93266667,1.03866667 2.7,0.807333333 2.7,0.519333333 C2.7,0.231333333 2.93266667,3.03164901e-13 3.21933333,3.03164901e-13 C3.50733333,3.03164901e-13 3.73866667,0.231333333 3.73866667,0.519333333 Z" id="Stroke-140"></path>
                        <path d="M1.03866667,8.58066667 C1.03866667,8.868 0.807333333,9.1 0.519333333,9.1 C0.233333333,9.1 3.03164901e-13,8.868 3.03164901e-13,8.58066667 C3.03164901e-13,8.29266667 0.233333333,8.06066667 0.519333333,8.06066667 C0.807333333,8.06066667 1.03866667,8.29266667 1.03866667,8.58066667 Z" id="Stroke-142"></path>
                    </g>
                    <g id="Group-3-Copy" transform="translate(24.052149, 12.992716) scale(-1, 1) rotate(15.000000) translate(-24.052149, -12.992716) translate(20.052149, 7.992716)" fill="#FFFFFF">
                        <path d="M7.11866667,3.82133333 C7.11866667,4.10866667 6.88733333,4.34066667 6.59933333,4.34066667 C6.31333333,4.34066667 6.08,4.10866667 6.08,3.82133333 C6.08,3.53333333 6.31333333,3.30133333 6.59933333,3.30133333 C6.88733333,3.30133333 7.11866667,3.53333333 7.11866667,3.82133333 Z" id="Stroke-134"></path>
                        <path d="M5.72533333,7.98133333 C5.72533333,8.26866667 5.494,8.50066667 5.20666667,8.50066667 C4.92,8.50066667 4.68666667,8.26866667 4.68666667,7.98133333 C4.68666667,7.69333333 4.92,7.462 5.20666667,7.462 C5.494,7.462 5.72533333,7.69333333 5.72533333,7.98133333 Z" id="Stroke-136"></path>
                        <path d="M2.41666667,4.464 C2.41666667,4.752 2.18533333,4.98333333 1.89733333,4.98333333 C1.61133333,4.98333333 1.378,4.752 1.378,4.464 C1.378,4.176 1.61133333,3.94466667 1.89733333,3.94466667 C2.18533333,3.94466667 2.41666667,4.176 2.41666667,4.464 Z" id="Stroke-138"></path>
                        <path d="M3.73866667,0.519333333 C3.73866667,0.807333333 3.50733333,1.03866667 3.21933333,1.03866667 C2.93266667,1.03866667 2.7,0.807333333 2.7,0.519333333 C2.7,0.231333333 2.93266667,3.03164901e-13 3.21933333,3.03164901e-13 C3.50733333,3.03164901e-13 3.73866667,0.231333333 3.73866667,0.519333333 Z" id="Stroke-140"></path>
                        <path d="M1.03866667,8.58066667 C1.03866667,8.868 0.807333333,9.1 0.519333333,9.1 C0.233333333,9.1 3.03164901e-13,8.868 3.03164901e-13,8.58066667 C3.03164901e-13,8.29266667 0.233333333,8.06066667 0.519333333,8.06066667 C0.807333333,8.06066667 1.03866667,8.29266667 1.03866667,8.58066667 Z" id="Stroke-142"></path>
                    </g>
                    <line x1="7" y1="25.4" x2="26" y2="25.4" id="Line"></line>
                    <line x1="11.5" y1="22.4" x2="20.7" y2="22.4" id="Line-Copy"></line>
                </g>
            </g>
        </g>
    </g>
</svg>