<?xml version="1.0" encoding="UTF-8"?>
<svg width="32px" height="32px" viewBox="0 0 32 32" version="1.1" xmlns="http://www.w3.org/2000/svg" xmlns:xlink="http://www.w3.org/1999/xlink">
    <title>AEB1CFCB-689E-4852-9B8D-5514EEF89FA9</title>
    <g id="-⚙-Design-Guideline" stroke="none" stroke-width="1" fill="none" fill-rule="evenodd" stroke-linecap="round" stroke-linejoin="round">
        <g id="Map-Sensor-icons" transform="translate(-311.000000, -152.000000)" stroke="#FFFFFF" stroke-width="1.5">
            <g id="Icons/Luminary-Copy-11" transform="translate(311.000000, 152.000000)">
                <g id="Group">
                    <polygon id="Path" points="19.6890938 26.0629219 19.6890938 15.0116562 13.2134844 15.0116562 13.2134844 26.0629219"></polygon>
                    <path d="M16.4510625,8.4295625 C14.4677344,8.4295625 12.8065781,9.69332812 12.3339687,11.4011562 L20.5690625,11.4011562 C20.0964531,9.69332812 18.4343906,8.4295625 16.4510625,8.4295625 Z" id="Path"></path>
                    <line x1="7.4375" y1="26.0629219" x2="7.4375" y2="23.8638129" id="Path"></line>
                    <line x1="10.15625" y1="26.0629219" x2="10.15625" y2="21.8638125" id="Path"></line>
                    <line x1="25.4655312" y1="26.0629219" x2="25.4655312" y2="23.8638129" id="Path"></line>
                    <line x1="22.7467812" y1="26.0629219" x2="22.7467812" y2="21.8638125" id="Path"></line>
                    <path d="M10.339,8.866 C10.339,9.0815 10.1655,9.2555 9.9495,9.2555 C9.735,9.2555 9.56,9.0815 9.56,8.866 C9.56,8.65 9.735,8.476 9.9495,8.476 C10.1655,8.476 10.339,8.65 10.339,8.866 Z" id="Stroke-134" fill="#FFFFFF"></path>
                    <path d="M9.294,11.986 C9.294,12.2015 9.1205,12.3755 8.905,12.3755 C8.69,12.3755 8.515,12.2015 8.515,11.986 C8.515,11.77 8.69,11.5965 8.905,11.5965 C9.1205,11.5965 9.294,11.77 9.294,11.986 Z" id="Stroke-136" fill="#FFFFFF"></path>
                    <path d="M6.8125,9.348 C6.8125,9.564 6.639,9.7375 6.423,9.7375 C6.2085,9.7375 6.0335,9.564 6.0335,9.348 C6.0335,9.132 6.2085,8.9585 6.423,8.9585 C6.639,8.9585 6.8125,9.132 6.8125,9.348 Z" id="Stroke-138" fill="#FFFFFF"></path>
                    <path d="M7.804,6.3895 C7.804,6.6055 7.6305,6.779 7.4145,6.779 C7.1995,6.779 7.025,6.6055 7.025,6.3895 C7.025,6.1735 7.1995,6 7.4145,6 C7.6305,6 7.804,6.1735 7.804,6.3895 Z" id="Stroke-140" fill="#FFFFFF"></path>
                    <path d="M5.779,12.4355 C5.779,12.651 5.6055,12.825 5.3895,12.825 C5.175,12.825 5,12.651 5,12.4355 C5,12.2195 5.175,12.0455 5.3895,12.0455 C5.6055,12.0455 5.779,12.2195 5.779,12.4355 Z" id="Stroke-142" fill="#FFFFFF"></path>
                    <path d="M23.44,8.866 C23.44,9.0815 23.2665,9.2555 23.0505,9.2555 C22.836,9.2555 22.661,9.0815 22.661,8.866 C22.661,8.65 22.836,8.476 23.0505,8.476 C23.2665,8.476 23.44,8.65 23.44,8.866 Z" id="Stroke-134-Copy" fill="#FFFFFF" transform="translate(23.050500, 8.865750) scale(-1, 1) translate(-23.050500, -8.865750) "></path>
                    <path d="M24.485,11.986 C24.485,12.2015 24.3115,12.3755 24.096,12.3755 C23.881,12.3755 23.706,12.2015 23.706,11.986 C23.706,11.77 23.881,11.5965 24.096,11.5965 C24.3115,11.5965 24.485,11.77 24.485,11.986 Z" id="Stroke-136-Copy" fill="#FFFFFF" transform="translate(24.095500, 11.986000) scale(-1, 1) translate(-24.095500, -11.986000) "></path>
                    <path d="M26.9665,9.348 C26.9665,9.564 26.793,9.7375 26.577,9.7375 C26.3625,9.7375 26.1875,9.564 26.1875,9.348 C26.1875,9.132 26.3625,8.9585 26.577,8.9585 C26.793,8.9585 26.9665,9.132 26.9665,9.348 Z" id="Stroke-138-Copy" fill="#FFFFFF" transform="translate(26.577000, 9.348000) scale(-1, 1) translate(-26.577000, -9.348000) "></path>
                    <path d="M25.975,6.3895 C25.975,6.6055 25.8015,6.779 25.5855,6.779 C25.3705,6.779 25.196,6.6055 25.196,6.3895 C25.196,6.1735 25.3705,6 25.5855,6 C25.8015,6 25.975,6.1735 25.975,6.3895 Z" id="Stroke-140-Copy" fill="#FFFFFF" transform="translate(25.585500, 6.389500) scale(-1, 1) translate(-25.585500, -6.389500) "></path>
                    <path d="M28,12.4355 C28,12.651 27.8265,12.825 27.6105,12.825 C27.396,12.825 27.221,12.651 27.221,12.4355 C27.221,12.2195 27.396,12.0455 27.6105,12.0455 C27.8265,12.0455 28,12.2195 28,12.4355 Z" id="Stroke-142-Copy" fill="#FFFFFF" transform="translate(27.610500, 12.435250) scale(-1, 1) translate(-27.610500, -12.435250) "></path>
                </g>
            </g>
        </g>
    </g>
</svg>