<?xml version="1.0" encoding="UTF-8"?>
<svg width="32px" height="32px" viewBox="0 0 32 32" version="1.1" xmlns="http://www.w3.org/2000/svg" xmlns:xlink="http://www.w3.org/1999/xlink">
    <title>26473F06-EDA8-4FF0-9B57-CA902716A92C</title>
    <g id="-⚙-Design-Guideline" stroke="none" stroke-width="1" fill="none" fill-rule="evenodd" stroke-linecap="round" stroke-linejoin="round">
        <g id="Map-Sensor-icons" transform="translate(-24.000000, -24.000000)" stroke="#FFFFFF" stroke-width="1.5">
            <g id="Icons/Luminary" transform="translate(24.000000, 24.000000)">
                <g id="Group">
                    <path d="M24.1429286,10.5711335 C24.1429286,5.70256203 20.0835001,1.7819906 15.1652143,2.00941917 C10.7800715,2.21170489 7.18121434,5.83570489 7.00692862,10.2219906 C6.91892862,12.4397049 7.6743572,14.4779906 8.9783572,16.0448477 C10.6680715,18.074562 11.5715001,19.9299906 11.5715001,22.5711335 L19.5715001,22.5711335 C19.5715001,19.8779906 20.5732143,18.0282763 22.2600715,15.9282763 C23.4377858,14.4614192 24.1429286,12.5991335 24.1429286,10.5711335 Z M13.8572143,22.5711335 L13.8572143,12.8568477 L15.0000715,13.4282763 L15.5715001,12.8568477 L16.1429286,13.4282763 L17.2857858,12.8568477 L17.2857858,22.5711335 M11.5715001,26 L19.5715001,26 M13.2857858,29 L17.8572143,29" id="Combined-Shape"></path>
                </g>
            </g>
        </g>
    </g>
</svg>