<?xml version="1.0" encoding="UTF-8"?>
<svg width="32px" height="32px" viewBox="0 0 32 32" version="1.1" xmlns="http://www.w3.org/2000/svg" xmlns:xlink="http://www.w3.org/1999/xlink">
    <title>25994EDE-D7C5-46DF-B3F9-CB4070DBCEFD</title>
    <g id="-⚙-Design-Guideline" stroke="none" stroke-width="1" fill="none" fill-rule="evenodd" stroke-linecap="round" stroke-linejoin="round">
        <g id="Map-Sensor-icons" transform="translate(-24.000000, -88.000000)" stroke="#FFFFFF" stroke-width="1.5">
            <g id="Icons/Luminary-Copy" transform="translate(24.000000, 88.000000)">
                <g id="Group">
                    <path d="M25.5631256,21.3685517 L23.9568288,18.8443711 C23.2080288,17.6672872 21.4772417,17.704913 20.780003,18.913584 L19.5244159,21.089842" id="Stroke-1"></path>
                    <path d="M22.7760288,28.3362936 L26.4187643,28.3362936 C27.8722353,28.3362936 28.7631772,26.7425388 28.0009062,25.5046033 L27.1694224,24.1533259" id="Stroke-3"></path>
                    <path d="M18.2914508,23.2266162 L16.9513217,25.5496614 C16.2368959,26.7885259 17.130625,28.3362936 18.5608701,28.3362936 L19.9887927,28.3362936" id="Stroke-5"></path>
                    <polyline id="Stroke-7" points="23.7050611 26.9427453 22.7760288 28.3362936 23.7050611 29.729842"></polyline>
                    <polyline id="Stroke-9" points="24.1695772 21.8330678 26.0276417 21.8330678 26.4921579 19.9750033"></polyline>
                    <polyline id="Stroke-11" points="19.0598998 24.6147298 18.2813708 23.2267556 16.7373192 23.2211814"></polyline>
                    <path d="M20.0154809,14.7435556 L21.8551972,6.46339202 L23.3141935,5.34309677 C23.5762581,5.21187097 23.7419355,4.9436129 23.7419355,4.65058065 L23.7419355,3.58064516 C23.7419355,3.36696774 23.5689032,3.19354839 23.3548387,3.19354839 L6.48387097,3.19354839 C6.26980645,3.19354839 6.09677419,3.36696774 6.09677419,3.58064516 L6.09677419,4.65058065 C6.09677419,4.9436129 6.26245161,5.21187097 6.52451613,5.34309677 L7.80645161,6.46339202 L7.80645161,18.7761773" id="Stroke-15"></path>
                    <line x1="10.1290323" y1="26.3225806" x2="13.6129032" y2="26.3225806" id="Stroke-13"></line>
                    <path d="M10.516129,24.7741935 C10.516129,26.2707097 9.30296774,27.483871 7.80645161,27.483871 C6.30993548,27.483871 5.09677419,26.2707097 5.09677419,24.7741935 C5.09677419,23.2776774 6.30993548,22.0645161 7.80645161,22.0645161 C9.30296774,22.0645161 10.516129,23.2776774 10.516129,24.7741935 Z" id="Stroke-17"></path>
                    <line x1="6.48387097" y1="3.19354839" x2="3" y2="3.19354839" id="Stroke-29"></line>
                    <line x1="8" y1="6.48387097" x2="21.8" y2="6.48387097" id="Stroke-21"></line>
                    <line x1="12.5" y1="7" x2="12.5" y2="9" id="Line"></line>
                    <line x1="17" y1="7" x2="17" y2="9" id="Line-Copy"></line>
                </g>
            </g>
        </g>
    </g>
</svg>