<?xml version="1.0" encoding="UTF-8"?>
<svg width="32px" height="32px" viewBox="0 0 32 32" version="1.1" xmlns="http://www.w3.org/2000/svg" xmlns:xlink="http://www.w3.org/1999/xlink">
    <title>42154EB7-624B-422D-8EC0-33FB36ACDE9F</title>
    <g id="-⚙-Design-Guideline" stroke="none" stroke-width="1" fill="none" fill-rule="evenodd" stroke-linecap="round" stroke-linejoin="round">
        <g id="Map-Sensor-icons" transform="translate(-311.000000, -88.000000)" stroke="#FFFFFF" stroke-width="1.5">
            <g id="Icons/Luminary-Copy-10" transform="translate(311.000000, 88.000000)">
                <g id="Group">
                    <path d="M26.3267346,14.6645926 C26.3267346,21.1068395 21.1036975,26.3284938 14.662142,26.3284938 C8.22041358,26.3284938 2.99875926,21.1068395 2.99875926,14.6645926 C2.99875926,8.2228642 8.22041358,3 14.662142,3" id="Stroke-11" transform="translate(14.663367, 14.664867) rotate(-270.000000) translate(-14.663367, -14.664867) "></path>
                    <path d="M17.0952346,14.6645926 C17.0952346,16.0075556 16.0068642,17.0964444 14.6633827,17.0964444 C13.3211111,17.0964444 12.231358,16.0075556 12.231358,14.6645926 C12.231358,13.322321 13.3211111,12.2334321 14.6633827,12.2334321 C16.0068642,12.2334321 17.0952346,13.322321 17.0952346,14.6645926 Z" id="Stroke-13"></path>
                    <line x1="14.6633309" y1="11.9173951" x2="14.6633309" y2="6.535" id="Stroke-15"></line>
                    <line x1="6.40079012" y1="14.6645926" x2="3.08175309" y2="14.6645926" id="Stroke-21"></line>
                    <line x1="22.8536247" y1="6.47497284" x2="20.5068099" y2="8.82317037" id="Stroke-23"></line>
                    <line x1="8.82121728" y1="20.5067062" x2="6.47440247" y2="22.8542123" id="Stroke-25"></line>
                    <line x1="8.82121728" y1="8.82247901" x2="6.47440247" y2="6.47497284" id="Stroke-29"></line>
                    <circle id="Oval" cx="22.980558" cy="22.8765259" r="7"></circle>
                    <path d="M25.5,21.583 C25.5,20.1564737 24.3806875,19 23,19 C21.6193125,19 20.5,20.1564737 20.5,21.583 C20.5,22.2135526 20.7273214,22.7838684 21.0908572,23.2324211 L22.1272643,24.6922895 L23.0001783,26 L24.9093211,23.2324211 C25.2726786,22.7838684 25.5,22.2135526 25.5,21.583 Z" id="Stroke-1" transform="translate(23.000000, 22.500000) scale(1, -1) translate(-23.000000, -22.500000) "></path>
                </g>
            </g>
        </g>
    </g>
</svg>