<?xml version="1.0" encoding="UTF-8"?>
<svg width="32px" height="32px" viewBox="0 0 32 32" version="1.1" xmlns="http://www.w3.org/2000/svg" xmlns:xlink="http://www.w3.org/1999/xlink">
    <title>EA35B730-0B65-4B83-8E74-72206B55DFE4</title>
    <g id="-⚙-Design-Guideline" stroke="none" stroke-width="1" fill="none" fill-rule="evenodd" stroke-linecap="round" stroke-linejoin="round">
        <g id="Map-Sensor-icons" transform="translate(-24.000000, -152.000000)" stroke="#FFFFFF" stroke-width="1.5">
            <g id="Icons/Luminary-Copy-2" transform="translate(24.000000, 152.000000)">
                <g id="Group">
                    <path d="M20.6993243,16.893375 C20.3784527,16.893375 20.0667162,16.9270608 19.7646858,16.9898649 C18.8517432,14.2795845 16.2944764,12.3258074 13.277027,12.3258074 C9.4927973,12.3258074 6.42567568,15.3929291 6.42567568,19.1771588 C4.53356081,19.1771588 3,20.7112905 3,22.6028345 C3,24.4943784 4.53356081,26.0285101 6.42567568,26.0285101 L20.6993243,26.0285101 C23.2217635,26.0285101 25.2668919,23.9833818 25.2668919,21.4609426 C25.2668919,18.9385034 23.2217635,16.893375 20.6993243,16.893375 Z" id="Stroke-1"></path>
                    <path d="M13.9600497,12.3252365 C14.8410193,10.3092264 16.8530328,8.90013176 19.1939111,8.90013176 C22.3472456,8.90013176 24.9033706,11.4562568 24.9033706,14.6095912 C24.9033706,15.8947905 24.4791578,17.0812162 23.7620497,18.0352669" id="Stroke-3"></path>
                    <line x1="19.1939111" y1="7.28378378" x2="19.1939111" y2="5" id="Stroke-5"></line>
                    <line x1="26.6162084" y1="13.5641892" x2="28.8999922" y2="13.5641892" id="Stroke-7"></line>
                    <line x1="23.7614787" y1="8.42567568" x2="25.3766848" y2="6.81046959" id="Stroke-9"></line>
                    <line x1="14.6263436" y1="8.42567568" x2="13.0117084" y2="6.81046959" id="Stroke-11"></line>
                </g>
            </g>
        </g>
    </g>
</svg>