<?xml version="1.0" encoding="UTF-8"?>
<svg width="16px" height="20px" viewBox="0 0 16 20" version="1.1" xmlns="http://www.w3.org/2000/svg" xmlns:xlink="http://www.w3.org/1999/xlink">
    <!-- Generator: sketchtool 63.1 (101010) - https://sketch.com -->
    <title>243C9C69-F298-445C-B41E-DB0D2A4702FA</title>
    <desc>Created with sketchtool.</desc>
    <g id="-⚙-FIWOO-BI-Backup" stroke="none" stroke-width="1" fill="none" fill-rule="evenodd">
        <g id="Flow-Main-Editor---Transformación-2" transform="translate(-641.000000, -312.000000)" fill-rule="nonzero">
            <g id="Group-19-Copy" transform="translate(606.000000, 211.000000)">
                <g id="Group-17" transform="translate(15.000000, 82.000000)">
                    <g id="Flow/Icon---Json-Copy" transform="translate(20.000000, 19.000000)">
                        <g id="Group-2">
                            <g id="Group-10-Copy">
                                <g id="pdf" transform="translate(0.000000, 0.000000)">
                                    <path d="M1.16061993,0 L10.8568561,0 L15.9962804,5.35217175 L15.9962804,17.8962066 C15.9962804,18.5553599 15.485048,19.0892747 14.8550849,19.0892747 L1.16061993,19.0892747 C0.530656827,19.0892747 0.0194243542,18.5553599 0.0194243542,17.8962066 L0.0194243542,1.1930681 C0.0194243542,0.533914794 0.530715867,0 1.16061993,0 Z" id="Path" fill="#B5151A"></path>
                                    <path d="M15.9798081,5.3688373 L12.0021255,5.3688373 C11.3721624,5.3688373 10.8609299,4.83436699 10.8609299,4.1757692 L10.8609299,0.0119127809 L15.9798081,5.3688373 Z" id="Path" fill="#C44448"></path>
                                </g>
                            </g>
                            <path d="M3.792,13.096 C4.48,13.096 5.04266667,12.84 5.48,12.328 L5.48,12.328 L4.856,11.592 C4.728,11.7306667 4.58,11.8466667 4.412,11.94 C4.244,12.0333333 4.05333333,12.08 3.84,12.08 C3.456,12.08 3.14933333,11.932 2.92,11.636 C2.69066667,11.34 2.576,10.9226667 2.576,10.384 C2.576,10.1226667 2.60933333,9.888 2.676,9.68 C2.74266667,9.472 2.83333333,9.296 2.948,9.152 C3.06266667,9.008 3.19866667,8.89733333 3.356,8.82 C3.51333333,8.74266667 3.68,8.704 3.856,8.704 C4.04266667,8.704 4.20933333,8.74266667 4.356,8.82 C4.50266667,8.89733333 4.64266667,8.99733333 4.776,9.12 L4.776,9.12 L5.4,8.368 C5.224,8.18666667 5.00266667,8.028 4.736,7.892 C4.46933333,7.756 4.168,7.688 3.832,7.688 C3.50133333,7.688 3.18666667,7.74933333 2.888,7.872 C2.58933333,7.99466667 2.328,8.17333333 2.104,8.408 C1.88,8.64266667 1.70133333,8.92933333 1.568,9.268 C1.43466667,9.60666667 1.368,9.992 1.368,10.424 C1.368,10.8613333 1.432,11.2466667 1.56,11.58 C1.688,11.9133333 1.86266667,12.192 2.084,12.416 C2.30533333,12.64 2.56266667,12.8093333 2.856,12.924 C3.14933333,13.0386667 3.46133333,13.096 3.792,13.096 Z M7.864,13.096 C8.17333333,13.096 8.45066667,13.052 8.696,12.964 C8.94133333,12.876 9.148,12.7586667 9.316,12.612 C9.484,12.4653333 9.612,12.2946667 9.7,12.1 C9.788,11.9053333 9.832,11.6986667 9.832,11.48 C9.832,11.112 9.74,10.816 9.556,10.592 C9.372,10.368 9.12,10.192 8.8,10.064 L8.8,10.064 L8.128,9.792 C8.016,9.744 7.912,9.7 7.816,9.66 C7.72,9.62 7.636,9.57733333 7.564,9.532 C7.492,9.48666667 7.436,9.436 7.396,9.38 C7.356,9.324 7.336,9.256 7.336,9.176 C7.336,9.02666667 7.396,8.91066667 7.516,8.828 C7.636,8.74533333 7.79733333,8.704 8,8.704 C8.208,8.704 8.39733333,8.74 8.568,8.812 C8.73866667,8.884 8.90933333,8.98666667 9.08,9.12 L9.08,9.12 L9.68,8.376 C9.456,8.152 9.196,7.98133333 8.9,7.864 C8.604,7.74666667 8.304,7.688 8,7.688 C7.728,7.688 7.47866667,7.728 7.252,7.808 C7.02533333,7.888 6.82933333,7.99866667 6.664,8.14 C6.49866667,8.28133333 6.37066667,8.44666667 6.28,8.636 C6.18933333,8.82533333 6.144,9.02666667 6.144,9.24 C6.144,9.432 6.17333333,9.604 6.232,9.756 C6.29066667,9.908 6.36933333,10.0413333 6.468,10.156 C6.56666667,10.2706667 6.67866667,10.3706667 6.804,10.456 C6.92933333,10.5413333 7.05866667,10.6106667 7.192,10.664 L7.192,10.664 L7.872,10.952 C7.984,11 8.08666667,11.044 8.18,11.084 C8.27333333,11.124 8.35333333,11.1666667 8.42,11.212 C8.48666667,11.2573333 8.53733333,11.3093333 8.572,11.368 C8.60666667,11.4266667 8.624,11.496 8.624,11.576 C8.624,11.7306667 8.564,11.8533333 8.444,11.944 C8.324,12.0346667 8.14133333,12.08 7.896,12.08 C7.67733333,12.08 7.45466667,12.0293333 7.228,11.928 C7.00133333,11.8266667 6.79466667,11.696 6.608,11.536 L6.608,11.536 L5.936,12.344 C6.20266667,12.5946667 6.50533333,12.7826667 6.844,12.908 C7.18266667,13.0333333 7.52266667,13.096 7.864,13.096 Z M13.04,13 L14.608,7.784 L13.408,7.784 L12.792,10.216 C12.7173333,10.504 12.648,10.7826667 12.584,11.052 L12.484,11.463 L12.484,11.463 L12.376,11.888 L12.344,11.888 C12.264,11.6 12.1933333,11.3213333 12.132,11.052 C12.0706667,10.7826667 12,10.504 11.92,10.216 L11.92,10.216 L11.296,7.784 L10.048,7.784 L11.624,13 L13.04,13 Z" id="CSV" fill="#FFFFFF"></path>
                        </g>
                    </g>
                </g>
            </g>
        </g>
    </g>
</svg>