<?xml version="1.0" encoding="UTF-8"?>
<svg width="16px" height="20px" viewBox="0 0 16 20" version="1.1" xmlns="http://www.w3.org/2000/svg" xmlns:xlink="http://www.w3.org/1999/xlink">
    <!-- Generator: sketchtool 64 (101010) - https://sketch.com -->
    <title>681B4F0A-DFB0-42AC-9974-2CDBE9B68700</title>
    <desc>Created with sketchtool.</desc>
    <g id="-⚙-FIWOO-BI" stroke="none" stroke-width="1" fill="none" fill-rule="evenodd">
        <g id="Flow-Main-Editor---Transformación-4" transform="translate(-735.000000, -806.000000)">
            <g id="Flow/Recipiente-final" transform="translate(565.000000, 794.000000)">
                <g id="Flow/Icon---union-Copy-3" transform="translate(170.000000, 11.000000)">
                    <g id="Group" transform="translate(0.000000, 0.800000)">
                        <rect id="Rectangle" fill="#6C7A88" x="0" y="0.2" width="16" height="19" rx="1"></rect>
                        <path d="M5.56904348,12.2329565 L5.56904348,11.4787826 L3.35269565,11.4787826 L3.35269565,9.99352174 L5.16117391,9.99352174 L5.16117391,9.23934783 L3.35269565,9.23934783 L3.35269565,7.95417391 L5.49208696,7.95417391 L5.49208696,7.2 L2.46,7.2 L2.46,12.2329565 L5.56904348,12.2329565 Z M8.50878261,12.2329565 L8.50878261,7.95417391 L9.96326087,7.95417391 L9.96326087,7.2 L6.1616087,7.2 L6.1616087,7.95417391 L7.61608696,7.95417391 L7.61608696,12.2329565 L8.50878261,12.2329565 Z M13.788,12.2329565 L13.788,11.4787826 L11.6947826,11.4787826 L11.6947826,7.2 L10.802087,7.2 L10.802087,12.2329565 L13.788,12.2329565 Z" id="Flow" fill="#FFFFFF" fill-rule="nonzero"></path>
                    </g>
                </g>
            </g>
        </g>
    </g>
</svg>