<?xml version="1.0" encoding="UTF-8"?>
<svg width="16px" height="20px" viewBox="0 0 16 20" version="1.1" xmlns="http://www.w3.org/2000/svg" xmlns:xlink="http://www.w3.org/1999/xlink">
    <!-- Generator: sketchtool 64 (101010) - https://sketch.com -->
    <title>A45807A5-4130-485E-9AF3-1AF7425B976C</title>
    <desc>Created with sketchtool.</desc>
    <g id="-⚙-Design-Guideline" stroke="none" stroke-width="1" fill="none" fill-rule="evenodd">
        <g id="-⚙-Iconos" transform="translate(-351.000000, -545.000000)">
            <g id="union" transform="translate(351.000000, 545.000000)">
                <rect id="Rectangle" fill="#47C8D1" x="0" y="0" width="16" height="19" rx="1"></rect>
                <path d="M8.1568655,4 C8.01063221,4 7.86524181,4.08474544 7.79217907,4.21135236 L6.0391977,7.25316873 C6.00428488,7.31357075 5.98271401,7.38235897 5.98117941,7.4520886 C5.97873402,7.56332526 6.02357374,7.67497965 6.10136016,7.75461258 C6.17911078,7.83414949 6.28849138,7.88308166 6.39973997,7.88308166 L7.41506015,7.88308166 C7.32103073,9.70751292 6.81946926,11.3352147 6.097216,12.5038245 C5.29219497,13.8063891 4.27462103,14.4971674 3.22945452,14.4971674 C3.04124661,14.4945178 2.85060158,14.5690924 2.71557818,14.7002314 C2.58056677,14.8313582 2.50292312,15.0176235 2.5,15.2058194 C2.49718021,15.3976481 2.57170295,15.5881091 2.70728986,15.7238399 C2.84286477,15.8595586 3.03762587,15.9378899 3.22945452,15.9352598 C4.90366322,15.9352598 6.34266509,14.8431504 7.31974438,13.2622065 C7.64530168,12.7354329 7.92734247,12.1500206 8.1568655,11.5175135 C8.38638853,12.1500206 8.66841739,12.7354329 8.99398663,13.2622065 C9.97106592,14.8431504 11.4100678,15.9352598 13.0842765,15.9352598 C13.2761051,15.9378896 13.4708542,15.8595707 13.6064412,15.7238399 C13.742028,15.5881211 13.8165507,15.3976481 13.813731,15.2058194 C13.8108074,15.0176235 13.7331763,14.8313703 13.5981528,14.7002314 C13.4631295,14.5690924 13.2724723,14.4945178 13.0842765,14.4971674 C12.03911,14.4971674 11.0215481,13.8063891 10.216515,12.5038245 C9.49426188,11.3352147 8.99269856,9.70751292 8.89867086,7.88308166 L9.91399104,7.88308166 C10.0602604,7.88308166 10.2054349,7.79832416 10.2786775,7.6717293 C10.3518601,7.54514624 10.351932,7.37975166 10.2786775,7.25316873 L8.52155193,4.21135236 C8.44850113,4.08474544 8.30308699,4 8.1568655,4 Z" id="Path" fill="#FFFFFF" fill-rule="nonzero" transform="translate(8.156866, 9.967630) rotate(-180.000000) translate(-8.156866, -9.967630) "></path>
            </g>
        </g>
    </g>
</svg>