<?xml version="1.0" encoding="UTF-8"?>
<svg width="17px" height="20px" viewBox="0 0 17 20" version="1.1" xmlns="http://www.w3.org/2000/svg" xmlns:xlink="http://www.w3.org/1999/xlink">
    <!-- Generator: sketchtool 64 (101010) - https://sketch.com -->
    <title>83C00F52-1B5C-4011-A2F7-31BFD61D5F42</title>
    <desc>Created with sketchtool.</desc>
    <g id="-⚙-Design-Guideline" stroke="none" stroke-width="1" fill="none" fill-rule="evenodd">
        <g id="-⚙-Iconos" transform="translate(-401.000000, -545.000000)">
            <g id="conversion" transform="translate(401.000000, 545.000000)">
                <rect id="Rectangle" fill="#47C8D1" x="0.5" y="0" width="16" height="19" rx="1"></rect>
                <path d="M8.62073171,3.97926829 L8.62073171,3.36219512 C8.62073171,3.25487805 8.56707317,3.16097561 8.47317073,3.10731707 C8.37926829,3.05365854 8.27195122,3.05365854 8.17804878,3.12073171 L6.48780488,4.15365854 C6.40731707,4.20731707 6.35365854,4.30121951 6.35365854,4.39512195 C6.35365854,4.48902439 6.40731707,4.58292683 6.48780488,4.63658537 L8.16463415,5.68292683 C8.20487805,5.7097561 8.25853659,5.72317073 8.31219512,5.72317073 C8.36585366,5.72317073 8.40609756,5.7097561 8.4597561,5.68292683 C8.55365854,5.62926829 8.60731707,5.53536585 8.60731707,5.42804878 L8.60731707,4.89146341 C11.0487805,4.98536585 13.0207317,6.98414634 13.0207317,9.43902439 C13.0207317,10.6463415 12.5512195,11.7865854 11.6926829,12.6317073 C11.504878,12.8195122 11.504878,13.1146341 11.6926829,13.302439 C11.7865854,13.3963415 11.9073171,13.4365854 12.0280488,13.4365854 C12.1487805,13.4365854 12.2695122,13.3963415 12.3634146,13.302439 C13.3963415,12.2695122 13.9731707,10.9012195 13.9731707,9.43902439 C13.9731707,6.46097561 11.5719512,4.04634146 8.62073171,3.97926829 Z" id="Path" stroke="#FFFFFF" stroke-width="0.4" fill="#FFFFFF" fill-rule="nonzero"></path>
                <path d="M8.83536585,13.1817073 C8.74146341,13.1280488 8.63414634,13.1280488 8.5402439,13.1682927 C8.44634146,13.2219512 8.39268293,13.3158537 8.39268293,13.4231707 L8.39268293,13.9597561 C5.93780488,13.8926829 3.97926829,11.8939024 3.97926829,9.43902439 C3.97926829,8.23170732 4.44878049,7.10487805 5.30731707,6.24634146 C5.49512195,6.05853659 5.49512195,5.76341463 5.30731707,5.57560976 C5.1195122,5.38780488 4.82439024,5.38780488 4.63658537,5.57560976 C3.60365854,6.60853659 3.02682927,7.97682927 3.02682927,9.43902439 C3.02682927,12.4170732 5.41463415,14.845122 8.37926829,14.8987805 L8.37926829,15.5158537 C8.37926829,15.6231707 8.43292683,15.7170732 8.52682927,15.7707317 C8.56707317,15.797561 8.62073171,15.8109756 8.67439024,15.8109756 C8.72804878,15.8109756 8.78170732,15.797561 8.82195122,15.7707317 L10.5121951,14.7243902 C10.5926829,14.6707317 10.6463415,14.5768293 10.6463415,14.4829268 C10.6463415,14.3890244 10.5926829,14.295122 10.5121951,14.2414634 L8.83536585,13.1817073 Z" id="Path" stroke="#FFFFFF" stroke-width="0.4" fill="#FFFFFF" fill-rule="nonzero"></path>
            </g>
        </g>
    </g>
</svg>