<?xml version="1.0" encoding="UTF-8"?>
<svg width="16px" height="20px" viewBox="0 0 16 20" version="1.1" xmlns="http://www.w3.org/2000/svg" xmlns:xlink="http://www.w3.org/1999/xlink">
    <!-- Generator: sketchtool 64 (101010) - https://sketch.com -->
    <title>8DDA937D-133C-40E1-AD71-A79559B867A7</title>
    <desc>Created with sketchtool.</desc>
    <g id="-⚙-FIWOO-BI" stroke="none" stroke-width="1" fill="none" fill-rule="evenodd">
        <g id="Flow-Main-Editor---Uploading-File-Config" transform="translate(-759.000000, -253.000000)" fill-rule="nonzero">
            <g id="Group-8" transform="translate(270.000000, 253.000000)">
                <g id="Group-6" transform="translate(303.000000, 0.000000)">
                    <g id="Group-7" transform="translate(0.500000, 0.000000)">
                        <g id="Group" transform="translate(89.500000, 0.000000)">
                            <g id="Flow/Icon---Excel-Copy-3" transform="translate(96.000000, 0.000000)">
                                <g id="Group-2-Copy">
                                    <path d="M1.16061993,0 L10.8568561,0 L15.9962804,5.35217175 L15.9962804,17.8962066 C15.9962804,18.5553599 15.485048,19.0892747 14.8550849,19.0892747 L1.16061993,19.0892747 C0.530656827,19.0892747 0.0194243542,18.5553599 0.0194243542,17.8962066 L0.0194243542,1.1930681 C0.0194243542,0.533914794 0.530715867,0 1.16061993,0 Z" id="Path" fill="#4FBAE2"></path>
                                    <path d="M15.9798081,5.3688373 L12.0021255,5.3688373 C11.3721624,5.3688373 10.8609299,4.83436699 10.8609299,4.1757692 L10.8609299,0.0119127809 L15.9798081,5.3688373 Z" id="Path" fill="#53CAEC"></path>
                                    <path d="M5.84246285,12.6895159 L5.84246285,11.6279448 L3.01443737,10.6003439 L5.84246285,9.56425053 L5.84246285,8.51117197 L2.31597321,9.85212707 C2.00534109,9.97024558 1.8,10.2680123 1.8,10.6003439 C1.8,10.9326756 2.00534109,11.2304423 2.31597321,11.3485608 L5.84246285,12.6895159 L5.84246285,12.6895159 Z M7.26072187,14.422 L10.0632696,6.422 L8.88280255,6.422 L6.08025478,14.422 L7.26072187,14.422 Z M10.2161359,12.6895159 L13.7426255,11.3485608 C14.0532576,11.2304423 14.2585987,10.9326756 14.2585987,10.6003439 C14.2585987,10.2680123 14.0532576,9.97024558 13.7426255,9.85212707 L10.2161359,8.51117197 L10.2161359,8.51117197 L10.2161359,9.56425053 L13.0441614,10.6003439 L10.2161359,11.6279448 L10.2161359,12.6895159 Z" id="&lt;/&gt;" fill="#FFFFFF"></path>
                                </g>
                            </g>
                        </g>
                    </g>
                </g>
            </g>
        </g>
    </g>
</svg>