<?xml version="1.0" encoding="UTF-8"?>
<svg width="16px" height="20px" viewBox="0 0 16 20" version="1.1" xmlns="http://www.w3.org/2000/svg" xmlns:xlink="http://www.w3.org/1999/xlink">
    <!-- Generator: sketchtool 64 (101010) - https://sketch.com -->
    <title>7B79C8FE-118F-4836-8CC2-EDCAA3C18925</title>
    <desc>Created with sketchtool.</desc>
    <g id="-⚙-FIWOO-BI" stroke="none" stroke-width="1" fill="none" fill-rule="evenodd">
        <g id="Flow-Main-Editor---Uploading-File-Config" transform="translate(-695.000000, -253.000000)">
            <g id="Group-8" transform="translate(270.000000, 253.000000)">
                <g id="Group-6" transform="translate(303.000000, 0.000000)">
                    <g id="Group-7" transform="translate(0.500000, 0.000000)">
                        <g id="Group" transform="translate(89.500000, 0.000000)">
                            <g id="Flow/Icon---Excel-Copy" transform="translate(32.000000, 0.000000)">
                                <g id="Group-3">
                                    <rect id="Rectangle" fill="#9374A3" x="0" y="0" width="16" height="19" rx="1"></rect>
                                    <path d="M5.64888744,4.33011327 C6.55660041,4.84866073 5.82242602,5.69290047 5.44944333,5.54950284 C5.07646064,5.40610521 5.06390916,5.37301853 4.93574794,5.32259445 C4.80758672,5.27217036 4.73090009,5.24695831 4.70568804,5.24695831 C4.59643585,5.24695831 4.5071432,5.27322086 4.43781008,5.32574595 C4.38581024,5.36513977 4.35331034,5.4216699 4.34031038,5.49533634 L4.3338104,5.57471488 L4.3338104,8.51191798 C4.3338104,8.73882637 4.26867928,8.96678527 4.13841706,9.19579467 C4.00815483,9.42480407 3.83167053,9.61284389 3.60896414,9.75991415 C3.71401432,9.83134827 3.81066049,9.91328741 3.89890264,10.0057316 C3.9871448,10.0981757 4.06383143,10.1979734 4.12896254,10.3051246 C4.19409365,10.4122758 4.24451774,10.521528 4.2802348,10.6328812 C4.31595187,10.7442344 4.3338104,10.854537 4.3338104,10.9637892 C4.12775539,12.9207444 4.16242195,13.9828018 4.43781008,14.1499613 C4.85089226,14.4007005 5.13793531,13.9400154 5.59681548,13.9400154 C6.05569565,13.9400154 6.27712156,14.8266963 5.64888744,15.1536645 C5.02065331,15.4806327 4.78138024,15.457836 4.42205255,15.457836 C4.17833637,15.457836 3.95983175,15.42422 3.76653941,15.3569879 C3.57324708,15.2897557 3.40831829,15.1941601 3.27175305,15.0702009 C3.13518782,14.9462416 3.03118814,14.8002219 2.95975401,14.6321416 C2.90617842,14.5060814 2.87269367,14.3705666 2.85929978,14.2255974 L2.85260283,14.0774766 L2.85260283,11.2915458 C2.85260283,11.2033037 2.84629982,11.103506 2.83369379,10.9921528 C2.82108777,10.8807996 2.79797673,10.7778504 2.76436067,10.6833052 C2.73074462,10.5887601 2.68137103,10.5089219 2.61623992,10.4437908 C2.56739158,10.3949425 2.50731601,10.3644123 2.4360132,10.3522002 L2.36096797,10.3460942 L2.26997605,10.338752 C2.03305038,10.3001074 1.8459868,10.1130438 1.80734212,9.87611811 L1.8,9.78512619 L1.8,9.69688404 C1.8,9.38706998 2.05115392,9.13591606 2.36096797,9.13591606 C2.46601816,9.13591606 2.5511088,9.10335051 2.61623992,9.03821939 C2.68137103,8.97308828 2.73074462,8.89325014 2.76436067,8.79870498 C2.79797673,8.70415981 2.82108777,8.60121064 2.83369379,8.48985744 C2.84209781,8.41562198 2.84770048,8.3465223 2.85050182,8.28255842 L2.85260283,8.19046442 L2.85260283,5.39192757 C2.85260283,5.19863523 2.88831989,5.01689842 2.95975401,4.84671712 C3.03118814,4.67653582 3.13518782,4.52946557 3.27175305,4.40550635 C3.40831829,4.28154714 3.57324708,4.18385047 3.76653941,4.11241635 C3.95983175,4.04098222 4.74117446,3.81156581 5.64888744,4.33011327 Z M12.2626576,4.11241635 C12.4559499,4.18385047 12.6208787,4.28154714 12.7574439,4.40550635 C12.8940092,4.52946557 12.9980089,4.67653582 13.069443,4.84671712 C13.1408771,5.01689842 13.1765942,5.19863523 13.1765942,5.39192757 L13.1765942,8.19046442 C13.1765942,8.27870658 13.1828972,8.37850425 13.1955032,8.48985744 C13.2081092,8.60121064 13.2312203,8.70415981 13.2648363,8.79870498 C13.2984524,8.89325014 13.347826,8.97308828 13.4129571,9.03821939 C13.4780882,9.10335051 13.5631788,9.13591606 13.668229,9.13591606 C13.9780431,9.13591606 14.229197,9.38706998 14.229197,9.69688404 L14.229197,9.78512619 C14.229197,10.0639588 14.0257623,10.2952768 13.7592209,10.338752 L13.668229,10.3460942 C13.5631788,10.3460942 13.4780882,10.3786597 13.4129571,10.4437908 C13.347826,10.5089219 13.2984524,10.5887601 13.2648363,10.6833052 C13.2312203,10.7778504 13.2081092,10.8807996 13.1955032,10.9921528 C13.1828972,11.103506 13.1765942,11.2033037 13.1765942,11.2915458 L13.1765942,14.0774766 C13.1765942,14.279173 13.1408771,14.4640613 13.069443,14.6321416 C12.9980089,14.8002219 12.8940092,14.9462416 12.7574439,15.0702009 C12.6208787,15.1941601 12.4559499,15.2897557 12.2626576,15.3569879 C12.0693653,15.42422 11.8508606,15.457836 11.6071444,15.457836 C11.2478168,15.457836 11.0085437,15.4806327 10.3803096,15.1536645 C9.75207544,14.8266963 9.97350135,13.9400154 10.4323815,13.9400154 C10.8912617,13.9400154 11.1783047,14.4007005 11.5913869,14.1499613 C11.866775,13.9828018 11.9014416,12.9207444 11.6953866,10.9637892 C11.6953866,10.854537 11.7132451,10.7442344 11.7489622,10.6328812 C11.7846793,10.521528 11.8351033,10.4122758 11.9002345,10.3051246 C11.9653656,10.1979734 12.0420522,10.0981757 12.1302944,10.0057316 C12.2185365,9.91328741 12.3151827,9.83134827 12.4202329,9.75991415 C12.1975265,9.61284389 12.0210422,9.42480407 11.8907799,9.19579467 C11.7605177,8.96678527 11.6953866,8.73882637 11.6953866,8.51191798 L11.6953866,5.57471488 C11.6953866,5.46126069 11.66072,5.37827104 11.5913869,5.32574595 C11.5220538,5.27322086 11.4327611,5.24695831 11.323509,5.24695831 C11.2982969,5.24695831 11.2216103,5.27217036 11.0934491,5.32259445 C10.9652878,5.37301853 10.9527364,5.40610521 10.5797537,5.54950284 C10.206771,5.69290047 9.47259659,4.84866073 10.3803096,4.33011327 C11.2880225,3.81156581 12.0693653,4.04098222 12.2626576,4.11241635 Z M8.0473637,9.55321218 C8.39878556,9.55321218 8.68921411,9.81435557 8.73517844,10.1531714 L8.74151522,10.2473637 L8.74151522,12.5612021 C8.74151522,12.9445714 8.430733,13.2553536 8.0473637,13.2553536 C7.69594184,13.2553536 7.40551329,12.9942102 7.35954896,12.6553944 L7.35321218,12.5612021 L7.35321218,10.2473637 C7.35321218,9.8639944 7.6639944,9.55321218 8.0473637,9.55321218 Z M8.13991723,6.77660609 C8.57440244,6.77660609 8.92662229,7.12882594 8.92662229,7.56331115 C8.92662229,7.99779635 8.57440244,8.3500162 8.13991723,8.3500162 C7.70543203,8.3500162 7.35321218,7.99779635 7.35321218,7.56331115 C7.35321218,7.12882594 7.70543203,6.77660609 8.13991723,6.77660609 Z" id="Combined-Shape" fill="#FFFFFF" fill-rule="nonzero"></path>
                                </g>
                            </g>
                        </g>
                    </g>
                </g>
            </g>
        </g>
    </g>
</svg>