<?xml version="1.0" encoding="UTF-8"?>
<svg width="16px" height="20px" viewBox="0 0 16 20" version="1.1" xmlns="http://www.w3.org/2000/svg" xmlns:xlink="http://www.w3.org/1999/xlink">
    <!-- Generator: sketchtool 64 (101010) - https://sketch.com -->
    <title>1EE4C4EE-41F3-4F95-A7B8-1009F27B4344</title>
    <desc>Created with sketchtool.</desc>
    <g id="-⚙-FIWOO-BI" stroke="none" stroke-width="1" fill="none" fill-rule="evenodd">
        <g id="Flow-Main-Editor---Uploading-File-Config" transform="translate(-663.000000, -253.000000)" fill-rule="nonzero">
            <g id="Group-8" transform="translate(270.000000, 253.000000)">
                <g id="Group-6" transform="translate(303.000000, 0.000000)">
                    <g id="Group-7" transform="translate(0.500000, 0.000000)">
                        <g id="Group" transform="translate(89.500000, 0.000000)">
                            <g id="Flow/Icon---Excel">
                                <g id="Group-3">
                                    <path d="M1.16061993,0 L10.8568561,0 L15.9962804,5.35217175 L15.9962804,17.8962066 C15.9962804,18.5553599 15.485048,19.0892747 14.8550849,19.0892747 L1.16061993,19.0892747 C0.530656827,19.0892747 0.0194243542,18.5553599 0.0194243542,17.8962066 L0.0194243542,1.1930681 C0.0194243542,0.533914794 0.530715867,0 1.16061993,0 Z" id="Path" fill="#44AA5D"></path>
                                    <path d="M15.9798081,5.3688373 L12.0021255,5.3688373 C11.3721624,5.3688373 10.8609299,4.83436699 10.8609299,4.1757692 L10.8609299,0.0119127809 L15.9798081,5.3688373 Z" id="Path" fill="#3A913F"></path>
                                    <path d="M6.922,12.868 L7.471,11.671 C7.537,11.515 7.603,11.3605 7.669,11.2075 C7.735,11.0545 7.801,10.888 7.867,10.708 L7.867,10.708 L7.903,10.708 C7.987,10.888 8.0635,11.0545 8.1325,11.2075 C8.2015,11.3605 8.272,11.515 8.344,11.671 L8.344,11.671 L8.929,12.868 L10.405,12.868 L8.785,9.916 L10.306,7 L8.893,7 L8.425,8.107 C8.365,8.245 8.3035,8.3905 8.2405,8.5435 C8.1775,8.6965 8.113,8.866 8.047,9.052 L8.047,9.052 L8.011,9.052 C7.927,8.866 7.852,8.6965 7.786,8.5435 C7.72,8.3905 7.654,8.245 7.588,8.107 L7.588,8.107 L7.075,7 L5.599,7 L7.129,9.853 L5.5,12.868 L6.922,12.868 Z" id="X" fill="#FFFFFF"></path>
                                </g>
                            </g>
                        </g>
                    </g>
                </g>
            </g>
        </g>
    </g>
</svg>