<?xml version="1.0" encoding="UTF-8"?>
<svg width="16px" height="20px" viewBox="0 0 16 20" version="1.1" xmlns="http://www.w3.org/2000/svg" xmlns:xlink="http://www.w3.org/1999/xlink">
    <!-- Generator: sketchtool 63.1 (101010) - https://sketch.com -->
    <title>05B6132E-276B-4E09-A0A7-D50B0B9AE968</title>
    <desc>Created with sketchtool.</desc>
    <g id="-⚙-FIWOO-BI-Backup" stroke="none" stroke-width="1" fill="none" fill-rule="evenodd">
        <g id="Flow-Main-Editor---Transformación-2" transform="translate(-400.000000, -312.000000)">
            <g id="Group-19" transform="translate(365.000000, 211.000000)">
                <g id="Group-17" transform="translate(15.000000, 82.000000)">
                    <g id="Flow/Icon---Json-Copy" transform="translate(19.000000, 19.000000)">
                        <g id="Group-9" transform="translate(0.300000, 0.000000)">
                            <rect id="Rectangle" fill="#ACD356" x="0.7" y="0" width="16" height="19" rx="1"></rect>
                            <path d="M8.81008405,16.9658379 L8.39889157,16.8296737 C8.39889157,16.8296737 8.44910858,14.7986905 7.69672309,14.6529433 C7.19531392,14.0892259 7.77715725,-9.25349625 9.58257808,14.5751202 C9.58257808,14.5751202 8.96062636,14.876303 8.85030113,15.3914731 C8.72986728,15.8968494 8.81008405,16.9658379 8.81008405,16.9658379 L8.81008405,16.9658379 Z" id="Path" fill="#A6A385" fill-rule="nonzero"></path>
                            <path d="M9.03084321,15.0028841 C9.03084321,15.0028841 12.6319023,12.709261 11.7891915,7.93761935 C10.9768064,4.46843548 9.06095167,3.33141765 8.85030113,2.8940707 C8.61965074,2.58309417 8.39889157,2.03896421 8.39889157,2.03896421 L8.54943389,11.6888199 C8.54943389,11.6986136 8.23845803,14.6431496 9.03095191,15.0028841" id="Path" fill="#499D4A" fill-rule="nonzero"></path>
                            <path d="M8.18834972,15.1290439 C8.18834972,15.1290439 4.80794107,12.8938671 5.00859169,8.95816578 C5.1991337,5.02235914 7.58639785,3.08847052 8.04780733,2.73863509 C8.34878327,2.42765855 8.35878319,2.31097653 8.37889173,2 C8.58954227,2.43734695 8.54943389,8.54030093 8.57943366,9.2593486 C8.66965035,12.0289669 8.41900011,14.604396 8.18834972,15.1290439 Z" id="Path" fill="#FFFFFF" fill-rule="nonzero"></path>
                            <path d="M8.18834972,15.1290439 C8.18834972,15.1290439 4.80794107,12.8938671 5.00859169,8.95816578 C5.1991337,5.02235914 7.58639785,3.08847052 8.04780733,2.73863509 C8.34878327,2.42765855 8.35878319,2.31097653 8.37889173,2 C8.58954227,2.43734695 8.54943389,8.54030093 8.57943366,9.2593486 C8.66965035,12.0289669 8.41900011,14.604396 8.18834972,15.1290439 Z" id="Path" fill="#58AA50" fill-rule="nonzero"></path>
                        </g>
                    </g>
                </g>
            </g>
        </g>
    </g>
</svg>