<?xml version="1.0" encoding="UTF-8"?>
<svg width="17px" height="20px" viewBox="0 0 17 20" version="1.1" xmlns="http://www.w3.org/2000/svg" xmlns:xlink="http://www.w3.org/1999/xlink">
    <!-- Generator: sketchtool 64 (101010) - https://sketch.com -->
    <title>1BD3ABD7-B551-43FB-B862-A6E52BC3D389</title>
    <desc>Created with sketchtool.</desc>
    <g id="-⚙-Design-Guideline" stroke="none" stroke-width="1" fill="none" fill-rule="evenodd">
        <g id="-⚙-Iconos" transform="translate(-564.000000, -545.000000)">
            <g id="Group" transform="translate(564.000000, 545.000000)">
                <rect id="Rectangle" fill="#47C8D1" x="0.5" y="0" width="16" height="19" rx="1"></rect>
                <circle id="Oval" stroke="#FFFFFF" stroke-width="1.5" cx="8.5" cy="10" r="5.25"></circle>
                <polyline id="Path-9" stroke="#FFFFFF" stroke-width="1.5" stroke-linecap="round" stroke-linejoin="round" points="2.5 5.25371184 2.5 2 5.55363188 2"></polyline>
                <polyline id="Path-9-Copy-2" stroke="#FFFFFF" stroke-width="1.5" stroke-linecap="round" stroke-linejoin="round" transform="translate(13.126856, 3.626856) scale(-1, 1) translate(-13.126856, -3.626856) " points="11.60004 5.25371184 11.60004 2 14.6536719 2"></polyline>
                <polyline id="Path-9-Copy" stroke="#FFFFFF" stroke-width="1.5" stroke-linecap="round" stroke-linejoin="round" transform="translate(4.026816, 15.626856) rotate(-90.000000) translate(-4.026816, -15.626856) " points="2.5 17.2537118 2.5 14 5.55363188 14"></polyline>
                <polyline id="Path-9-Copy-3" stroke="#FFFFFF" stroke-width="1.5" stroke-linecap="round" stroke-linejoin="round" transform="translate(13.126856, 15.626856) scale(-1, 1) rotate(-90.000000) translate(-13.126856, -15.626856) " points="11.60004 17.2537118 11.60004 14 14.6536719 14"></polyline>
                <line x1="8.5" y1="7.5" x2="8.5" y2="12.5" id="Line-8" stroke="#FFFFFF" stroke-width="1.5" stroke-linecap="round" stroke-linejoin="round"></line>
                <line x1="8.5" y1="7.5" x2="8.5" y2="12.5" id="Line-8-Copy" stroke="#FFFFFF" stroke-width="1.5" stroke-linecap="round" stroke-linejoin="round" transform="translate(8.500000, 10.000000) scale(1, -1) rotate(-90.000000) translate(-8.500000, -10.000000) "></line>
            </g>
        </g>
    </g>
</svg>