<?xml version="1.0" encoding="UTF-8"?>
<svg width="16px" height="20px" viewBox="0 0 16 20" version="1.1" xmlns="http://www.w3.org/2000/svg" xmlns:xlink="http://www.w3.org/1999/xlink">
    <!-- Generator: sketchtool 63.1 (101010) - https://sketch.com -->
    <title>7F1CD576-78A6-4AB8-B52A-BBA05B50C851</title>
    <desc>Created with sketchtool.</desc>
    <g id="-⚙-FIWOO-BI-Backup" stroke="none" stroke-width="1" fill="none" fill-rule="evenodd">
        <g id="Flow-Main-Editor---Transformación-2" transform="translate(-380.000000, -312.000000)">
            <g id="Group-19" transform="translate(365.000000, 211.000000)">
                <g id="Group-17" transform="translate(15.000000, 82.000000)">
                    <g id="Flow/Icon---Json" transform="translate(0.000000, 18.000000)">
                        <g id="Group" transform="translate(0.000000, 0.800000)">
                            <rect id="Rectangle" fill="#577EE8" x="0" y="0.2" width="16" height="19" rx="1"></rect>
                            <path d="M11.4210028,6.4133296 C11.2064382,6.20042637 11.2219053,6.60228531 10.9879245,6.43662101 C11.1442408,6.6997156 10.7694109,6.32016393 10.4567784,6.61934381 C10.2023943,6.86275551 10.2461628,7.28560953 10.2461628,7.28560953 C10.3057275,7.33776918 10.2162159,7.49982495 10.2738061,7.55690532 C10.9194745,8.2051284 11.2423086,8.98325852 11.2423086,9.89162375 C11.2423086,10.799989 10.9194745,11.5761508 10.2738061,12.2197812 C9.62353055,12.8676762 8.8429366,13.1917878 7.93169517,13.1917878 C7.02045375,13.1917878 6.24183432,12.8676762 5.59616597,12.2197812 C4.94621949,11.5761508 4.62108171,10.799989 4.62108171,9.89162375 C4.62108171,8.98325852 4.94621949,8.2051284 5.59616597,7.55690532 C6.23196172,6.92311637 7.02012467,6.552422 7.91326631,6.5429086 L8.03371209,5.73328586 L8.488181,5.10769811 C8.28052721,5.02437389 8.16468865,5.01092391 7.95144038,5.01092391 C6.59132453,5.01092391 5.41089009,5.45477301 4.44929838,6.4133296 C3.48309946,7.37647886 3,8.53580089 3,9.89162375 C3,11.2474466 3.48309946,12.4044723 4.44929838,13.3630289 C5.41089009,14.3261782 6.57157932,14.8077528 7.93169517,14.8077528 C9.29181103,14.8077528 10.4548039,14.3261782 11.4210028,13.3630289 C12.3825945,12.4044723 12.8633903,11.2474466 12.8633903,9.89162375 C12.8633903,8.53580089 12.3825945,7.37647886 11.4210028,6.4133296" id="Fill-10" fill="#FFFFFF"></path>
                            <path d="M8.81358205,5.50384901 C8.95838025,5.9053799 8.7349303,6.35349362 8.31402825,6.50439576 C7.89345529,6.65529789 7.43470825,6.45190806 7.28991005,6.05037717 C7.14478276,5.64884627 7.3685618,5.20073255 7.78913476,5.04983042 C8.21003681,4.89892829 8.66878385,5.10231812 8.81358205,5.50384901" id="Fill-14" fill="#FFFFFF"></path>
                            <path d="M11.5354592,6.61455431 C11.682561,7.02231812 11.4554911,7.47732085 11.0280073,7.63084737 C10.6008526,7.78404584 10.1348657,7.57770357 9.98776385,7.16961172 C9.84033295,6.76184791 10.0677319,6.30684518 10.4948866,6.15364671 C10.9223704,6.00012019 11.3883574,6.20679051 11.5354592,6.61455431" id="Fill-12" fill="#FFFFFF"></path>
                        </g>
                    </g>
                </g>
            </g>
        </g>
    </g>
</svg>