<?xml version="1.0" encoding="UTF-8"?>
<svg width="30px" height="30px" viewBox="0 0 30 30" version="1.1" xmlns="http://www.w3.org/2000/svg" xmlns:xlink="http://www.w3.org/1999/xlink">
    <!-- Generator: sketchtool 64 (101010) - https://sketch.com -->
    <title>4FECA5C3-B465-457F-B827-C4910AE2E4F1</title>
    <desc>Created with sketchtool.</desc>
    <g id="-⚙-Design-Guideline" stroke="none" stroke-width="1" fill="none" fill-rule="evenodd">
        <g id="-⚙-Iconos" transform="translate(-431.000000, -356.000000)">
            <g id="ICO-datasources" transform="translate(431.000000, 356.000000)">
                <g id="Group-4" transform="translate(3.000000, 3.000000)">
                    <rect id="Rectangle" x="0" y="0" width="24" height="24"></rect>
                    <g id="Group-3" transform="translate(2.000000, 3.500000)">
                        <g id="Group-2" fill="#577EE8" fill-rule="nonzero">
                            <path d="M16.5,8.88888889 C18.4329966,8.88888889 20,10.4558923 20,12.3888889 L20,13.1666667 C20,15.0996633 18.4329966,16.6666667 16.5,16.6666667 L3.5,16.6666667 C1.56700338,16.6666667 0,15.0996633 0,13.1666667 L0,12.3888889 C0,10.4558923 1.56700338,8.88888889 3.5,8.88888889 L16.5,8.88888889 Z M16.5,10.3888889 L3.5,10.3888889 C2.4456382,10.3888889 1.58183488,11.2047667 1.50548574,12.2396265 L1.5,12.3888889 L1.5,13.1666667 C1.5,14.2210285 2.31587779,15.0848318 3.35073766,15.1611809 L3.5,15.1666667 L16.5,15.1666667 C17.5543618,15.1666667 18.4181651,14.3507889 18.4945143,13.315929 L18.5,13.1666667 L18.5,12.3888889 C18.5,11.3345271 17.6841222,10.4707238 16.6492623,10.3943746 L16.5,10.3888889 Z M6.66666667,12.0277778 C7.08088023,12.0277778 7.41666667,12.3635642 7.41666667,12.7777778 C7.41666667,13.1574735 7.13451279,13.4712687 6.76843722,13.5209312 L6.66666667,13.5277778 L4.44444444,13.5277778 C4.03023088,13.5277778 3.69444444,13.1919913 3.69444444,12.7777778 C3.69444444,12.398082 3.97659833,12.0842868 4.34267389,12.0346244 L4.44444444,12.0277778 L6.66666667,12.0277778 Z M12.2222222,12.0277778 C12.6364358,12.0277778 12.9722222,12.3635642 12.9722222,12.7777778 C12.9722222,13.1574735 12.6900683,13.4712687 12.3239928,13.5209312 L12.2222222,13.5277778 L10,13.5277778 C9.58578644,13.5277778 9.25,13.1919913 9.25,12.7777778 C9.25,12.398082 9.53215388,12.0842868 9.89822944,12.0346244 L10,12.0277778 L12.2222222,12.0277778 Z M16.5,1.96238088e-13 C18.4329966,1.96238088e-13 20,1.56700338 20,3.5 L20,4.27777778 C20,6.2107744 18.4329966,7.77777778 16.5,7.77777778 L3.5,7.77777778 C1.56700338,7.77777778 0,6.2107744 0,4.27777778 L0,3.5 C0,1.56700338 1.56700338,1.96238088e-13 3.5,1.96238088e-13 L16.5,1.96238088e-13 Z M16.5,1.5 L3.5,1.5 C2.4456382,1.5 1.58183488,2.31587779 1.50548574,3.35073766 L1.5,3.5 L1.5,4.27777778 C1.5,5.33213957 2.31587779,6.1959429 3.35073766,6.27229204 L3.5,6.27777778 L16.5,6.27777778 C17.5543618,6.27777778 18.4181651,5.46189999 18.4945143,4.42704012 L18.5,4.27777778 L18.5,3.5 C18.5,2.4456382 17.6841222,1.58183488 16.6492623,1.50548574 L16.5,1.5 Z M6.66666667,3.13888889 C7.08088023,3.13888889 7.41666667,3.47467533 7.41666667,3.88888889 C7.41666667,4.26858465 7.13451279,4.58237985 6.76843722,4.63204227 L6.66666667,4.63888889 L4.44444444,4.63888889 C4.03023088,4.63888889 3.69444444,4.30310245 3.69444444,3.88888889 C3.69444444,3.50919312 3.97659833,3.19539793 4.34267389,3.1457355 L4.44444444,3.13888889 L6.66666667,3.13888889 Z M12.2222222,3.13888889 C12.6364358,3.13888889 12.9722222,3.47467533 12.9722222,3.88888889 C12.9722222,4.26858465 12.6900683,4.58237985 12.3239928,4.63204227 L12.2222222,4.63888889 L10,4.63888889 C9.58578644,4.63888889 9.25,4.30310245 9.25,3.88888889 C9.25,3.50919312 9.53215388,3.19539793 9.89822944,3.1457355 L10,3.13888889 L12.2222222,3.13888889 Z" id="Combined-Shape"></path>
                        </g>
                        <g id="Group-2-Copy" transform="translate(0.000000, 8.888889)"></g>
                    </g>
                </g>
            </g>
        </g>
    </g>
</svg>