<?xml version="1.0" encoding="UTF-8"?>
<svg width="30px" height="30px" viewBox="0 0 30 30" version="1.1" xmlns="http://www.w3.org/2000/svg" xmlns:xlink="http://www.w3.org/1999/xlink">
    <!-- Generator: sketchtool 64 (101010) - https://sketch.com -->
    <title>8F70CB7D-EFBE-47B9-88B9-E1EA4503B17D</title>
    <desc>Created with sketchtool.</desc>
    <g id="-⚙-Design-Guideline" stroke="none" stroke-width="1" fill="none" fill-rule="evenodd">
        <g id="-⚙-Iconos" transform="translate(-502.000000, -356.000000)">
            <g id="ICO-transformations" transform="translate(502.000000, 356.000000)">
                <g id="Group" transform="translate(4.000000, 4.000000)">
                    <path d="M8,12 C8.55228475,12 9,12.4477153 9,13 L9,21 C9,21.5522847 8.55228475,22 8,22 L1,22 C0.44771525,22 0,21.5522847 0,21 L0,13 C0,12.4477153 0.44771525,12 1,12 L8,12 Z M7.5,13.5 L1.5,13.5 L1.5,20.5 L7.5,20.5 L7.5,13.5 Z M17.5,11.6848887 C17.8796958,11.6848887 18.193491,11.9670426 18.2431534,12.3331182 L18.25,12.4348887 L18.25,16.4348887 C18.25,17.3530621 17.5428897,18.1060811 16.6435272,18.1790875 L16.5,18.1848887 L13.878,18.184 L14.5651888,19.024981 C14.8275346,19.3455236 14.7803567,19.818048 14.4598141,20.0803938 C14.3432531,20.1757922 14.2065954,20.2302619 14.0672551,20.2455416 L13.9625189,20.2496803 C13.7880274,20.2444219 13.6161468,20.1786082 13.4808891,20.0556349 L13.4044013,19.975019 L11.6815999,17.8670916 L11.6318507,17.7862588 L11.5939834,17.7030469 L11.5664214,17.6150789 L11.5477854,17.5044994 L11.54462,17.4348887 L11.5496658,17.3474229 L11.5679134,17.2486986 L11.599109,17.1537453 L11.6503243,17.0507865 L11.7008919,16.9765861 L13.4044013,14.8947585 L13.4808891,14.8141426 C13.5890952,14.715764 13.7207401,14.6539675 13.8584094,14.6304917 L13.9625189,14.6200972 C14.1370105,14.6148387 14.3141129,14.6701356 14.4598141,14.7893837 C14.7512165,15.0278798 14.8166976,15.4400773 14.6290907,15.7538797 L14.5651888,15.8447965 L13.878,16.684 L16.5,16.6848887 C16.6183467,16.6848887 16.7174868,16.6026553 16.7433973,16.4922114 L16.75,16.4348887 L16.75,12.4348887 C16.75,12.055193 17.0321539,11.7413978 17.3982294,11.6917354 L17.5,11.6848887 Z M5.5,5.75 C5.38165327,5.75 5.28251318,5.83223341 5.25660268,5.94267729 L5.25,6 L5.25,10 C5.25,10.3796958 4.96784612,10.693491 4.60177056,10.7431534 L4.5,10.75 C4.12030423,10.75 3.80650904,10.4678461 3.75684662,10.1017706 L3.75,10 L3.75,6 C3.75,5.0818266 4.45711027,4.32880766 5.35647279,4.2558012 L5.5,4.25 L8.122,4.25 L7.43481117,3.40990775 C7.17246541,3.08936511 7.21964331,2.61684071 7.54018594,2.35449496 C7.6567469,2.2590965 7.79340462,2.20462679 7.93274493,2.18934716 L8.03748105,2.18520841 L8.14159056,2.19560294 C8.27925992,2.21907871 8.41090477,2.28087523 8.51911095,2.37925382 L8.59559873,2.45986973 L10.33,4.585 L10.3684717,4.64924649 L10.4016232,4.72063543 L10.4235551,4.78357603 L10.4461357,4.88255794 L10.45538,5 L10.4503342,5.08746584 L10.4145643,5.24467004 L10.3845926,5.31848927 L10.3695194,5.34877074 L10.335,5.406 L10.2857738,5.47501901 L8.59559873,7.54013027 L8.51911095,7.62074618 C8.41090477,7.71912477 8.27925992,7.78092129 8.14159056,7.80439706 L8.03748105,7.81479159 C7.86298953,7.82005001 7.68588714,7.76475311 7.54018594,7.64550504 C7.24878355,7.4070089 7.18330243,6.9948114 7.3709093,6.68100902 L7.43481117,6.59009225 L8.121,5.75 L5.5,5.75 Z M21,0 C21.5522847,0 22,0.44771525 22,1 L22,9 C22,9.55228475 21.5522847,10 21,10 L14,10 C13.4477153,10 13,9.55228475 13,9 L13,1 C13,0.44771525 13.4477153,0 14,0 L21,0 Z M20.5,1.5 L14.5,1.5 L14.5,8.5 L20.5,8.5 L20.5,1.5 Z" id="Combined-Shape" fill="#47C8D1" fill-rule="nonzero"></path>
                    <g id="Group-23" transform="translate(3.500000, 1.934889)"></g>
                    <g id="Group-23-Copy" transform="translate(15.000000, 16.000000) rotate(-180.000000) translate(-15.000000, -16.000000) translate(11.500000, 11.500000)"></g>
                    <path d="M6,14.35 C6.41421356,14.35 6.75,14.6857864 6.75,15.1 C6.75,15.4796958 6.46784612,15.793491 6.10177056,15.8431534 L6,15.85 L3,15.85 C2.58578644,15.85 2.25,15.5142136 2.25,15.1 C2.25,14.7203042 2.53215388,14.406509 2.89822944,14.3568466 L3,14.35 L6,14.35 Z" id="Line-6" fill="#47C8D1" fill-rule="nonzero"></path>
                    <path d="M6,16.35 C6.41421356,16.35 6.75,16.6857864 6.75,17.1 C6.75,17.4796958 6.46784612,17.793491 6.10177056,17.8431534 L6,17.85 L3,17.85 C2.58578644,17.85 2.25,17.5142136 2.25,17.1 C2.25,16.7203042 2.53215388,16.406509 2.89822944,16.3568466 L3,16.35 L6,16.35 Z" id="Line-6-Copy" fill="#47C8D1" fill-rule="nonzero"></path>
                    <path d="M19,2.35 C19.4142136,2.35 19.75,2.68578644 19.75,3.1 C19.75,3.47969577 19.4678461,3.79349096 19.1017706,3.84315338 L19,3.85 L16,3.85 C15.5857864,3.85 15.25,3.51421356 15.25,3.1 C15.25,2.72030423 15.5321539,2.40650904 15.8982294,2.35684662 L16,2.35 L19,2.35 Z" id="Line-6" fill="#47C8D1" fill-rule="nonzero"></path>
                    <path d="M19,4.35 C19.4142136,4.35 19.75,4.68578644 19.75,5.1 C19.75,5.47969577 19.4678461,5.79349096 19.1017706,5.84315338 L19,5.85 L16,5.85 C15.5857864,5.85 15.25,5.51421356 15.25,5.1 C15.25,4.72030423 15.5321539,4.40650904 15.8982294,4.35684662 L16,4.35 L19,4.35 Z" id="Line-6-Copy" fill="#47C8D1" fill-rule="nonzero"></path>
                </g>
            </g>
        </g>
    </g>
</svg>