<?xml version="1.0" encoding="utf-8"?>
<!-- Generator: Adobe Illustrator 24.1.2, SVG Export Plug-In . SVG Version: 6.00 Build 0)  -->
<svg version="1.1" id="Capa_1" xmlns="http://www.w3.org/2000/svg" xmlns:xlink="http://www.w3.org/1999/xlink" x="0px" y="0px"
	 width="272px" height="181px" viewBox="0 0 272 181" style="enable-background:new 0 0 272 181;" xml:space="preserve">
<style type="text/css">
	.st0{fill:#E6E6E6;}
</style>
<g>
	<path class="st0" d="M14.5,176L14.5,176c-3.6,0-6.5-2.9-6.5-6.5V10.9c0-3.6,2.9-6.5,6.5-6.5h0c3.6,0,6.5,2.9,6.5,6.5v158.6
		C21,173.1,18.1,176,14.5,176z"/>
</g>
<g>
	<path class="st0" d="M36.5,176L36.5,176c-3.6,0-6.5-2.9-6.5-6.5V32.9c0-3.6,2.9-6.5,6.5-6.5h0c3.6,0,6.5,2.9,6.5,6.5v136.6
		C43,173.1,40.1,176,36.5,176z"/>
</g>
<g>
	<path class="st0" d="M58.5,176L58.5,176c-3.6,0-6.5-2.9-6.5-6.5V69.9c0-3.6,2.9-6.5,6.5-6.5h0c3.6,0,6.5,2.9,6.5,6.5v99.6
		C65,173.1,62.1,176,58.5,176z"/>
</g>
<g>
	<path class="st0" d="M80.5,176L80.5,176c-3.6,0-6.5-2.9-6.5-6.5V19.9c0-3.6,2.9-6.5,6.5-6.5h0c3.6,0,6.5,2.9,6.5,6.5v149.6
		C87,173.1,84.1,176,80.5,176z"/>
</g>
<g>
	<path class="st0" d="M102.5,176L102.5,176c-3.6,0-6.5-2.9-6.5-6.5v-48.6c0-3.6,2.9-6.5,6.5-6.5h0c3.6,0,6.5,2.9,6.5,6.5v48.6
		C109,173.1,106.1,176,102.5,176z"/>
</g>
<g>
	<path class="st0" d="M124.5,176L124.5,176c-3.6,0-6.5-2.9-6.5-6.5V10.9c0-3.6,2.9-6.5,6.5-6.5h0c3.6,0,6.5,2.9,6.5,6.5v158.6
		C131,173.1,128.1,176,124.5,176z"/>
</g>
<g>
	<path class="st0" d="M146.5,176L146.5,176c-3.6,0-6.5-2.9-6.5-6.5V65.9c0-3.6,2.9-6.5,6.5-6.5l0,0c3.6,0,6.5,2.9,6.5,6.5v103.6
		C153,173.1,150.1,176,146.5,176z"/>
</g>
<g>
	<path class="st0" d="M168.5,176L168.5,176c-3.6,0-6.5-2.9-6.5-6.5V21.9c0-3.6,2.9-6.5,6.5-6.5l0,0c3.6,0,6.5,2.9,6.5,6.5v147.6
		C175,173.1,172.1,176,168.5,176z"/>
</g>
<g>
	<path class="st0" d="M190.5,176L190.5,176c-3.6,0-6.5-2.9-6.5-6.5v-26.6c0-3.6,2.9-6.5,6.5-6.5l0,0c3.6,0,6.5,2.9,6.5,6.5v26.6
		C197,173.1,194.1,176,190.5,176z"/>
</g>
<g>
	<path class="st0" d="M212.5,176L212.5,176c-3.6,0-6.5-2.9-6.5-6.5V87.9c0-3.6,2.9-6.5,6.5-6.5l0,0c3.6,0,6.5,2.9,6.5,6.5v81.6
		C219,173.1,216.1,176,212.5,176z"/>
</g>
<g>
	<path class="st0" d="M234.5,176L234.5,176c-3.6,0-6.5-2.9-6.5-6.5V54.9c0-3.6,2.9-6.5,6.5-6.5l0,0c3.6,0,6.5,2.9,6.5,6.5v114.6
		C241,173.1,238.1,176,234.5,176z"/>
</g>
<g>
	<path class="st0" d="M256.5,176L256.5,176c-3.6,0-6.5-2.9-6.5-6.5V21.9c0-3.6,2.9-6.5,6.5-6.5l0,0c3.6,0,6.5,2.9,6.5,6.5v147.6
		C263,173.1,260.1,176,256.5,176z"/>
</g>
</svg>
