<?xml version="1.0" encoding="UTF-8"?>
<svg width="104px" height="104px" viewBox="0 0 104 104" version="1.1" xmlns="http://www.w3.org/2000/svg" xmlns:xlink="http://www.w3.org/1999/xlink">
    <!-- Generator: sketchtool 55.2 (78181) - https://sketchapp.com -->
    <title>4A68FCCD-3758-4CB0-814E-D745B976B36F</title>
    <desc>Created with sketchtool.</desc>
    <g id="-⚙-Design-Guideline" stroke="none" stroke-width="1" fill="none" fill-rule="evenodd">
        <g id="-⚙-Iconos" transform="translate(-600.000000, -514.000000)" fill="#577EE8" fill-rule="nonzero">
            <g id="Create-device-template" transform="translate(598.000000, 512.000000)">
                <g id="create-device-template" transform="translate(14.000000, 22.000000)">
                    <g id="Group">
                        <path d="M78.3906433,0 L1.32865497,0 C0.594859093,0 0,0.596953667 0,1.33333333 L0,62.6666667 C0,63.4030463 0.594859093,64 1.32865497,64 L78.3906433,64 C79.1244392,64 79.7192982,63.4030463 79.7192982,62.6666667 L79.7192982,1.33333333 C79.7192982,0.596953667 79.1244392,0 78.3906433,0 Z M38.3715556,24.1066667 L49.837848,30.4933333 C50.1835758,30.6876744 50.5977005,30.7170096 50.9672047,30.5733333 L77.0619883,20.6 L77.0619883,33.3333333 L6.16495906,33.3333333 L38.3715556,24.1066667 Z M2.65730994,31.56 L2.65730994,13.3333333 L77.0619883,13.3333333 L77.0619883,17.7466667 L50.5951813,27.8666667 L39.1820351,21.5066667 C38.8746139,21.3338834 38.5113903,21.2907187 38.1722573,21.3866667 L2.65730994,31.56 Z M77.0619883,2.66666667 L77.0619883,10.6666667 L2.65730994,10.6666667 L2.65730994,2.66666667 L77.0619883,2.66666667 Z M2.65730994,61.3333333 L2.65730994,36 L77.0619883,36 L77.0619883,61.3333333 L2.65730994,61.3333333 Z" id="Shape"></path>
                        <rect id="Rectangle" x="5.31461988" y="5.33333333" width="2.65730994" height="2.66666667"></rect>
                        <rect id="Rectangle" x="10.6292398" y="5.33333333" width="2.65730994" height="2.66666667"></rect>
                        <rect id="Rectangle" x="15.9438596" y="5.33333333" width="2.65730994" height="2.66666667"></rect>
                        <rect id="Rectangle" x="6.64327485" y="38.6666667" width="25.2444444" height="2.66666667"></rect>
                        <rect id="Rectangle" x="6.64327485" y="44" width="15.9438596" height="2.66666667"></rect>
                        <rect id="Rectangle" x="6.64327485" y="49.3333333" width="25.2444444" height="2.66666667"></rect>
                        <rect id="Rectangle" x="6.64327485" y="54.6666667" width="25.2444444" height="2.66666667"></rect>
                        <path d="M20.594152,14.6666667 C18.0258665,14.6666667 15.9438596,16.7560045 15.9438596,19.3333333 C15.9438596,21.9106622 18.0258665,24 20.594152,24 C23.1624376,24 25.2444444,21.9106622 25.2444444,19.3333333 C25.2444444,16.7560045 23.1624376,14.6666667 20.594152,14.6666667 Z M20.594152,21.3333333 C19.4934582,21.3333333 18.6011696,20.4379028 18.6011696,19.3333333 C18.6011696,18.2287638 19.4934582,17.3333333 20.594152,17.3333333 C21.6948459,17.3333333 22.5871345,18.2287638 22.5871345,19.3333333 C22.5871345,20.4379028 21.6948459,21.3333333 20.594152,21.3333333 Z" id="Shape"></path>
                    </g>
                </g>
            </g>
        </g>
    </g>
</svg>