<?xml version="1.0" encoding="UTF-8"?>
<svg width="104px" height="104px" viewBox="0 0 104 104" version="1.1" xmlns="http://www.w3.org/2000/svg" xmlns:xlink="http://www.w3.org/1999/xlink">
    <!-- Generator: sketchtool 55.2 (78181) - https://sketchapp.com -->
    <title>85E50AFA-9411-4FB5-91A8-DA1CCFFDC8DB</title>
    <desc>Created with sketchtool.</desc>
    <g id="-⚙-Design-Guideline" stroke="none" stroke-width="1" fill="none" fill-rule="evenodd">
        <g id="-⚙-Iconos" transform="translate(-468.000000, -517.000000)" fill="#577EE8" fill-rule="nonzero">
            <g id="Create-device" transform="translate(466.000000, 515.000000)">
                <g id="ico-createdevice" transform="translate(22.000000, 22.000000)">
                    <g id="Group">
                        <path d="M62.877193,10.6442105 L58.6329825,10.6442105 L58.6329825,6.15298246 L61.754386,6.15298246 L61.754386,3.90736842 L58.3859649,3.90736842 L58.3859649,0.538947368 L56.1403509,0.538947368 L56.1403509,3.90736842 L5.61403509,3.90736842 L5.61403509,0.538947368 L3.36842105,0.538947368 L3.36842105,3.90736842 L0,3.90736842 L0,6.15298246 L3.36842105,6.15298246 L3.36842105,55.5564912 L0,55.5564912 L0,57.8021053 L3.36842105,57.8021053 L3.36842105,61.1705263 L5.61403509,61.1705263 L5.61403509,58.0715789 L10.7340351,58.0715789 L10.7340351,62.3157895 C10.7340351,62.9358987 11.2367329,63.4385965 11.8568421,63.4385965 L62.877193,63.4385965 C63.4973022,63.4385965 64.0002249,62.9358987 64.0002249,62.3157895 L64.0002249,11.7894737 C64.0060344,11.4878152 63.8904083,11.1964217 63.6791836,10.9809724 C63.4679588,10.7655232 63.1789118,10.6441502 62.877193,10.6442105 Z M5.61403509,55.8259649 L5.61403509,6.1754386 L56.3873684,6.1754386 L56.3873684,55.8259649 L5.61403509,55.8259649 Z M61.754386,61.1929825 L12.9796491,61.1929825 L12.9796491,58.0715789 L57.5101754,58.0715789 C58.1302846,58.0715789 58.6329825,57.5688811 58.6329825,56.9487719 L58.6329825,12.8898246 L61.754386,12.8898246 L61.754386,61.1929825 Z" id="Shape"></path>
                        <polygon id="Path" points="31.8989474 22.8940351 29.6533333 22.8940351 29.6533333 28.8449123 23.6912281 28.8449123 23.6912281 31.0905263 29.6533333 31.0905263 29.6533333 37.0414035 31.8989474 37.0414035 31.8989474 31.0905263 37.8498246 31.0905263 37.8498246 28.8449123 31.8989474 28.8449123"></polygon>
                    </g>
                </g>
            </g>
        </g>
    </g>
</svg>