<svg width="65" height="58" viewBox="0 0 65 58" fill="none" xmlns="http://www.w3.org/2000/svg">
<path fill-rule="evenodd" clip-rule="evenodd" d="M0.100098 3.09687C0.100098 1.60751 1.30827 0.400146 2.8018 0.400146H62.1979C63.6901 0.400146 64.8996 1.58437 64.8996 3.09687V54.4034C64.8996 55.8928 63.6915 57.1001 62.1979 57.1001H2.8018C1.30966 57.1001 0.100098 55.9159 0.100098 54.4034V3.09687ZM2.79994 3.10003V54.3996H62.2007V3.10003H2.79994Z" fill="#396CE1"/>
<path fill-rule="evenodd" clip-rule="evenodd" d="M8.2002 8.50049H16.3002V11.2003H8.2002V8.50049Z" fill="#396CE1"/>
<path fill-rule="evenodd" clip-rule="evenodd" d="M18.9998 8.50049H32.5001V11.2003H18.9998V8.50049Z" fill="#396CE1"/>
<path fill-rule="evenodd" clip-rule="evenodd" d="M8.2002 13.8994H16.3002V16.5993H8.2002V13.8994Z" fill="#396CE1"/>
<path fill-rule="evenodd" clip-rule="evenodd" d="M18.9998 13.8994H32.5001V16.5993H18.9998V13.8994Z" fill="#396CE1"/>
<path fill-rule="evenodd" clip-rule="evenodd" d="M8.2002 19.2998H16.3002V21.9997H8.2002V19.2998Z" fill="#396CE1"/>
<path fill-rule="evenodd" clip-rule="evenodd" d="M18.9998 19.2998H32.5001V21.9997H18.9998V19.2998Z" fill="#396CE1"/>
<path fill-rule="evenodd" clip-rule="evenodd" d="M8.2002 24.7002H16.3002V27.4H8.2002V24.7002Z" fill="#396CE1"/>
<path fill-rule="evenodd" clip-rule="evenodd" d="M40.6001 35.5H46.0003V38.1998H40.6001V35.5Z" fill="#396CE1"/>
<path fill-rule="evenodd" clip-rule="evenodd" d="M40.6001 40.9004H46.0003V43.6002H40.6001V40.9004Z" fill="#396CE1"/>
<path fill-rule="evenodd" clip-rule="evenodd" d="M40.6001 46.2998H46.0003V48.9996H40.6001V46.2998Z" fill="#396CE1"/>
<path fill-rule="evenodd" clip-rule="evenodd" d="M48.7002 35.5H56.8002V38.1998H48.7002V35.5Z" fill="#396CE1"/>
<path fill-rule="evenodd" clip-rule="evenodd" d="M43.7717 26.6985C40.3269 25.2879 37.9006 21.9023 37.9006 17.9495C37.9006 15.1565 39.1125 12.6461 41.0389 10.9163L45.8958 18.2018L43.7717 26.6985ZM46.3916 27.3517C46.7067 27.3833 47.0267 27.3996 47.3503 27.3996C52.5696 27.3996 56.8005 23.1689 56.8005 17.9494C56.8005 17.6258 56.7842 17.3058 56.7526 16.9907L48.4636 19.0627L46.3916 27.3517ZM43.2845 9.41713C44.5158 8.82907 45.8949 8.5 47.3503 8.5C51.3031 8.5 54.6887 10.9264 56.0994 14.3711L47.946 16.4092L43.2845 9.41713Z" fill="#396CE1"/>
<path fill-rule="evenodd" clip-rule="evenodd" d="M0.100098 3.09687C0.100098 1.60751 1.30827 0.400146 2.8018 0.400146H62.1979C63.6901 0.400146 64.8996 1.58437 64.8996 3.09687V54.4034C64.8996 55.8928 63.6915 57.1001 62.1979 57.1001H2.8018C1.30966 57.1001 0.100098 55.9159 0.100098 54.4034V3.09687ZM2.79994 3.10003V54.3996H62.2007V3.10003H2.79994Z" fill="#396CE1"/>
<path fill-rule="evenodd" clip-rule="evenodd" d="M48.7002 40.9004H56.8002V43.6002H48.7002V40.9004Z" fill="#396CE1"/>
<path fill-rule="evenodd" clip-rule="evenodd" d="M48.7002 46.2998H56.8002V48.9996H48.7002V46.2998Z" fill="#396CE1"/>
<path fill-rule="evenodd" clip-rule="evenodd" d="M8.2002 32.8003H10.9V49.0003H8.2002V32.8003Z" fill="#396CE1"/>
<path fill-rule="evenodd" clip-rule="evenodd" d="M13.6006 43.6001H16.3004V49.0003H13.6006V43.6001Z" fill="#396CE1"/>
<path fill-rule="evenodd" clip-rule="evenodd" d="M18.9998 38.1997H21.6996V48.9995H18.9998V38.1997Z" fill="#396CE1"/>
<path fill-rule="evenodd" clip-rule="evenodd" d="M24.4001 38.1997H27.1V48.9995H24.4001V38.1997Z" fill="#396CE1"/>
<path fill-rule="evenodd" clip-rule="evenodd" d="M29.8005 40.9004H32.5004V49.0004H29.8005V40.9004Z" fill="#396CE1"/>
<path fill-rule="evenodd" clip-rule="evenodd" d="M18.9998 24.7002H32.5001V27.4H18.9998V24.7002Z" fill="#396CE1"/>
</svg>
