<svg width="65" height="58" viewBox="0 0 65 58" fill="none" xmlns="http://www.w3.org/2000/svg">
<path fill-rule="evenodd" clip-rule="evenodd" d="M0.0996094 3.09711C0.0996094 1.60775 1.30778 0.400391 2.80131 0.400391H62.1975C63.6896 0.400391 64.8992 1.58461 64.8992 3.09711V54.4037C64.8992 55.893 63.691 57.1004 62.1975 57.1004H2.80131C1.30917 57.1004 0.0996094 55.9162 0.0996094 54.4037V3.09711ZM2.79946 3.10028V54.3999H62.2002V3.10028H2.79946Z" fill="#396CE1"/>
<path fill-rule="evenodd" clip-rule="evenodd" d="M8.19922 8.50098H16.2992V11.2008H8.19922V8.50098Z" fill="#396CE1"/>
<path fill-rule="evenodd" clip-rule="evenodd" d="M18.999 8.50098H32.4994V11.2008H18.999V8.50098Z" fill="#396CE1"/>
<path fill-rule="evenodd" clip-rule="evenodd" d="M8.19922 13.8999H16.2992V16.5997H8.19922V13.8999Z" fill="#396CE1"/>
<path fill-rule="evenodd" clip-rule="evenodd" d="M18.999 13.8999H32.4994V16.5997H18.999V13.8999Z" fill="#396CE1"/>
<path fill-rule="evenodd" clip-rule="evenodd" d="M8.19922 19.3003H16.2992V22.0002H8.19922V19.3003Z" fill="#396CE1"/>
<path fill-rule="evenodd" clip-rule="evenodd" d="M18.999 19.3003H32.4994V22.0002H18.999V19.3003Z" fill="#396CE1"/>
<path fill-rule="evenodd" clip-rule="evenodd" d="M8.19922 24.7007H16.2992V27.4005H8.19922V24.7007Z" fill="#396CE1"/>
<path fill-rule="evenodd" clip-rule="evenodd" d="M40.5996 35.5H45.9998V38.1998H40.5996V35.5Z" fill="#396CE1"/>
<path fill-rule="evenodd" clip-rule="evenodd" d="M40.5996 40.9004H45.9998V43.6002H40.5996V40.9004Z" fill="#396CE1"/>
<path fill-rule="evenodd" clip-rule="evenodd" d="M40.5996 46.2998H45.9998V48.9996H40.5996V46.2998Z" fill="#396CE1"/>
<path fill-rule="evenodd" clip-rule="evenodd" d="M48.6992 35.5H56.7992V38.1998H48.6992V35.5Z" fill="#396CE1"/>
<path fill-rule="evenodd" clip-rule="evenodd" d="M43.7715 26.699C40.3267 25.2883 37.9004 21.9028 37.9004 17.95C37.9004 15.157 39.1123 12.6466 41.0387 10.9168L45.8956 18.2022L43.7715 26.699ZM46.3914 27.3522C46.7064 27.3838 47.0265 27.4001 47.3501 27.4001C52.5694 27.4001 56.8003 23.1693 56.8003 17.9499C56.8003 17.6263 56.784 17.3063 56.7523 16.9912L48.4634 19.0632L46.3914 27.3522ZM43.2842 9.41762C44.5155 8.82956 45.8946 8.50049 47.3501 8.50049C51.3029 8.50049 54.6884 10.9269 56.0991 14.3716L47.9458 16.4097L43.2842 9.41762Z" fill="#396CE1"/>
<path fill-rule="evenodd" clip-rule="evenodd" d="M0.0996094 3.09711C0.0996094 1.60775 1.30778 0.400391 2.80131 0.400391H62.1975C63.6896 0.400391 64.8992 1.58461 64.8992 3.09711V54.4037C64.8992 55.893 63.691 57.1004 62.1975 57.1004H2.80131C1.30917 57.1004 0.0996094 55.9162 0.0996094 54.4037V3.09711ZM2.79946 3.10028V54.3999H62.2002V3.10028H2.79946Z" fill="#396CE1"/>
<path fill-rule="evenodd" clip-rule="evenodd" d="M48.6992 40.9004H56.7992V43.6002H48.6992V40.9004Z" fill="#396CE1"/>
<path fill-rule="evenodd" clip-rule="evenodd" d="M48.6992 46.2998H56.7992V48.9996H48.6992V46.2998Z" fill="#396CE1"/>
<path fill-rule="evenodd" clip-rule="evenodd" d="M8.19922 32.8008H10.8991V49.0008H8.19922V32.8008Z" fill="#396CE1"/>
<path fill-rule="evenodd" clip-rule="evenodd" d="M13.5996 43.6006H16.2995V49.0007H13.5996V43.6006Z" fill="#396CE1"/>
<path fill-rule="evenodd" clip-rule="evenodd" d="M18.999 38.2002H21.6989V49H18.999V38.2002Z" fill="#396CE1"/>
<path fill-rule="evenodd" clip-rule="evenodd" d="M24.3994 38.2002H27.0993V49H24.3994V38.2002Z" fill="#396CE1"/>
<path fill-rule="evenodd" clip-rule="evenodd" d="M29.7998 40.9004H32.4997V49.0004H29.7998V40.9004Z" fill="#396CE1"/>
<path fill-rule="evenodd" clip-rule="evenodd" d="M18.999 24.7007H32.4994V27.4005H18.999V24.7007Z" fill="#396CE1"/>
</svg>
