<svg width="59" height="78" viewBox="0 0 59 78" fill="none" xmlns="http://www.w3.org/2000/svg">
<path d="M19.3225 8.11483C18.9561 8.11483 18.7118 7.99268 18.4675 7.7484C17.9789 7.25983 17.9789 6.52697 18.4675 6.0384C25.1854 -0.679465 35.9339 -0.679465 42.6518 6.0384C43.1404 6.52697 43.1404 7.25983 42.6518 7.7484C42.1632 8.23697 41.4304 8.23697 40.9418 7.7484C35.2011 2.00768 25.9182 2.00768 20.1775 7.7484C19.9332 7.99268 19.6889 8.11483 19.3225 8.11483Z" fill="#396CE1" stroke="#396CE1" stroke-width="0.3"/>
<path d="M37.5216 12.3899C37.1552 12.3899 36.9109 12.2677 36.6666 12.0235C33.3688 8.7256 27.8723 8.7256 24.5745 12.0235C24.0859 12.512 23.353 12.512 22.8645 12.0235C22.3759 11.5349 22.3759 10.802 22.8645 10.3135C27.1395 6.03846 34.1016 6.03846 38.3766 10.3135C38.8652 10.802 38.8652 11.5349 38.3766 12.0235C38.1323 12.2677 37.7659 12.3899 37.5216 12.3899Z" fill="#396CE1" stroke="#396CE1" stroke-width="0.3"/>
<path d="M33.1239 16.7868C32.7575 16.7868 32.5132 16.6647 32.2689 16.4204C31.2917 15.4433 29.7039 15.4433 28.8489 16.4204C28.3603 16.909 27.6275 16.909 27.1389 16.4204C26.6503 15.9318 26.6503 15.199 27.1389 14.7104C29.0932 12.7561 32.1467 12.7561 34.101 14.7104C34.5896 15.199 34.5896 15.9318 34.101 16.4204C33.7346 16.6647 33.4903 16.7868 33.1239 16.7868Z" fill="#396CE1" stroke="#396CE1" stroke-width="0.3"/>
<path fill-rule="evenodd" clip-rule="evenodd" d="M29.5 20.7868C13.7852 20.7868 1 33.5721 1 49.2868C1 53.6278 1.95119 57.7965 3.82684 61.6772C3.88503 61.7972 3.96341 61.9076 4.05781 62.0014C4.28047 62.2241 4.58269 62.3493 4.89737 62.3493H16.4375V64.2155C16.4375 67.8635 19.1011 70.8317 22.375 70.8317H36.625C39.8989 70.8317 42.5625 67.8635 42.5625 64.2155V34.3576C42.5625 30.7096 39.8989 27.742 36.625 27.742H22.375C19.1011 27.742 16.4375 30.7102 16.4375 34.3576V54.136C16.4375 54.7915 16.9695 55.3235 17.625 55.3235C18.2805 55.3235 18.8125 54.7915 18.8125 54.136V34.3576C18.8125 32.0194 20.4103 30.117 22.375 30.117H23.4141V30.2019C23.4141 32.7278 25.2784 34.7827 27.5703 34.7827H31.4297C33.721 34.7827 35.5859 32.7278 35.5859 30.2019V30.117H36.625C38.5897 30.117 40.1875 32.0194 40.1875 34.3576V59.9743H5.65322C4.14094 56.6102 3.375 53.018 3.375 49.2868C3.375 34.8813 15.0944 23.1618 29.5 23.1618C43.9056 23.1618 55.625 34.8813 55.625 49.2868C55.625 63.6924 43.9056 75.4118 29.5 75.4118C22.3786 75.4118 15.7226 72.5981 10.7595 67.4883C10.3029 67.0186 9.55059 67.0061 9.08034 67.4639C8.61009 67.9211 8.59881 68.6728 9.056 69.143C14.4704 74.7172 21.7314 77.7868 29.5 77.7868C45.2148 77.7868 58 65.0016 58 49.2868C58 33.5721 45.2148 20.7868 29.5 20.7868ZM33.2095 30.2021C33.2095 31.3979 32.3937 32.4079 31.4283 32.4079H27.5689C26.6035 32.4079 25.7877 31.3979 25.7877 30.2021V30.1172H33.2095V30.2021ZM36.625 68.457C38.5897 68.457 40.1875 66.554 40.1875 64.2158V62.3497H18.8125V64.2158C18.8125 66.5546 20.4103 68.457 22.375 68.457H36.625Z" fill="#396CE1"/>
<path d="M3.82684 61.6772L3.69179 61.7425L3.69189 61.7427L3.82684 61.6772ZM4.05781 62.0014L4.16388 61.8953L4.16354 61.895L4.05781 62.0014ZM16.4375 62.3493H16.5875V62.1993H16.4375V62.3493ZM23.4141 30.117H23.5641V29.967H23.4141V30.117ZM35.5859 30.117V29.967H35.4359V30.117H35.5859ZM40.1875 59.9743V60.1244H40.3375V59.9743H40.1875ZM5.65322 59.9743L5.51641 60.0359L5.55619 60.1244H5.65322V59.9743ZM10.7595 67.4883L10.8671 67.3837L10.867 67.3837L10.7595 67.4883ZM9.08034 67.4639L9.18491 67.5715L9.18497 67.5714L9.08034 67.4639ZM9.056 69.143L9.1636 69.0385L9.16355 69.0385L9.056 69.143ZM25.7877 30.1172V29.9672H25.6377V30.1172H25.7877ZM33.2095 30.1172H33.3595V29.9672H33.2095V30.1172ZM40.1875 62.3497H40.3375V62.1997H40.1875V62.3497ZM18.8125 62.3497V62.1997H18.6625V62.3497H18.8125ZM1.15 49.2868C1.15 33.6549 13.8681 20.9368 29.5 20.9368V20.6368C13.7024 20.6368 0.85 33.4892 0.85 49.2868H1.15ZM3.9619 61.6119C2.09615 57.7517 1.15 53.6053 1.15 49.2868H0.85C0.85 53.6502 1.80623 57.8412 3.69179 61.7425L3.9619 61.6119ZM4.16354 61.895C4.08134 61.8133 4.01276 61.7168 3.9618 61.6117L3.69189 61.7427C3.75731 61.8775 3.84548 62.0019 3.95208 62.1078L4.16354 61.895ZM4.89737 62.1993C4.62251 62.1993 4.35844 62.0899 4.16388 61.8953L3.95175 62.1075C4.2025 62.3582 4.54286 62.4993 4.89737 62.4993V62.1993ZM16.4375 62.1993H4.89737V62.4993H16.4375V62.1993ZM16.5875 64.2155V62.3493H16.2875V64.2155H16.5875ZM22.375 70.6817C19.1988 70.6817 16.5875 67.7963 16.5875 64.2155H16.2875C16.2875 67.9307 19.0034 70.9817 22.375 70.9817V70.6817ZM36.625 70.6817H22.375V70.9817H36.625V70.6817ZM42.4125 64.2155C42.4125 67.7963 39.8012 70.6817 36.625 70.6817V70.9817C39.9966 70.9817 42.7125 67.9307 42.7125 64.2155H42.4125ZM42.4125 34.3576V64.2155H42.7125V34.3576H42.4125ZM36.625 27.892C39.8013 27.892 42.4125 30.7768 42.4125 34.3576H42.7125C42.7125 30.6424 39.9966 27.592 36.625 27.592V27.892ZM22.375 27.892H36.625V27.592H22.375V27.892ZM16.5875 34.3576C16.5875 30.7774 19.1988 27.892 22.375 27.892V27.592C19.0034 27.592 16.2875 30.643 16.2875 34.3576H16.5875ZM16.5875 54.136V34.3576H16.2875V54.136H16.5875ZM17.625 55.1735C17.0523 55.1735 16.5875 54.7087 16.5875 54.136H16.2875C16.2875 54.8743 16.8867 55.4735 17.625 55.4735V55.1735ZM18.6625 54.136C18.6625 54.7087 18.1977 55.1735 17.625 55.1735V55.4735C18.3633 55.4735 18.9625 54.8743 18.9625 54.136H18.6625ZM18.6625 34.3576V54.136H18.9625V34.3576H18.6625ZM22.375 29.967C20.304 29.967 18.6625 31.9621 18.6625 34.3576H18.9625C18.9625 32.0767 20.5166 30.267 22.375 30.267V29.967ZM23.4141 29.967H22.375V30.267H23.4141V29.967ZM23.5641 30.2019V30.117H23.2641V30.2019H23.5641ZM27.5703 34.6327C25.3747 34.6327 23.5641 32.659 23.5641 30.2019H23.2641C23.2641 32.7965 25.1822 34.9327 27.5703 34.9327V34.6327ZM31.4297 34.6327H27.5703V34.9327H31.4297V34.6327ZM35.4359 30.2019C35.4359 32.659 33.6247 34.6327 31.4297 34.6327V34.9327C33.8172 34.9327 35.7359 32.7965 35.7359 30.2019H35.4359ZM35.4359 30.117V30.2019H35.7359V30.117H35.4359ZM36.625 29.967H35.5859V30.267H36.625V29.967ZM40.3375 34.3576C40.3375 31.9621 38.696 29.967 36.625 29.967V30.267C38.4834 30.267 40.0375 32.0767 40.0375 34.3576H40.3375ZM40.3375 59.9743V34.3576H40.0375V59.9743H40.3375ZM5.65322 60.1244H40.1875V59.8243H5.65322V60.1244ZM3.225 49.2868C3.225 53.0389 3.99533 56.6521 5.51641 60.0359L5.79003 59.9128C4.28654 56.5682 3.525 52.997 3.525 49.2868H3.225ZM29.5 23.0118C15.0116 23.0118 3.225 34.7984 3.225 49.2868H3.525C3.525 34.9641 15.1773 23.3118 29.5 23.3118V23.0118ZM55.775 49.2868C55.775 34.7984 43.9884 23.0118 29.5 23.0118V23.3118C43.8227 23.3118 55.475 34.9641 55.475 49.2868H55.775ZM29.5 75.5618C43.9884 75.5618 55.775 63.7753 55.775 49.2868H55.475C55.475 63.6096 43.8227 75.2618 29.5 75.2618V75.5618ZM10.6519 67.5928C15.6433 72.7317 22.338 75.5618 29.5 75.5618V75.2618C22.4191 75.2618 15.802 72.4645 10.8671 67.3837L10.6519 67.5928ZM9.18497 67.5714C9.59556 67.1717 10.2528 67.1823 10.6519 67.5928L10.867 67.3837C10.3529 66.8549 9.50563 66.8406 8.97571 67.3564L9.18497 67.5714ZM9.16355 69.0385C8.76422 68.6277 8.77394 67.971 9.18491 67.5715L8.97578 67.3564C8.44625 67.8712 8.4334 68.7178 8.94845 69.2476L9.16355 69.0385ZM29.5 77.6368C21.7719 77.6368 14.5498 74.5836 9.1636 69.0385L8.9484 69.2476C14.391 74.8507 21.6908 77.9369 29.5 77.9369V77.6368ZM57.85 49.2868C57.85 64.9188 45.1319 77.6368 29.5 77.6368V77.9369C45.2976 77.9369 58.15 65.0845 58.15 49.2868H57.85ZM29.5 20.9368C45.1319 20.9368 57.85 33.6549 57.85 49.2868H58.15C58.15 33.4892 45.2976 20.6368 29.5 20.6368V20.9368ZM31.4283 32.5579C32.5049 32.5579 33.3595 31.4492 33.3595 30.2021H33.0595C33.0595 31.3466 32.2825 32.2579 31.4283 32.2579V32.5579ZM27.5689 32.5579H31.4283V32.2579H27.5689V32.5579ZM25.6377 30.2021C25.6377 31.4492 26.4923 32.5579 27.5689 32.5579V32.2579C26.7147 32.2579 25.9377 31.3466 25.9377 30.2021H25.6377ZM25.6377 30.1172V30.2021H25.9377V30.1172H25.6377ZM33.2095 29.9672H25.7877V30.2672H33.2095V29.9672ZM33.3595 30.2021V30.1172H33.0595V30.2021H33.3595ZM40.0375 64.2158C40.0375 66.4968 38.4834 68.307 36.625 68.307V68.607C38.696 68.607 40.3375 66.6113 40.3375 64.2158H40.0375ZM40.0375 62.3497V64.2158H40.3375V62.3497H40.0375ZM18.8125 62.4997H40.1875V62.1997H18.8125V62.4997ZM18.9625 64.2158V62.3497H18.6625V64.2158H18.9625ZM22.375 68.307C20.5166 68.307 18.9625 66.4973 18.9625 64.2158H18.6625C18.6625 66.6119 20.304 68.607 22.375 68.607V68.307ZM36.625 68.307H22.375V68.607H36.625V68.307Z" fill="#396CE1"/>
<circle cx="29.4978" cy="65.5731" r="1.35672" fill="#396CE1" stroke="#396CE1" stroke-width="0.3"/>
</svg>
