<?xml version="1.0" encoding="UTF-8"?>
<svg width="426px" height="387px" viewBox="0 0 426 387" version="1.1" xmlns="http://www.w3.org/2000/svg" xmlns:xlink="http://www.w3.org/1999/xlink">
    <title>66B8A9AB-7587-41DC-8D9E-FCAD37F04B1A</title>
    <defs>
        <polygon id="path-1" points="0.103546695 0.288766792 371.991974 0.288766792 371.991974 385.278746 0.103546695 385.278746"></polygon>
        <polygon id="path-3" points="0 0.185635839 9.27673578 0.185635839 9.27673578 9.45312143 0 9.45312143"></polygon>
    </defs>
    <g id="✅-Dashboard-publicos" stroke="none" stroke-width="1" fill="none" fill-rule="evenodd">
        <g id="Dashboard-publicos-Logged-Copy" transform="translate(-494.000000, -142.000000)">
            <g id="Group-173" transform="translate(494.000000, 142.000000)">
                <g id="Group-3" transform="translate(52.981637, 0.176141)">
                    <mask id="mask-2" fill="white">
                        <use xlink:href="#path-1"></use>
                    </mask>
                    <g id="Clip-2"></g>
                    <path d="M355.720245,265.692267 C363.767412,247.225843 375.679915,211.872219 370.892512,167.900713 C364.749431,111.4841 334.337042,67.0060158 304.754234,42.0126256 C206.58902,-40.9240854 26.886926,12.6552217 3.09027017,90.7798988 C-1.2272685,104.953416 -0.0133383595,118.623143 1.480372,135.443884 C6.23059404,188.942324 31.2532635,204.844251 48.0819045,261.648467 C63.3963861,313.343672 48.2970843,319.160498 62.6179279,342.14291 C93.6837572,391.996772 183.357502,394.509681 245.060195,370.607992 C268.760183,361.426832 326.271285,333.265697 355.720245,265.692267" id="Fill-1" fill="#EBF2FC" mask="url(#mask-2)"></path>
                </g>
                <path d="M337.102033,8.90003199 L391.561579,18.654695 C394.054039,19.1013209 395.866104,21.2721737 395.861003,23.8041383 L395.685781,104.855818 C395.678345,108.100711 392.743906,110.552739 389.549671,109.982954 L335.221185,100.292891 C332.730583,99.848589 330.916659,97.6819189 330.918052,95.1518133 L330.96174,14.035068 C330.963599,10.7850629 333.902685,8.32699376 337.102033,8.90003199" id="Fill-4" fill="#FFFFFF"></path>
                <path d="M395.703813,97.1714361 L395.702419,97.1714361 C395.31714,97.1705066 395.005757,96.8577291 395.006686,96.4729151 L395.163772,23.8025581 C395.16842,21.6047497 393.602208,19.7285491 391.438327,19.3409466 L336.979245,9.58628362 C335.658422,9.34972526 334.30925,9.70758368 333.280291,10.5683029 C332.250867,11.4299516 331.659703,12.6931454 331.658774,14.0353469 L331.640184,48.3256201 C331.640184,48.7108988 331.327871,49.0222821 330.943057,49.0222821 L330.942592,49.0222821 C330.557778,49.0222821 330.24593,48.7099693 330.24593,48.3246906 L330.26452,14.0344174 C330.26545,12.2785873 331.038796,10.6254673 332.386109,9.49891039 C333.732494,8.37281823 335.496689,7.90434902 337.225099,8.21387332 L391.684645,17.9685363 C394.514515,18.4755799 396.564532,20.9303957 396.558041,23.8053466 L396.40094,96.4757036 C396.40001,96.8600528 396.088162,97.1714361 395.703813,97.1714361" id="Fill-6" fill="#000000"></path>
                <path d="M369.414046,29.7707072 C369.372218,29.7707072 369.329926,29.7669892 369.287634,29.7595531 L340.362913,24.4567419 C339.984606,24.387494 339.73364,24.0240586 339.802888,23.6452863 C339.8726,23.2665141 340.233712,23.0160132 340.614343,23.0852611 L369.539064,28.3876076 C369.917371,28.4573203 370.168337,28.8207557 370.099089,29.1995279 C370.037277,29.5355431 369.744019,29.7707072 369.414046,29.7707072" id="Fill-8" fill="#000000"></path>
                <path d="M385.913178,41.5778509 C385.871351,41.5778509 385.829058,41.5741329 385.786766,41.5666969 L340.362913,33.2388201 C339.984606,33.1691074 339.73364,32.8056719 339.802888,32.4273645 C339.8726,32.0481275 340.233712,31.7976266 340.614343,31.8668745 L386.038196,40.1947513 C386.416504,40.264464 386.66747,40.6278994 386.598222,41.0066717 C386.53641,41.3426868 386.243152,41.5778509 385.913178,41.5778509" id="Fill-10" fill="#000000"></path>
                <path d="M385.913178,50.3595572 C385.871351,50.3595572 385.829058,50.3558392 385.786766,50.3484032 L340.362913,42.0205264 C339.984606,41.9508137 339.73364,41.5873783 339.802888,41.2090708 C339.8726,40.8298338 340.233712,40.5793329 340.614343,40.6485809 L386.038196,48.9764576 C386.416504,49.0461703 386.66747,49.4096058 386.598222,49.788378 C386.53641,50.1243931 386.243152,50.3595572 385.913178,50.3595572" id="Fill-12" fill="#000000"></path>
                <path d="M374.250386,57.0031292 C374.208559,57.0031292 374.166266,56.9994112 374.123974,56.9919751 L340.363052,50.8024186 C339.984745,50.7331707 339.733315,50.3697353 339.803027,49.990963 C339.872275,49.6121908 340.233852,49.3612252 340.614483,49.4309378 L374.375404,55.6200296 C374.753712,55.6897423 375.004678,56.0531777 374.93543,56.43195 C374.873618,56.7679651 374.58036,57.0031292 374.250386,57.0031292" id="Fill-14" fill="#000000"></path>
                <path d="M310.055279,231.690139 L246.072981,222.130672 C245.658423,222.130672 245.522715,222.515486 245.522715,222.885428 L245.522715,277.321271 C245.522715,282.532991 209.169876,296.073982 208.815271,295.385686 L208.771113,301.146277 C208.768331,302.218923 209.662977,302.945794 210.913623,303.171198 L265.374098,313.131746 C267.863306,313.131746 270.322304,312.574509 272.575418,311.631529 L302.070853,299.211518 C307.380636,296.976529 310.729633,292.17472 310.729633,286.936509 L310.729633,232.44536 C310.729633,232.075418 310.469837,231.690139 310.055279,231.690139" id="Fill-16" fill="#99B9FF"></path>
                <path d="M239.042736,218.959396 L239.042736,273.406858 C239.042736,278.77427 235.588705,283.665311 230.16134,285.981631 L210.264877,294.47403 C208.964968,295.028943 209.272633,296.527766 210.848604,296.770366 L265.516359,306.731378 C267.974892,306.731378 270.402753,306.245713 272.626122,305.310169 L294.670666,296.028158 C300.138929,293.726245 303.627351,288.816614 303.627351,283.422246 L303.627351,228.920873 C303.627351,228.697792 303.42472,228.516539 303.174684,228.516539 L239.495404,218.555992 C239.245832,218.555992 239.042736,218.73678 239.042736,218.959396" id="Fill-18" fill="#FFFFFF"></path>
                <path d="M262.378777,306.856861 C262.336949,306.856861 262.295122,306.853143 262.252829,306.845707 L210.72354,297.455874 C209.655077,297.292281 208.879872,296.611421 208.768331,295.72514 C208.66748,294.92298 209.135485,294.197968 209.991092,293.833138 L229.887555,285.340275 C235.025845,283.147114 238.345563,278.462886 238.345563,273.406858 L238.345563,261.98885 C238.345563,261.604036 238.657875,261.291724 239.042689,261.291724 C239.427503,261.291724 239.739816,261.604036 239.739816,261.98885 L239.739816,273.406858 C239.739816,279.022447 236.087801,284.21 230.435032,286.622988 L210.538569,295.115387 C210.275984,295.227392 210.131447,295.390055 210.151896,295.550859 C210.176992,295.750702 210.439112,296.002132 210.954986,296.08114 L262.502865,305.473761 C262.881638,305.543009 263.132603,305.90598 263.06382,306.284752 C263.002473,306.621232 262.709215,306.856861 262.378777,306.856861" id="Fill-20" fill="#000000"></path>
                <path d="M409.517009,275.320936 L402.37936,281.984074 L143.919133,237.258277 C140.350773,236.640623 137.763968,233.515636 137.8229,229.894759 L140.555264,64.8606778 L149.119699,60.2642884 C150.691487,59.4254124 152.500299,59.1419142 154.253341,59.4584098 L405.455083,104.778158 C409.22468,105.458554 411.966712,108.740162 411.966712,112.571107 L412.021088,269.542219 C412.021088,271.731662 411.114823,273.823507 409.517009,275.320936" id="Fill-22" fill="#2B334A"></path>
                <path d="M396.627413,282.85274 L143.288744,237.109138 C140.13959,236.540748 137.848832,233.79918 137.848832,230.598904 L137.848832,71.3249487 C137.848832,67.2007465 141.581248,64.0818012 145.639456,64.8151786 L398.978125,110.558316 C402.127279,111.126706 404.418038,113.867809 404.418038,117.068551 L404.418038,276.342505 C404.418038,280.466708 400.685621,283.585188 396.627413,282.85274" id="Fill-24" fill="#E4EDFF"></path>
                <path d="M397.430317,283.731864 C396.99624,283.731864 396.559838,283.693289 396.124366,283.614746 L152.569175,239.637664 C152.190403,239.569345 151.938508,239.206375 152.006826,238.827603 C152.075609,238.44883 152.439974,238.199724 152.816888,238.265254 L396.372544,282.242336 C398.100953,282.555114 399.869796,282.087574 401.218969,280.959623 C402.568607,279.831672 403.342417,278.177157 403.342417,276.418539 L403.342417,117.144119 C403.342417,114.278463 401.295188,111.829224 398.475543,111.319857 L379.608038,107.913231 C379.229266,107.844912 378.977836,107.482406 379.045689,107.103169 C379.114937,106.724397 379.480232,106.47622 379.856215,106.54082 L398.723255,109.947447 C402.207495,110.577185 404.736671,113.603644 404.736671,117.144119 L404.736671,276.418539 C404.736671,278.590786 403.780213,280.636156 402.11315,282.02948 C400.785356,283.139306 399.129912,283.731864 397.430317,283.731864" id="Fill-26" fill="#000000"></path>
                <path d="M137.470059,100.317616 C137.084781,100.317616 136.772933,100.005303 136.772933,99.6204891 L136.772933,71.4007961 C136.772933,69.2276195 137.729391,67.1827142 139.396918,65.7893901 C141.06398,64.396066 143.247846,63.8193097 145.384772,64.2045885 L224.549098,78.4984764 C224.92787,78.5667949 225.179765,78.9293008 225.111447,79.3085378 C225.043128,79.68731 224.679693,79.9364167 224.301385,79.8708867 L145.13706,65.5769988 C143.406326,65.262827 141.640272,65.7317609 140.290634,66.8592473 C138.941462,67.9871985 138.167186,69.6421775 138.167186,71.4007961 L138.167186,99.6204891 C138.167186,100.005303 137.855338,100.317616 137.470059,100.317616" id="Fill-28" fill="#000000"></path>
                <path d="M309.751192,251.855973 L309.751192,251.855973 C302.444374,254.952145 293.975677,252.130176 289.986718,245.269519 L266.779831,205.357615 C254.491345,190.19046 246.60777,171.937821 243.991221,152.593017 L234.770092,84.4177337 C232.873907,70.3999079 242.052743,57.2725454 255.869797,54.2409734 L294.685817,45.7248723 C303.066211,43.8863166 311.832813,45.3005545 319.209809,49.6812993 L368.650971,79.0405622 C378.090997,84.6463912 383.229287,95.3826088 381.67237,106.250351 L373.309172,164.651452 C369.67017,190.063583 356.973167,213.305325 337.557256,230.09911 L319.011825,246.097706 C316.242837,248.486527 313.118315,250.429652 309.751192,251.855973" id="Fill-30" fill="#2B334A"></path>
                <path d="M288.359438,242.577308 L259.925495,207.48348 C247.637008,192.316325 239.753898,174.063221 237.137349,154.718882 L228.733718,92.587688 C226.37557,75.1544056 237.78986,58.8295549 254.973106,55.0599579 L287.849606,47.8465545 C296.218845,46.0107873 304.972434,47.4227014 312.33967,51.7974045 L357.998687,78.9109896 C369.738303,85.8817929 376.127702,99.2336302 374.192478,112.748595 L366.454836,166.777317 C362.815834,192.188983 350.11976,215.43119 330.70292,232.22451 L315.910354,245.019111 C307.685652,252.133058 295.204758,251.02695 288.359438,242.577308" id="Fill-32" fill="#FFFFFF"></path>
                <path d="M303.360398,250.40911 C302.762263,250.40911 302.160411,250.382154 301.556234,250.328708 C296.127475,249.84769 291.248052,247.25066 287.818189,243.016312 L259.384245,207.922484 C255.307913,202.891552 251.670305,197.46047 248.571809,191.78121 C248.387302,191.442871 248.511856,191.019483 248.84973,190.834977 C249.188069,190.65047 249.611922,190.775489 249.795498,191.112898 C252.854026,196.719192 256.444694,202.079632 260.467116,207.044569 L288.901059,242.138397 C292.092041,246.077164 296.630336,248.492476 301.679393,248.940031 C306.731239,249.388051 311.620421,247.807432 315.454154,244.491897 L330.247185,231.696832 C349.535754,215.014123 362.149566,191.922959 365.764866,166.678603 L373.502044,112.649882 C375.404271,99.3686869 369.178928,86.3607655 357.642874,79.5103328 L311.983857,52.3967476 C304.742568,48.0973343 296.224608,46.7235297 287.998977,48.5272291 L255.122477,55.7406325 C238.420713,59.4051958 227.132371,75.5487935 229.424524,92.4940871 C229.476111,92.8756478 229.208415,93.226535 228.826854,93.2781224 C228.446223,93.3352868 228.094406,93.0624778 228.042818,92.6809171 C226.878617,84.0760486 228.978363,75.4172689 233.953989,68.3005338 C238.93008,61.1837986 246.341468,56.2397753 254.823642,54.3789115 L287.700607,47.1659729 C296.271548,45.2851247 305.14969,46.717488 312.695391,51.1976895 L358.354408,78.3112747 C370.376592,85.4503179 376.864054,99.0066457 374.882355,112.847866 L367.144712,166.876587 C363.482008,192.453705 350.702279,215.848816 331.159027,232.751817 L316.366461,245.546418 C312.703292,248.714627 308.140829,250.40911 303.360398,250.40911" id="Fill-34" fill="#000000"></path>
                <path d="M312.704454,234.130548 C306.240694,239.721505 296.431655,238.85242 291.05123,232.212055 L265.194332,200.29852 C254.483211,187.078207 247.6114,171.167914 245.330866,154.306741 L236.696718,90.7310999 C235.019896,78.3826604 243.102849,66.8154678 255.275148,64.1450074 L291.02474,56.3018661 C296.950782,55.0014922 303.148704,56.0016368 308.365536,59.0992036 L353.470105,85.8832801 C361.651121,90.7413244 366.175938,99.9861553 364.992682,109.427576 L358.050228,164.817089 C354.878301,186.967596 343.811646,207.225636 326.887731,221.86344 L312.704454,234.130548 Z" id="Fill-36" fill="#CADDFF"></path>
                <path d="M334.090259,112.337569 L277.059245,102.114902 L267.525803,105.999292 C267.525803,105.999292 310.115139,162.988944 310.75696,162.740767 C310.893597,162.687785 315.723756,160.4277 315.854816,160.361705 C327.699465,154.393835 334.818989,145.182931 334.818989,132.288874 L334.818989,113.208513 C334.818989,112.780012 334.511788,112.413324 334.090259,112.337569" id="Fill-38" fill="#577EE8"></path>
                <path d="M326.921565,117.111958 L268.205827,106.587667 C267.662998,106.490534 267.164785,106.907416 267.164785,107.458611 L267.164785,134.845005 C267.164785,149.489316 277.657008,162.029232 292.071731,164.613249 C310.61391,167.936685 327.650295,153.682766 327.650295,134.845005 L327.650295,117.983367 C327.650295,117.554401 327.343094,117.187713 326.921565,117.111958" id="Fill-40" fill="#FFFFFF"></path>
                <path d="M268.047487,107.270712 C267.994505,107.270712 267.954536,107.293485 267.928975,107.314863 C267.898766,107.340425 267.862051,107.386435 267.862051,107.458472 L267.862051,134.844866 C267.862051,149.168962 278.094943,161.400285 292.194565,163.926672 C300.830107,165.473364 309.639466,163.133807 316.367204,157.505205 C323.094478,151.876138 326.953307,143.61658 326.953307,134.844866 L326.953307,117.983227 C326.953307,117.892136 326.888242,117.814523 326.79901,117.798256 L326.798545,117.798256 L268.082808,107.273965 C268.070724,107.271642 268.058641,107.270712 268.047487,107.270712 M297.435099,165.788465 C295.611416,165.788465 293.776578,165.627197 291.948711,165.299547 C277.18403,162.653254 266.467797,149.844711 266.467797,134.844866 L266.467797,107.458472 C266.467797,106.989538 266.674147,106.54663 267.033864,106.245471 C267.394511,105.944312 267.865769,105.8179 268.328661,105.901555 L327.044398,116.425846 C327.799619,116.561089 328.347561,117.215923 328.347561,117.983227 L328.347561,134.844866 C328.347561,144.030673 324.307014,152.679693 317.26185,158.574597 C311.641149,163.277415 304.631307,165.788465 297.435099,165.788465" id="Fill-42" fill="#000000"></path>
                <path d="M303.226503,131.885748 C303.226503,127.59563 299.851945,124.117897 295.561827,124.117897 C291.271708,124.117897 288.080262,127.59563 288.080262,131.885748 C288.080262,135.037226 289.507048,137.743937 292.942954,138.962515 L292.942954,148.656295 L297.906032,149.703845 L297.906032,139.178159 C300.960377,138.092965 303.226503,135.242182 303.226503,131.885748" id="Fill-44" fill="#000000"></path>
                <path d="M318.825599,112.796 C317.070233,112.642167 315.771719,111.09594 315.925551,109.340575 C316.211838,106.08081 316.615242,101.480237 316.617566,101.452817 C317.319805,93.4298172 310.452641,86.3818652 302.430106,85.6796261 C294.407106,84.9778518 288.266813,90.8750798 287.564574,98.8985446 C287.561785,98.9292181 287.659848,97.8240398 287.228559,102.770852 C287.075191,104.526217 285.528034,105.823337 283.772669,105.669505 C282.017768,105.516137 280.719253,103.970839 280.872621,102.215939 C281.304375,97.2723801 281.205383,98.385924 281.208172,98.3547857 C282.216682,86.8215198 291.452682,78.3147138 302.985948,79.3236887 C314.519214,80.3326635 323.983872,90.4628455 322.974897,101.996111 C322.972574,102.023996 322.567775,106.634793 322.281489,109.898741 C322.127191,111.653177 320.580034,112.949832 318.825599,112.796" id="Fill-46" fill="#FFFFFF"></path>
                <path d="M281.908784,98.3392165 L281.909249,98.3392165 L281.902278,98.4140414 C281.902278,98.4145062 281.901813,98.4149709 281.902278,98.4154357 L281.875787,98.7189182 C281.868351,98.8114037 281.86045,98.9090015 281.85162,99.0112467 L281.567192,102.276589 C281.447751,103.644816 282.463697,104.855493 283.833319,104.974934 C284.497448,105.033493 285.143452,104.829467 285.653749,104.401896 C286.163581,103.97386 286.475894,103.373402 286.533988,102.710202 C286.678526,101.060335 286.76311,100.084822 286.812374,99.5159665 L286.810515,99.5159665 L286.871862,98.8216282 C286.871862,98.8211635 286.872327,98.8206987 286.871862,98.8197692 C287.61314,90.4575009 294.103856,84.2512133 302.490291,84.9850554 C310.884163,85.7193623 318.045049,93.1335383 317.312136,101.516256 C317.307024,101.570632 317.07279,104.241092 316.835302,106.944085 L316.620122,109.402154 C316.562028,110.064889 316.765124,110.711358 317.193625,111.22119 C317.621661,111.731022 318.222584,112.043335 318.885784,112.101429 C320.2568,112.22087 321.466547,111.204924 321.586453,109.837161 L321.952677,105.668343 C322.132071,103.623902 322.279397,101.947545 322.280327,101.935461 C323.252586,90.8241895 314.057019,80.9919131 302.925298,80.0182594 C300.781401,79.8304999 298.686302,79.985262 296.692055,80.4365354 C288.353954,82.3234253 282.724887,89.3974034 281.908784,98.3392165 M318.764949,113.49057 L318.764949,113.49057 C317.729948,113.399479 316.793009,112.91242 316.125627,112.117231 C315.457779,111.322041 315.140354,110.314461 315.230981,109.279925 L315.446625,106.82232 C315.685972,104.098878 315.922066,101.408433 315.922995,101.392167 C316.246462,97.6992541 315.111075,94.1039388 312.726901,91.2694212 C310.343657,88.4358331 306.066087,86.6976636 302.368991,86.3741968 C298.670966,86.05073 295.071468,87.1791459 292.234626,89.5517008 C289.410333,91.9131016 288.601201,95.2304957 288.264722,98.8987769 L288.259609,98.9578003 C288.259145,98.9587298 288.259145,98.9587298 288.259145,98.9587298 L288.231259,99.2840557 C288.224288,99.3709642 288.216387,99.4620554 288.208487,99.5573294 L287.922665,102.831502 C287.832968,103.865573 287.344979,104.802976 286.549325,105.469894 C285.753671,106.136812 284.74609,106.454702 283.712019,106.364075 C281.576952,106.17771 279.99215,104.289426 280.178051,102.155289 C280.320264,100.524012 280.405314,99.5531466 280.454113,98.9833617 L280.451789,98.9838264 L280.513601,98.2908824 C281.554644,86.4081236 291.151756,77.5899343 303.046134,78.629118 C314.944229,79.6701607 324.708652,90.1800444 323.669003,102.05955 C323.66575,102.102772 323.518889,103.765652 323.341354,105.790108 L322.975595,109.959391 C322.824086,111.682688 321.562751,113.047198 319.959359,113.410168 C319.577334,113.496612 319.175324,113.526356 318.764949,113.49057" id="Fill-48" fill="#000000"></path>
                <path d="M278.759444,183.691425 C278.785935,185.973354 276.957139,187.844442 274.67521,187.870468 C272.393282,187.896959 270.522194,186.068163 270.496168,183.786235 C270.470142,181.504306 272.298938,179.633683 274.580401,179.607192 C276.86233,179.581166 278.732953,181.409497 278.759444,183.691425" id="Fill-50" fill="#577EE8"></path>
                <path d="M291.555532,185.996127 C291.582023,188.27759 289.753227,190.149143 287.471298,190.174705 C285.18937,190.201195 283.318282,188.372399 283.292255,186.090936 C283.265765,183.809007 285.094561,181.937919 287.376489,181.911893 C289.658417,181.885402 291.529041,183.714198 291.555532,185.996127" id="Fill-52" fill="#577EE8"></path>
                <path d="M304.35162,188.300363 C304.377646,190.582291 302.54885,192.45338 300.267386,192.479406 C297.985458,192.505897 296.114369,190.677101 296.088343,188.395172 C296.061852,186.113244 297.890648,184.24262 300.172577,184.216129 C302.45404,184.189639 304.325129,186.018435 304.35162,188.300363" id="Fill-54" fill="#577EE8"></path>
                <path d="M317.147243,190.605064 C317.173734,192.886528 315.344938,194.758081 313.063474,194.783642 C310.781545,194.810133 308.909992,192.981337 308.884431,190.699874 C308.85794,188.417945 310.686736,186.546857 312.968665,186.520831 C315.250128,186.49434 317.121217,188.323136 317.147243,190.605064" id="Fill-56" fill="#577EE8"></path>
                <path d="M329.94333,192.909301 C329.969821,195.191229 328.141025,197.062317 325.859097,197.088344 C323.577633,197.114834 321.70608,195.286038 321.680054,193.00411 C321.654028,190.722182 323.482824,188.851558 325.764288,188.825067 C328.046216,188.798576 329.917304,190.627372 329.94333,192.909301" id="Fill-58" fill="#577EE8"></path>
                <path d="M110.37288,30.9682316 L81.6252296,25.8350546 C76.2262149,24.8683721 71.232928,29.015347 71.2268862,34.5008055 L71.1976015,45.53214 C71.1929594,49.8045978 74.2287142,53.4649783 78.4337831,54.21834 C79.8652168,54.4767416 80.9062595,55.7232044 80.9062595,57.1778756 L80.9062595,63.233119 C80.9062595,64.3796603 82.2893591,64.9568812 83.1045327,64.1505379 L89.7816132,57.5464233 C90.4759515,56.8590563 91.461224,56.5523205 92.4227943,56.723349 L107.258117,59.3584883 C112.66178,60.326565 117.762889,56.1726188 117.762889,50.6829776 L117.762889,39.6437423 C117.762889,35.3754672 114.574696,31.720199 110.37288,30.9682316" id="Fill-60" fill="#FFFFFF"></path>
                <path d="M80.0626431,26.3931278 C78.1673877,26.3931278 76.3195369,27.0553983 74.8360511,28.2953545 C72.9882003,29.8406522 71.9267086,32.1021316 71.92392,34.5011773 L71.894636,45.5343708 C71.890458,49.475461 74.6919782,52.839795 78.5568492,53.5322743 C80.322439,53.8510936 81.6032933,55.3843078 81.6032933,57.1777827 L81.6032933,63.2330261 C81.6032933,63.6001795 81.8826088,63.7451819 81.9685878,63.780503 C82.0536372,63.8162888 82.352937,63.9124923 82.6141272,63.6550202 L89.2916725,57.0509056 C90.1454204,56.2050584 91.3616743,55.8248919 92.5449309,56.0372832 L107.379789,58.6724225 C109.790454,59.1032469 112.256424,58.4423707 114.150285,56.8575691 C116.003248,55.3071591 117.065669,53.0568338 117.065669,50.6833494 L117.065669,39.6441141 C117.065669,35.7843553 114.135413,32.3493792 110.250093,31.6545762 L81.5029071,26.5209344 C81.0232838,26.4354202 80.5413368,26.3931278 80.0626431,26.3931278 M82.2088641,65.2258792 C81.949533,65.2258792 81.686019,65.1738271 81.4313354,65.0673991 C80.6775089,64.7527625 80.2090397,64.049594 80.2090397,63.2330261 L80.2090397,57.1777827 C80.2090397,56.0595913 79.4101324,55.1031333 78.3100663,54.9046846 C73.7801363,54.0927642 70.4952748,50.1507445 70.5003812,45.5315823 L70.5296664,34.4983888 C70.5329197,31.6875735 71.7765939,29.0361679 73.9423345,27.2254972 C76.1173701,25.4073905 78.962577,24.6489165 81.747831,25.1485241 L110.495481,30.2821659 C115.110461,31.1080288 118.459923,35.0449362 118.459923,39.6441141 L118.459923,50.6833494 C118.459923,53.4709271 117.215319,56.1107139 115.044931,57.9269616 C112.833645,59.7776009 109.951258,60.5490879 107.134865,60.0448328 L92.3009365,57.4096935 C91.5633763,57.2809574 90.8044376,57.5151921 90.2722975,58.0422199 L83.5947522,64.6463345 C83.210403,65.026501 82.7168372,65.2258792 82.2088641,65.2258792" id="Fill-62" fill="#000000"></path>
                <path d="M122.545597,22.0914372 L94.1683533,17.0084533 C88.7986179,16.046883 83.8643544,20.1710852 83.8573831,25.6258701 L83.8438989,36.8649484 C83.8387931,41.1160276 86.8852372,44.757818 91.0703218,45.5046732 L107.629407,48.4446893 C108.232654,48.5515821 108.788497,48.8401926 109.223039,49.2719465 L119.028825,59.0117374 C119.627889,59.6066189 120.647553,59.1823011 120.647553,58.3383129 L120.647553,53.4133444 C120.647553,52.000036 121.636079,50.7972599 123.013137,50.4779758 C126.784593,49.6037788 129.772013,46.190646 129.792462,41.9716346 L129.806506,30.7623003 C129.826854,26.5014613 126.739512,22.8429399 122.545597,22.0914372" id="Fill-64" fill="#FFFFFF"></path>
                <path d="M92.6158984,17.5678278 C90.7406273,17.5678278 88.9141551,18.221268 87.4487945,19.4463522 C85.6120978,20.9809606 84.5575773,23.2336097 84.554324,25.6270784 L84.5408405,36.865692 C84.5361987,40.7854036 87.3335362,44.1297533 91.1923655,44.8185145 L107.751451,47.7580659 C108.498306,47.89052 109.177307,48.2432661 109.715025,48.77773 L119.520345,58.5170562 C119.62352,58.6206957 119.736455,58.5951344 119.795013,58.5714321 C119.852643,58.547265 119.95024,58.4845236 119.95024,58.3385918 L119.95024,53.4131585 C119.95024,51.6814955 121.145116,50.1952212 122.8554,49.7992532 C126.453504,48.9650248 129.077489,45.6717977 129.09515,41.9686602 L129.108729,30.7611849 C129.128147,26.8321783 126.315938,23.4752803 122.422717,22.7776888 L94.0454731,17.6947049 C93.5691031,17.6096554 93.0908741,17.5678278 92.6158984,17.5678278 M119.696486,59.98567 C119.270774,59.98567 118.852963,59.8197538 118.537397,59.5065115 L108.732076,49.7667206 C108.396525,49.4330292 107.973137,49.2136667 107.507456,49.1304762 L90.9483711,46.1909248 C86.4221591,45.383652 83.1410156,41.4611519 83.1465855,36.8642977 L83.1600704,25.6252194 C83.1637884,22.8185869 84.4009561,20.1764763 86.5546132,18.3760302 C88.7082703,16.5760487 91.5274511,15.8291936 94.2913265,16.3222946 L122.66857,21.4052785 C127.230568,22.2227759 130.525654,26.1592185 130.502998,30.7653677 L130.489403,41.9728429 C130.46849,46.3173372 127.390442,50.1789549 123.170501,51.1567914 C122.095532,51.4063628 121.344494,52.3340062 121.344494,53.4131585 L121.344494,58.3385918 C121.344494,59.0055097 120.946202,59.6017855 120.330872,59.8583282 C120.124987,59.9443072 119.909807,59.98567 119.696486,59.98567" id="Fill-66" fill="#000000"></path>
                <path d="M121.213759,31.4695122 C121.172861,31.4695122 121.131498,31.4657942 121.089671,31.458823 L91.369761,26.1350979 C90.9909888,26.0672443 90.7386289,25.7052031 90.8064825,25.3259661 C90.8743362,24.9471939 91.2359126,24.6962282 91.6156144,24.7626876 L121.335989,30.0859479 C121.714761,30.1542663 121.967121,30.5163075 121.899267,30.8955445 C121.83885,31.2324891 121.544662,31.4695122 121.213759,31.4695122" id="Fill-68" fill="#99B9FF"></path>
                <path d="M111.346859,35.5741949 C111.305961,35.5741949 111.264598,35.5704768 111.22277,35.5635056 L91.6204943,32.0523102 C91.2412573,31.9839918 90.9893621,31.6219506 91.0572158,31.2431784 C91.1250695,30.8639414 91.4857164,30.6120463 91.8663476,30.6798999 L111.469089,34.1906305 C111.847861,34.258949 112.100221,34.6209901 112.032367,35.0002271 C111.971949,35.3371717 111.677762,35.5741949 111.346859,35.5741949" id="Fill-70" fill="#99B9FF"></path>
                <path d="M121.380791,43.1218938 C121.339893,43.1218938 121.29853,43.1181758 121.256702,43.1112045 L91.5367926,37.7870148 C91.1580203,37.7191611 90.9056604,37.3571199 90.9735141,36.9778829 C91.0413678,36.5991107 91.4010852,36.348145 91.782646,36.4146045 L121.503021,41.7383295 C121.881793,41.8066479 122.134153,42.1686891 122.066299,42.5479261 C122.005881,42.8848707 121.711694,43.1218938 121.380791,43.1218938" id="Fill-72" fill="#99B9FF"></path>
                <path d="M239.571948,99.9311288 L191.479958,91.3165005 C182.379665,89.686618 174.016932,96.6760114 174.005778,105.921307 L173.982529,164.936344 C173.97371,172.141382 179.136631,178.313743 186.229664,179.578331 L236.339603,188.353298 C244.509465,189.656461 251.8042,182.187444 251.845563,173.591871 L251.873156,114.625168 C251.907839,107.404328 246.679853,101.204082 239.571948,99.9311288" id="Fill-74" fill="#FFFFFF"></path>
                <path d="M188.848677,91.7796251 C185.557773,91.7796251 182.352384,92.9270958 179.781381,95.0761053 C176.558796,97.7693386 174.707692,101.722977 174.703044,105.922469 L174.679796,164.937041 C174.671441,171.815824 179.580143,177.684702 186.351568,178.892126 L236.459649,187.666628 C239.794239,188.198768 243.16322,187.192582 245.941038,184.834899 C249.180819,182.084037 251.128126,177.879433 251.148575,173.588385 L251.175705,114.624935 C251.209458,107.730351 246.277053,101.840559 239.448928,100.617334 L191.356939,92.0027056 C190.521781,91.8530558 189.681975,91.7796251 188.848677,91.7796251 M238.211761,189.199378 C237.552743,189.199378 236.891403,189.147326 236.229597,189.041827 L186.108968,180.265465 C178.668766,178.938136 173.276258,172.491572 173.285541,164.935647 L173.308326,105.921075 C173.313903,101.307489 175.347654,96.9643895 178.887199,94.0062481 C182.426744,91.0476419 187.059849,89.8174455 191.602792,90.6302953 L239.694782,99.2444589 C247.191683,100.588055 252.606964,107.057856 252.569975,114.628653 L252.542829,173.592103 C252.520056,178.287949 250.389636,182.886662 246.843585,185.89732 C244.295819,188.060273 241.288878,189.199378 238.211761,189.199378" id="Fill-76" fill="#000000"></path>
                <path d="M185.211905,154.147935 L212.271115,115.124636 C213.518972,113.249829 216.309803,113.366017 217.397785,115.337492 L238.983619,163.656745 C240.087868,165.657499 238.640633,168.109061 236.355916,168.109061 L187.710408,158.813108 C185.314151,158.813108 183.884111,156.142647 185.211905,154.147935" id="Fill-78" fill="#E22C50"></path>
                <path d="M213.22748,147.488236 L210.117365,147.662983 C209.699553,147.629521 209.383058,147.268409 209.86454,146.809699 L210.855854,126.049263 C210.411552,125.639353 210.793113,125.29869 211.233232,125.334476 L215.818468,126.004182 C216.259517,126.039968 216.582519,126.43826 216.530002,126.881633 L214.063567,146.797151 C214.013839,147.216822 213.644826,147.521698 213.22748,147.488236" id="Fill-80" fill="#FFFFFF"></path>
                <path d="M209.626309,152.486821 C210.232344,151.190165 211.683762,150.641294 212.868413,151.260808 C214.052599,151.880321 214.521533,153.43352 213.915497,154.730175 C213.309927,156.026831 211.858509,156.575238 210.673858,155.956189 C209.489672,155.336676 209.020273,153.783477 209.626309,152.486821" id="Fill-82" fill="#FFFFFF"></path>
                <path d="M330.889192,350.059203 C330.889192,350.059203 309.352621,309.215938 321.181004,268.057107 C321.576972,266.680514 327.098217,267.94882 327.569939,266.573156 C328.173651,264.815003 323.753402,260.413809 324.489568,258.663091 C327.226488,252.15518 330.911035,245.716517 335.763038,239.510694 C335.763038,239.510694 344.389285,251.460377 348.577158,270.523077 C348.892724,271.961017 343.124232,276.256712 343.384028,277.77366 C343.629417,279.206023 349.906811,277.855456 350.092247,279.354279 C352.492687,298.746488 349.49876,323.576285 330.889192,350.059203" id="Fill-84" fill="#FFFFFF"></path>
                <path d="M309.994443,294.820967 C309.008241,293.464358 303.533936,298.463687 302.532398,297.176791 C301.545266,295.908485 304.069795,286.619967 303.073833,285.418585 C283.538016,261.850122 262.89795,251.180829 262.89795,251.180829 C261.215551,263.561336 261.548778,275.394367 263.351547,286.579998 C263.639693,288.366037 271.530239,291.260973 271.890886,293.014014 C272.286389,294.937619 265.897919,297.417996 266.375684,299.300239 C273.432001,327.099797 288.501094,348.88408 303.295984,365.759196 C314.629871,360.757079 324.848821,356.031024 334.109918,349.834031 C329.371315,326.627145 320.66606,309.497345 309.994443,294.820967" id="Fill-86" fill="#577EE8"></path>
                <path d="M316.350752,349.753304 C316.126277,349.753304 315.90552,349.645017 315.771207,349.444244 C310.519054,341.600174 305.396102,333.506531 300.544564,325.387793 C300.347044,325.057355 300.455331,324.629319 300.78577,324.4318 C301.116208,324.23521 301.544244,324.342103 301.741763,324.672541 C306.581217,332.77083 311.690692,340.844023 316.929367,348.66811 C317.143618,348.988324 317.057639,349.421007 316.738355,349.635257 C316.618914,349.715194 316.484136,349.753304 316.350752,349.753304" id="Fill-88" fill="#CADDFF"></path>
                <path d="M294.361746,314.057763 C294.119146,314.057763 293.882588,313.930421 293.754316,313.703622 C285.905598,299.811744 278.557881,285.38912 271.916587,270.83776 L268.880367,264.184846 C268.720028,263.834889 268.87479,263.42126 269.224748,263.261386 C269.576564,263.101047 269.988799,263.255344 270.148208,263.605766 L273.184893,270.25868 C279.809456,284.774254 287.138583,299.160163 294.968246,313.017649 C295.157865,313.352735 295.039353,313.777982 294.704268,313.967601 C294.595981,314.028948 294.477934,314.057763 294.361746,314.057763" id="Fill-90" fill="#CADDFF"></path>
                <path d="M329.615216,352.692484 C329.615216,352.692484 319.834062,302.584403 367.376716,284.603179 C367.376716,284.603179 371.8532,328.389714 329.615216,352.692484" id="Fill-92" fill="#99B9FF"></path>
                <path d="M338.032465,339.468871 C337.960893,339.468871 337.887462,339.458182 337.815426,339.43448 C337.449202,339.314109 337.249824,338.920465 337.369729,338.554706 C342.668358,322.392053 359.423103,297.261561 359.591808,297.009666 C359.806988,296.688988 360.239671,296.603938 360.558955,296.818189 C360.878704,297.031509 360.964683,297.464657 360.750898,297.784871 C360.582658,298.035372 343.933411,323.008778 338.6952,338.988783 C338.598532,339.282971 338.325723,339.468871 338.032465,339.468871" id="Fill-94" fill="#CADDFF"></path>
                <path d="M185.971681,45.0135706 C179.947576,43.7438703 176.083634,37.8745274 177.34218,31.9043335 C178.600727,25.9346043 184.504461,22.1245739 190.529031,23.3942742 C196.553136,24.6639745 200.417078,30.5333174 199.158531,36.5030466 C197.899985,42.4732405 191.996251,46.2832709 185.971681,45.0135706 M210.577004,42.4295539 L208.066418,40.3865077 C207.661155,40.0565343 207.476184,39.5257884 207.603061,39.0229276 C207.736909,38.491717 207.847985,37.9581826 207.935822,37.423254 C208.019942,36.9134219 208.398715,36.5011876 208.899716,36.358509 L212.009367,35.4754817 C212.621909,35.3016648 213.029496,34.7300208 212.990921,34.0984239 L212.8343,31.5288145 C212.795726,30.8976824 212.321215,30.375302 211.691942,30.2711977 L208.488412,29.7423109 C207.970214,29.6567967 207.545431,29.2845309 207.3995,28.7839939 C207.24892,28.2662611 207.076962,27.7550347 206.884091,27.2507797 C206.697725,26.7632557 206.812984,26.2143845 207.176419,25.8402598 L209.423956,23.5262635 C209.865469,23.0717369 209.92914,22.3732158 209.577788,21.8443289 L208.14682,19.6920661 C207.795468,19.1631793 207.122043,18.9452109 206.525767,19.1668973 L203.497449,20.2939189 C203.007136,20.4765662 202.453153,20.3640964 202.07438,20.0034494 C201.683989,19.6302542 201.275938,19.271931 200.851155,18.9284799 C200.443104,18.5980418 200.264639,18.0631132 200.390122,17.5574639 L201.164862,14.437589 C201.317301,13.8241175 201.020325,13.1864788 200.450075,12.9015863 L198.128178,11.7434263 C197.557928,11.4589986 196.866378,11.6035362 196.462974,12.0919897 L194.412027,14.5737611 C194.081124,14.9743767 193.546196,15.1560944 193.038687,15.0287526 C192.502829,14.8939747 191.964183,14.7815049 191.424607,14.6927375 C190.910127,14.607688 190.49278,14.2298453 190.347778,13.7325615 L189.445696,10.645684 C189.268161,10.0377894 188.69001,9.63113211 188.053301,9.66691795 L185.463243,9.81331458 C184.826534,9.84910042 184.30183,10.3175696 184.199584,10.9412657 L183.677669,14.1159812 C183.594014,14.6267428 183.224536,15.0487369 182.72307,15.190486 C182.196042,15.3396711 181.675985,15.5097701 181.163365,15.7012476 C180.675376,15.88343 180.123716,15.7630595 179.747268,15.4028773 L177.405851,13.1660298 C176.946212,12.7263751 176.241185,12.6603804 175.709509,13.0070848 L173.544698,14.4185342 C173.012558,14.7652386 172.795055,15.4321566 173.020924,16.0242496 L174.168859,19.0316547 C174.354295,19.5187139 174.243219,20.0675851 173.880249,20.4417098 C173.505659,20.8279181 173.145942,21.2313221 172.801096,21.6509924 C172.469729,22.0548612 171.931082,22.2300724 171.420321,22.1031954 L168.272096,21.3233428 C167.652583,21.169975 167.010761,21.4623035 166.725869,22.0269762 L165.566314,24.3251709 C165.281422,24.8898436 165.430142,25.5762811 165.923708,25.9782909 L168.434294,28.0208724 C168.839092,28.3508458 169.024528,28.8820564 168.897651,29.3849172 C168.763803,29.9161278 168.652262,30.4496622 168.564424,30.9841261 C168.480769,31.4944229 168.101532,31.9066572 167.600995,32.0488711 L164.491345,32.9318984 C163.878803,33.1061801 163.471216,33.6778241 163.50979,34.3089562 L163.666411,36.8790303 C163.704986,37.5101625 164.179032,38.0325428 164.808305,38.1361823 L168.01137,38.6650692 C168.52678,38.7501187 168.953886,39.1177369 169.098424,39.6159502 C169.250862,40.1387953 169.424679,40.6555986 169.61941,41.1645012 C169.804845,41.6492367 169.685404,42.1962488 169.323828,42.5680498 L167.076756,44.8815813 C166.635242,45.336108 166.571107,46.034629 166.922923,46.5635159 L168.353892,48.7157787 C168.705244,49.2446656 169.378204,49.4626339 169.974944,49.2404828 L173.002798,48.1139259 C173.493111,47.9312787 174.047559,48.0432837 174.425867,48.4043954 C174.816722,48.7775906 175.224774,49.1359138 175.649556,49.4793649 C176.057608,49.809803 176.236073,50.3447317 176.11059,50.850381 L175.335385,53.969791 C175.183411,54.5832626 175.479922,55.221366 176.050172,55.5057938 L178.372069,56.6644185 C178.942319,56.9488462 179.634333,56.8043086 180.037737,56.3158551 L182.088684,53.8340837 C182.419587,53.4334681 182.954516,53.2517504 183.462024,53.3790923 C183.997882,53.5138701 184.536529,53.6258751 185.07564,53.7151074 C185.590585,53.8001568 186.007931,54.1779996 186.152934,54.6748186 L187.055016,57.7621608 C187.232551,58.3700554 187.810701,58.776248 188.446946,58.7404621 L191.037469,58.5945302 C191.674178,58.5587444 192.198882,58.0902752 192.301127,57.4665791 L192.823043,54.2913989 C192.907163,53.7778488 193.281288,53.3581785 193.785078,53.2150351 C194.306993,53.0672442 194.821938,52.8985395 195.329446,52.7093858 C195.820223,52.5267386 196.374207,52.6429264 196.752979,53.0045028 L199.094396,55.2418151 C199.554499,55.6814697 200.259062,55.7474644 200.791202,55.40076 L202.956013,53.9893106 C203.487689,53.6426062 203.705192,52.9756882 203.479323,52.3835952 L202.331852,49.3761902 C202.146417,48.8891309 202.257028,48.3402597 202.619998,47.966135 C202.994588,47.5799268 203.35477,47.1765227 203.699615,46.7563876 C204.030983,46.3529836 204.56963,46.1777724 205.080391,46.3046495 L208.228616,47.084502 C208.847664,47.2378699 209.489951,46.9455414 209.774378,46.3808687 L210.933932,44.082674 C211.218825,43.5180013 211.070569,42.8315637 210.577004,42.4295539" id="Fill-96" fill="#577EE8"></path>
                <path d="M224.68922,28.2210408 C220.81366,26.4094406 219.126613,21.8274585 220.921947,17.9867545 C222.716816,14.1460506 227.31367,12.5012961 231.189695,14.3124315 C235.065256,16.1240317 236.752302,20.7060138 234.956969,24.5467178 C233.161635,28.3874217 228.564781,30.0321762 224.68922,28.2210408 M241.746519,30.36122 L240.370855,28.5821524 C240.148704,28.2949362 240.107341,27.9064042 240.272793,27.5861906 C240.447539,27.2478517 240.606949,26.9044006 240.750557,26.556302 C240.888123,26.2249344 241.209731,26.0055718 241.571308,25.988376 L243.815127,25.8824127 C244.25664,25.8614989 244.622864,25.5389616 244.696295,25.1058135 L244.996989,23.3420826 C245.07042,22.9089345 244.832002,22.4804339 244.422556,22.3107997 L242.338612,21.4463625 C242.001667,21.3069371 241.77301,20.9881178 241.75349,20.6260766 C241.733041,20.2519519 241.69772,19.8787567 241.647062,19.5069557 C241.597799,19.1481678 241.762785,18.7944921 242.067662,18.5988319 L243.954552,17.388155 C244.324959,17.1502024 244.478326,16.6877749 244.324494,16.2746111 L243.69615,14.591747 C243.541853,14.1785832 243.120788,13.924829 242.682063,13.9805992 L240.454511,14.2645622 C240.094328,14.3105725 239.736935,14.1469801 239.538021,13.8430328 C239.332601,13.528861 239.113239,13.2216605 238.880398,12.9223607 C238.655923,12.634215 238.619673,12.2442887 238.785124,11.9217514 L239.802,9.93308097 C240.002308,9.5422252 239.902386,9.06353147 239.561259,8.78096274 L238.173047,7.63023876 C237.832384,7.34720528 237.341142,7.33605125 236.991185,7.60281844 L235.211188,8.95803294 C234.923971,9.17646601 234.53358,9.21504036 234.210113,9.04865943 C233.868521,8.87298347 233.522282,8.71171481 233.17093,8.56624768 C232.836309,8.42728707 232.613693,8.10567924 232.594173,7.74642656 L232.471944,5.51515604 C232.447312,5.0755014 232.120592,4.70927745 231.684191,4.63305826 L229.908376,4.32260445 C229.471975,4.24592051 229.04301,4.48015511 228.87477,4.88588291 L228.020092,6.95123725 C227.882991,7.28399911 227.56603,7.5107977 227.204454,7.52799349 C226.824287,7.54518929 226.445515,7.57818662 226.068602,7.62652075 C225.709349,7.67299587 225.355209,7.50429118 225.157225,7.2012734 L223.926564,5.31763678 C223.684893,4.94723007 223.218283,4.79153842 222.803725,4.94211781 L221.116213,5.55465989 C220.70119,5.70523928 220.44883,6.12212111 220.507854,6.55852249 L220.809013,8.77492097 C220.857811,9.1337089 220.696078,9.48784931 220.391201,9.68350957 C220.076565,9.88521159 219.769364,10.1017857 219.4696,10.3313727 C219.181454,10.5516648 218.789669,10.5851269 218.463878,10.418746 L216.457082,9.39350482 C216.062508,9.1918028 215.581491,9.2880063 215.299387,9.62495092 L214.151916,10.9968965 C213.869812,11.3343058 213.861447,11.8218298 214.132397,12.1717875 L215.50806,13.9513199 C215.729747,14.2385361 215.771574,14.6270681 215.606123,14.9472817 C215.431376,15.2856206 215.271967,15.6290717 215.127894,15.9767056 C214.990327,16.308538 214.66872,16.5279005 214.307608,16.5446316 L212.063789,16.6510596 C211.621811,16.6719734 211.255587,16.9945107 211.182156,17.4276588 L210.881927,19.1913897 C210.808496,19.6245378 211.046914,20.0525736 211.455895,20.2226726 L213.539839,21.0866451 C213.874925,21.2256057 214.105906,21.5421012 214.124961,21.9018187 C214.14541,22.2796614 214.181196,22.6565746 214.232318,23.0320936 C214.281582,23.3894873 214.114271,23.7403744 213.810789,23.9351052 L211.924829,25.1453173 C211.553957,25.3832699 211.400589,25.8456974 211.554887,26.2588612 L212.182765,27.9412605 C212.337063,28.3548891 212.758127,28.6086433 213.196388,28.5528731 L215.42394,28.2689101 C215.784587,28.2228998 216.141516,28.3860274 216.340894,28.6904395 C216.546314,29.0046113 216.765677,29.3118118 216.998517,29.6111116 C217.222992,29.8992574 217.258778,30.2896484 217.093791,30.6121857 L216.076451,32.6003913 C215.876608,32.9912471 215.97653,33.4694761 216.317657,33.7525096 L217.705404,34.9032335 C218.046531,35.1858023 218.537309,35.1974211 218.887731,34.9311186 L220.667728,33.5754394 C220.954944,33.3570063 221.345335,33.3184319 221.668337,33.4848129 C222.00993,33.6609536 222.356634,33.8217575 222.707521,33.9672246 C223.042607,34.1061852 223.265223,34.4273283 223.284742,34.7870457 L223.406972,37.0183163 C223.431139,37.4579709 223.758324,37.8241949 224.194725,37.900414 L225.970075,38.2113326 C226.406476,38.2875518 226.835906,38.0533172 227.003681,37.6475894 L227.858359,35.5817703 C227.996855,35.2476142 228.316139,35.0226746 228.679574,35.0054788 C229.056023,34.9878183 229.431542,34.9552857 229.804737,34.9074163 C230.165848,34.8609412 230.522313,35.0273221 230.721226,35.3317342 L231.951887,37.2158355 C232.193558,37.5862422 232.660168,37.7419339 233.074726,37.5913545 L234.762703,36.9788124 C235.177725,36.828233 235.430085,36.4113512 235.370597,35.9749498 L235.069438,33.7585513 C235.021104,33.3997634 235.182838,33.045623 235.487714,32.8499627 C235.802351,32.647796 236.109552,32.4321514 236.408851,32.2020996 C236.696997,31.9813427 237.089247,31.9483454 237.414573,32.1142616 L239.421833,33.1399675 C239.816407,33.3416695 240.297425,33.245466 240.579064,32.9080566 L241.726999,31.5365758 C242.009103,31.1991665 242.017004,30.7111777 241.746519,30.36122" id="Fill-98" fill="#577EE8"></path>
                <path d="M248.18481,327.29318 C246.566547,326.86375 245.124424,328.305408 245.553389,329.923207 C245.741613,330.633811 246.316046,331.209173 247.027115,331.397862 C248.644914,331.827292 250.087966,330.385634 249.658536,328.767371 C249.470312,328.056766 248.895415,327.481869 248.18481,327.29318 M248.296351,332.80234 C245.818297,333.275922 243.675794,331.133884 244.147981,328.65583 C244.412425,327.270407 245.529222,326.153145 246.914645,325.888702 C249.393163,325.414655 251.536596,327.557158 251.063479,330.035677 C250.799036,331.4211 249.681774,332.537897 248.296351,332.80234" id="Fill-100" fill="#000000"></path>
                <path d="M240.670248,353.420935 C238.391573,352.985463 236.421028,354.956008 236.8565,357.234683 C237.099565,358.508101 238.126665,359.535201 239.400548,359.778731 C241.679223,360.213738 243.649303,358.243193 243.214296,355.964983 C242.970767,354.6911 241.943666,353.663999 240.670248,353.420935 M240.821292,361.168337 C237.654942,361.692112 234.943119,358.980288 235.466894,355.813474 C235.783389,353.895446 237.331011,352.347824 239.249504,352.030864 C242.416318,351.507554 245.127677,354.219377 244.604367,357.385727 C244.286942,359.30422 242.739785,360.851377 240.821292,361.168337" id="Fill-102" fill="#000000"></path>
                <path d="M169.797735,281.305955 C169.61927,281.305955 169.440806,281.238102 169.304634,281.10193 L167.706354,279.503185 C167.43401,279.230841 167.43401,278.789792 167.706354,278.517448 C167.978698,278.245104 168.419747,278.245104 168.692092,278.517448 L170.262021,280.087378 C170.490679,280.315571 170.569222,280.676682 170.404235,280.955068 C170.265274,281.188838 170.031505,281.305955 169.797735,281.305955" id="Fill-104" fill="#000000"></path>
                <path d="M175.836572,287.344561 C175.658108,287.344561 175.479643,287.276707 175.343471,287.140535 L173.745192,285.541791 C173.472848,285.269447 173.472848,284.828398 173.745192,284.556053 C174.017536,284.283709 174.458585,284.283709 174.730929,284.556053 L176.300394,286.125518 C176.529052,286.354176 176.607595,286.715288 176.443073,286.993673 C176.304112,287.227443 176.070342,287.344561 175.836572,287.344561" id="Fill-106" fill="#000000"></path>
                <path d="M168.199223,287.344561 C167.965453,287.344561 167.731683,287.227443 167.593187,286.993673 C167.427736,286.715288 167.506279,286.354176 167.734936,286.125518 L169.304866,284.556053 C169.57721,284.283709 170.018259,284.283709 170.290603,284.556053 C170.562948,284.828398 170.562948,285.269447 170.290603,285.541791 L168.692324,287.140535 C168.556152,287.276707 168.377687,287.344561 168.199223,287.344561" id="Fill-108" fill="#000000"></path>
                <path d="M174.238061,281.305955 C174.004291,281.305955 173.770521,281.188838 173.63156,280.955068 C173.466574,280.676682 173.545117,280.315571 173.773774,280.087378 L175.343704,278.517448 C175.616048,278.245104 176.057097,278.245104 176.329441,278.517448 C176.601785,278.789792 176.601785,279.230841 176.329441,279.503185 L174.731162,281.10193 C174.59499,281.238102 174.416525,281.305955 174.238061,281.305955" id="Fill-110" fill="#000000"></path>
                <path d="M28.006651,147.162864 C29.0634953,145.863884 28.3417367,143.95701 26.6900109,143.682807 C25.964999,143.562436 25.204666,143.850117 24.7408443,144.420367 C23.6840001,145.719347 24.405294,147.626686 26.0570197,147.900424 C26.7824964,148.021259 27.5423646,147.733114 28.006651,147.162864 M22.9380744,145.000841 C23.5250552,142.54649 26.3586433,141.473844 28.4235329,142.922939 C29.5775101,143.733465 30.1370705,145.210909 29.8094209,146.58239 C29.2229049,149.036276 26.3888521,150.110316 24.3234978,148.660292 C23.1690558,147.849766 22.6099601,146.372322 22.9380744,145.000841" id="Fill-112" fill="#000000"></path>
                <g id="Group-116" transform="translate(0.000000, 122.870458)">
                    <mask id="mask-4" fill="white">
                        <use xlink:href="#path-3"></use>
                    </mask>
                    <g id="Clip-115"></g>
                    <path d="M7.27549417,6.70445436 C8.60886537,4.8059457 7.62219856,2.20008572 5.36629623,1.66004482 C4.10496147,1.35888604 2.74602895,1.87290087 2.00103278,2.93439261 C0.668126328,4.83290127 1.65479313,7.43876126 3.91069546,7.97833741 C5.17203023,8.27996094 6.53003324,7.76548136 7.27549417,6.70445436 M0.149928738,3.65847499 C0.973932619,0.556260714 4.5608824,-0.801277547 7.23273706,0.977325303 C8.85146549,2.05461859 9.625741,4.10091813 9.1265982,5.98037199 C8.30212957,9.08212151 4.71564455,10.4401245 2.04425464,8.66152168 C0.425526201,7.58422839 -0.349214053,5.5374641 0.149928738,3.65847499" id="Fill-114" fill="#000000" mask="url(#mask-4)"></path>
                </g>
                <path d="M102.144878,94.5996424 C102.218309,94.4369795 102.353551,94.3026664 102.53341,94.234348 L104.648028,93.4340464 C105.00821,93.2974095 105.41022,93.4786625 105.546392,93.8388447 C105.683029,94.1994916 105.501776,94.6015014 105.141594,94.7376735 L103.065086,95.5235678 C102.762997,95.6383614 102.401421,95.5612127 102.21552,95.2967692 C102.059364,95.0741534 102.048675,94.8129632 102.144878,94.5996424" id="Fill-117" fill="#000000"></path>
                <path d="M94.1581288,97.6234996 C94.2315595,97.4608367 94.3668021,97.3260589 94.5466608,97.2582052 L96.660814,96.4579036 C97.0214609,96.3212668 97.4234707,96.5025197 97.5596428,96.8627019 C97.6962797,97.2228841 97.5150267,97.6248939 97.1543798,97.7615307 L95.0788009,98.547425 C94.7767126,98.6617538 94.4146714,98.5850699 94.228771,98.3206264 C94.0726146,98.0980106 94.0619253,97.8363557 94.1581288,97.6234996" id="Fill-119" fill="#000000"></path>
                <path d="M97.2967795,90.6608295 C97.392983,90.4479735 97.5956146,90.2829868 97.865635,90.2523132 C98.1872428,90.2160626 98.4842189,90.4363547 98.5985477,90.738443 L99.3844419,92.8149513 C99.5210788,93.1751335 99.3398258,93.5771433 98.9796436,93.7133154 C98.6194615,93.8499523 98.2169869,93.6686993 98.0808148,93.3085171 L97.2805132,91.1938991 C97.2121948,91.0140404 97.2233489,90.8234924 97.2967795,90.6608295" id="Fill-121" fill="#000000"></path>
                <path d="M100.320172,98.6478578 C100.416376,98.4350017 100.619007,98.2695503 100.889027,98.2393415 C101.210635,98.2030909 101.507611,98.4233829 101.62194,98.7254712 L102.407834,100.801515 C102.544471,101.161697 102.363218,101.564172 102.003036,101.700344 C101.642854,101.836516 101.240379,101.655263 101.104207,101.295081 L100.303906,99.1809274 C100.235587,99.0010687 100.246741,98.8105207 100.320172,98.6478578" id="Fill-123" fill="#000000"></path>
                <path d="M108.596973,352.046201 C108.596973,352.046201 105.616523,365.660622 108.912539,369.54966 L109.934991,371.217188 L106.746798,372.578444 C102.696956,374.306854 98.0020395,373.535831 94.7315853,370.604646 L94.2910011,370.209607 L95.0652766,368.489098 C96.4437287,365.428247 98.8134951,355.928732 98.5853022,352.693599 L108.596973,352.046201 Z" id="Fill-125" fill="#FFFFFF"></path>
                <path d="M95.1359653,370.030771 L95.1968477,370.085147 C98.2567696,372.828573 102.68306,373.555909 106.473106,371.93718 L108.918627,370.892884 L108.344659,369.95734 C105.393024,366.374573 107.120505,355.963217 107.732117,352.800585 L99.2950238,353.346203 C99.2169456,357.163204 97.0293617,365.824772 95.7011028,368.775478 L95.1359653,370.030771 Z M102.301964,374.182393 C99.3856503,374.182393 96.5037281,373.129267 94.2659511,371.123866 L93.8258317,370.728827 C93.5994978,370.525731 93.5302499,370.200405 93.655268,369.923878 L94.4295435,368.202904 C95.7638442,365.240115 98.108514,355.835875 97.8900809,352.742491 C97.8770679,352.557055 97.938415,352.374873 98.0601799,352.234982 C98.1824094,352.095092 98.3552969,352.010043 98.5407326,351.997495 L108.551938,351.350561 C108.770836,351.337548 108.982763,351.425851 109.125906,351.591767 C109.268585,351.758148 109.324819,351.981228 109.27788,352.195014 C108.470142,355.888856 106.924844,366.126396 109.444261,369.098945 C109.467033,369.126365 109.487947,369.154715 109.506537,369.185388 L110.529455,370.852916 C110.635418,371.025803 110.660514,371.235871 110.599167,371.429207 C110.53782,371.622079 110.395142,371.7787 110.208776,371.858637 L107.020583,373.219429 C105.504565,373.866362 103.89792,374.182393 102.301964,374.182393 L102.301964,374.182393 Z" id="Fill-127" fill="#000000"></path>
                <path d="M109.756573,364.886765 L111.551443,366.480862 C115.131421,369.65976 119.423398,371.912409 124.057897,373.045472 L124.941854,373.261582 C125.278799,373.343378 125.553002,373.589231 125.674767,373.916416 L125.737043,374.082797 C126.425805,375.932972 124.777332,380.546557 118.062607,382.880073 C116.319325,383.485643 111.655547,383.032976 104.726106,383.028328 C101.72056,383.026004 98.6220641,383.019033 96.8267302,383.014386 C95.0629994,383.009738 93.3173938,382.535227 91.8557513,381.53973 C90.2226156,380.427116 88.7433125,378.561604 89.3591079,375.545834 C89.9632844,372.588622 92.3432753,366.798751 93.6301714,364.619998 C93.8792781,364.198933 94.421178,364.103194 94.8129632,364.394129 L96.1467992,367.665048 C97.0502755,369.879122 99.3131491,371.302191 101.659213,370.941544 C101.806539,370.918771 101.954795,370.890421 102.105374,370.856029 C103.610703,370.511184 104.907824,369.551473 105.817342,368.292927 L108.149464,365.065229 C108.528701,364.540061 109.273232,364.457335 109.756573,364.886765" id="Fill-129" fill="#577EE8"></path>
                <path d="M94.2784064,364.930312 C94.2588868,364.938213 94.24355,364.95262 94.230537,364.974928 C92.9231919,367.187144 90.6133784,372.887782 90.0421992,375.68512 C89.5927848,377.884787 90.3354572,379.660602 92.2483731,380.963299 C93.5427052,381.844932 95.1261126,382.312472 96.8284962,382.317119 C98.6238301,382.321767 101.721862,382.329203 104.726478,382.331062 C107.08602,382.332921 109.159275,382.385903 110.988071,382.432378 C114.36263,382.517892 116.801179,382.580169 117.833856,382.221381 C122.359604,380.648663 124.080112,378.195241 124.702414,376.872094 C125.249891,375.709752 125.258257,374.795121 125.08351,374.326187 L125.021698,374.158877 C124.980336,374.048266 124.88878,373.966005 124.776775,373.938585 L123.892353,373.722475 C119.166298,372.567569 114.739078,370.243348 111.088457,367.002173 L109.293588,365.408076 L109.293588,365.407612 C109.180189,365.307225 109.05703,365.303507 108.9915,365.310479 C108.9269,365.317915 108.80467,365.348124 108.714508,365.473606 L106.382387,368.701303 C105.326472,370.162016 103.86297,371.169132 102.260508,371.535821 C102.093198,371.573931 101.928211,371.605534 101.765548,371.63063 C99.1322679,372.036823 96.556152,370.513833 95.5016315,367.927957 L94.2784064,364.930312 Z M114.602441,383.892626 C113.563258,383.892626 112.348398,383.861488 110.952285,383.826167 C109.13139,383.779691 107.067895,383.727175 104.725549,383.725316 C101.720003,383.723457 98.6205769,383.716021 96.8247782,383.711373 C94.8426143,383.706261 92.9891865,383.154601 91.4634084,382.116347 C89.0755167,380.489718 88.1116227,378.169215 88.6758306,375.406269 C89.282331,372.438368 91.6428023,366.614106 93.0300847,364.265253 C93.246194,363.899494 93.6068409,363.642022 94.0186105,363.558831 C94.437816,363.475176 94.8788649,363.575098 95.2283578,363.834894 C95.3306031,363.910648 95.4100756,364.012893 95.4579449,364.13094 L96.7922456,367.401394 C97.5897587,369.355208 99.5933011,370.553802 101.553157,370.252643 C101.684217,370.232194 101.816671,370.207097 101.950519,370.176424 C103.221614,369.88549 104.394646,369.071245 105.252112,367.884271 L107.584233,364.656574 C107.880745,364.246663 108.33806,363.979896 108.839062,363.925055 C109.339599,363.869285 109.842459,364.030554 110.219373,364.365639 L112.014707,365.959271 C115.495693,369.050332 119.717493,371.26673 124.223721,372.36819 L125.107213,372.5843 C125.668632,372.721401 126.125483,373.128523 126.328114,373.673212 L126.390391,373.840057 C126.749643,374.805346 126.594416,376.127098 125.964214,377.466511 C125.248032,378.987177 123.29933,381.798457 118.291171,383.538486 C117.505742,383.811759 116.283446,383.892626 114.602441,383.892626 L114.602441,383.892626 Z" id="Fill-131" fill="#000000"></path>
                <path d="M100.184232,380.507192 C94.4417664,380.507192 91.5914473,377.456565 91.4682882,377.321323 C91.2089571,377.03643 91.2289414,376.595846 91.5133691,376.33605 C91.7973321,376.077649 92.2369867,376.097168 92.4967827,376.380202 C92.5455815,376.431324 95.3233995,379.348103 100.834884,379.098996 C105.067838,378.917278 111.317812,378.991639 114.667274,379.052056 C116.603892,379.087842 118.425717,378.567321 119.936158,377.549051 C120.427865,377.217683 120.797342,376.890963 121.034365,376.577721 C121.267206,376.270985 121.704537,376.211497 122.011272,376.443408 C122.318008,376.676248 122.377961,377.113114 122.145586,377.41985 C121.815147,377.855322 121.33413,378.288005 120.715546,378.704887 C118.966687,379.884426 116.861829,380.484884 114.641713,380.44631 C111.308517,380.386357 105.090611,380.311067 100.894837,380.49232 C100.653631,380.50208 100.416143,380.507192 100.184232,380.507192" id="Fill-133" fill="#000000"></path>
                <path d="M64.0253339,351.255101 C64.0253339,351.255101 59.9239046,359.577401 61.2010409,364.302991 L61.4338812,366.180121 L48.1252658,357.876876 L49.5938796,356.927854 C52.5064754,355.001925 55.3749198,351.887163 56.3388138,348.910896 L64.0253339,351.255101 Z" id="Fill-135" fill="#FFFFFF"></path>
                <path d="M49.4255932,357.866466 L60.5619615,364.814496 L60.5150216,364.436189 C59.4335456,360.305945 62.0700792,353.869141 63.0539575,351.687598 L56.7658737,349.7705 C55.6569773,352.494407 53.0641304,355.468814 49.9786471,357.509072 L49.4255932,357.866466 Z M61.4338348,366.877527 C61.3060282,366.877527 61.1782216,366.841741 61.0648223,366.771564 L47.7562069,358.468319 C47.5535754,358.341906 47.4299515,358.121149 47.4280713,357.882267 C47.4262335,357.64385 47.5466041,357.420769 47.7469119,357.291568 L49.2155257,356.342547 C52.2926434,354.306936 54.8306497,351.304179 55.6755674,348.696925 C55.7926847,348.334883 56.1788929,348.132252 56.5423284,348.244722 L64.2288485,350.588462 C64.424044,350.64795 64.5839184,350.790164 64.6652499,350.978388 C64.7461166,351.165683 64.7410043,351.379933 64.6508426,351.563045 C64.610874,351.643912 60.6809378,359.705951 61.8744189,364.121087 C61.8827844,364.15269 61.8888262,364.184758 61.8930089,364.217291 L62.1258493,366.094421 C62.1588466,366.361188 62.0356876,366.623308 61.8093537,366.767846 C61.6945602,366.840811 61.5644298,366.877527 61.4338348,366.877527 L61.4338348,366.877527 Z" id="Fill-137" fill="#000000"></path>
                <path d="M62.7127371,361.540882 L62.9548725,363.835823 C63.4344957,368.38109 65.0021015,372.739991 67.5229121,376.537938 L69.4595303,379.456111 C69.6440365,379.734032 69.6798224,380.085384 69.5557338,380.395838 L69.4925277,380.553389 C68.7916828,382.30643 64.6711987,384.479607 58.4449268,381.739434 C54.5930689,380.044021 50.7049603,374.855074 39.6164614,364.401425 C39.0434232,363.86092 39.2260704,362.874718 39.7242837,362.26357 C41.5405314,360.035553 46.0853334,354.874955 50.1444704,353.628028 C50.5962085,353.489067 51.0693253,353.761876 51.1599517,354.229416 L52.0327545,358.724489 C52.4245398,360.74151 54.366735,362.053502 56.3642357,361.649169 L61.4667391,360.617886 C62.070451,360.495656 62.647672,360.923227 62.7127371,361.540882" id="Fill-139" fill="#577EE8"></path>
                <path d="M50.3841426,354.288672 C50.373918,354.288672 50.3622993,354.290531 50.3492862,354.294249 C46.4621072,355.488659 42.0014251,360.573037 40.2646499,362.703922 C39.9709271,363.064568 39.8356845,363.650155 40.0945509,363.894149 C44.1662362,367.732994 47.2642677,370.857517 49.7530104,373.369032 C54.0435935,377.696795 56.4063886,380.080969 58.7259619,381.101563 C62.9115112,382.943836 65.6860759,382.340589 66.9673949,381.817744 C68.0851216,381.361359 68.6707081,380.731156 68.8454546,380.29429 L68.9086607,380.136739 C68.9476998,380.039141 68.9365458,379.928995 68.8784519,379.841622 L66.9413689,376.922985 C64.3694357,373.047424 62.751172,368.547703 62.261789,363.909021 L62.0196537,361.614545 C62.0047816,361.475584 61.9229854,361.396112 61.8755808,361.361255 C61.8295704,361.327793 61.7329022,361.275276 61.6046308,361.301302 L56.5025921,362.33305 C55.3583747,362.565426 54.1932434,362.333515 53.2209839,361.682863 C52.2398941,361.02617 51.5748351,360.022772 51.3485013,358.857641 L50.4756985,354.362102 C50.4724453,354.344906 50.4645445,354.320275 50.4352652,354.302614 C50.4231817,354.295643 50.4059859,354.288672 50.3841426,354.288672 M64.0352796,383.73949 C62.4676738,383.73949 60.5008467,383.406264 58.1640777,382.377769 C55.6028338,381.250283 53.1731145,378.799185 48.7630904,374.350587 C46.2813189,371.846972 43.1925825,368.73128 39.138093,364.909166 C38.263896,364.085162 38.474893,362.692768 39.1836386,361.823218 C41.0012805,359.593807 45.6878317,354.267758 49.9398404,352.961807 C50.3474272,352.835395 50.7894056,352.888841 51.1523763,353.107274 C51.5120937,353.322919 51.7639889,353.683101 51.8443908,354.096265 L52.7171936,358.591803 C52.8719557,359.389316 53.3264824,360.075289 53.9966537,360.524238 C54.6575299,360.965752 55.4485364,361.122838 56.2260652,360.965752 L61.3281039,359.934004 C61.8067976,359.838266 62.3064051,359.948412 62.7000494,360.237022 C63.0969469,360.528421 63.3544191,360.977371 63.4060065,361.468148 L63.6481419,363.76309 C64.1142873,368.178691 65.6549376,372.462767 68.1032469,376.152427 L70.0403299,379.0706 C70.3512485,379.539069 70.4125956,380.131162 70.2029928,380.654472 L70.1397867,380.812487 C69.7703094,381.735948 68.8064155,382.5725 67.4944228,383.108823 C66.7545389,383.410911 65.5917314,383.73949 64.0352796,383.73949" id="Fill-141" fill="#000000"></path>
                <path d="M65.1758255,379.988902 C65.1418987,379.988902 65.1079719,379.986578 65.0731155,379.981466 L64.0302138,379.827633 C60.5004284,379.307112 57.1676976,377.619135 54.6459576,375.075552 L43.0648224,363.390313 C42.7938724,363.117039 42.7957314,362.675525 43.0694699,362.404575 C43.3427436,362.133161 43.7842572,362.135949 44.0552072,362.409223 L55.6363424,374.093998 C57.9470853,376.42519 61.000036,377.971417 64.2333101,378.448252 L65.2766766,378.602084 C65.6577725,378.658319 65.9208217,379.01246 65.8645868,379.393556 C65.8134642,379.739795 65.5155587,379.988902 65.1758255,379.988902" id="Fill-143" fill="#000000"></path>
                <path d="M116.302129,214.806611 C125.412182,217.334393 131.054262,218.881085 131.054262,218.881085 C131.054262,218.881085 112.907587,283.994587 107.653574,300.309214 C102.890804,315.097132 71.6790426,347.309968 66.1447853,353.830892 C65.5731413,354.504316 63.9502301,355.184247 63.9502301,355.184247 C60.7666844,355.952946 57.4386011,354.698582 55.5349801,352.011855 C55.5349801,352.011855 54.5325118,349.755488 54.7676759,348.607088 L56.4998036,340.149081 C63.0797511,313.309234 75.6633547,300.024786 80.9954452,272.005865 C89.043077,229.71583 95.0588166,220.167052 96.4028771,216.954227 C100.567513,207.002509 116.302129,214.806611 116.302129,214.806611" id="Fill-145" fill="#000000"></path>
                <path d="M146.513188,216.011153 C148.12541,231.278695 147.171741,257.626835 145.690579,269.528649 C141.613781,302.290355 114.52994,348.380661 109.536188,357.739356 C108.897155,358.937485 107.718082,359.751729 106.378204,359.904167 C102.539824,360.341963 101.115826,359.386435 99.1522522,358.381178 C97.7426618,357.658954 96.9200522,356.180581 96.8861254,354.586019 C96.2127009,322.491696 103.050121,295.008633 110.142224,277.500991 C112.877749,270.748621 115.871212,232.330427 115.500341,218.483165 L146.513188,216.011153 Z" id="Fill-147" fill="#000000"></path>
                <path d="M97.6653272,322.716496 C97.6230349,322.716496 97.5802778,322.712778 97.5375207,322.704877 C97.1587484,322.634235 96.909177,322.270799 96.9793545,321.892492 C100.187067,304.60793 102.882159,293.889838 105.99088,286.054132 C110.314925,275.154323 112.587094,263.809281 112.745109,252.333644 L112.823652,246.622317 C112.828765,246.237038 113.158738,245.939597 113.530539,245.934485 C113.915353,245.940062 114.223018,246.256093 114.217969,246.641372 L114.139363,252.352699 C113.979024,263.998435 111.673393,275.510322 107.287071,286.568147 C104.213207,294.31555 101.540423,304.955564 98.3499058,322.146246 C98.2876291,322.482261 97.9948358,322.716496 97.6653272,322.716496" id="Fill-149" fill="#FFFFFF"></path>
                <path d="M72.46661,228.637932 C72.2333049,229.300668 72.8198209,230.6029 72.7366305,231.1448 C72.4326832,233.119993 69.4940613,235.894558 67.333433,237.697792 C65.6143183,239.132015 64.6006959,241.264293 64.5937247,243.514618 C64.5923304,244.0449 64.6188212,244.622585 64.6499596,245.244422 C64.721996,246.669814 64.2656103,247.426429 63.6488855,247.809849 C62.4372791,248.563211 60.860843,247.682972 60.7074751,246.255721 C60.3719247,243.134452 59.8174766,236.66558 60.6921383,234.385046 C61.2665708,232.886223 63.1190691,230.924044 64.8544501,229.316004 C66.560087,227.73585 67.5035319,225.492961 67.4937722,223.157121 C67.4593806,215.076957 71.9419059,191.485721 77.2033543,174.926171 L90.3604608,182.236708 C90.3604608,182.236708 81.1067996,204.1158 72.46661,228.637932" id="Fill-151" fill="#FFFFFF"></path>
                <path d="M77.6114058,175.950483 C72.3309027,192.867427 68.1579016,215.429703 68.190899,223.153868 C68.2015882,225.699311 67.1582218,228.131354 65.3280316,229.827695 C63.1543902,231.841462 61.7764029,233.503877 61.3423253,234.635082 C60.76371,236.145059 60.7855533,240.461203 61.4004192,246.181361 C61.451077,246.650295 61.73504,247.054164 62.1598226,247.261443 C62.5334826,247.444555 62.9419989,247.428288 63.2803378,247.218221 C63.776692,246.909161 64.0030259,246.257115 63.9537623,245.279743 C63.9226239,244.662554 63.8952036,244.06256 63.8965979,243.512295 C63.9040339,241.056549 64.9934107,238.742088 66.8868071,237.162864 C69.9625305,234.595578 71.8438434,232.363843 72.0478692,231.038837 C72.0590232,230.925903 71.9730442,230.555961 71.9158798,230.311037 C71.7708775,229.687341 71.6068203,228.979989 71.8089871,228.406951 C79.5852042,206.336846 87.9572323,186.170827 89.4760393,182.542514 L77.6114058,175.950483 Z M62.6891742,248.781179 C62.302966,248.781179 61.9135045,248.692412 61.5486748,248.514877 C60.6898146,248.095671 60.1163116,247.279103 60.0145311,246.330081 C59.6338998,242.793789 59.1319685,236.507565 60.0410219,234.135939 C60.5578252,232.787696 62.0180735,230.993756 64.3804039,228.804313 C65.9252369,227.373344 66.8059404,225.316356 66.7966454,223.160375 C66.7627185,215.211735 71.1007062,191.830102 76.5387601,174.715174 C76.6019662,174.515796 76.7516161,174.354992 76.9458821,174.277843 C77.1401481,174.201159 77.3590459,174.215102 77.5416931,174.316418 L90.6992644,181.627419 C91.0106477,181.800771 91.1417076,182.180473 91.002747,182.508122 C90.9102615,182.72702 81.6579945,204.650729 73.124233,228.869843 L73.124233,228.870308 C73.0573088,229.060391 73.1930162,229.645978 73.2743476,229.995471 C73.3854231,230.474629 73.4816266,230.888258 73.4253918,231.250299 C73.1595541,232.980103 71.2601159,235.328955 67.7800589,238.233186 C66.2040876,239.548432 65.2968932,241.473896 65.2908515,243.516477 C65.2894572,244.032816 65.3164128,244.611896 65.3461569,245.209566 C65.4418956,247.105286 64.6759856,247.992031 64.0165037,248.401477 C63.6117054,248.653837 63.1525312,248.781179 62.6891742,248.781179 L62.6891742,248.781179 Z" id="Fill-153" fill="#000000"></path>
                <path d="M153.457919,156.524347 L171.579498,177.346131 C172.864535,178.822645 175.089764,179.009475 176.600205,177.763942 C181.786828,173.488231 192.659683,164.467875 193.407468,163.37571 C194.391811,161.937305 199.205704,154.568674 201.889177,152.206809 C204.411382,149.987622 206.452569,147.47936 207.638614,145.907106 C208.353401,144.959478 209.296846,144.762424 209.963764,145.183489 C210.55028,145.553895 210.751053,146.227785 209.708616,147.650853 C208.502122,149.297001 207.336991,150.973824 206.32058,152.388526 C206.000831,152.833758 205.598356,153.210671 206.096105,153.012687 C207.256589,152.552119 208.658743,152.21378 209.351687,152.872332 C210.65299,154.1095 210.021394,160.048556 206.552491,163.454253 C203.083588,166.859485 200.629701,165.23332 199.319103,166.978461 C198.008504,168.723602 185.531329,193.297322 180.927504,196.036565 C170.381369,202.310706 150.666158,182.595496 150.666158,182.595496 L153.457919,156.524347 Z" id="Fill-155" fill="#FFFFFF"></path>
                <path d="M151.395353,182.333004 C153.639172,184.502463 171.21095,201.008102 180.571039,195.437129 C183.853112,193.484244 191.989976,178.694002 195.900393,171.585633 C197.544218,168.597747 198.41795,167.017128 198.761401,166.560278 C199.482695,165.599637 200.448913,165.430003 201.472295,165.249679 C202.760121,165.023346 204.220369,164.766803 206.064037,162.957062 C208.299026,160.762507 209.298241,157.367499 209.28058,155.141806 C209.272215,154.118888 209.054711,153.551892 208.871134,153.377145 C208.614127,153.133151 207.818008,153.07924 206.353577,153.661108 C205.775891,153.889766 205.466367,153.682951 205.307887,153.470095 C204.957464,152.998373 205.312534,152.548494 205.547698,152.251053 C205.613228,152.168792 205.68573,152.076771 205.754513,151.981497 C206.128173,151.461441 206.521817,150.906063 206.930333,150.329772 C207.634431,149.336598 208.382216,148.281613 209.146267,147.238711 C209.768569,146.389146 209.762062,146.034076 209.745331,145.945773 C209.740219,145.917888 209.729065,145.859795 209.591963,145.773351 C209.194136,145.522385 208.633646,145.744536 208.194921,146.326869 C206.906631,148.035295 204.846854,150.532868 202.349745,152.730212 C200.038538,154.764428 195.986372,160.791321 194.461059,163.060701 C194.257497,163.363254 194.094835,163.60446 193.982365,163.769447 C193.24434,164.847205 184.363874,172.267423 177.044042,178.301752 C175.230119,179.797786 172.598697,179.578424 171.053864,177.804004 L153.980764,158.18732 L151.395353,182.333004 Z M176.137313,197.967699 C165.198929,197.967699 150.875761,183.790929 150.173522,183.088225 L149.937429,182.852596 L152.935074,154.861561 L172.105596,176.888909 C173.150822,178.089361 174.930354,178.237152 176.156832,177.226318 C187.867168,167.572041 192.448686,163.538001 192.832106,162.981229 C192.943181,162.819495 193.103056,162.581078 193.303828,162.282708 C195.002958,159.755391 198.982158,153.836784 201.428609,151.683592 C203.837414,149.563397 205.832591,147.143902 207.081842,145.487529 C207.969052,144.311244 209.307071,143.945949 210.33603,144.594277 C210.872818,144.933081 211.05593,145.375059 211.114953,145.685513 C211.241365,146.349178 210.972739,147.104398 210.270965,148.06318 C209.511097,149.099575 208.767495,150.148519 208.067579,151.136115 C207.891903,151.384292 207.718551,151.628751 207.548452,151.867633 C208.549526,151.707759 209.314042,151.87414 209.831775,152.366776 C210.515424,153.016963 210.667398,154.228569 210.674834,155.131116 C210.695283,157.725822 209.57988,161.459633 207.040944,163.951629 C204.888216,166.064853 203.053379,166.38739 201.713501,166.623019 C200.736594,166.794512 200.249999,166.899546 199.87634,167.39683 C199.57611,167.796981 198.49324,169.765667 197.122224,172.257663 C191.205012,183.013865 184.613445,194.654953 181.283968,196.635258 C179.717756,197.567084 177.974939,197.967699 176.137313,197.967699 L176.137313,197.967699 Z" id="Fill-157" fill="#000000"></path>
                <path d="M100.897021,142.261644 C114.77914,137.800033 138.530715,140.048499 145.735752,145.375477 C155.095842,152.294693 163.936804,163.486832 167.404312,168.120401 C168.368206,169.408691 168.516927,171.134777 167.79238,172.574112 C164.676688,178.762739 157.753289,194.048871 153.818241,191.167878 C149.901317,188.299434 144.923832,182.893912 145.205007,185.725177 C145.951397,193.234627 147.229928,218.319108 147.229928,218.319108 C147.229928,218.319108 143.109443,219.739388 142.930514,223.112087 L142.508985,232.246307 C142.406275,233.309658 141.27507,233.934284 140.333949,233.444901 C132.761293,229.506134 102.779728,225.732354 91.6001382,219.612046 C90.2607252,218.879133 89.5357133,217.371015 89.7964387,215.855927 C91.1079666,208.233542 98.689453,192.130378 95.6225598,182.438456 C95.306529,181.438312 92.9158488,185.575992 90.0255611,188.039638 C89.5612746,188.435141 88.8892444,188.457914 88.4124097,188.077747 L75.1828019,177.530219 C74.0111642,176.596069 73.5891701,174.998254 74.147801,173.601212 C76.8944806,166.728007 85.9153015,147.076467 100.897021,142.261644" id="Fill-159" fill="#577EE8"></path>
                <path d="M117.059813,141.110409 L117.220152,125.610956 L130.013823,131.530957 L130.145348,140.639616 C130.14256,143.082813 128.120427,144.519359 128.120427,144.519359 C125.622389,146.500593 122.013596,146.289596 119.330588,144.566764 L118.709215,144.168007 C117.670032,143.500624 117.0468,142.345718 117.059813,141.110409" id="Fill-161" fill="#FFFFFF"></path>
                <path d="M117.756708,141.117659 C117.746483,142.119198 118.243302,143.0408 119.085896,143.581305 L119.707268,143.980062 C122.301045,145.64573 125.582653,145.642012 127.687511,143.973091 C127.731663,143.940093 129.445665,142.677829 129.448454,140.638965 L129.322971,131.979256 L117.906357,126.696894 L117.756708,141.117659 Z M123.886311,146.642621 C122.227149,146.642621 120.502458,146.147661 118.953907,145.154023 L118.332534,144.754802 C117.083748,143.953106 116.347117,142.587667 116.362454,141.103252 L116.523258,125.603799 C116.525582,125.367241 116.647811,125.148343 116.847654,125.021931 C117.047962,124.895054 117.297998,124.878787 117.513178,124.978244 L130.306384,130.898245 C130.549914,131.010715 130.707,131.252385 130.711183,131.521012 L130.842707,140.62967 C130.838989,143.410742 128.618873,145.020175 128.524528,145.087564 C127.219972,146.122565 125.587301,146.642621 123.886311,146.642621 L123.886311,146.642621 Z" id="Fill-163" fill="#000000"></path>
                <path d="M134.445551,103.046217 C131.085865,102.975574 134.052372,106.717751 121.935843,103.446832 C116.968583,102.10556 119.652521,107.835013 118.357259,107.51294 C113.57311,106.323642 111.899541,107.96189 110.832008,108.819821 C109.598558,109.8116 108.422273,112.11816 108.786638,114.203964 C109.26719,116.957614 112.973581,117.663107 115.219259,123.436711 C116.796625,127.4912 116.537293,129.999463 118.213651,130.538109 C119.908599,131.083262 121.062576,128.805052 122.959226,129.260973 C125.413112,129.851207 125.085462,134.052558 127.513787,135.702425 C129.044678,136.742538 132.5331,137.124099 137.996715,134.230093 C138.881602,133.761159 139.307779,132.725693 139.006155,131.770165 C138.619482,130.54601 138.123128,129.001642 137.524528,127.566025 C134.67328,120.723493 132.133879,119.24512 132.967643,117.415394 C134.245708,114.612015 139.539225,116.000692 140.324189,113.707144 C141.138898,111.325759 139.045659,103.142885 134.445551,103.046217" id="Fill-165" fill="#000000"></path>
                <path d="M124.066495,119.615434 L124.066495,119.615434 C124.549837,120.439902 124.975084,121.295974 125.339914,122.179466 C126.023563,123.833051 127.218438,126.661991 128.008515,128.196135 C128.98821,130.098362 134.600546,128.069723 136.340574,127.385144 C136.621284,127.274533 136.748626,126.950137 136.61989,126.677793 L135.946001,125.027461 L137.323059,124.624522 C137.486186,124.551556 137.635836,124.444663 137.740405,124.299661 C138.00206,123.938084 137.986723,123.471474 137.73994,123.135924 C136.46141,121.39636 134.195748,118.537676 132.996225,114.946078 C132.873995,114.579854 132.549599,114.31727 132.164785,114.28009 C130.843497,114.151354 127.721299,114.141594 124.761298,116.312447 C123.718861,117.076962 123.41259,118.500495 124.066495,119.615434" id="Fill-167" fill="#FFFFFF"></path>
                <path d="M124.667697,119.262827 C125.164052,120.109604 125.60696,121.000996 125.984338,121.913303 C126.634989,123.486951 127.844272,126.35493 128.628307,127.87699 C129.00522,128.608973 131.625952,128.467689 135.918395,126.801556 L135.007947,124.575398 L137.072836,123.971221 C137.119312,123.946589 137.156027,123.917775 137.176011,123.890355 C137.268961,123.762083 137.235499,123.626376 137.1788,123.549227 L136.819547,123.064492 C135.483387,121.26544 133.463579,118.54618 132.335163,115.167439 C132.299377,115.060082 132.205962,114.983863 132.09721,114.973638 C130.945557,114.860239 127.968825,114.824918 125.173347,116.874935 C124.413478,117.431707 124.195975,118.458807 124.667697,119.262827 L124.667697,119.262827 Z M129.991422,129.684873 C128.776563,129.684873 127.823358,129.359082 127.388816,128.515559 C126.581543,126.948882 125.355064,124.040004 124.695582,122.445908 C124.343301,121.593089 123.928743,120.759326 123.464921,119.968319 C122.630693,118.545251 123.010395,116.731327 124.348878,115.750237 C127.531959,113.415792 130.921854,113.459943 132.231988,113.585891 C132.888217,113.650027 133.447777,114.097117 133.657845,114.725461 C134.715618,117.89367 136.65549,120.505107 137.938668,122.233052 L138.301639,122.723364 C138.735716,123.313134 138.737111,124.111111 138.305357,124.707852 C138.137117,124.940692 137.895911,125.13124 137.608695,125.260906 L137.518998,125.293438 L136.883218,125.479339 L137.265243,126.413954 C137.39398,126.684439 137.405134,127.038114 137.281045,127.350892 C137.157421,127.662275 136.90785,127.911382 136.595537,128.034076 C134.411206,128.892936 131.884354,129.684873 129.991422,129.684873 L129.991422,129.684873 Z" id="Fill-169" fill="#000000"></path>
                <path d="M123.56159,126.009852 C120.17913,127.531913 118.709122,124.382294 119.310975,122.378287 C119.5638,121.535693 120.681991,121.35444 121.212737,122.056214 L123.727041,125.381509 C123.888774,125.59483 123.805584,125.900171 123.56159,126.009852" id="Fill-171" fill="#FFFFFF"></path>
            </g>
        </g>
    </g>
</svg>