<?xml version="1.0" encoding="UTF-8"?>
<svg width="24px" height="24px" viewBox="0 0 24 24" version="1.1" xmlns="http://www.w3.org/2000/svg" xmlns:xlink="http://www.w3.org/1999/xlink">
    <!-- Generator: sketchtool 61 (101010) - https://sketch.com -->
    <title>8F74BBB6-5727-4035-942B-3BFCC2404700</title>
    <desc>Created with sketchtool.</desc>
    <defs>
        <path d="M7.16697248,20.5981651 C5.15779817,20.5981651 3.14311927,20.5981651 1.13394495,20.5981651 C0.847706422,20.5981651 0.56146789,20.5981651 0.275229358,20.5981651 C0.368807339,20.6917431 0.456880734,20.7798165 0.550458716,20.8733945 C0.550458716,18.8807339 0.550458716,16.8880734 0.550458716,14.8954128 C0.550458716,11.746789 0.550458716,8.59266055 0.550458716,5.4440367 C0.550458716,4.72293578 0.550458716,4.00733945 0.550458716,3.28623853 C0.456880734,3.37981651 0.368807339,3.46788991 0.275229358,3.56146789 C2.28440367,3.56146789 4.29908257,3.56146789 6.30825688,3.56146789 C6.59449541,3.56146789 6.88073394,3.56146789 7.16697248,3.56146789 C7.0733945,3.46788991 6.9853211,3.37981651 6.89174312,3.28623853 C6.89174312,5.27889908 6.89174312,7.27155963 6.89174312,9.26422018 C6.89174312,12.412844 6.89174312,15.5669725 6.89174312,18.7155963 C6.89174312,19.4366972 6.89174312,20.1522936 6.89174312,20.8733945 C6.89174312,21.2256881 7.44220183,21.2256881 7.44220183,20.8733945 C7.44220183,18.8807339 7.44220183,16.8880734 7.44220183,14.8954128 C7.44220183,11.746789 7.44220183,8.59266055 7.44220183,5.4440367 C7.44220183,4.72293578 7.44220183,4.00733945 7.44220183,3.28623853 C7.44220183,3.13761468 7.31559633,3.01100917 7.16697248,3.01100917 C5.15779817,3.01100917 3.14311927,3.01100917 1.13394495,3.01100917 C0.847706422,3.01100917 0.56146789,3.01100917 0.275229358,3.01100917 C0.126605505,3.01100917 0,3.13761468 0,3.28623853 C0,5.27889908 0,7.27155963 0,9.26422018 C0,12.412844 0,15.5669725 0,18.7155963 C0,19.4366972 0,20.1522936 0,20.8733945 C0,21.0220183 0.126605505,21.1486239 0.275229358,21.1486239 C2.28440367,21.1486239 4.29908257,21.1486239 6.30825688,21.1486239 C6.59449541,21.1486239 6.88073394,21.1486239 7.16697248,21.1486239 C7.51926606,21.1486239 7.51926606,20.5981651 7.16697248,20.5981651 Z" id="path-1"></path>
        <path d="M23.7192661,9.54495413 C22.0788991,9.54495413 20.4385321,9.54495413 18.7926606,9.54495413 C16.1779817,9.54495413 13.5633028,9.54495413 10.9486239,9.54495413 C10.3541284,9.54495413 9.75412844,9.54495413 9.15963303,9.54495413 C9.25321101,9.63853211 9.3412844,9.7266055 9.43486239,9.82018349 C9.43486239,7.91559633 9.43486239,6.00550459 9.43486239,4.10091743 C9.43486239,3.83119266 9.43486239,3.5559633 9.43486239,3.28623853 C9.3412844,3.37981651 9.25321101,3.46788991 9.15963303,3.56146789 C10.8,3.56146789 12.440367,3.56146789 14.0862385,3.56146789 C16.7009174,3.56146789 19.3155963,3.56146789 21.9302752,3.56146789 C22.5247706,3.56146789 23.1247706,3.56146789 23.7192661,3.56146789 C23.6256881,3.46788991 23.5376147,3.37981651 23.4440367,3.28623853 C23.4440367,5.19082569 23.4440367,7.10091743 23.4440367,9.00550459 C23.4440367,9.27522936 23.4440367,9.55045872 23.4440367,9.82018349 C23.4440367,10.1724771 23.9944954,10.1724771 23.9944954,9.82018349 C23.9944954,7.91559633 23.9944954,6.00550459 23.9944954,4.10091743 C23.9944954,3.83119266 23.9944954,3.5559633 23.9944954,3.28623853 C23.9944954,3.13761468 23.8678899,3.01100917 23.7192661,3.01100917 C22.0788991,3.01100917 20.4385321,3.01100917 18.7926606,3.01100917 C16.1779817,3.01100917 13.5633028,3.01100917 10.9486239,3.01100917 C10.3541284,3.01100917 9.75412844,3.01100917 9.15963303,3.01100917 C9.01100917,3.01100917 8.88440367,3.13761468 8.88440367,3.28623853 C8.88440367,5.19082569 8.88440367,7.10091743 8.88440367,9.00550459 C8.88440367,9.27522936 8.88440367,9.55045872 8.88440367,9.82018349 C8.88440367,9.96880734 9.01100917,10.0954128 9.15963303,10.0954128 C10.8,10.0954128 12.440367,10.0954128 14.0862385,10.0954128 C16.7009174,10.0954128 19.3155963,10.0954128 21.9302752,10.0954128 C22.5247706,10.0954128 23.1247706,10.0954128 23.7192661,10.0954128 C24.0770642,10.0954128 24.0770642,9.54495413 23.7192661,9.54495413 Z" id="path-2"></path>
        <path d="M15.3688073,20.5981651 C13.5577982,20.5981651 11.746789,20.5981651 9.93577982,20.5981651 C9.67706422,20.5981651 9.41834862,20.5981651 9.16513761,20.5981651 C9.2587156,20.6917431 9.34678899,20.7798165 9.44036697,20.8733945 C9.44036697,18.2256881 9.44036697,15.5724771 9.44036697,12.9247706 C9.44036697,12.5449541 9.44036697,12.1651376 9.44036697,11.7798165 C9.34678899,11.8733945 9.2587156,11.9614679 9.16513761,12.0550459 C10.9761468,12.0550459 12.787156,12.0550459 14.5981651,12.0550459 C14.8568807,12.0550459 15.1155963,12.0550459 15.3688073,12.0550459 C15.2752294,11.9614679 15.187156,11.8733945 15.093578,11.7798165 C15.093578,14.4275229 15.093578,17.0807339 15.093578,19.7284404 C15.093578,20.1082569 15.093578,20.4880734 15.093578,20.8733945 C15.093578,21.2256881 15.6440367,21.2256881 15.6440367,20.8733945 C15.6440367,18.2256881 15.6440367,15.5724771 15.6440367,12.9247706 C15.6440367,12.5449541 15.6440367,12.1651376 15.6440367,11.7798165 C15.6440367,11.6311927 15.5174312,11.5045872 15.3688073,11.5045872 C13.5577982,11.5045872 11.746789,11.5045872 9.93577982,11.5045872 C9.67706422,11.5045872 9.41834862,11.5045872 9.16513761,11.5045872 C9.01651376,11.5045872 8.88990826,11.6311927 8.88990826,11.7798165 C8.88990826,14.4275229 8.88990826,17.0807339 8.88990826,19.7284404 C8.88990826,20.1082569 8.88990826,20.4880734 8.88990826,20.8733945 C8.88990826,21.0220183 9.01651376,21.1486239 9.16513761,21.1486239 C10.9761468,21.1486239 12.787156,21.1486239 14.5981651,21.1486239 C14.8568807,21.1486239 15.1155963,21.1486239 15.3688073,21.1486239 C15.7211009,21.1486239 15.7211009,20.5981651 15.3688073,20.5981651 Z" id="path-3"></path>
        <path d="M23.7192661,20.5981651 C21.9357798,20.5981651 20.1577982,20.5981651 18.3743119,20.5981651 C18.1211009,20.5981651 17.8623853,20.5981651 17.6091743,20.5981651 C17.7027523,20.6917431 17.7908257,20.7798165 17.8844037,20.8733945 C17.8844037,18.2256881 17.8844037,15.5724771 17.8844037,12.9247706 C17.8844037,12.5449541 17.8844037,12.1651376 17.8844037,11.7798165 C17.7908257,11.8733945 17.7027523,11.9614679 17.6091743,12.0550459 C19.3926606,12.0550459 21.1706422,12.0550459 22.9541284,12.0550459 C23.2073394,12.0550459 23.466055,12.0550459 23.7192661,12.0550459 C23.6256881,11.9614679 23.5376147,11.8733945 23.4440367,11.7798165 C23.4440367,14.4275229 23.4440367,17.0807339 23.4440367,19.7284404 C23.4440367,20.1082569 23.4440367,20.4880734 23.4440367,20.8733945 C23.4440367,21.2256881 23.9944954,21.2256881 23.9944954,20.8733945 C23.9944954,18.2256881 23.9944954,15.5724771 23.9944954,12.9247706 C23.9944954,12.5449541 23.9944954,12.1651376 23.9944954,11.7798165 C23.9944954,11.6311927 23.8678899,11.5045872 23.7192661,11.5045872 C21.9357798,11.5045872 20.1577982,11.5045872 18.3743119,11.5045872 C18.1211009,11.5045872 17.8623853,11.5045872 17.6091743,11.5045872 C17.4605505,11.5045872 17.333945,11.6311927 17.333945,11.7798165 C17.333945,14.4275229 17.333945,17.0807339 17.333945,19.7284404 C17.333945,20.1082569 17.333945,20.4880734 17.333945,20.8733945 C17.333945,21.0220183 17.4605505,21.1486239 17.6091743,21.1486239 C19.3926606,21.1486239 21.1706422,21.1486239 22.9541284,21.1486239 C23.2073394,21.1486239 23.466055,21.1486239 23.7192661,21.1486239 C24.0770642,21.1486239 24.0770642,20.5981651 23.7192661,20.5981651 Z" id="path-4"></path>
    </defs>
    <g id="Layout-FIWOO" stroke="none" stroke-width="1" fill="none" fill-rule="evenodd">
        <g id="Mobile-Dashboard-menu-user" transform="translate(-16.000000, -494.000000)" fill-rule="nonzero">
            <g id="Menu-usuariodesplegao" transform="translate(0.000000, 112.000000)">
                <g id="Nav/Menu/List--#3-Nav/Menu/List-" transform="translate(0.000000, 366.000000)">
                    <g id="Nav/Menu/List-">
                        <g id="icon-device-icon-dashboard" transform="translate(12.000000, 12.000000)">
                            <g id="ico-dashboard" transform="translate(4.000000, 4.000000)">
                                <g id="Path">
                                    <use fill="#2B334A" xlink:href="#path-1"></use>
                                    <use stroke="#2A324D" stroke-width="0.5" xlink:href="#path-1"></use>
                                    <use stroke="#2B334A" stroke-width="0.6" xlink:href="#path-1"></use>
                                </g>
                                <g id="Path">
                                    <use fill="#2B334A" xlink:href="#path-2"></use>
                                    <use stroke="#2A324D" stroke-width="0.5" xlink:href="#path-2"></use>
                                    <use stroke="#2B334A" stroke-width="0.6" xlink:href="#path-2"></use>
                                </g>
                                <g id="Path">
                                    <use fill="#2B334A" xlink:href="#path-3"></use>
                                    <use stroke="#2A324D" stroke-width="0.5" xlink:href="#path-3"></use>
                                    <use stroke="#2B334A" stroke-width="0.6" xlink:href="#path-3"></use>
                                </g>
                                <g id="Path">
                                    <use fill="#2B334A" xlink:href="#path-4"></use>
                                    <use stroke="#2A324D" stroke-width="0.5" xlink:href="#path-4"></use>
                                    <use stroke="#2B334A" stroke-width="0.6" xlink:href="#path-4"></use>
                                </g>
                            </g>
                        </g>
                    </g>
                </g>
            </g>
        </g>
    </g>
</svg>