<?xml version="1.0" encoding="UTF-8"?>
<svg width="90px" height="90px" viewBox="0 0 90 90" version="1.1" xmlns="http://www.w3.org/2000/svg" xmlns:xlink="http://www.w3.org/1999/xlink">
    <!-- Generator: sketchtool 58 (101010) - https://sketch.com -->
    <title>4C94C377-696F-4ED2-A29D-E2E7F65E49B2</title>
    <desc>Created with sketchtool.</desc>
    <defs>
        <linearGradient x1="50%" y1="0%" x2="50%" y2="98.7107117%" id="linearGradient-1">
            <stop stop-color="#EDD53E" offset="0%"></stop>
            <stop stop-color="#FBE273" offset="100%"></stop>
        </linearGradient>
        <rect id="path-2" x="21" y="21" width="48" height="48" rx="24"></rect>
        <filter x="-31.2%" y="-31.2%" width="162.5%" height="162.5%" filterUnits="objectBoundingBox" id="filter-3">
            <feOffset dx="0" dy="0" in="SourceAlpha" result="shadowOffsetOuter1"></feOffset>
            <feGaussianBlur stdDeviation="5" in="shadowOffsetOuter1" result="shadowBlurOuter1"></feGaussianBlur>
            <feColorMatrix values="0 0 0 0 0.975363195   0 0 0 0 0.860497057   0 0 0 0 0.203421533  0 0 0 1 0" type="matrix" in="shadowBlurOuter1"></feColorMatrix>
        </filter>
    </defs>
    <g id="-⚙-Design-Guideline" stroke="none" stroke-width="1" fill="none" fill-rule="evenodd">
        <g id="-⚙-Iconos" transform="translate(-1014.000000, -352.000000)">
            <g id="Dashboard" transform="translate(1014.000000, 352.000000)">
                <g id="Group">
                    <g id="Rectangle">
                        <use fill="black" fill-opacity="1" filter="url(#filter-3)" xlink:href="#path-2"></use>
                        <use fill="url(#linearGradient-1)" fill-rule="evenodd" xlink:href="#path-2"></use>
                    </g>
                </g>
                <g id="ico-dashboard" transform="translate(30.000000, 34.000000)" fill="#2B334A" fill-rule="nonzero" stroke="#2A324D" stroke-width="0.5">
                    <path d="M8.9587156,21.9977064 C6.44724771,21.9977064 3.92889908,21.9977064 1.41743119,21.9977064 C1.05963303,21.9977064 0.701834862,21.9977064 0.344036697,21.9977064 C0.461009174,22.1146789 0.571100917,22.2247706 0.688073394,22.3417431 C0.688073394,19.8509174 0.688073394,17.3600917 0.688073394,14.8692661 C0.688073394,10.9334862 0.688073394,6.99082569 0.688073394,3.05504587 C0.688073394,2.15366972 0.688073394,1.25917431 0.688073394,0.357798165 C0.571100917,0.474770642 0.461009174,0.584862385 0.344036697,0.701834862 C2.85550459,0.701834862 5.37385321,0.701834862 7.8853211,0.701834862 C8.24311927,0.701834862 8.60091743,0.701834862 8.9587156,0.701834862 C8.84174312,0.584862385 8.73165138,0.474770642 8.6146789,0.357798165 C8.6146789,2.84862385 8.6146789,5.33944954 8.6146789,7.83027523 C8.6146789,11.766055 8.6146789,15.7087156 8.6146789,19.6444954 C8.6146789,20.5458716 8.6146789,21.440367 8.6146789,22.3417431 C8.6146789,22.7821101 9.30275229,22.7821101 9.30275229,22.3417431 C9.30275229,19.8509174 9.30275229,17.3600917 9.30275229,14.8692661 C9.30275229,10.9334862 9.30275229,6.99082569 9.30275229,3.05504587 C9.30275229,2.15366972 9.30275229,1.25917431 9.30275229,0.357798165 C9.30275229,0.172018349 9.14449541,0.0137614679 8.9587156,0.0137614679 C6.44724771,0.0137614679 3.92889908,0.0137614679 1.41743119,0.0137614679 C1.05963303,0.0137614679 0.701834862,0.0137614679 0.344036697,0.0137614679 C0.158256881,0.0137614679 0,0.172018349 0,0.357798165 C0,2.84862385 0,5.33944954 0,7.83027523 C0,11.766055 0,15.7087156 0,19.6444954 C0,20.5458716 0,21.440367 0,22.3417431 C0,22.5275229 0.158256881,22.6857798 0.344036697,22.6857798 C2.85550459,22.6857798 5.37385321,22.6857798 7.8853211,22.6857798 C8.24311927,22.6857798 8.60091743,22.6857798 8.9587156,22.6857798 C9.39908257,22.6857798 9.39908257,21.9977064 8.9587156,21.9977064 Z" id="Path"></path>
                    <path d="M29.6490826,8.18119266 C27.5986239,8.18119266 25.5481651,8.18119266 23.4908257,8.18119266 C20.2224771,8.18119266 16.9541284,8.18119266 13.6857798,8.18119266 C12.9426606,8.18119266 12.1926606,8.18119266 11.4495413,8.18119266 C11.5665138,8.29816514 11.6766055,8.40825688 11.793578,8.52522936 C11.793578,6.14449541 11.793578,3.75688073 11.793578,1.37614679 C11.793578,1.03899083 11.793578,0.694954128 11.793578,0.357798165 C11.6766055,0.474770642 11.5665138,0.584862385 11.4495413,0.701834862 C13.5,0.701834862 15.5504587,0.701834862 17.6077982,0.701834862 C20.8761468,0.701834862 24.1444954,0.701834862 27.412844,0.701834862 C28.1559633,0.701834862 28.9059633,0.701834862 29.6490826,0.701834862 C29.5321101,0.584862385 29.4220183,0.474770642 29.3050459,0.357798165 C29.3050459,2.73853211 29.3050459,5.12614679 29.3050459,7.50688073 C29.3050459,7.8440367 29.3050459,8.18807339 29.3050459,8.52522936 C29.3050459,8.96559633 29.9931193,8.96559633 29.9931193,8.52522936 C29.9931193,6.14449541 29.9931193,3.75688073 29.9931193,1.37614679 C29.9931193,1.03899083 29.9931193,0.694954128 29.9931193,0.357798165 C29.9931193,0.172018349 29.8348624,0.0137614679 29.6490826,0.0137614679 C27.5986239,0.0137614679 25.5481651,0.0137614679 23.4908257,0.0137614679 C20.2224771,0.0137614679 16.9541284,0.0137614679 13.6857798,0.0137614679 C12.9426606,0.0137614679 12.1926606,0.0137614679 11.4495413,0.0137614679 C11.2637615,0.0137614679 11.1055046,0.172018349 11.1055046,0.357798165 C11.1055046,2.73853211 11.1055046,5.12614679 11.1055046,7.50688073 C11.1055046,7.8440367 11.1055046,8.18807339 11.1055046,8.52522936 C11.1055046,8.71100917 11.2637615,8.86926606 11.4495413,8.86926606 C13.5,8.86926606 15.5504587,8.86926606 17.6077982,8.86926606 C20.8761468,8.86926606 24.1444954,8.86926606 27.412844,8.86926606 C28.1559633,8.86926606 28.9059633,8.86926606 29.6490826,8.86926606 C30.0963303,8.86926606 30.0963303,8.18119266 29.6490826,8.18119266 Z" id="Path"></path>
                    <path d="M19.2110092,21.9977064 C16.9472477,21.9977064 14.6834862,21.9977064 12.4197248,21.9977064 C12.0963303,21.9977064 11.7729358,21.9977064 11.456422,21.9977064 C11.5733945,22.1146789 11.6834862,22.2247706 11.8004587,22.3417431 C11.8004587,19.0321101 11.8004587,15.7155963 11.8004587,12.4059633 C11.8004587,11.9311927 11.8004587,11.456422 11.8004587,10.9747706 C11.6834862,11.0917431 11.5733945,11.2018349 11.456422,11.3188073 C13.7201835,11.3188073 15.983945,11.3188073 18.2477064,11.3188073 C18.5711009,11.3188073 18.8944954,11.3188073 19.2110092,11.3188073 C19.0940367,11.2018349 18.983945,11.0917431 18.8669725,10.9747706 C18.8669725,14.2844037 18.8669725,17.6009174 18.8669725,20.9105505 C18.8669725,21.3853211 18.8669725,21.8600917 18.8669725,22.3417431 C18.8669725,22.7821101 19.5550459,22.7821101 19.5550459,22.3417431 C19.5550459,19.0321101 19.5550459,15.7155963 19.5550459,12.4059633 C19.5550459,11.9311927 19.5550459,11.456422 19.5550459,10.9747706 C19.5550459,10.7889908 19.396789,10.6307339 19.2110092,10.6307339 C16.9472477,10.6307339 14.6834862,10.6307339 12.4197248,10.6307339 C12.0963303,10.6307339 11.7729358,10.6307339 11.456422,10.6307339 C11.2706422,10.6307339 11.1123853,10.7889908 11.1123853,10.9747706 C11.1123853,14.2844037 11.1123853,17.6009174 11.1123853,20.9105505 C11.1123853,21.3853211 11.1123853,21.8600917 11.1123853,22.3417431 C11.1123853,22.5275229 11.2706422,22.6857798 11.456422,22.6857798 C13.7201835,22.6857798 15.983945,22.6857798 18.2477064,22.6857798 C18.5711009,22.6857798 18.8944954,22.6857798 19.2110092,22.6857798 C19.6513761,22.6857798 19.6513761,21.9977064 19.2110092,21.9977064 Z" id="Path"></path>
                    <path d="M29.6490826,21.9977064 C27.4197248,21.9977064 25.1972477,21.9977064 22.9678899,21.9977064 C22.6513761,21.9977064 22.3279817,21.9977064 22.0114679,21.9977064 C22.1284404,22.1146789 22.2385321,22.2247706 22.3555046,22.3417431 C22.3555046,19.0321101 22.3555046,15.7155963 22.3555046,12.4059633 C22.3555046,11.9311927 22.3555046,11.456422 22.3555046,10.9747706 C22.2385321,11.0917431 22.1284404,11.2018349 22.0114679,11.3188073 C24.2408257,11.3188073 26.4633028,11.3188073 28.6926606,11.3188073 C29.0091743,11.3188073 29.3325688,11.3188073 29.6490826,11.3188073 C29.5321101,11.2018349 29.4220183,11.0917431 29.3050459,10.9747706 C29.3050459,14.2844037 29.3050459,17.6009174 29.3050459,20.9105505 C29.3050459,21.3853211 29.3050459,21.8600917 29.3050459,22.3417431 C29.3050459,22.7821101 29.9931193,22.7821101 29.9931193,22.3417431 C29.9931193,19.0321101 29.9931193,15.7155963 29.9931193,12.4059633 C29.9931193,11.9311927 29.9931193,11.456422 29.9931193,10.9747706 C29.9931193,10.7889908 29.8348624,10.6307339 29.6490826,10.6307339 C27.4197248,10.6307339 25.1972477,10.6307339 22.9678899,10.6307339 C22.6513761,10.6307339 22.3279817,10.6307339 22.0114679,10.6307339 C21.8256881,10.6307339 21.6674312,10.7889908 21.6674312,10.9747706 C21.6674312,14.2844037 21.6674312,17.6009174 21.6674312,20.9105505 C21.6674312,21.3853211 21.6674312,21.8600917 21.6674312,22.3417431 C21.6674312,22.5275229 21.8256881,22.6857798 22.0114679,22.6857798 C24.2408257,22.6857798 26.4633028,22.6857798 28.6926606,22.6857798 C29.0091743,22.6857798 29.3325688,22.6857798 29.6490826,22.6857798 C30.0963303,22.6857798 30.0963303,21.9977064 29.6490826,21.9977064 Z" id="Path"></path>
                </g>
            </g>
        </g>
    </g>
</svg>