<?xml version="1.0" encoding="UTF-8"?>
<svg width="90px" height="90px" viewBox="0 0 90 90" version="1.1" xmlns="http://www.w3.org/2000/svg" xmlns:xlink="http://www.w3.org/1999/xlink">
    <!-- Generator: sketchtool 56.2 (101010) - https://sketch.com -->
    <title>8A7BD768-5890-4D9F-854D-3A77C4175040</title>
    <desc>Created with sketchtool.</desc>
    <defs>
        <linearGradient x1="50%" y1="0%" x2="50%" y2="100%" id="linearGradient-1">
            <stop stop-color="#FB9B51" offset="0%"></stop>
            <stop stop-color="#FBAE46" offset="100%"></stop>
        </linearGradient>
        <rect id="path-2" x="0" y="0" width="48" height="48" rx="24"></rect>
        <filter x="-31.2%" y="-31.2%" width="162.5%" height="162.5%" filterUnits="objectBoundingBox" id="filter-3">
            <feOffset dx="0" dy="0" in="SourceAlpha" result="shadowOffsetOuter1"></feOffset>
            <feGaussianBlur stdDeviation="5" in="shadowOffsetOuter1" result="shadowBlurOuter1"></feGaussianBlur>
            <feColorMatrix values="0 0 0 0 0.996078431   0 0 0 0 0.619607843   0 0 0 0 0.329411765  0 0 0 0.7 0" type="matrix" in="shadowBlurOuter1"></feColorMatrix>
        </filter>
    </defs>
    <g id="-⚙-Design-Guideline" stroke="none" stroke-width="1" fill="none" fill-rule="evenodd">
        <g id="-⚙-Iconos" transform="translate(-453.000000, -352.000000)">
            <g id="Devices-management" transform="translate(453.000000, 352.000000)">
                <g id="Group" transform="translate(21.000000, 19.000000)">
                    <g id="Rectangle">
                        <g>
                            <use fill="black" fill-opacity="1" filter="url(#filter-3)" xlink:href="#path-2"></use>
                            <use fill="url(#linearGradient-1)" fill-rule="evenodd" xlink:href="#path-2"></use>
                        </g>
                    </g>
                    <g transform="translate(14.142857, 4.000000)" fill="#2B334A" fill-rule="nonzero" id="Path">
                        <path d="M1.54285714,5.82857143 C1.28571429,5.82857143 1.11428571,5.74285714 0.942857143,5.57142857 C0.6,5.22857143 0.6,4.71428571 0.942857143,4.37142857 C5.65714286,-0.342857143 13.2,-0.342857143 17.9142857,4.37142857 C18.2571429,4.71428571 18.2571429,5.22857143 17.9142857,5.57142857 C17.5714286,5.91428571 17.0571429,5.91428571 16.7142857,5.57142857 C12.6857143,1.54285714 6.17142857,1.54285714 2.14285714,5.57142857 C1.97142857,5.74285714 1.8,5.82857143 1.54285714,5.82857143 Z"></path>
                        <path d="M14.3142857,8.82857143 C14.0571429,8.82857143 13.8857143,8.74285714 13.7142857,8.57142857 C11.4,6.25714286 7.54285714,6.25714286 5.22857143,8.57142857 C4.88571429,8.91428571 4.37142857,8.91428571 4.02857143,8.57142857 C3.68571429,8.22857143 3.68571429,7.71428571 4.02857143,7.37142857 C7.02857143,4.37142857 11.9142857,4.37142857 14.9142857,7.37142857 C15.2571429,7.71428571 15.2571429,8.22857143 14.9142857,8.57142857 C14.7428571,8.74285714 14.4857143,8.82857143 14.3142857,8.82857143 Z"></path>
                        <path d="M11.2285714,11.9142857 C10.9714286,11.9142857 10.8,11.8285714 10.6285714,11.6571429 C9.94285714,10.9714286 8.82857143,10.9714286 8.22857143,11.6571429 C7.88571429,12 7.37142857,12 7.02857143,11.6571429 C6.68571429,11.3142857 6.68571429,10.8 7.02857143,10.4571429 C8.4,9.08571429 10.5428571,9.08571429 11.9142857,10.4571429 C12.2571429,10.8 12.2571429,11.3142857 11.9142857,11.6571429 C11.6571429,11.8285714 11.4857143,11.9142857 11.2285714,11.9142857 Z"></path>
                    </g>
                </g>
                <g id="device" transform="translate(27.000000, 38.000000)" fill="#2B334A" fill-rule="nonzero">
                    <g id="Group">
                        <path d="M20,0 C8.97208333,0 0,8.97208333 0,20 C0,23.04625 0.6675,25.9716667 1.98375,28.695 C2.02458333,28.7791667 2.07958333,28.8566667 2.14583333,28.9225 C2.30208333,29.07875 2.51416667,29.1666667 2.735,29.1666667 L10.8333333,29.1666667 L10.8333333,30.47625 C10.8333333,33.03625 12.7025,35.1191667 15,35.1191667 L25,35.1191667 C27.2975,35.1191667 29.1666667,33.03625 29.1666667,30.47625 L29.1666667,9.52333333 C29.1666667,6.96333333 27.2975,4.88083333 25,4.88083333 L15,4.88083333 C12.7025,4.88083333 10.8333333,6.96375 10.8333333,9.52333333 L10.8333333,23.4029167 C10.8333333,23.8629167 11.2066667,24.23625 11.6666667,24.23625 C12.1266667,24.23625 12.5,23.8629167 12.5,23.4029167 L12.5,9.52333333 C12.5,7.8825 13.62125,6.5475 15,6.5475 L15.7291667,6.5475 L15.7291667,6.60708333 C15.7291667,8.37958333 17.0375,9.82166667 18.6458333,9.82166667 L21.3541667,9.82166667 C22.9620833,9.82166667 24.2708333,8.37958333 24.2708333,6.60708333 L24.2708333,6.5475 L25,6.5475 C26.37875,6.5475 27.5,7.8825 27.5,9.52333333 L27.5,27.5 L3.26541667,27.5 C2.20416667,25.1391667 1.66666667,22.6183333 1.66666667,20 C1.66666667,9.89083333 9.89083333,1.66666667 20,1.66666667 C30.1091667,1.66666667 38.3333333,9.89083333 38.3333333,20 C38.3333333,30.1091667 30.1091667,38.3333333 20,38.3333333 C15.0025,38.3333333 10.3316667,36.35875 6.84875,32.7729167 C6.52833333,32.4433333 6.00041667,32.4345833 5.67041667,32.7558333 C5.34041667,33.0766667 5.3325,33.6041667 5.65333333,33.9341667 C9.45291667,37.8458333 14.5483333,40 20,40 C31.0279167,40 40,31.0279167 40,20 C40,8.97208333 31.0279167,0 20,0 Z M22.6041667,6.60708333 C22.6041667,7.44625 22.0316667,8.155 21.3541667,8.155 L18.6458333,8.155 C17.9683333,8.155 17.3958333,7.44625 17.3958333,6.60708333 L17.3958333,6.5475 L22.6041667,6.5475 L22.6041667,6.60708333 Z M27.5,30.47625 C27.5,32.1170833 26.37875,33.4525 25,33.4525 L15,33.4525 C13.62125,33.4525 12.5,32.1175 12.5,30.47625 L12.5,29.1666667 L27.5,29.1666667 L27.5,30.47625 Z" id="Shape"></path>
                        <circle id="Oval" cx="20" cy="31.42875" r="1"></circle>
                    </g>
                </g>
            </g>
        </g>
    </g>
</svg>
