<?xml version="1.0" encoding="UTF-8"?>
<svg width="177px" height="177px" viewBox="0 0 177 177" version="1.1" xmlns="http://www.w3.org/2000/svg" xmlns:xlink="http://www.w3.org/1999/xlink">
    <!-- Generator: sketchtool 55.2 (78181) - https://sketchapp.com -->
    <title>115FEC30-C66E-44DD-A7CC-32308C6633F6</title>
    <desc>Created with sketchtool.</desc>
    <defs>
        <path d="M105.5,118 C73.1913421,118 47,91.8086579 47,59.5 C47,27.1913421 73.1913421,1 105.5,1 C137.808658,1 164,27.1913421 164,59.5 C164,91.8086579 137.808658,118 105.5,118 Z M105.5,115.669323 C136.52146,115.669323 161.669323,90.5214603 161.669323,59.5 C161.669323,28.4785397 136.52146,3.33067729 105.5,3.33067729 C74.4785397,3.33067729 49.3306773,28.4785397 49.3306773,59.5 C49.3306773,90.5214603 74.4785397,115.669323 105.5,115.669323 Z" id="path-1"></path>
        <filter x="-3.8%" y="-3.8%" width="107.7%" height="107.7%" filterUnits="objectBoundingBox" id="filter-2">
            <feGaussianBlur stdDeviation="4" in="SourceAlpha" result="shadowBlurInner1"></feGaussianBlur>
            <feOffset dx="0" dy="1" in="shadowBlurInner1" result="shadowOffsetInner1"></feOffset>
            <feComposite in="shadowOffsetInner1" in2="SourceAlpha" operator="arithmetic" k2="-1" k3="1" result="shadowInnerInner1"></feComposite>
            <feColorMatrix values="0 0 0 0 0   0 0 0 0 0   0 0 0 0 0  0 0 0 0.25 0" type="matrix" in="shadowInnerInner1"></feColorMatrix>
        </filter>
    </defs>
    <g id="-⚙-Admin-Devices" stroke="none" stroke-width="1" fill="none" fill-rule="evenodd">
        <g id="01--Admin-Devices-create-0-Step05" transform="translate(-651.000000, -410.000000)">
            <g id="Ilustracion-Ready" transform="translate(651.000000, 410.000000)">
                <g id="Group-2" transform="translate(10.000000, 12.000000)">
                    <g id="Group" transform="translate(0.000000, 63.000000)" fill="#577EE8" fill-rule="nonzero">
                        <g transform="translate(29.575000, 0.000000)">
                            <path d="M34.0001102,9.08156042 C33.6389042,9.08156042 33.2741973,8.97658227 32.9500592,8.75733213 C28.4685513,5.72204842 23.2741043,4.11759365 17.927885,4.11759365 C12.6380911,4.11759365 7.4735044,5.72204842 2.99199651,8.75733213 C2.11245786,9.35277157 0.928550642,9.1045838 0.3480263,8.20265885 C-0.232703976,7.30073391 0.0094729052,6.08662042 0.88901156,5.49096976 C5.99634899,2.0317602 11.8882901,0.203197142 17.927885,0.203197142 C24.0241113,0.203197142 29.9459127,2.03154897 35.0532501,5.49096976 C35.9327887,6.08662042 36.1747597,7.30073391 35.5940294,8.20265885 C35.2272632,8.77254023 34.6193498,9.08156042 34.0001102,9.08156042 Z" id="Path"></path>
                            <path d="M29.4195486,15.37518 C29.0713164,15.37518 28.7187596,15.2773835 28.4024469,15.0722853 C25.2166677,13.0086303 21.594723,11.9176602 17.927885,11.9176602 C14.3689557,11.9176602 10.6796709,13.0379904 7.53960881,15.0722853 C6.64894979,15.6497707 5.46998495,15.3766586 4.90737676,14.4626939 C4.34456263,13.5487292 4.61083364,12.3398963 5.50169859,11.7628333 C9.29806832,9.30313402 13.5950605,8.00326373 17.927885,8.00326373 C22.317135,8.00326373 26.6441933,9.30313402 30.4405631,11.7628333 C31.3316339,12.3398963 31.597905,13.5489404 31.0350908,14.4626939 C30.6718255,15.0522191 30.0527917,15.3749688 29.4195486,15.37518 Z" id="Path"></path>
                            <path d="M24.6668273,22.1117356 C24.3484554,22.1117356 24.0261706,22.029992 23.7294216,21.8578448 C21.8887949,20.7907429 19.9369646,20.2497992 17.927679,20.2497992 C15.9758487,20.2497992 14.0530549,20.7909541 12.2126341,21.8578448 C11.2952039,22.3901283 10.1308602,22.0580848 9.61232165,21.1170834 C9.09378306,20.1758709 9.41709743,18.9820349 10.3345277,18.4499625 C12.7550609,17.0465927 15.3096563,16.3351915 17.927679,16.3351915 C20.6031569,16.3351915 23.1869948,17.0468039 25.607528,18.4499625 C26.5249583,18.9820349 26.8480667,20.1758709 26.3295281,21.1170834 C25.9788247,21.7539227 25.3324019,22.1117356 24.6668273,22.1117356 Z" id="Path"></path>
                            <path d="M17.927885,32.4821826 C15.3986193,32.4821826 13.3407336,30.3714248 13.3407336,27.7769648 C13.3407336,25.1825049 15.3986193,23.0719582 17.927885,23.0719582 C20.504927,23.0719582 22.6015281,25.1827161 22.6015281,27.7769648 C22.6015281,30.3714248 20.5047211,32.4821826 17.927885,32.4821826 Z M17.927885,26.9863547 C17.5102534,26.9863547 17.1572847,27.3483921 17.1572847,27.7769648 C17.1572847,28.2055376 17.5102534,28.5675749 17.927885,28.5675749 C18.4085319,28.5675749 18.7849769,28.2203233 18.7849769,27.7769648 C18.7849769,27.3336064 18.4085319,26.9863547 17.927885,26.9863547 Z" id="Shape"></path>
                        </g>
                        <path d="M63.4999288,81.9 L28.6373622,81.9 C18.4915305,81.9 10.2375,73.7355333 10.2375,63.7 C10.2375,53.6644667 18.4917395,45.5 28.6373622,45.5 L63.5001378,45.5 C73.6457605,45.5 81.9,53.6644667 81.9,63.7 C81.9,73.7355333 73.6457605,81.9 63.4999288,81.9 Z M28.6373622,49.3314484 C20.627671,49.3314484 14.1111882,55.7772214 14.1111882,63.7 C14.1111882,71.6227786 20.627671,78.0685516 28.6373622,78.0685516 L63.5001378,78.0685516 C71.510038,78.0685516 78.0263118,71.6227786 78.0263118,63.7 C78.0263118,55.7772214 71.510038,49.3314484 63.5001378,49.3314484 L28.6373622,49.3314484 Z" id="Shape"></path>
                        <path d="M62.9252941,92.1375 L28.074497,92.1375 C12.5941688,92.1375 0,79.6357433 0,64.26875 C0,48.9017567 12.5941688,36.4 28.074497,36.4 L32.9149203,36.4 C33.9843016,36.4 34.851006,37.2603591 34.851006,38.3219112 L34.851006,40.2440299 L60.0211655,40.2440299 L60.0211655,38.3219112 C60.0211655,37.2603591 60.8880789,36.4 61.9574601,36.4 L62.925503,36.4 C78.4058312,36.4 91,48.9017567 91,64.26875 C91,79.6357433 78.4056222,92.1375 62.9252941,92.1375 Z M28.074497,40.2438225 C14.7293793,40.2438225 3.87217149,51.0211274 3.87217149,64.26875 C3.87217149,77.5159577 14.7291703,88.2936775 28.074497,88.2936775 L62.925503,88.2936775 C76.2706207,88.2936775 87.1276196,77.5159577 87.1276196,64.26875 C87.1276196,51.3432436 76.7917299,40.7689983 63.8937548,40.2629047 L63.8937548,42.1659411 C63.8937548,43.2274932 63.0268414,44.0878524 61.9574601,44.0878524 L32.9149203,44.0878524 C31.845539,44.0878524 30.9786256,43.2274932 30.9786256,42.1659411 L30.9786256,40.2438225 L28.074497,40.2438225 Z" id="Shape"></path>
                        <path d="M61.759448,44.3625 L32.653052,44.3625 C31.5813195,44.3625 30.7125,43.4714287 30.7125,42.3719824 L30.7125,30.4282324 C30.7125,29.3287862 31.5811101,28.4375 32.653052,28.4375 L38.4742893,28.4375 C39.5460219,28.4375 40.4148414,29.3287862 40.4148414,30.4282324 C40.4148414,31.5276787 39.5462313,32.4189648 38.4742893,32.4189648 L34.5933947,32.4189648 L34.5933947,40.38125 L59.8188959,40.38125 L59.8188959,32.4189648 L55.9380013,32.4189648 C54.8664781,32.4189648 53.9976586,31.5276787 53.9976586,30.4282324 C53.9976586,29.3287862 54.8662687,28.4375 55.9380013,28.4375 L61.759448,28.4375 C62.8309711,28.4375 63.7,29.3287862 63.7,30.4282324 L63.7,42.3719824 C63.7,43.4712138 62.8309711,44.3625 61.759448,44.3625 Z" id="Path" stroke="#FFFFFF"></path>
                        <rect id="Rectangle" x="40.95" y="70.525" width="3.4125" height="3.4125"></rect>
                        <rect id="Rectangle" x="32.9875" y="70.525" width="3.4125" height="3.4125"></rect>
                        <rect id="Rectangle" x="48.9125" y="70.525" width="3.4125" height="3.4125"></rect>
                        <rect id="Rectangle" x="56.875" y="70.525" width="3.4125" height="3.4125"></rect>
                    </g>
                    <circle id="Oval" fill="#FFFFFF" cx="105.5" cy="59.5" r="59.5"></circle>
                    <path d="M100.967304,70.4422311 C100.498256,70.4422311 100.028801,70.2616211 99.6702863,69.8995764 L91.53864,61.6904812 C90.8212018,60.9663918 90.8203861,59.7916022 91.5366007,59.0662757 C92.2528153,58.3413617 93.4152365,58.340537 94.1322669,59.0646263 L100.967304,65.9645053 L117.234267,49.543016 C117.951297,48.8181019 119.113311,48.819339 119.829933,49.5446654 C120.546148,50.2699919 120.545332,51.4447815 119.827894,52.1688709 L102.264321,69.8995764 C101.905806,70.2616211 101.436351,70.4422311 100.967304,70.4422311" id="checkmark" fill="#00D3A4"></path>
                    <path d="M105.5,118 C73.1913421,118 47,91.8086579 47,59.5 C47,27.1913421 73.1913421,1 105.5,1 C137.808658,1 164,27.1913421 164,59.5 C164,91.8086579 137.808658,118 105.5,118 Z M105.5,115.669323 C136.52146,115.669323 161.669323,90.5214603 161.669323,59.5 C161.669323,28.4785397 136.52146,3.33067729 105.5,3.33067729 C74.4785397,3.33067729 49.3306773,28.4785397 49.3306773,59.5 C49.3306773,90.5214603 74.4785397,115.669323 105.5,115.669323 Z" id="Combined-Shape" fill="#FFFFFF"></path>
                    <g id="Combined-Shape" style="mix-blend-mode: multiply;">
                        <use fill="#00D3A4" fill-rule="evenodd" xlink:href="#path-1"></use>
                        <use fill="black" fill-opacity="1" filter="url(#filter-2)" xlink:href="#path-1"></use>
                    </g>
                </g>
            </g>
        </g>
    </g>
</svg>