<?xml version="1.0" encoding="UTF-8"?>
<svg width="25px" height="24px" viewBox="0 0 25 24" version="1.1" xmlns="http://www.w3.org/2000/svg" xmlns:xlink="http://www.w3.org/1999/xlink">
    <!-- Generator: sketchtool 61 (101010) - https://sketch.com -->
    <title>29C8BE6E-E0FE-4CEA-935E-10030E445A44</title>
    <desc>Created with sketchtool.</desc>
    <g id="Layout-FIWOO" stroke="none" stroke-width="1" fill="none" fill-rule="evenodd">
        <g id="Mobile-Dashboard-menu-user" transform="translate(-16.000000, -194.000000)" fill="#2B334A" fill-rule="nonzero">
            <g id="Menu-usuariodesplegao" transform="translate(0.000000, 112.000000)">
                <g id="Nav/Menu/List--#2-Nav/Menu/List-" transform="translate(0.000000, 66.000000)">
                    <g id="Nav/Menu/List-">
                        <g id="icon-device" transform="translate(12.000000, 12.000000)">
                            <g id="Group-2" transform="translate(4.000000, 4.000000)">
                                <g id="device" transform="translate(1.000000, 1.000000)">
                                    <path d="M11.1709091,0 C5.01131636,0 0,5.01131636 0,11.1709091 C0,12.8723782 0.372829091,14.5063564 1.10801455,16.0274618 C1.13082182,16.0744727 1.16154182,16.11776 1.19854545,16.1545309 C1.28581818,16.2418036 1.40427636,16.2909091 1.52762182,16.2909091 L6.05090909,16.2909091 L6.05090909,17.0223709 C6.05090909,18.4522473 7.09492364,19.6156509 8.37818182,19.6156509 L13.9636364,19.6156509 C15.2468945,19.6156509 16.2909091,18.4522473 16.2909091,17.0223709 L16.2909091,5.31921455 C16.2909091,3.88933818 15.2468945,2.72616727 13.9636364,2.72616727 L8.37818182,2.72616727 C7.09492364,2.72616727 6.05090909,3.88957091 6.05090909,5.31921455 L6.05090909,13.0715927 C6.05090909,13.3285236 6.25943273,13.5370473 6.51636364,13.5370473 C6.77329455,13.5370473 6.98181818,13.3285236 6.98181818,13.0715927 L6.98181818,5.31921455 C6.98181818,4.40273455 7.60808727,3.65707636 8.37818182,3.65707636 L8.78545455,3.65707636 L8.78545455,3.69035636 C8.78545455,4.68037818 9.51621818,5.48584727 10.4145455,5.48584727 L11.9272727,5.48584727 C12.8253673,5.48584727 13.5563636,4.68037818 13.5563636,3.69035636 L13.5563636,3.65707636 L13.9636364,3.65707636 C14.7337309,3.65707636 15.36,4.40273455 15.36,5.31921455 L15.36,15.36 L1.82388364,15.36 C1.23112727,14.0413673 0.930909091,12.6333673 0.930909091,11.1709091 C0.930909091,5.52448 5.52448,0.930909091 11.1709091,0.930909091 C16.8173382,0.930909091 21.4109091,5.52448 21.4109091,11.1709091 C21.4109091,16.8173382 16.8173382,21.4109091 11.1709091,21.4109091 C8.37957818,21.4109091 5.77070545,20.3080145 3.82533818,18.3051636 C3.64637091,18.1210764 3.35150545,18.1161891 3.16718545,18.2956218 C2.98286545,18.4748218 2.97844364,18.7694545 3.15764364,18.9537745 C5.27988364,21.1386182 8.12590545,22.3418182 11.1709091,22.3418182 C17.3305018,22.3418182 22.3418182,17.3305018 22.3418182,11.1709091 C22.3418182,5.01131636 17.3305018,0 11.1709091,0 Z M12.6254545,3.69035636 C12.6254545,4.15906909 12.3056873,4.55493818 11.9272727,4.55493818 L10.4145455,4.55493818 C10.0361309,4.55493818 9.71636364,4.15906909 9.71636364,3.69035636 L9.71636364,3.65707636 L12.6254545,3.65707636 L12.6254545,3.69035636 Z M15.36,17.0223709 C15.36,17.9388509 14.7337309,18.6847418 13.9636364,18.6847418 L8.37818182,18.6847418 C7.60808727,18.6847418 6.98181818,17.9390836 6.98181818,17.0223709 L6.98181818,16.2909091 L15.36,16.2909091 L15.36,17.0223709 Z" id="Shape" stroke="#2B334A" stroke-width="0.5"></path>
                                    <circle id="Oval" cx="11.1709091" cy="17.5543855" r="1"></circle>
                                </g>
                            </g>
                        </g>
                    </g>
                </g>
            </g>
        </g>
    </g>
</svg>