<?xml version="1.0" encoding="UTF-8"?>
<svg width="30px" height="30px" viewBox="0 0 30 30" version="1.1" xmlns="http://www.w3.org/2000/svg" xmlns:xlink="http://www.w3.org/1999/xlink">
    <!-- Generator: sketchtool 57.1 (101010) - https://sketch.com -->
    <title>4BD51029-BD3C-4C3D-BF3F-C8DADBA60243</title>
    <desc>Created with sketchtool.</desc>
    <g id="-⚙-Design-Guideline" stroke="none" stroke-width="1" fill="none" fill-rule="evenodd">
        <g id="-⚙-Iconos" transform="translate(-731.000000, -177.000000)">
            <g id="ico-drag/drop" transform="translate(714.000000, 160.000000)">
                <rect id="Rectangle-Copy-4" stroke="#CED3D7" stroke-width="0.5" x="0.25" y="0.25" width="63.5" height="63.5"></rect>
                <g id="drag-drop" opacity="0.65" transform="translate(32.000000, 32.000000) rotate(-270.000000) translate(-32.000000, -32.000000) translate(26.000000, 29.000000)" fill="#000000" fill-rule="nonzero">
                    <g id="ellipsis">
                        <path d="M0,4.73684211 C0,5.26005924 0.42415129,5.68421053 0.947368421,5.68421053 C1.47058555,5.68421053 1.89473684,5.26005924 1.89473684,4.73684211 C1.89473684,4.21362497 1.47058555,3.78947368 0.947368421,3.78947368 C0.42415129,3.78947368 0,4.21362497 0,4.73684211 Z" id="Shape"></path>
                        <path d="M4.73684211,4.73684211 C4.73684211,5.26005924 5.16099339,5.68421053 5.68421053,5.68421053 C6.20742766,5.68421053 6.63157895,5.26005924 6.63157895,4.73684211 C6.63157895,4.21362497 6.20742766,3.78947368 5.68421053,3.78947368 C5.16099339,3.78947368 4.73684211,4.21362497 4.73684211,4.73684211 Z" id="Shape"></path>
                        <path d="M9.47368421,4.73684211 C9.47368421,5.26005924 9.8978355,5.68421053 10.4210526,5.68421053 C10.9442698,5.68421053 11.3684211,5.26005924 11.3684211,4.73684211 C11.3684211,4.21362497 10.9442698,3.78947368 10.4210526,3.78947368 C9.8978355,3.78947368 9.47368421,4.21362497 9.47368421,4.73684211 Z" id="Shape"></path>
                        <path d="M9.49007378,1.24676832 C9.49007378,1.76998546 9.91422507,2.19413675 10.4374422,2.19413675 C10.9606593,2.19413675 11.3848106,1.76998546 11.3848106,1.24676832 C11.3848106,0.723551193 10.9606593,0.299399904 10.4374422,0.299399904 C9.91422507,0.299399904 9.49007378,0.723551193 9.49007378,1.24676832 Z" id="Shape" transform="translate(10.437442, 1.246768) rotate(-269.000000) translate(-10.437442, -1.246768) "></path>
                        <path d="M4.75323168,1.24676832 C4.75323168,1.76998546 5.17738296,2.19413675 5.7006001,2.19413675 C6.22381723,2.19413675 6.64796852,1.76998546 6.64796852,1.24676832 C6.64796852,0.723551193 6.22381723,0.299399904 5.7006001,0.299399904 C5.17738296,0.299399904 4.75323168,0.723551193 4.75323168,1.24676832 Z" id="Shape" transform="translate(5.700600, 1.246768) rotate(-269.000000) translate(-5.700600, -1.246768) "></path>
                        <path d="M0.0163895699,1.24676832 C0.0163895699,1.76998546 0.44054086,2.19413675 0.963757991,2.19413675 C1.48697512,2.19413675 1.91112641,1.76998546 1.91112641,1.24676832 C1.91112641,0.723551193 1.48697512,0.299399904 0.963757991,0.299399904 C0.44054086,0.299399904 0.0163895699,0.723551193 0.0163895699,1.24676832 Z" id="Shape" transform="translate(0.963758, 1.246768) rotate(-269.000000) translate(-0.963758, -1.246768) "></path>
                    </g>
                </g>
            </g>
        </g>
    </g>
</svg>