<?xml version="1.0" encoding="UTF-8"?>
<svg width="90px" height="90px" viewBox="0 0 90 90" version="1.1" xmlns="http://www.w3.org/2000/svg" xmlns:xlink="http://www.w3.org/1999/xlink">
    <!-- Generator: sketchtool 64 (101010) - https://sketch.com -->
    <title>1067900B-F997-4916-BB78-F6E46073DF81</title>
    <desc>Created with sketchtool.</desc>
    <defs>
        <linearGradient x1="50%" y1="0%" x2="50%" y2="98.7107117%" id="linearGradient-1">
            <stop stop-color="#E7788E" offset="0%"></stop>
            <stop stop-color="#D35D74" offset="100%"></stop>
        </linearGradient>
        <rect id="path-2" x="0.857142857" y="0" width="48" height="48" rx="24"></rect>
        <filter x="-31.2%" y="-31.2%" width="162.5%" height="162.5%" filterUnits="objectBoundingBox" id="filter-3">
            <feOffset dx="0" dy="0" in="SourceAlpha" result="shadowOffsetOuter1"></feOffset>
            <feGaussianBlur stdDeviation="5" in="shadowOffsetOuter1" result="shadowBlurOuter1"></feGaussianBlur>
            <feColorMatrix values="0 0 0 0 0.883583121   0 0 0 0 0.174248281   0 0 0 0 0.31230674  0 0 0 0.574874344 0" type="matrix" in="shadowBlurOuter1"></feColorMatrix>
        </filter>
    </defs>
    <g id="-⚙-Design-Guideline" stroke="none" stroke-width="1" fill="none" fill-rule="evenodd">
        <g id="-⚙-Iconos" transform="translate(-1226.000000, -641.000000)">
            <g id="Flow" transform="translate(1226.000000, 641.000000)">
                <g id="Group">
                    <g id="servicios" transform="translate(20.000000, 22.000000)">
                        <g id="Group">
                            <g transform="translate(0.142857, 0.000000)">
                                <g id="Rectangle">
                                    <use fill="black" fill-opacity="1" filter="url(#filter-3)" xlink:href="#path-2"></use>
                                    <use fill="url(#linearGradient-1)" fill-rule="evenodd" xlink:href="#path-2"></use>
                                </g>
                                <path d="M38.9299888,9 C39.2914856,9 39.5845367,9.29305107 39.5845367,9.65454788 L39.5841429,14.473 L41.5484331,14.4738484 C42.2385634,14.4738484 42.803964,15.0078795 42.8539382,15.6852448 L42.8575289,15.7829441 L42.8575289,38.4402723 C42.8575289,39.1304025 42.3234978,39.6958032 41.6461325,39.7457773 L41.5484331,39.749368 L11.5233533,39.749368 C10.833223,39.749368 10.2678224,39.2153369 10.2178482,38.5379716 L10.2142575,38.4402723 L10.2141429,34.527 L7.51169073,34.5273672 C7.15019392,34.5273672 6.85714286,34.2343161 6.85714286,33.8728193 L6.85714286,9.65454788 C6.85714286,9.29305107 7.15019392,9 7.51169073,9 L38.9299888,9 Z M41.5482575,20.0308484 L39.5841429,20.031 L39.5845367,33.8728193 C39.5845367,34.2343161 39.2914856,34.5273672 38.9299888,34.5273672 L11.5231429,34.527 L11.5233533,38.4402723 L41.5484331,38.4402723 L41.5482575,20.0308484 Z M38.2751429,15.218 L8.16614286,15.218 L8.16623861,33.2182714 L38.2754409,33.2182714 L38.2751429,15.218 Z M31.7299621,20.7818618 C33.5374462,20.7818618 35.0027015,22.2471171 35.0027015,24.0546011 C35.0027015,25.8620852 33.5374462,27.3273405 31.7299621,27.3273405 C30.146785,27.3273405 28.8261666,26.2031928 28.5227737,24.709564 L26.4280282,24.709564 C26.1246353,26.2031928 24.8040169,27.3273405 23.2208398,27.3273405 C21.6376626,27.3273405 20.3170442,26.2031928 20.0136513,24.709564 L17.9189058,24.709564 C17.6155129,26.2031928 16.2948945,27.3273405 14.7117174,27.3273405 C12.9042333,27.3273405 11.438978,25.8620852 11.438978,24.0546011 C11.438978,22.2471171 12.9042333,20.7818618 14.7117174,20.7818618 C16.2948945,20.7818618 17.6155129,21.9060095 17.9189058,23.3996383 L20.0136513,23.3996383 C20.3170442,21.9060095 21.6376626,20.7818618 23.2208398,20.7818618 C24.8040169,20.7818618 26.1246353,21.9060095 26.4280282,23.3996383 L28.5227737,23.3996383 C28.8261666,21.9060095 30.146785,20.7818618 31.7299621,20.7818618 Z M12.9397278,23.2074073 C12.8168757,23.4639011 12.7480737,23.7512164 12.7480737,24.0546011 C12.7480737,25.1390916 13.6272269,26.0182448 14.7117174,26.0182448 C15.0151022,26.0182448 15.3024174,25.9494428 15.5589113,25.8265908 L12.9397278,23.2074073 Z M23.2208398,22.0909575 C22.1363493,22.0909575 21.2571961,22.9701107 21.2571961,24.0546011 C21.2571961,25.1390916 22.1363493,26.0182448 23.2208398,26.0182448 C24.3053302,26.0182448 25.1844834,25.1390916 25.1844834,24.0546011 C25.1844834,22.9701107 24.3053302,22.0909575 23.2208398,22.0909575 Z M31.7299621,22.0909575 C30.6454717,22.0909575 29.7663185,22.9701107 29.7663185,24.0546011 C29.7663185,25.1390916 30.6454717,26.0182448 31.7299621,26.0182448 C32.8144526,26.0182448 33.6936058,25.1390916 33.6936058,24.0546011 C33.6936058,22.9701107 32.8144526,22.0909575 31.7299621,22.0909575 Z M14.7117174,22.0909575 C14.4083326,22.0909575 14.1210173,22.1597595 13.8645235,22.2826115 L16.483707,24.901795 C16.6065591,24.6453012 16.675361,24.3579859 16.675361,24.0546011 C16.675361,22.9701107 15.7962078,22.0909575 14.7117174,22.0909575 Z M41.5484331,15.7829441 L39.5841429,15.782 L39.5841429,18.722 L41.5482575,18.7218484 L41.5484331,15.7829441 Z M38.2754409,10.3090958 L8.16623861,10.3090958 L8.16614286,13.909 L38.2751429,13.909 L38.2754409,10.3090958 Z M11.438978,11.3563724 L11.438978,12.6654681 L9.47533436,12.6654681 L9.47533436,11.3563724 L11.438978,11.3563724 Z M14.7117174,11.3563724 L14.7117174,12.6654681 L12.7480737,12.6654681 L12.7480737,11.3563724 L14.7117174,11.3563724 Z M17.9844568,11.3563724 L17.9844568,12.6654681 L16.0208131,12.6654681 L16.0208131,11.3563724 L17.9844568,11.3563724 Z" id="Combined-Shape" fill="#2B334A" fill-rule="nonzero"></path>
                            </g>
                        </g>
                    </g>
                </g>
            </g>
        </g>
    </g>
</svg>