<?xml version="1.0" encoding="UTF-8"?>
<svg width="80px" height="80px" viewBox="0 0 80 80" version="1.1" xmlns="http://www.w3.org/2000/svg" xmlns:xlink="http://www.w3.org/1999/xlink">
    <title>02F2604C-D591-4EB0-BE28-F347E499EE10</title>
    <g id="GIS" stroke="none" stroke-width="1" fill="none" fill-rule="evenodd">
        <g id="Open-Data-GIS-Publication-3" transform="translate(-680.000000, -176.000000)" fill="#577EE8" fill-rule="nonzero">
            <path d="M690.909091,176 L749.090909,176 C755.115834,176 760,180.884166 760,186.909091 L760,245.090909 C760,251.115834 755.115834,256 749.090909,256 L690.909091,256 C684.884166,256 680,251.115834 680,245.090909 L680,186.909091 C680,180.884166 684.884166,176 690.909091,176 Z M746.666667,178.424242 L746.666667,197.818182 C746.666667,198.139656 746.538961,198.447964 746.311645,198.675281 L735.742524,209.244402 C735.752524,209.474817 735.757576,209.706515 735.757576,209.939394 C735.757576,214.123943 734.207922,218.564447 731.126698,223.272727 L757.575758,223.272727 L757.575758,186.909091 C757.575758,182.223039 753.776961,178.424242 749.090909,178.424242 L746.666667,178.424242 Z M740.606061,253.575758 L749.090909,253.575758 C753.776961,253.575758 757.575758,249.776961 757.575758,245.090909 L757.575758,225.69697 L740.606061,225.69697 L740.606061,253.575758 Z M738.181818,253.575758 L738.181818,225.69697 L729.422767,225.69697 C727.159552,228.713218 724.292696,231.836012 720.826687,235.068286 C720.361085,235.502491 719.638915,235.502491 719.173313,235.068286 C717.975973,233.951691 716.850136,232.848161 715.795984,231.757576 L703.030303,231.757576 L703.030303,253.575758 L738.181818,253.575758 Z M700.606061,253.575758 L700.606061,230.545455 C700.606061,229.876018 701.148745,229.333333 701.818182,229.333333 L713.552069,229.333333 C710.968438,226.410171 708.919561,223.582707 707.409199,220.848485 L694.545455,220.848485 C694.223981,220.848485 693.915673,220.72078 693.688355,220.493463 L682.424242,209.22935 L682.424242,245.090909 C682.424242,249.776961 686.223039,253.575758 690.909091,253.575758 L700.606061,253.575758 Z M733.333333,209.939394 C733.333333,202.575597 727.363796,196.606061 720,196.606061 C712.636204,196.606061 706.666667,202.575597 706.666667,209.939394 C706.666667,216.452847 711.079063,223.999141 720,232.515422 C728.920937,223.999141 733.333333,216.452847 733.333333,209.939394 Z M694.545455,178.424242 L690.909091,178.424242 C686.223039,178.424242 682.424242,182.223039 682.424242,186.909091 L682.424242,205.800953 L695.047532,218.424242 L706.20045,218.424242 C704.896754,215.485722 704.242424,212.658521 704.242424,209.939394 C704.242424,206.815413 705.151507,203.903759 706.719559,201.454545 L695.757576,201.454545 C695.088139,201.454545 694.545455,200.91186 694.545455,200.242424 L694.545455,178.424242 Z M696.969697,178.424242 L696.969697,199.030303 L708.629265,199.030303 C711.496975,196.042012 715.531252,194.181818 720,194.181818 C727.42788,194.181818 733.655379,199.321263 735.320438,206.238092 L744.242424,197.316105 L744.242424,178.424242 L696.969697,178.424242 Z M720,216 C716.652819,216 713.939394,213.286574 713.939394,209.939394 C713.939394,206.592214 716.652819,203.878788 720,203.878788 C723.347181,203.878788 726.060606,206.592214 726.060606,209.939394 C726.060606,213.286574 723.347181,216 720,216 Z M720,213.575758 C722.008308,213.575758 723.636364,211.947702 723.636364,209.939394 C723.636364,207.931086 722.008308,206.30303 720,206.30303 C717.991692,206.30303 716.363636,207.931086 716.363636,209.939394 C716.363636,211.947702 717.991692,213.575758 720,213.575758 Z" id="Shape"></path>
        </g>
    </g>
</svg>