<?xml version="1.0" encoding="UTF-8"?>
<svg width="80px" height="80px" viewBox="0 0 80 80" version="1.1" xmlns="http://www.w3.org/2000/svg" xmlns:xlink="http://www.w3.org/1999/xlink">
    <title>Widget html</title>
    <g id="Widget-html" stroke="none" stroke-width="1" fill="none" fill-rule="evenodd">
        <g id="Pie2" transform="translate(-794.000000, -732.000000)" fill="#6C7A88" fill-rule="nonzero">
            <g id="Group-10" transform="translate(794.000000, 731.351959)">
                <path d="M44.7134635,28.9413199 C45.2591769,29.1728188 45.5332975,29.7763034 45.3657603,30.3311161 L45.3230374,30.4491062 L35.9844405,52.4630216 C35.736406,53.0477144 35.0613471,53.32063 34.4766542,53.0725954 C33.9309408,52.8410965 33.6568202,52.2376119 33.8243574,51.6827992 L33.8670803,51.5648091 L43.2056771,29.5508938 C43.4537117,28.9662009 44.1287706,28.6932854 44.7134635,28.9413199 Z M27.2542907,32.6480411 L28.8542907,34.2963718 L22.7857192,40.3714116 L28.7628621,46.3548774 L27.2542907,48.094782 L20.3400049,41.2871508 C19.886665,40.8315163 19.886665,40.0944547 20.3400049,39.6388201 L27.2542907,32.6480411 Z M52.6,32.6480411 L59.5142857,39.4556723 C59.9676256,39.9113068 59.9676256,40.6483684 59.5142857,41.104003 L52.6,48.094782 L51,46.4464513 L57.0685714,40.3714116 L51.0914286,34.3879457 L52.6,32.6480411 Z" id="Combined-Shape"></path>
            </g>
        </g>
    </g>
</svg>