<svg width="80" height="80" viewBox="0 0 80 80" fill="none" xmlns="http://www.w3.org/2000/svg">
<path fill-rule="evenodd" clip-rule="evenodd" d="M70 23H10V61C10 62.6569 11.3431 64 13 64H67C68.6569 64 70 62.6569 70 61V23ZM8 23V19V18C8 15.2386 10.2386 13 13 13H14H66H67C69.7614 13 72 15.2386 72 18V19V23V61C72 63.7614 69.7614 66 67 66H13C10.2386 66 8 63.7614 8 61V23ZM22.7071 37.2929C23.0976 37.6834 23.0976 38.3166 22.7071 38.7071L18.4142 43L22.7071 47.2929C23.0976 47.6834 23.0976 48.3166 22.7071 48.7071C22.3166 49.0976 21.6834 49.0976 21.2929 48.7071L16.2929 43.7071C15.9024 43.3166 15.9024 42.6834 16.2929 42.2929L21.2929 37.2929C21.6834 36.9024 22.3166 36.9024 22.7071 37.2929ZM26 47C25.4477 47 25 47.4477 25 48C25 48.5523 25.4477 49 26 49H35.5C36.0523 49 36.5 48.5523 36.5 48C36.5 47.4477 36.0523 47 35.5 47H26Z" fill="#667482"/>
</svg>
