<svg width="80" height="80" viewBox="0 0 80 80" fill="none" xmlns="http://www.w3.org/2000/svg">
<path fill-rule="evenodd" clip-rule="evenodd" d="M8 12C6.89543 12 6 12.8954 6 14V63C6 64.1046 6.89543 65 8 65H56.4429C58.4511 66.1485 60.777 66.8049 63.2561 66.8049C70.8467 66.8049 77 60.6515 77 53.061C77 48.792 75.0537 44.9776 72 42.4567V14C72 12.8954 71.1046 12 70 12H8ZM70 41.0826V14H17.1377V63H53.7634C51.1439 60.4975 49.5122 56.9698 49.5122 53.061C49.5122 52.911 49.5146 52.7617 49.5194 52.6129C49.4047 52.6587 49.2795 52.684 49.1485 52.684H48.2208C48.0964 54.9999 45.7462 56.4905 43.3808 56.4905C41.0154 56.4905 38.6653 54.9999 38.5408 52.684H28C27.4477 52.684 27 52.2362 27 51.684V49.7614C27 49.4962 27.1054 49.2418 27.2929 49.0543C30.0364 46.3107 31.8065 42.7071 31.8065 39.1871V32.4581C31.8065 26.4027 36.4567 21.4333 42.3809 20.9264V19C42.3809 18.4477 42.8286 18 43.3809 18C43.9331 18 44.3809 18.4477 44.3809 19V20.9265C50.3049 21.4335 54.9549 26.4028 54.9549 32.4581V39.1871C54.9549 40.0786 55.0681 40.9759 55.2829 41.8649C57.5314 40.2608 60.2836 39.3171 63.2561 39.3171C65.7068 39.3171 68.0077 39.9585 70 41.0826ZM15.1377 63V14H8V63H15.1377ZM52.9549 39.1871C52.9549 40.5742 53.1851 41.9512 53.601 43.2797C53.3272 43.55 53.0647 43.8317 52.8142 44.1241L52.8107 44.1241H43.3809C42.8286 44.1241 42.3809 44.5718 42.3809 45.1241C42.3809 45.6763 42.8286 46.1241 43.3809 46.1241H51.3887C50.5519 47.5526 49.9656 49.1458 49.6902 50.8433C49.5341 50.7425 49.3481 50.684 49.1485 50.684H29V50.1692C31.8645 47.1775 33.8065 43.2215 33.8065 39.1871V32.4581C33.8065 27.1739 38.0873 22.8896 43.3701 22.8839L43.3809 22.8839L43.3916 22.8839C48.6743 22.8897 52.9549 27.174 52.9549 32.4581V39.1871ZM40.5513 52.684C40.6868 53.5317 41.6942 54.4905 43.3808 54.4905C45.0675 54.4905 46.0748 53.5317 46.2103 52.684H40.5513ZM39.3105 44.1241C38.7583 44.1241 38.3105 44.5718 38.3105 45.1241C38.3105 45.6763 38.7583 46.1241 39.3105 46.1241H39.8105C40.3628 46.1241 40.8105 45.6763 40.8105 45.1241C40.8105 44.5718 40.3628 44.1241 39.8105 44.1241H39.3105ZM32.275 23.2436C32.4736 23.759 32.2168 24.3377 31.7015 24.5363C30.3298 25.0648 29.2734 26.288 29.0276 27.8398C28.9067 28.6033 28.9966 29.3485 29.2535 30.0194C29.4509 30.5352 29.1929 31.1134 28.6771 31.3109C28.1614 31.5083 27.5832 31.2503 27.3857 30.7345C27.0068 29.7449 26.8751 28.6455 27.0522 27.5269C27.4142 25.2418 28.9722 23.4446 30.9823 22.6701C31.4977 22.4715 32.0764 22.7283 32.275 23.2436ZM30.5494 20.303C31.0743 20.1313 31.3606 19.5665 31.1888 19.0416C31.017 18.5167 30.4523 18.2305 29.9274 18.4022C26.2609 19.6022 23.3767 22.766 22.7311 26.8425C22.4589 28.5612 22.6155 30.2516 23.1227 31.8021C23.2944 32.327 23.8592 32.6133 24.3841 32.4416C24.909 32.2698 25.1953 31.7051 25.0236 31.1802C24.6126 29.9239 24.485 28.5537 24.7065 27.1554C25.2302 23.8488 27.5683 21.2787 30.5494 20.303ZM54.7245 23.2436C54.5259 23.759 54.7827 24.3377 55.2981 24.5363C56.6697 25.0648 57.7261 26.288 57.9719 27.8398C58.0928 28.6033 58.0029 29.3485 57.746 30.0194C57.5486 30.5352 57.8066 31.1134 58.3224 31.3109C58.8382 31.5083 59.4164 31.2503 59.6138 30.7345C59.9927 29.7449 60.1244 28.6455 59.9473 27.5269C59.5853 25.2418 58.0273 23.4446 56.0172 22.6701C55.5018 22.4715 54.9231 22.7283 54.7245 23.2436ZM56.4501 20.303C55.9252 20.1313 55.6389 19.5665 55.8107 19.0416C55.9825 18.5167 56.5473 18.2305 57.0722 18.4022C60.7386 19.6022 63.6228 22.766 64.2684 26.8425C64.5406 28.5612 64.384 30.2516 63.8768 31.8021C63.7051 32.327 63.1404 32.6133 62.6154 32.4416C62.0905 32.2698 61.8042 31.7051 61.9759 31.1802C62.3869 29.9239 62.5145 28.5537 62.293 27.1554C61.7693 23.8488 59.4312 21.2787 56.4501 20.303ZM62.5049 56.5381V50.9839H64.5049V56.5381H62.5049ZM62.5049 57.65V59.3H64.5049V57.65H62.5049ZM63.2561 64.8049C69.7421 64.8049 75 59.547 75 53.061C75 46.575 69.7421 41.3171 63.2561 41.3171C56.7701 41.3171 51.5122 46.575 51.5122 53.061C51.5122 59.547 56.7701 64.8049 63.2561 64.8049ZM63.3233 47.7715C63.3849 47.6809 63.5196 47.6848 63.5759 47.7787L69.3624 57.4228C69.4224 57.5228 69.3504 57.65 69.2338 57.65H65.5V59.35H69.2338C70.6718 59.35 71.56 57.7812 70.8202 56.5482L65.0337 46.904C64.3387 45.7458 62.677 45.6986 61.9175 46.8156L55.3595 56.4597C54.5243 57.6879 55.404 59.35 56.8893 59.35H61.5V57.65H56.8893C56.7689 57.65 56.6975 57.5152 56.7653 57.4156L63.3233 47.7715Z" fill="#667482"/>
</svg>
