<svg width="80" height="80" viewBox="0 0 80 80" fill="none" xmlns="http://www.w3.org/2000/svg">
<path fill-rule="evenodd" clip-rule="evenodd" d="M56.5 11C53.0784 11 50.2743 13.6438 50.0189 17H52.4408C52.9965 17 53.5256 17.1133 54.0065 17.318C54.0997 16.0223 55.1805 15 56.5 15C57.8807 15 59 16.1193 59 17.5C59 18.8807 57.8807 20 56.5 20C56.4371 20 56.3747 19.9977 56.313 19.9931C56.3964 20.3148 56.4408 20.6522 56.4408 21V33.9201C56.4408 36.1292 54.6499 37.9201 52.4408 37.9201H27.8984C25.6893 37.9201 23.8984 36.1292 23.8984 33.9201V26.1356H20.0171V52.6102H60.3222V25.0942C59.1732 25.6737 57.8747 26 56.5 26V24C60.0899 24 63 21.0899 63 17.5C63 13.9101 60.0899 11 56.5 11ZM56.5 9C51.9734 9 48.2733 12.5383 48.0145 17H27.8984C26.3152 17 24.9468 17.9198 24.2985 19.2542H19.1357C15.822 19.2542 13.1357 21.9405 13.1357 25.2542V57.678H9C7.34315 57.678 6 59.0211 6 60.678V62C6 63.6569 7.34315 65 9 65H71.339C72.9958 65 74.339 63.6569 74.339 62V60.678C74.339 59.0211 72.9958 57.678 71.339 57.678H67.2035V23.4577C67.2035 21.7536 66.1895 20.2863 64.7318 19.6264C64.9069 18.9468 65 18.2343 65 17.5C65 12.8056 61.1944 9 56.5 9ZM62.3222 23.693C62.9954 23.0598 63.5654 22.3181 64.0042 21.4958C64.7162 21.861 65.2035 22.6025 65.2035 23.4577V57.4915H15.1357V25.2542C15.1357 23.0451 16.9266 21.2542 19.1357 21.2542H23.8984V24.1356H18.0171V54.6102H62.3222V23.693ZM27.8984 19H52.4408C52.8186 19 53.1719 19.1047 53.4733 19.2867L40.2748 25.9352L26.8721 19.2831C27.1721 19.1033 27.5232 19 27.8984 19ZM40.728 27.9463L54.4408 21.0388V33.9201C54.4408 35.0247 53.5454 35.9201 52.4408 35.9201H27.8984C26.7939 35.9201 25.8984 35.0247 25.8984 33.9201V21.0326L39.8336 27.949C40.1155 28.0889 40.4469 28.0879 40.728 27.9463ZM9 59.678H71.339C71.8913 59.678 72.339 60.1257 72.339 60.678V62C72.339 62.5523 71.8913 63 71.339 63H9C8.44772 63 8 62.5523 8 62V60.678C8 60.1257 8.44771 59.678 9 59.678ZM25 42C25 41.4477 25.4477 41 26 41L49 41C49.5523 41 50 41.4477 50 42C50 42.5523 49.5523 43 49 43L26 43C25.4477 43 25 42.5523 25 42ZM26 46C25.4477 46 25 46.4477 25 47C25 47.5523 25.4477 48 26 48H37C37.5523 48 38 47.5523 38 47C38 46.4477 37.5523 46 37 46H26Z" fill="#396CE1"/>
</svg>
