<svg width="80" height="80" viewBox="0 0 80 80" fill="none" xmlns="http://www.w3.org/2000/svg">
<path fill-rule="evenodd" clip-rule="evenodd" d="M39.6137 9.11734C22.3629 9.11734 8.34473 23.1355 8.34473 40.3863C8.34473 57.6371 22.3629 71.6553 39.6137 71.6553C56.8646 71.6553 70.8826 57.6371 70.8826 40.3863C70.8826 23.1355 56.8646 9.11734 39.6137 9.11734ZM50.5334 26.297C50.9587 26.2886 51.369 26.4539 51.6697 26.7546C51.9705 27.0554 52.1357 27.4657 52.1274 27.8909V34.1447C52.1239 35.0082 51.4213 35.7054 50.5578 35.7021H44.3011C43.7344 35.7145 43.2053 35.4192 42.9183 34.9304C42.6313 34.4416 42.6313 33.8357 42.9183 33.3469C43.2053 32.8581 43.7344 32.5628 44.3011 32.5752H47.2508C45.2341 30.6056 42.5147 29.4483 39.6168 29.4483C33.5538 29.4483 28.6635 34.3385 28.6635 40.4016C28.714 40.9899 28.4288 41.5565 27.926 41.8663C27.4233 42.176 26.7889 42.176 26.2862 41.8663C25.7835 41.5565 25.4982 40.9899 25.5487 40.4016C25.5487 32.6491 31.8643 26.3183 39.6168 26.3183C43.1355 26.3183 46.4561 27.6468 49.0005 29.9308V27.8909C48.9923 27.4763 49.1493 27.0753 49.4368 26.7764C49.7243 26.4775 50.1188 26.305 50.5334 26.297ZM53.2314 39.2451C52.9333 38.9447 52.5261 38.778 52.103 38.7832C51.6861 38.7879 51.2884 38.9589 50.9983 39.2582C50.7081 39.5575 50.5495 39.9604 50.5578 40.3771C50.5578 46.4403 45.6798 51.3182 39.6168 51.3182C36.7174 51.3182 33.9962 50.1617 31.9797 48.1913H34.9173C35.7788 48.1875 36.4753 47.488 36.4753 46.6264C36.4753 45.7648 35.7788 45.0652 34.9173 45.0614H28.6757C28.2605 45.0598 27.8617 45.2234 27.5673 45.5161C27.2729 45.8088 27.1069 46.2066 27.1061 46.6217V52.8756C27.0937 53.4423 27.3889 53.9714 27.8778 54.2584C28.3666 54.5454 28.9725 54.5454 29.4613 54.2584C29.9502 53.9714 30.2454 53.4423 30.233 52.8756V50.8449C32.7794 53.1218 36.1033 54.4451 39.6168 54.4451C47.3693 54.4451 53.6847 48.1296 53.6847 40.3771C53.6931 39.954 53.5295 39.5456 53.2314 39.2451Z" fill="#667482"/>
</svg>
