<?xml version="1.0" encoding="UTF-8"?>
<svg width="104px" height="104px" viewBox="0 0 104 104" version="1.1" xmlns="http://www.w3.org/2000/svg" xmlns:xlink="http://www.w3.org/1999/xlink">
    <!-- Generator: sketchtool 60.1 (101010) - https://sketch.com -->
    <title>F7B13E68-C756-456E-B948-DAD2555C9390</title>
    <desc>Created with sketchtool.</desc>
    <g id="-⚙-Design-Guideline" stroke="none" stroke-width="1" fill="none" fill-rule="evenodd" stroke-linecap="round" stroke-linejoin="round">
        <g id="-⚙-Iconos" transform="translate(-991.000000, -1188.000000)" stroke="#577EE8" stroke-width="3">
            <g id="ico-Tweet" transform="translate(991.000000, 1188.000000)">
                <path d="M32.4220807,46.9295414 C32.4219661,46.9188733 32.421872,46.9082011 32.4217983,46.8975248 L31.9616,46.84 L30.9216,46.84 L32.4100168,47.0260521 L32.4220807,46.9295414 Z M73.6134725,43.4417868 C73.6188387,43.6368022 73.6216,43.811065 73.6216,43.9792 C73.6216,59.6606077 61.4265766,73.4792 44.0864,73.4792 C38.382464,73.4792 32.8994066,71.8380481 28.1883949,68.8070663 L22.6166782,65.2223221 L29.1891041,66.0575679 C29.8972281,66.1475586 30.6181476,66.1928 31.352,66.1928 C34.2876904,66.1928 37.1211051,65.5020584 39.65394,64.2156267 C36.5170943,62.9945033 34.0167671,60.4121254 32.9475055,57.1137711 L32.1719607,54.7214457 L32.7260937,54.823255 C30.6751929,52.7614569 29.4216,49.9258372 29.4216,46.84 L29.4331832,46.6539479 L29.7243478,44.3246311 L30.7412455,44.8882129 C29.9505956,43.3279037 29.5176,41.5771986 29.5176,39.7536 C29.5176,37.7168591 30.0483408,35.7719053 31.0494153,34.0530793 L32.140018,32.1805351 L33.5085942,33.8606645 C37.8404947,39.178712 44.058555,42.6278202 50.9092602,43.4325768 C50.8998946,43.2358724 50.8952,43.0382578 50.8952,42.84 C50.8952,36.5840769 55.9718599,31.5 62.232,31.5 C65.1122167,31.5 67.8263295,32.5827961 69.8913169,34.4787076 C71.67017,34.0444375 73.3587366,33.3544401 74.9050425,32.4318543 L78.3073929,30.4018805 L77.1025583,34.176156 C76.8573745,34.9442207 76.532937,35.6773138 76.1376748,36.3656295 C76.2229823,36.32933 76.3080063,36.292362 76.3927389,36.2547287 L81.1705393,34.1327084 L78.2446736,38.4651046 C76.9665317,40.3576786 75.4020026,42.0391792 73.6134725,43.4417868 Z" id="Twitter"></path>
            </g>
        </g>
    </g>
</svg>