<?xml version="1.0" encoding="UTF-8"?>
<svg width="40px" height="40px" viewBox="0 0 40 40" version="1.1" xmlns="http://www.w3.org/2000/svg" xmlns:xlink="http://www.w3.org/1999/xlink">
    <title>39722E0D-0568-431E-B856-F5F1D3EC905C</title>
    <g id="New-Dashboards" stroke="none" stroke-width="1" fill="none" fill-rule="evenodd">
        <g id="Dashboards---Mapas-v2---Config-avanzado-colapsed-Copy" transform="translate(-879.000000, -376.000000)">
            <g id="Ico-groups" transform="translate(879.000000, 376.000000)">
                <rect id="Rectangle" x="8" y="8" width="24" height="24"></rect>
                <g id="Group-15" transform="translate(3.000000, 3.000000)" stroke="#577EE8" stroke-width="1.3">
                    <rect id="Rectangle" x="8.94032258" y="8.94032258" width="16.1193548" height="16.1193548" rx="1"></rect>
                    <path d="M12.9354839,6.5483871 L12.9354839,1.16129032 C12.9354839,0.609005573 12.4877686,0.161290323 11.9354839,0.161290323 L1.16129032,0.161290323 C0.609005573,0.161290323 0.161290323,0.609005573 0.161290323,1.16129032 L0.161290323,11.9354839 C0.161290323,12.4877686 0.609005573,12.9354839 1.16129032,12.9354839 L6.5483871,12.9354839 L6.5483871,12.9354839" id="Path-7" stroke-linecap="round" stroke-linejoin="bevel" stroke-dasharray="2.5"></path>
                    <path d="M33.8387097,27.4516129 L33.8387097,22.0645161 C33.8387097,21.5122314 33.3909944,21.0645161 32.8387097,21.0645161 L22.0645161,21.0645161 C21.5122314,21.0645161 21.0645161,21.5122314 21.0645161,22.0645161 L21.0645161,32.8387097 C21.0645161,33.3909944 21.5122314,33.8387097 22.0645161,33.8387097 L27.4516129,33.8387097 L27.4516129,33.8387097" id="Path-7-Copy" stroke-linecap="round" stroke-linejoin="bevel" stroke-dasharray="2.5" transform="translate(27.451613, 27.451613) rotate(-180.000000) translate(-27.451613, -27.451613) "></path>
                    <g id="Group-14" transform="translate(4.225806, 4.225806) rotate(-315.000000) translate(-4.225806, -4.225806) translate(1.322581, 1.322581)" stroke-linecap="round">
                        <polyline id="Path-8" stroke-linejoin="round" points="3.10221903 -4.29763751e-16 5.79673406 2.69506222 3.10221903 5.4532817"></polyline>
                        <line x1="-3.76043283e-13" y1="2.69625281" x2="5.79673406" y2="2.69625281" id="Path-9"></line>
                    </g>
                    <g id="Group-14-Copy" transform="translate(29.774194, 29.774194) rotate(-135.000000) translate(-29.774194, -29.774194) translate(26.870968, 26.870968)" stroke-linecap="round">
                        <polyline id="Path-8" stroke-linejoin="round" points="3.10221903 -4.29763751e-16 5.79673406 2.69506222 3.10221903 5.4532817"></polyline>
                        <line x1="-3.76043283e-13" y1="2.69625281" x2="5.79673406" y2="2.69625281" id="Path-9"></line>
                    </g>
                    <circle id="Oval" cx="17" cy="17" r="4.57580645"></circle>
                    <circle id="Oval-Copy-5" cx="17" cy="17" r="2.35"></circle>
                    <circle id="Oval-Copy-13" transform="translate(17.000000, 17.000000) scale(-1, 1) translate(-17.000000, -17.000000) " cx="17" cy="17" r="1"></circle>
                </g>
            </g>
        </g>
    </g>
</svg>