<?xml version="1.0" encoding="UTF-8"?>
<svg width="80px" height="80px" viewBox="0 0 80 80" version="1.1" xmlns="http://www.w3.org/2000/svg" xmlns:xlink="http://www.w3.org/1999/xlink">
    <title>Widget map</title>
    <g id="Widget-map" stroke="none" stroke-width="1" fill="none" fill-rule="evenodd">
        <g id="Pie2" transform="translate(-982.000000, -373.000000)" fill="#6C7A88">
            <g id="Group-6" transform="translate(982.000000, 373.000000)">
                <g id="Group-18" transform="translate(-0.000100, 0.000400)">
                    <path d="M56.955,16 C60.839,16 64,19.16 64,23.046 L64,23.046 L64,57.954 C64,61.839 60.839,65 56.955,65 L56.955,65 L22.046,65 C18.161,65 15,61.839 15,57.954 L15,57.954 L15,23.046 C15,19.16 18.161,16 22.046,16 L22.046,16 Z M61.546,46.818 L52.364,46.818 L52.364,62.546 L56.955,62.546 C59.486,62.546 61.546,60.486 61.546,57.954 L61.546,57.954 L61.546,46.818 Z M17.455,37.645 L17.455,57.954 C17.455,60.486 19.514,62.546 22.046,62.546 L22.046,62.546 L27.364,62.546 L27.364,49.227 C27.364,48.55 27.915,48 28.591,48 L28.591,48 L34.543,48 C33.377,46.603 32.408,45.231 31.653,43.909 L31.653,43.909 L24.228,43.909 C23.904,43.909 23.588,43.778 23.36,43.549 L23.36,43.549 L17.455,37.645 Z M49.909,46.818 L45.402,46.818 C44.059,48.578 42.356,50.424 40.337,52.307 C39.869,52.744 39.133,52.744 38.664,52.307 C37.998,51.686 37.36,51.063 36.767,50.454 L36.767,50.454 L29.818,50.454 L29.818,62.546 L49.909,62.546 L49.909,46.818 Z M39.5,29.363 C35.364,29.363 32,32.728 32,36.863 C32,40.558 34.523,44.88 39.5,49.714 C44.478,44.88 47,40.558 47,36.863 C47,32.728 43.636,29.363 39.5,29.363 Z M56.955,18.454 L56,18.454 L56,29.591 C56,29.919 55.873,30.227 55.641,30.459 L55.641,30.459 L49.452,36.647 C49.454,36.719 49.455,36.791 49.455,36.863 C49.455,39.222 48.656,41.742 47.081,44.363 L47.081,44.363 L61.546,44.363 L61.546,23.046 C61.546,20.514 59.486,18.454 56.955,18.454 L56.955,18.454 Z M23.728,18.454 L22.046,18.454 C19.514,18.454 17.455,20.514 17.455,23.046 L17.455,23.046 L17.455,34.173 L24.736,41.454 L30.471,41.454 C29.857,39.878 29.546,38.337 29.546,36.863 C29.546,35.255 29.931,33.684 30.666,32.273 L30.666,32.273 L24.955,32.273 C24.278,32.273 23.728,31.722 23.728,31.046 L23.728,31.046 L23.728,18.454 Z M39.5002,32.7274 C41.7812,32.7274 43.6372,34.5824 43.6372,36.8634 C43.6372,39.1444 41.7812,40.9994 39.5002,40.9994 C37.2192,40.9994 35.3642,39.1444 35.3642,36.8634 C35.3642,34.5824 37.2192,32.7274 39.5002,32.7274 Z M39.5002,35.1814 C38.5732,35.1814 37.8182,35.9364 37.8182,36.8634 C37.8182,37.7914 38.5732,38.5454 39.5002,38.5454 C40.4282,38.5454 41.1822,37.7914 41.1822,36.8634 C41.1822,35.9364 40.4282,35.1814 39.5002,35.1814 Z M53.546,18.454 L26.182,18.454 L26.182,29.818 L32.468,29.818 C34.347,27.94 36.836,26.909 39.5,26.909 C43.826,26.909 47.592,29.656 48.939,33.689 L48.939,33.689 L53.546,29.083 L53.546,18.454 Z" id="Combined-Shape"></path>
                </g>
            </g>
        </g>
    </g>
</svg>