<?xml version="1.0" encoding="UTF-8"?>
<svg width="60px" height="61px" viewBox="0 0 60 61" version="1.1" xmlns="http://www.w3.org/2000/svg" xmlns:xlink="http://www.w3.org/1999/xlink">
    <title>0CF4093E-608A-40B3-ADC2-D6E20CA0E719</title>
    <g id="Widget-enlazado" stroke-width="1" fill="none" fill-rule="evenodd">
        <g id="Linked14" transform="translate(-605.000000, -548.000000)">
            <g id="Group-14" transform="translate(575.000000, 533.000000)">
                <g id="ico-max" transform="translate(30.000000, 16.000000)">
                    <g id="Group-6" transform="translate(12.000000, 15.000000)">
                        <polyline id="Path-21" stroke-width="1.5" stroke-linecap="round" stroke-linejoin="round" points="9.13047415e-13 0 9.13047415e-13 30.6593407 35.8913178 30.6593407"></polyline>
                        <path d="M3.07813099,26.7902784 C3.18321849,26.7902784 3.69659577,26.7902784 4.61826284,26.7902784 C10.1194941,26.7902784 12.1194941,10.7902784 18.5619409,10.7902784 C25.0043876,10.7902784 27.0043876,26.7902784 32.4028732,26.7902784 C33.2837962,26.7902784 34.078131,26.7902784 34.078131,26.7902784" id="Path-22" stroke-width="1.5" stroke-linecap="round" stroke-linejoin="round"></path>
                        <g id="Group-8" transform="translate(13.828131, 0.000000)">
                            <rect id="Rectangle" x="4" y="0" width="1.5" height="1.5"></rect>
                            <rect id="Rectangle-Copy-8" x="2" y="0" width="1.5" height="1.5"></rect>
                            <rect id="Rectangle-Copy-9" x="0" y="0" width="1.5" height="1.5"></rect>
                            <rect id="Rectangle-Copy-6" x="6" y="0" width="1.5" height="1.5"></rect>
                            <rect id="Rectangle-Copy-12" x="4" y="2" width="1.5" height="1.5"></rect>
                            <rect id="Rectangle-Copy-13" x="4" y="4" width="1.5" height="1.5"></rect>
                            <rect id="Rectangle-Copy-11" x="2" y="2" width="1.5" height="1.5"></rect>
                            <rect id="Rectangle-Copy-10" x="6" y="2" width="1.5" height="1.5"></rect>
                            <rect id="Rectangle-Copy-7" x="8" y="0" width="1.5" height="1.5"></rect>
                        </g>
                    </g>
                </g>
            </g>
        </g>
    </g>
</svg>