<?xml version="1.0" encoding="UTF-8"?>
<svg width="80px" height="80px" viewBox="0 0 80 80" version="1.1" xmlns="http://www.w3.org/2000/svg" xmlns:xlink="http://www.w3.org/1999/xlink">
    <title>Widget counter</title>
    <g id="Widget-counter" stroke="none" stroke-width="1" fill="none" fill-rule="evenodd">
        <g id="Pie2" transform="translate(-418.000000, -552.000000)" fill="#6C7A88" fill-rule="nonzero">
            <g id="Group-20" transform="translate(418.000000, 552.000000)">
                <path d="M74,25 C75.6568542,25 77,26.3431458 77,28 L77,28 L77,52 C77,53.6568542 75.6568542,55 74,55 L74,55 L7,55 C5.34314575,55 4,53.6568542 4,52 L4,52 L4,28 C4,26.3431458 5.34314575,25 7,25 L7,25 Z M52.356,27 L7,27 C6.44771525,27 6,27.4477153 6,28 L6,28 L6,52 C6,52.5522847 6.44771525,53 7,53 L7,53 L48.197,53 L48.196,52.996 L51.524,52.112 C51.6061178,52.4404713 51.7155648,52.7367906 51.8523409,53.0009579 L57.258,53 L57.361,52.801 C57.4982222,52.5048889 57.5782685,52.1816944 57.6011389,51.8314167 L57.608,51.618 C57.608,51.0286667 57.4823333,50.5476667 57.231,50.175 C56.9796667,49.8023333 56.659,49.5163333 56.269,49.317 C55.879,49.1176667 55.4413333,48.9833333 54.956,48.914 C54.4706667,48.8446667 53.994,48.81 53.526,48.81 L53.526,48.81 L52.772,48.81 L52.772,46.002 L53.578,46.002 C54.0286667,46.002 54.4663333,45.976 54.891,45.924 C55.3156667,45.872 55.697,45.7593333 56.035,45.586 C56.373,45.4126667 56.646,45.1613333 56.854,44.832 C57.062,44.5026667 57.166,44.0606667 57.166,43.506 C57.166,42.7953333 56.9233333,42.2146667 56.438,41.764 C55.9526667,41.3133333 55.32,41.088 54.54,41.088 C53.916,41.088 53.357,41.2656667 52.863,41.621 C52.369,41.9763333 52.0093333,42.4746667 51.784,43.116 L51.784,43.116 L48.482,42.232 C48.69,41.556 48.9846667,40.9666667 49.366,40.464 C49.7473333,39.9613333 50.198,39.5496667 50.718,39.229 C51.238,38.9083333 51.81,38.67 52.434,38.514 C53.058,38.358 53.708,38.28 54.384,38.28 C55.1813333,38.28 55.9353333,38.384 56.646,38.592 C57.3566667,38.8 57.9806667,39.1076667 58.518,39.515 C59.0553333,39.9223333 59.4843333,40.4336667 59.805,41.049 C60.1256667,41.6643333 60.286,42.3793333 60.286,43.194 C60.286,44.182 60.0086667,45.0616667 59.454,45.833 C58.8993333,46.6043333 58.128,47.1113333 57.14,47.354 L57.14,47.354 L57.14,47.406 C58.3186667,47.5793333 59.2113333,48.082 59.818,48.914 C60.4246667,49.746 60.728,50.734 60.728,51.878 C60.728,52.2727778 60.6942955,52.6468143 60.6268866,53.0001097 L74,53 C74.5522847,53 75,52.5522847 75,52 L75,52 L75,28 C75,27.4477153 74.5522847,27 74,27 L74,27 L56.851,27 L52.33,31.192 L60.858,31.192 L60.858,34 L48.534,34 L48.534,30.698 L52.356,27 Z M19.696,30.28 C20.0426667,30.28 20.4456667,30.3146667 20.905,30.384 C21.3643333,30.4533333 21.841,30.5963333 22.335,30.813 C22.829,31.0296667 23.3143333,31.3503333 23.791,31.775 C24.2676667,32.1996667 24.6966667,32.763 25.078,33.465 C25.4593333,34.167 25.767,35.0336667 26.001,36.065 C26.235,37.0963333 26.352,38.34 26.352,39.796 C26.352,41.252 26.235,42.4956667 26.001,43.527 C25.767,44.5583333 25.4593333,45.425 25.078,46.127 C24.6966667,46.829 24.2676667,47.3923333 23.791,47.817 C23.3143333,48.2416667 22.829,48.5623333 22.335,48.779 C21.841,48.9956667 21.3643333,49.1386667 20.905,49.208 C20.4456667,49.2773333 20.0426667,49.312 19.696,49.312 C19.3493333,49.312 18.9463333,49.2773333 18.487,49.208 C18.0276667,49.1386667 17.551,48.9956667 17.057,48.779 C16.563,48.5623333 16.0776667,48.2416667 15.601,47.817 C15.1243333,47.3923333 14.6953333,46.829 14.314,46.127 C13.9326667,45.425 13.625,44.5583333 13.391,43.527 C13.157,42.4956667 13.04,41.252 13.04,39.796 C13.04,38.34 13.157,37.0963333 13.391,36.065 C13.625,35.0336667 13.9326667,34.167 14.314,33.465 C14.6953333,32.763 15.1243333,32.1996667 15.601,31.775 C16.0776667,31.3503333 16.563,31.0296667 17.057,30.813 C17.551,30.5963333 18.0276667,30.4533333 18.487,30.384 C18.9463333,30.3146667 19.3493333,30.28 19.696,30.28 Z M37.48,30.592 L37.48,49 L34.36,49 L34.36,34.18 L30.902,37.378 L29.082,35.22 L34.646,30.592 L37.48,30.592 Z M19.696,33.244 C18.916,33.244 18.292,33.478 17.824,33.946 C17.356,34.414 17.0006667,34.986 16.758,35.662 C16.5153333,36.338 16.355,37.053 16.277,37.807 C16.199,38.561 16.16,39.224 16.16,39.796 C16.16,40.368 16.199,41.031 16.277,41.785 C16.355,42.539 16.5153333,43.254 16.758,43.93 C17.0006667,44.606 17.356,45.178 17.824,45.646 C18.292,46.114 18.916,46.348 19.696,46.348 C20.476,46.348 21.1,46.114 21.568,45.646 C22.036,45.178 22.3913333,44.606 22.634,43.93 C22.8766667,43.254 23.037,42.539 23.115,41.785 C23.193,41.031 23.232,40.368 23.232,39.796 C23.232,39.224 23.193,38.561 23.115,37.807 C23.037,37.053 22.8766667,36.338 22.634,35.662 C22.3913333,34.986 22.036,34.414 21.568,33.946 C21.1,33.478 20.476,33.244 19.696,33.244 Z" id="Combined-Shape"></path>
            </g>
        </g>
    </g>
</svg>