<?xml version="1.0" encoding="UTF-8"?>
<svg width="104px" height="104px" viewBox="0 0 104 104" version="1.1" xmlns="http://www.w3.org/2000/svg" xmlns:xlink="http://www.w3.org/1999/xlink">
    <!-- Generator: sketchtool 59 (101010) - https://sketch.com -->
    <title>2301A39C-69B3-42EC-9716-5515B20F7359</title>
    <desc>Created with sketchtool.</desc>
    <g id="-⚙-Design-Guideline" stroke="none" stroke-width="1" fill="none" fill-rule="evenodd">
        <g id="-⚙-Iconos" transform="translate(-337.000000, -640.000000)" fill="#577EE8" fill-rule="nonzero">
            <g id="Group" transform="translate(335.000000, 631.000000)">
                <g id="noun_group-users_2187456" transform="translate(20.000000, 18.000000)">
                    <g id="Group">
                        <path d="M24.0081276,51.3022041 C24.0081276,55.5457864 26.5642739,59.3715578 30.4848123,60.9955558 C34.4053507,62.6195538 38.9181209,61.7219571 41.9188119,58.7213165 C44.9195029,55.7206758 45.8171752,51.2079206 44.1932431,47.287355 C42.5693109,43.3667894 38.7435823,40.8105077 34.5,40.8105077 C28.7082617,40.8170068 24.0147238,45.5104659 24.0081276,51.3022041 Z M42.1755459,51.3022041 C42.1755459,54.4066886 40.3055755,57.2055252 37.4374262,58.3936094 C34.5692769,59.5816935 31.2678589,58.9250498 29.0726317,56.7298729 C26.8774044,54.534696 26.220685,51.233293 27.4087034,48.3651165 C28.5967217,45.49694 31.3955154,43.6268342 34.5,43.6268342 C38.7370479,43.6315872 42.1706957,47.0651563 42.1755459,51.3022041 L42.1755459,51.3022041 Z" id="Shape"></path>
                        <path d="M58.4197653,68.5379464 C62.2573488,67.6316447 64.807442,63.9943527 64.3512274,60.0776834 C63.8950128,56.1610142 60.577188,53.2072188 56.6340383,53.2072188 C52.6908885,53.2072188 49.3730638,56.1610142 48.9168491,60.0776834 C48.4606345,63.9943527 51.0107277,67.6316447 54.8483112,68.5379464 C52.9896465,68.5676451 51.1699046,69.0751967 49.5641786,70.0117653 C46.9149769,65.4681632 42.0542962,62.6709518 36.7947781,62.6632653 L32.2052219,62.6632653 C26.9449543,62.6707332 22.0834938,65.4682373 19.4338852,70.0124694 C17.8284564,69.0742981 16.0087538,68.5647135 14.1495765,68.5326658 C17.9976036,67.6213709 20.5521943,63.9713652 20.0907378,60.0439196 C19.6292814,56.1164741 16.2982256,53.1580043 12.3437673,53.1634574 C8.38930895,53.1689256 5.06643643,56.1365836 4.6158283,60.0652885 C4.16522018,63.9939935 6.72988159,67.6369302 10.5804107,68.5375944 C4.69928009,68.6491445 -0.00777801334,73.4526789 -9.62546535e-06,79.3348622 L-9.62546535e-06,83.7063291 C-9.62546535e-06,84.4839872 0.565905612,85.1938776 1.34356378,85.1938776 L67.6564362,85.1938776 C68.4340944,85.1938776 69.0000096,84.4839872 69.0000096,83.7063291 L69.0000096,79.3348622 C69.0077763,73.4528061 64.3007705,68.6494018 58.4197653,68.5379464 Z M51.6864566,60.9676607 C51.6864566,58.2250023 53.9099794,56.001773 56.6526378,56.001773 C59.3952961,56.001773 61.6185842,58.225237 61.6185842,60.9678954 C61.6185842,63.7105538 59.3951788,65.9339005 56.6525204,65.9339005 C53.9110573,65.9307962 51.6894637,63.709124 51.6864566,60.9676607 L51.6864566,60.9676607 Z M7.3821199,60.9676607 C7.38221711,58.2250023 9.60564264,56.001773 12.348301,56.001773 C15.0909594,56.001773 17.3142474,58.225237 17.3142474,60.9678954 C17.3142474,63.7105538 15.090842,65.9339005 12.3481837,65.9339005 C9.60644558,65.9311842 7.38442364,63.7093985 7.38141582,60.9676607 L7.3821199,60.9676607 Z M2.81632653,79.3348622 C2.81632653,74.9318878 6.33391837,71.2882653 10.7372449,71.2882653 L13.9584184,71.2882653 C15.4806994,71.2996905 16.9687802,71.7409649 18.2512041,72.5612449 C17.7020921,74.1417435 17.4231283,75.8034467 17.4260204,77.4766148 L17.4260204,82.377551 L2.81632653,82.377551 L2.81632653,79.3348622 Z M45.6486046,82.377551 L20.2423467,82.377551 L20.2423467,77.4766148 C20.241062,70.8636347 25.592265,65.4971567 32.2052219,65.4795918 L36.7947781,65.4795918 C43.407735,65.4971567 48.758938,70.8636347 48.7576533,77.4766148 L48.7576533,82.377551 L45.6486046,82.377551 Z M66.1836735,82.377551 L51.5739796,82.377551 L51.5739796,77.4766148 C51.577034,75.8020962 51.2977661,74.1390446 50.7479158,72.5573724 C52.0280233,71.7317833 53.5183405,71.2912804 55.0415816,71.2882653 L58.2627551,71.2882653 C62.6660816,71.2882653 66.1836735,74.9318878 66.1836735,79.3348622 L66.1836735,82.377551 Z" id="Shape"></path>
                        <path d="M53.7786352,19.3581964 C53.7790289,11.5606843 49.0817792,4.53088631 41.8778582,1.54680895 C34.6739373,-1.43726841 26.3817948,0.212042892 20.8680708,5.72566624 C15.3543468,11.2392896 13.704884,19.5314019 16.6888298,26.7353774 C19.6727757,33.9393528 26.7024879,38.6364796 34.5,38.6364796 C39.6229708,38.669396 44.5456619,36.6488802 48.1682571,33.0263511 C51.7908524,29.403822 53.8114581,24.4811679 53.7786352,19.3581964 Z M35.9081633,35.759602 L35.9081633,32.5129056 C35.9081633,31.7351985 35.2777071,31.1047423 34.5,31.1047423 C33.7222929,31.1047423 33.0918367,31.7351985 33.0918367,32.5129056 L33.0918367,35.759602 C25.1234662,35.0536974 18.8065684,28.7385794 18.0984184,20.7704082 L21.3452908,20.7704082 C22.1229979,20.7704082 22.7534541,20.139952 22.7534541,19.3622449 C22.7534541,18.5845378 22.1229979,17.9540816 21.3452908,17.9540816 L18.0984184,17.9540816 C18.8061206,9.9843362 25.1222577,3.66671612 33.0918367,2.95714286 L33.0918367,6.20331122 C33.0918367,6.98101832 33.7222929,7.61147449 34.5,7.61147449 C35.2777071,7.61147449 35.9081633,6.98101832 35.9081633,6.20331122 L35.9081633,2.95714286 C43.8777423,3.66671612 50.1938794,9.9843362 50.9015816,17.9540816 L47.6547092,17.9540816 C46.8770021,17.9540816 46.2465459,18.5845378 46.2465459,19.3622449 C46.2465459,20.139952 46.8770021,20.7704082 47.6547092,20.7704082 L50.9015816,20.7704082 C50.1934316,28.7385794 43.8765338,35.0536974 35.9081633,35.759602 L35.9081633,35.759602 Z" id="Shape"></path>
                        <path d="M34.5,9.98563776 C30.7091379,9.98563776 27.2915088,12.269072 25.8407594,15.7713515 C24.3900099,19.273631 25.1918428,23.3049645 27.872362,25.985534 C30.5528811,28.6661035 34.5841995,29.4680121 38.0865062,28.0173284 C41.588813,26.5666447 43.8723827,23.1490586 43.8723827,19.3581964 C43.8666594,14.1843164 39.6738799,9.99145819 34.5,9.98563776 Z M34.5,25.9142526 C31.8482196,25.9142526 29.4575143,24.3169752 28.442689,21.8670631 C27.4278637,19.4171511 27.9887759,16.5971561 29.8638678,14.7220642 C31.7389597,12.8469723 34.5589547,12.2860601 37.0088667,13.3008854 C39.4587787,14.3157107 41.0560561,16.706416 41.0560561,19.3581964 C41.051982,22.9773173 38.1191209,25.9101784 34.5,25.9142526 Z" id="Shape"></path>
                    </g>
                </g>
            </g>
        </g>
    </g>
</svg>