<?xml version="1.0" encoding="UTF-8"?>
<svg width="80px" height="80px" viewBox="0 0 80 80" version="1.1" xmlns="http://www.w3.org/2000/svg" xmlns:xlink="http://www.w3.org/1999/xlink">
    <title>Widget slider</title>
    <g id="Widget slider" stroke="none" stroke-width="1" fill="none" fill-rule="evenodd">
        <g id="Pie2" transform="translate(-230.000000, -732.000000)">
            <g id="Group-24" transform="translate(230.000000, 732.000000)">
                <g id="Group-7" transform="translate(2.000000, 28.749023)">
                    <g id="Filter-Element" transform="translate(45.000000, 13.250977)" fill="#626262" opacity="0.25159418">
                        <g id="Bar">
                            <path d="M2,0 L29,0 C30.1045695,-2.02906125e-16 31,0.8954305 31,2 C31,3.1045695 30.1045695,4 29,4 L2,4 C0.8954305,4 1.3527075e-16,3.1045695 0,2 C-1.3527075e-16,0.8954305 0.8954305,2.02906125e-16 2,0 Z"></path>
                        </g>
                    </g>
                    <path d="M39,7.25097656 C43.418278,7.25097656 47,10.8326986 47,15.2509766 C47,19.6692546 43.418278,23.2509766 39,23.2509766 C35.2721912,23.2509766 32.1399022,20.7012532 31.2519421,17.2506157 L2,17.2509766 C0.8954305,17.2509766 1.3527075e-16,16.3555461 0,15.2509766 C-1.3527075e-16,14.1464071 0.8954305,13.2509766 2,13.2509766 L31.2521271,13.2506185 C32.1403373,9.80034574 35.2724501,7.25097656 39,7.25097656 Z M39,11.2509766 C36.790861,11.2509766 35,13.0418376 35,15.2509766 C35,17.4601156 36.790861,19.2509766 39,19.2509766 C41.209139,19.2509766 43,17.4601156 43,15.2509766 C43,13.0418376 41.209139,11.2509766 39,11.2509766 Z M67.4355469,0 C68.2591146,0 68.8816732,0.3125 69.3032227,0.9375 C69.7247721,1.5625 69.9355469,2.47721354 69.9355469,3.68164062 C69.9355469,4.92838542 69.7312826,5.85123698 69.3227539,6.45019531 C68.9142253,7.04915365 68.2851562,7.34863281 67.4355469,7.34863281 C66.6119792,7.34863281 65.9910482,7.03938802 65.5727539,6.42089844 C65.1544596,5.80240885 64.9453125,4.88932292 64.9453125,3.68164062 C64.9453125,2.421875 65.148763,1.49332682 65.5556641,0.895996094 C65.9625651,0.298665365 66.5891927,0 67.4355469,0 Z M73.1435547,0 C73.9671224,0 74.589681,0.3125 75.0112305,0.9375 C75.4327799,1.5625 75.6435547,2.47721354 75.6435547,3.68164062 C75.6435547,4.92838542 75.4392904,5.85123698 75.0307617,6.45019531 C74.6222331,7.04915365 73.9931641,7.34863281 73.1435547,7.34863281 C72.319987,7.34863281 71.699056,7.03938802 71.2807617,6.42089844 C70.8624674,5.80240885 70.6533203,4.88932292 70.6533203,3.68164062 C70.6533203,2.421875 70.8567708,1.49332682 71.2636719,0.895996094 C71.6705729,0.298665365 72.2972005,0 73.1435547,0 Z M2.8515625,0 C3.67513021,0 4.2976888,0.3125 4.71923828,0.9375 C5.14078776,1.5625 5.3515625,2.47721354 5.3515625,3.68164062 C5.3515625,4.92838542 5.14729818,5.85123698 4.73876953,6.45019531 C4.33024089,7.04915365 3.70117188,7.34863281 2.8515625,7.34863281 C2.02799479,7.34863281 1.4070638,7.03938802 0.988769531,6.42089844 C0.57047526,5.80240885 0.361328125,4.88932292 0.361328125,3.68164062 C0.361328125,2.421875 0.564778646,1.49332682 0.971679688,0.895996094 C1.37858073,0.298665365 2.00520833,0 2.8515625,0 Z M63.0068359,0.112304688 L63.0068359,7.25097656 L61.4980469,7.25097656 L61.4980469,3.12011719 L61.5126953,2.44140625 L61.5371094,1.69921875 L61.434371,1.80135922 C61.2382613,1.99507733 61.0983538,2.12541853 61.0146484,2.19238281 L61.0146484,2.19238281 L60.1943359,2.8515625 L59.4667969,1.94335937 L61.7666016,0.112304688 L63.0068359,0.112304688 Z M67.4355469,1.22070312 C67.0807292,1.22070312 66.8268229,1.41194661 66.6738281,1.79443359 C66.5208333,2.17692057 66.4443359,2.80598958 66.4443359,3.68164062 C66.4443359,4.55729167 66.5200195,5.18473307 66.6713867,5.56396484 C66.8227539,5.94319661 67.077474,6.1328125 67.4355469,6.1328125 C67.7871094,6.1328125 68.0410156,5.94075521 68.1972656,5.55664062 C68.3535156,5.17252604 68.4316406,4.54752604 68.4316406,3.68164062 C68.4316406,2.80598958 68.3527018,2.17692057 68.1948242,1.79443359 C68.0369466,1.41194661 67.7838542,1.22070312 67.4355469,1.22070312 Z M73.1435547,1.22070312 C72.788737,1.22070312 72.5348307,1.41194661 72.3818359,1.79443359 C72.2288411,2.17692057 72.1523438,2.80598958 72.1523438,3.68164062 C72.1523438,4.55729167 72.2280273,5.18473307 72.3793945,5.56396484 C72.5307617,5.94319661 72.7854818,6.1328125 73.1435547,6.1328125 C73.4951172,6.1328125 73.7490234,5.94075521 73.9052734,5.55664062 C74.0615234,5.17252604 74.1396484,4.54752604 74.1396484,3.68164062 C74.1396484,2.80598958 74.0607096,2.17692057 73.902832,1.79443359 C73.7449544,1.41194661 73.491862,1.22070312 73.1435547,1.22070312 Z M2.8515625,1.22070312 C2.49674479,1.22070312 2.24283854,1.41194661 2.08984375,1.79443359 C1.93684896,2.17692057 1.86035156,2.80598958 1.86035156,3.68164062 C1.86035156,4.55729167 1.93603516,5.18473307 2.08740234,5.56396484 C2.23876953,5.94319661 2.49348958,6.1328125 2.8515625,6.1328125 C3.203125,6.1328125 3.45703125,5.94075521 3.61328125,5.55664062 C3.76953125,5.17252604 3.84765625,4.54752604 3.84765625,3.68164062 C3.84765625,2.80598958 3.76871745,2.17692057 3.61083984,1.79443359 C3.45296224,1.41194661 3.19986979,1.22070312 2.8515625,1.22070312 Z" id="Combined-Shape" fill="#6C7A88" fill-rule="nonzero"></path>
                </g>
            </g>
        </g>
    </g>
</svg>