<?xml version="1.0" encoding="UTF-8"?>
<svg width="64px" height="64px" viewBox="0 0 64 64" version="1.1" xmlns="http://www.w3.org/2000/svg" xmlns:xlink="http://www.w3.org/1999/xlink">
    <!-- Generator: sketchtool 58 (101010) - https://sketch.com -->
    <title>2E158114-FE07-42D2-9BFF-FCA144B303B5</title>
    <desc>Created with sketchtool.</desc>
    <g id="-⚙-Design-Guideline" stroke="none" stroke-width="1" fill="none" fill-rule="evenodd">
        <g id="-⚙-Iconos" transform="translate(-977.000000, -839.000000)" fill="#2B334A" fill-rule="nonzero">
            <g id="ico-knowage" transform="translate(977.000000, 839.000000)">
                <g id="Group">
                    <g transform="translate(14.000000, 8.000000)">
                        <g>
                            <path d="M33.6,48 L1.6,48 C0.7163444,48 0,47.2836556 0,46.4 L0,1.6 C0,0.7163444 0.7163444,0 1.6,0 L33.6,0 C34.4836556,0 35.2,0.7163444 35.2,1.6 L35.2,46.4 C35.2,47.2836556 34.4836556,48 33.6,48 Z M1.6,1.6 L1.6,46.4 L33.6,46.4 L33.6,1.6 L1.6,1.6 Z" id="Shape"></path>
                            <rect id="Rectangle" x="0.8" y="9.6" width="33.6" height="1.6"></rect>
                            <rect id="Rectangle" x="3.2" y="3.2" width="4" height="1.6"></rect>
                            <rect id="Rectangle" x="3.2" y="6.4" width="4" height="1.6"></rect>
                            <path d="M24.8,8 L9.6,8 C9.1581722,8 8.8,7.6418278 8.8,7.2 L8.8,4 C8.8,3.5581722 9.1581722,3.2 9.6,3.2 L24.8,3.2 C25.2418278,3.2 25.6,3.5581722 25.6,4 L25.6,7.2 C25.6,7.6418278 25.2418278,8 24.8,8 Z M10.4,6.4 L24,6.4 L24,4.8 L10.4,4.8 L10.4,6.4 Z" id="Shape"></path>
                            <path d="M29.6,8 C28.2745166,8 27.2,6.9254834 27.2,5.6 C27.2,4.2745166 28.2745166,3.2 29.6,3.2 C30.9254834,3.2 32,4.2745166 32,5.6 C32,6.23651958 31.7471436,6.84696897 31.2970563,7.29705627 C30.846969,7.74714358 30.2365196,8 29.6,8 Z M29.6,4.8 C29.1581722,4.8 28.8,5.1581722 28.8,5.6 C28.8,6.0418278 29.1581722,6.4 29.6,6.4 C30.0418278,6.4 30.4,6.0418278 30.4,5.6 C30.4,5.1581722 30.0418278,4.8 29.6,4.8 Z" id="Shape"></path>
                            <path d="M4,29.6 L0.8,29.6 L0.8,28 L3.6688,28 L10.6344,21.0344 C10.7843942,20.8843605 10.9878441,20.8 11.2,20.8 L12.8,20.8 L12.8,22.4 L11.5312,22.4 L4.5656,29.3656 C4.41560581,29.5156395 4.21215585,29.6 4,29.6 L4,29.6 Z" id="Path"></path>
                            <path d="M15.2,24.8 C13.4326888,24.8 12,23.3673112 12,21.6 C12,19.8326888 13.4326888,18.4 15.2,18.4 C16.9673112,18.4 18.4,19.8326888 18.4,21.6 C18.4,23.3673112 16.9673112,24.8 15.2,24.8 Z M15.2,20 C14.3163444,20 13.6,20.7163444 13.6,21.6 C13.6,22.4836556 14.3163444,23.2 15.2,23.2 C16.0836556,23.2 16.8,22.4836556 16.8,21.6 C16.8,20.7163444 16.0836556,20 15.2,20 Z" id="Shape"></path>
                            <path d="M28,27.2 C26.2326888,27.2 24.8,25.7673112 24.8,24 C24.8,22.2326888 26.2326888,20.8 28,20.8 C29.7673112,20.8 31.2,22.2326888 31.2,24 C31.2,25.7673112 29.7673112,27.2 28,27.2 Z M28,22.4 C27.1163444,22.4 26.4,23.1163444 26.4,24 C26.4,24.8836556 27.1163444,25.6 28,25.6 C28.8836556,25.6 29.6,24.8836556 29.6,24 C29.6,23.1163444 28.8836556,22.4 28,22.4 Z" id="Shape"></path>
                            <path d="M25.6,24.8 L24,24.8 C23.7878441,24.7999547 23.5843942,24.7156395 23.4344,24.5656 L21.2688,22.4 L17.6,22.4 L17.6,20.8 L21.6,20.8 C21.8121559,20.8000453 22.0156058,20.8843605 22.1656,21.0344 L24.3312,23.2 L25.6,23.2 L25.6,24.8 Z" id="Path"></path>
                            <rect id="Rectangle" x="30.4" y="23.2" width="4" height="1.6"></rect>
                            <path d="M16,16.8 L14.4,16.8 L14.4,15.2 L10.4,15.2 L10.4,13.6 L15.2,13.6 C15.6418278,13.6 16,13.9581722 16,14.4 L16,16.8 Z" id="Path"></path>
                            <rect id="Rectangle" x="5.6" y="13.6" width="3.2" height="1.6"></rect>
                            <rect id="Rectangle" x="4" y="16.8" width="4.8" height="1.6"></rect>
                            <path d="M11.2,43.2 C7.6653776,43.2 4.8,40.3346224 4.8,36.8 C4.8,33.2653776 7.6653776,30.4 11.2,30.4 C14.7346224,30.4 17.6,33.2653776 17.6,36.8 C17.5960321,40.3329775 14.7329775,43.1960321 11.2,43.2 L11.2,43.2 Z M11.2,32 C8.5490332,32 6.4,34.1490332 6.4,36.8 C6.4,39.4509668 8.5490332,41.6 11.2,41.6 C13.8509668,41.6 16,39.4509668 16,36.8 C15.9973541,34.1501299 13.8498701,32.0026459 11.2,32 Z" id="Shape"></path>
                            <path d="M16.8,37.6 L11.2,37.6 C10.7581722,37.6 10.4,37.2418278 10.4,36.8 L10.4,31.2 L12,31.2 L12,36 L16.8,36 L16.8,37.6 Z" id="Path"></path>
                            <polygon id="Rectangle" transform="translate(9.199926, 38.800360) rotate(-45.000000) translate(-9.199926, -38.800360) " points="6.37152605 38.0003602 12.0283261 38.0003602 12.0283261 39.6003602 6.37152605 39.6003602"></polygon>
                            <path d="M29.6,36 L20,36 C19.5581722,36 19.2,35.6418278 19.2,35.2 L19.2,32 C19.2,31.5581722 19.5581722,31.2 20,31.2 L29.6,31.2 C30.0418278,31.2 30.4,31.5581722 30.4,32 L30.4,35.2 C30.4,35.6418278 30.0418278,36 29.6,36 Z M20.8,34.4 L28.8,34.4 L28.8,32.8 L20.8,32.8 L20.8,34.4 Z" id="Shape"></path>
                            <rect id="Rectangle" x="19.2" y="37.6" width="1.6" height="1.6"></rect>
                            <rect id="Rectangle" x="22.4" y="37.6" width="4.8" height="1.6"></rect>
                            <rect id="Rectangle" x="28.8" y="37.6" width="1.6" height="1.6"></rect>
                            <rect id="Rectangle" x="19.2" y="40.8" width="11.2" height="1.6"></rect>
                        </g>
                    </g>
                </g>
            </g>
        </g>
    </g>
</svg>