<?xml version="1.0" encoding="UTF-8"?>
<svg width="104px" height="104px" viewBox="0 0 104 104" version="1.1" xmlns="http://www.w3.org/2000/svg" xmlns:xlink="http://www.w3.org/1999/xlink">
    <!-- Generator: sketchtool 57.1 (101010) - https://sketch.com -->
    <title>A4D8F071-A2C8-4A31-AFD8-C39073F68B4D</title>
    <desc>Created with sketchtool.</desc>
    <g id="-⚙-Design-Guideline" stroke="none" stroke-width="1" fill="none" fill-rule="evenodd">
        <g id="-⚙-Iconos" transform="translate(-337.000000, -812.000000)" fill="#577EE8" fill-rule="nonzero" stroke="#577EE8" stroke-width="0.5">
            <g id="ico-KPI-Text" transform="translate(337.000000, 673.000000)">
                <g id="ico-widget-needle" transform="translate(0.000000, 139.000000)">
                    <g id="ico--needle">
                        <path d="M52.5,28.292 C39.152,28.292 28.292,39.152 28.292,52.5 C28.292,65.849 39.152,76.708 52.5,76.708 C65.849,76.708 76.708,65.849 76.708,52.5 C76.708,39.152 65.849,28.292 52.5,28.292 Z M52.5,75.708 C39.703,75.708 29.292,65.297 29.292,52.5 C29.292,39.703 39.703,29.292 52.5,29.292 C65.297,29.292 75.708,39.703 75.708,52.5 C75.708,65.297 65.297,75.708 52.5,75.708 Z" id="Shape"></path>
                        <path d="M74.416,52.5 L74.416,52.5 C74.416,46.478 71.974,41.016 68.028,37.05 C68.016,37.035 68.01,37.017 67.997,37.003 C67.984,36.989 67.965,36.983 67.949,36.972 C63.984,33.026 58.522,30.584 52.5,30.584 C46.478,30.584 41.016,33.026 37.05,36.972 C37.034,36.984 37.016,36.99 37.002,37.004 C36.988,37.018 36.982,37.036 36.97,37.052 C33.025,41.017 30.582,46.479 30.582,52.501 C30.582,58.522 33.024,63.983 36.968,67.949 C36.981,67.965 36.987,67.984 37.001,67.999 C37.015,68.014 37.035,68.02 37.051,68.032 C41.016,71.975 46.476,74.418 52.497,74.418 L52.497,74.418 L52.497,74.418 C52.497,74.418 52.497,74.418 52.498,74.418 C58.519,74.418 63.98,71.977 67.945,68.032 C67.961,68.019 67.98,68.013 67.995,67.999 C68.01,67.985 68.016,67.965 68.028,67.949 C71.975,63.982 74.416,58.521 74.416,52.5 L74.416,52.5 L74.416,52.5 Z M71.083,53 L73.391,53 C73.263,58.388 71.093,63.271 67.62,66.912 L65.994,65.286 C65.799,65.091 65.482,65.091 65.287,65.286 C65.092,65.481 65.092,65.798 65.287,65.993 L66.913,67.619 C63.271,71.093 58.389,73.263 53,73.39 L53,71.081 C53,70.805 52.776,70.581 52.5,70.581 C52.224,70.581 52,70.805 52,71.081 L52,73.39 C46.612,73.261 41.73,71.092 38.088,67.619 L39.714,65.992 C39.909,65.797 39.909,65.48 39.714,65.285 C39.519,65.09 39.202,65.09 39.007,65.285 L37.381,66.912 C33.907,63.269 31.738,58.387 31.61,52.999 L33.919,52.999 C34.195,52.999 34.419,52.775 34.419,52.499 C34.419,52.223 34.195,51.999 33.919,51.999 L31.61,51.999 C31.738,46.611 33.907,41.728 37.381,38.086 L39.007,39.713 C39.105,39.811 39.233,39.859 39.361,39.859 C39.489,39.859 39.617,39.81 39.715,39.713 C39.91,39.518 39.91,39.201 39.715,39.006 L38.089,37.379 C41.732,33.906 46.614,31.736 52.003,31.608 L52.003,33.916 C52.003,34.192 52.227,34.416 52.503,34.416 C52.779,34.416 53.003,34.192 53.003,33.916 L53.003,31.608 C58.391,31.736 63.274,33.906 66.916,37.379 L65.29,39.005 C65.095,39.2 65.095,39.517 65.29,39.712 C65.388,39.81 65.516,39.858 65.644,39.858 C65.772,39.858 65.9,39.809 65.998,39.712 L67.624,38.086 C71.097,41.728 73.267,46.611 73.395,51.999 L71.087,51.999 C70.811,51.999 70.587,52.223 70.587,52.499 C70.587,52.775 70.807,53 71.083,53 Z" id="Shape"></path>
                        <path d="M63.892,63.385 C63.891,63.36 63.895,63.334 63.89,63.309 C63.881,63.264 63.862,63.223 63.841,63.181 C63.833,63.166 63.832,63.15 63.823,63.135 L63.814,63.12 C63.812,63.117 63.81,63.115 63.808,63.112 L55.398,49.758 C55.396,49.755 55.392,49.753 55.39,49.75 C55.372,49.723 55.345,49.702 55.322,49.678 C55.299,49.654 55.278,49.627 55.25,49.609 C55.247,49.607 55.245,49.603 55.242,49.601 L41.888,41.189 C41.885,41.187 41.882,41.186 41.879,41.184 L41.864,41.175 C41.85,41.166 41.834,41.166 41.82,41.158 C41.778,41.137 41.736,41.117 41.69,41.109 C41.666,41.1051144 41.642,41.108 41.617,41.107 C41.578,41.1051144 41.54,41.103 41.501,41.11 C41.471,41.116 41.444,41.131 41.416,41.142 C41.388,41.153 41.359,41.157 41.333,41.173 C41.329,41.175 41.327,41.18 41.323,41.183 C41.299,41.199 41.28,41.224 41.259,41.245 C41.233,41.27 41.204,41.292 41.185,41.322 C41.183,41.325 41.179,41.327 41.176,41.331 C41.161,41.355 41.158,41.382 41.147,41.407 C41.134,41.438 41.118,41.467 41.112,41.5 C41.104,41.538 41.107,41.575 41.109,41.613 C41.109,41.639 41.106,41.664 41.111,41.689 C41.12,41.735 41.139,41.777 41.161,41.82 C41.168,41.834 41.169,41.85 41.178,41.863 L41.187,41.877 C41.189,41.88 41.191,41.883 41.193,41.886 L49.605,55.24 C49.607,55.243 49.61,55.244 49.612,55.247 C49.65,55.305 49.698,55.357 49.761,55.396 L63.136,63.822 C63.14,63.825 63.145,63.823 63.148,63.826 C63.226,63.872 63.312,63.9 63.402,63.9 C63.409,63.9 63.416,63.894 63.423,63.894 C63.504,63.891 63.583,63.869 63.653,63.827 C63.658,63.825 63.664,63.826 63.669,63.823 C63.732,63.784 63.78,63.731 63.818,63.673 C63.82,63.67 63.824,63.669 63.826,63.666 C63.841,63.642 63.845,63.615 63.855,63.59 C63.868,63.56 63.883,63.53 63.89,63.497 C63.896,63.461 63.893,63.424 63.892,63.385 Z M50.388,54.612 L43.198,43.197 L54.614,50.387 L61.803,61.802 L50.388,54.612 Z" id="Shape"></path>
                        <path d="M52.5,50.263 C51.266,50.263 50.263,51.266 50.263,52.5 C50.263,53.733 51.266,54.737 52.5,54.737 C53.733,54.737 54.737,53.733 54.737,52.5 C54.737,51.266 53.733,50.263 52.5,50.263 Z M52.5,53.737 C51.818,53.737 51.263,53.182 51.263,52.5 C51.263,51.818 51.818,51.263 52.5,51.263 C53.183,51.263 53.737,51.818 53.737,52.5 C53.737,53.183 53.183,53.737 52.5,53.737 Z" id="Shape"></path>
                    </g>
                </g>
            </g>
        </g>
    </g>
</svg>