<?xml version="1.0" encoding="UTF-8"?>
<svg width="80px" height="80px" viewBox="0 0 80 80" version="1.1" xmlns="http://www.w3.org/2000/svg" xmlns:xlink="http://www.w3.org/1999/xlink">
    <title>Widget command</title>
    <g id="Widget-command" stroke="none" stroke-width="1" fill="none" fill-rule="evenodd">
        <g id="Pie2" transform="translate(-795.000000, -552.000000)" fill="#6C7A88" fill-rule="nonzero">
            <g id="Group-22" transform="translate(795.000000, 552.000000)">
                <path d="M60.5714286,20 C62.401858,20 63.8972667,21.4366748 63.9949268,23.2456071 L64,23.4340223 L64,55.4848967 C64,57.3182362 62.5656056,58.8160223 60.7595447,58.9138377 L60.5714286,58.9189189 L19.4285714,58.9189189 C17.598142,58.9189189 16.1027333,57.4822441 16.0050732,55.6733119 L16,55.4848967 L16,23.4340223 C16,21.6006827 17.4343944,20.1028966 19.2404553,20.0050812 L19.4285714,20 L60.5714286,20 Z M61.714,25.723 L18.285,25.723 L18.2857143,55.4848967 C18.2857143,56.074937 18.7314397,56.560707 19.3040446,56.622854 L19.4285714,56.6295707 L60.5714286,56.6295707 C61.1605323,56.6295707 61.6455313,56.1831367 61.7075796,55.6096215 L61.7142857,55.4848967 L61.714,25.723 Z M38.8571429,45.1828299 L38.8571429,47.4721781 L32,47.4721781 L32,45.1828299 L38.8571429,45.1828299 Z M28.2057143,33.736089 L29.8057143,35.3844197 L25.7371429,39.4594595 L29.7142857,43.4429253 L28.2057143,45.1828299 L23.2914286,40.3751987 C22.8380886,39.9195642 22.8380886,39.1825026 23.2914286,38.726868 L28.2057143,33.736089 Z" id="Combined-Shape"></path>
            </g>
        </g>
    </g>
</svg>