<?xml version="1.0" encoding="UTF-8"?>
<svg width="80px" height="80px" viewBox="0 0 80 80" version="1.1" xmlns="http://www.w3.org/2000/svg" xmlns:xlink="http://www.w3.org/1999/xlink">
    <title>Widget table</title>
    <g id="Widget-table" stroke="none" stroke-width="1" fill="none" fill-rule="evenodd">
        <g id="Pie2" transform="translate(-230.000000, -552.000000)" fill="#6C7A88" fill-rule="nonzero">
            <g id="Group-19" transform="translate(230.000000, 552.000000)">
                <path d="M55.2,16 C55.2184,16 55.2344,16.0096 55.2528,16.0112 C55.3224,16.016 55.3896,16.0288 55.4552,16.0512 C55.4816,16.06 55.5072,16.0664 55.5328,16.0784 C55.6176,16.1168 55.6976,16.1656 55.7664,16.2344 L55.7664,16.2344 L63.7664,24.2344 C63.8352,24.3032 63.884,24.384 63.9232,24.4696 C63.9336,24.4936 63.94,24.5176 63.9488,24.5424 C63.972,24.6104 63.9856,24.68 63.9904,24.7512 L63.9904,24.7512 L64,24.8 L64,63.2 C64,63.6416 63.6424,64 63.2,64 L63.2,64 L16.8,64 C16.3576,64 16,63.6416 16,63.2 L16,63.2 L16,16.8 C16,16.3584 16.3576,16 16.8,16 L16.8,16 Z M62.4,28.8 L17.6,28.8 L17.6,62.4 L62.4,62.4 L62.4,28.8 Z M31.2,51.2 C31.6424,51.2 32,51.5584 32,52 L32,52 L32,58.4 C32,58.8416 31.6424,59.2 31.2,59.2 L31.2,59.2 L20,59.2 C19.5576,59.2 19.2,58.8416 19.2,58.4 L19.2,58.4 L19.2,52 C19.2,51.5584 19.5576,51.2 20,51.2 L20,51.2 Z M45.6,51.2 C46.0424,51.2 46.4,51.5584 46.4,52 L46.4,52 L46.4,58.4 C46.4,58.8416 46.0424,59.2 45.6,59.2 L45.6,59.2 L34.4,59.2 C33.9576,59.2 33.6,58.8416 33.6,58.4 L33.6,58.4 L33.6,52 C33.6,51.5584 33.9576,51.2 34.4,51.2 L34.4,51.2 Z M60,51.2 C60.4424,51.2 60.8,51.5584 60.8,52 L60.8,52 L60.8,58.4 C60.8,58.8416 60.4424,59.2 60,59.2 L60,59.2 L48.8,59.2 C48.3576,59.2 48,58.8416 48,58.4 L48,58.4 L48,52 C48,51.5584 48.3576,51.2 48.8,51.2 L48.8,51.2 Z M30.4,52.8 L20.8,52.8 L20.8,57.6 L30.4,57.6 L30.4,52.8 Z M44.8,52.8 L35.2,52.8 L35.2,57.6 L44.8,57.6 L44.8,52.8 Z M59.2,52.8 L49.6,52.8 L49.6,57.6 L59.2,57.6 L59.2,52.8 Z M31.2,41.6 C31.6424,41.6 32,41.9584 32,42.4 L32,42.4 L32,48.8 C32,49.2416 31.6424,49.6 31.2,49.6 L31.2,49.6 L20,49.6 C19.5576,49.6 19.2,49.2416 19.2,48.8 L19.2,48.8 L19.2,42.4 C19.2,41.9584 19.5576,41.6 20,41.6 L20,41.6 Z M45.6,41.6 C46.0424,41.6 46.4,41.9584 46.4,42.4 L46.4,42.4 L46.4,48.8 C46.4,49.2416 46.0424,49.6 45.6,49.6 L45.6,49.6 L34.4,49.6 C33.9576,49.6 33.6,49.2416 33.6,48.8 L33.6,48.8 L33.6,42.4 C33.6,41.9584 33.9576,41.6 34.4,41.6 L34.4,41.6 Z M60,41.6 C60.4424,41.6 60.8,41.9584 60.8,42.4 L60.8,42.4 L60.8,48.8 C60.8,49.2416 60.4424,49.6 60,49.6 L60,49.6 L48.8,49.6 C48.3576,49.6 48,49.2416 48,48.8 L48,48.8 L48,42.4 C48,41.9584 48.3576,41.6 48.8,41.6 L48.8,41.6 Z M30.4,43.2 L20.8,43.2 L20.8,48 L30.4,48 L30.4,43.2 Z M44.8,43.2 L35.2,43.2 L35.2,48 L44.8,48 L44.8,43.2 Z M59.2,43.2 L49.6,43.2 L49.6,48 L59.2,48 L59.2,43.2 Z M31.2,32 C31.6424,32 32,32.3584 32,32.8 L32,32.8 L32,39.2 C32,39.6416 31.6424,40 31.2,40 L31.2,40 L20,40 C19.5576,40 19.2,39.6416 19.2,39.2 L19.2,39.2 L19.2,32.8 C19.2,32.3584 19.5576,32 20,32 L20,32 Z M45.6,32 C46.0424,32 46.4,32.3584 46.4,32.8 L46.4,32.8 L46.4,39.2 C46.4,39.6416 46.0424,40 45.6,40 L45.6,40 L34.4,40 C33.9576,40 33.6,39.6416 33.6,39.2 L33.6,39.2 L33.6,32.8 C33.6,32.3584 33.9576,32 34.4,32 L34.4,32 Z M60,32 C60.4424,32 60.8,32.3584 60.8,32.8 L60.8,32.8 L60.8,39.2 C60.8,39.6416 60.4424,40 60,40 L60,40 L48.8,40 C48.3576,40 48,39.6416 48,39.2 L48,39.2 L48,32.8 C48,32.3584 48.3576,32 48.8,32 L48.8,32 Z M30.4,33.6 L20.8,33.6 L20.8,38.4 L30.4,38.4 L30.4,33.6 Z M44.8,33.6 L35.2,33.6 L35.2,38.4 L44.8,38.4 L44.8,33.6 Z M59.2,33.6 L49.6,33.6 L49.6,38.4 L59.2,38.4 L59.2,33.6 Z M54.4,17.6 L17.6,17.6 L17.6,27.2 L62.4,27.2 L62.4,25.6 L55.2,25.6 C54.7576,25.6 54.4,25.2416 54.4,24.8 L54.4,24.8 L54.4,17.6 Z M56,18.7312 L56,24 L61.2688,24 L56,18.7312 Z M41.6,21.6 L41.6,23.2 L38.4,23.2 L38.4,21.6 L41.6,21.6 Z M36.8,21.6 L36.8,23.2 L33.6,23.2 L33.6,21.6 L36.8,21.6 Z M46.4,21.6 L46.4,23.2 L43.2,23.2 L43.2,21.6 L46.4,21.6 Z" id="Combined-Shape"></path>
            </g>
        </g>
    </g>
</svg>