<?xml version="1.0" encoding="UTF-8"?>
<svg width="24px" height="24px" viewBox="0 0 24 24" version="1.1" xmlns="http://www.w3.org/2000/svg" xmlns:xlink="http://www.w3.org/1999/xlink">
    <!-- Generator: sketchtool 61 (101010) - https://sketch.com -->
    <title>C674C5B8-2B02-401C-A470-C03493BCBCAE</title>
    <desc>Created with sketchtool.</desc>
    <g id="Layout-FIWOO" stroke="none" stroke-width="1" fill="none" fill-rule="evenodd">
        <g id="Mobile-Dashboard" transform="translate(-321.000000, -12.000000)">
            <g id="Component/Navigation/Top-Bar-Mobile-Component/Navigation/Top-Bar-Mobile02">
                <g id="Components/Icons/menu" transform="translate(321.000000, 12.000000)">
                    <g>
                        <rect id="Rectangle-48-Copy-10" x="0" y="2" width="19.862069" height="19.862069"></rect>
                        <g id="menufold" transform="translate(1.202586, 4.482759)" fill="#2B334A" fill-rule="nonzero">
                            <path d="M0.713793103,1.41206897 L16.7760776,1.41206897 C17.162069,1.41206897 17.4743534,1.09978448 17.4743534,0.713793103 C17.4743534,0.327801724 17.162069,0.0155172414 16.7760776,0.0155172414 L0.713793103,0.0155172414 C0.327801724,0.0155172414 0.0155172414,0.327801724 0.0155172414,0.713793103 C0.0155172414,1.09978448 0.327801724,1.41206897 0.713793103,1.41206897 Z M20.6413972,6.16422414 L6.0101112,6.16422414 C5.49487037,6.16422414 5.07801724,6.47650862 5.07801724,6.8625 C5.07801724,7.24849138 5.49487037,7.56077586 6.0101112,7.56077586 L20.6413972,7.56077586 C21.156638,7.56077586 21.5734912,7.24849138 21.5734912,6.8625 C21.5734912,6.47650862 21.1540489,6.16422414 20.6413972,6.16422414 Z M16.7760776,12.6685345 L0.771982759,12.6685345 C0.385991379,12.6685345 0.0737068966,12.980819 0.0737068966,13.3668103 C0.0737068966,13.7528017 0.385991379,14.0650862 0.771982759,14.0650862 L16.7760776,14.0650862 C17.162069,14.0650862 17.4743534,13.7528017 17.4743534,13.3668103 C17.4743534,12.980819 17.1601293,12.6685345 16.7760776,12.6685345 Z M2.62047414,9.44612069 C2.75625,9.5799569 2.93275862,9.64590517 3.10926724,9.64590517 C3.28965517,9.64590517 3.4700431,9.57607759 3.60775862,9.43642241 C3.87737069,9.16099138 3.87543103,8.71875 3.6,8.44913793 L1.74956897,6.62974138 L3.56702586,4.91702586 C3.84827586,4.65323276 3.86185345,4.21099138 3.59612069,3.92974138 C3.33232759,3.64849138 2.89008621,3.63685345 2.60883621,3.90064655 L0.263793103,6.11185345 C0.126077586,6.24181034 0.0465517241,6.42219828 0.0445756663,6.61228448 C0.0426724138,6.80237069 0.118318966,6.98469828 0.254094828,7.11853448 L2.62047414,9.44612069 Z" id="Shape"></path>
                        </g>
                    </g>
                </g>
            </g>
        </g>
    </g>
</svg>