<svg xmlns="http://www.w3.org/2000/svg" width="366" height="177" viewBox="0 0 366 177" fill="none">
<mask id="mask0_3759_10652" style="mask-type:alpha" maskUnits="userSpaceOnUse" x="0" y="0" width="366" height="177">
<path d="M0 9C0 4.02944 4.02944 0 9 0H357C361.971 0 366 4.02944 366 9V177H0V9Z" fill="#F9FAFC"/>
</mask>
<g mask="url(#mask0_3759_10652)">
<path fill-rule="evenodd" clip-rule="evenodd" d="M222.215 56H143.893C143.4 56 143 56.3788 143 56.8462V119.622C143 120.09 143.4 120.468 143.893 120.468H222.215C222.708 120.468 223.108 120.09 223.108 119.622V56.8462C223.108 56.3788 222.708 56 222.215 56ZM144.777 57.6923H154.745V118.785H144.777V57.6923ZM156.531 118.776H221.321V57.6838H156.531V118.776Z" fill="#CED3D7"/>
<path fill-rule="evenodd" clip-rule="evenodd" d="M171.385 69.8769H159.47C158.983 69.877 158.586 69.5084 158.577 69.0477V61.72C158.577 61.2527 158.977 60.8738 159.47 60.8738H171.385C171.878 60.8738 172.278 61.2527 172.278 61.72V69.0308C172.278 69.4981 171.878 69.8769 171.385 69.8769ZM170.5 62.5492H160.363V68.1846H170.5V62.5492Z" fill="#CED3D7"/>
<path fill-rule="evenodd" clip-rule="evenodd" d="M186.604 69.8769H174.689C174.203 69.877 173.806 69.5084 173.796 69.0477V61.72C173.796 61.2527 174.196 60.8738 174.689 60.8738H186.604C187.097 60.8738 187.497 61.2527 187.497 61.72V69.0308C187.497 69.4981 187.097 69.8769 186.604 69.8769ZM185.72 62.5492H175.582V68.1846H185.72V62.5492Z" fill="#CED3D7"/>
<path fill-rule="evenodd" clip-rule="evenodd" d="M201.824 69.8769H189.909C189.422 69.877 189.025 69.5084 189.016 69.0477V61.72C189.016 61.2527 189.416 60.8738 189.909 60.8738H201.824C202.317 60.8738 202.717 61.2527 202.717 61.72V69.0308C202.717 69.4981 202.317 69.8769 201.824 69.8769ZM200.93 62.5492H190.802V68.1846H200.93V62.5492Z" fill="#CED3D7"/>
<path fill-rule="evenodd" clip-rule="evenodd" d="M217.043 69.8769H205.128C204.642 69.877 204.245 69.5084 204.235 69.0477V61.72C204.235 61.2527 204.635 60.8738 205.128 60.8738H217.043C217.536 60.8738 217.936 61.2527 217.936 61.72V69.0308C217.936 69.4981 217.536 69.8769 217.043 69.8769ZM216.15 62.5492H206.021V68.1846H216.15V62.5492Z" fill="#CED3D7"/>
<path fill-rule="evenodd" clip-rule="evenodd" d="M186.068 116.128H159.47C158.977 116.128 158.577 115.749 158.577 115.282V79.7431C158.577 79.2757 158.977 78.8969 159.47 78.8969H186.068C186.561 78.8969 186.961 79.2757 186.961 79.7431V115.282C186.961 115.749 186.561 116.128 186.068 116.128ZM185.175 80.5892H160.363V114.435H185.175V80.5892Z" fill="#CED3D7"/>
<path fill-rule="evenodd" clip-rule="evenodd" d="M189.694 78.8885H217.079C217.572 78.8885 217.972 79.2673 217.972 79.7346V97.5039C217.972 97.9712 217.572 98.35 217.079 98.35H189.694C189.201 98.35 188.801 97.9712 188.801 97.5039V79.7346C188.801 79.2673 189.201 78.8885 189.694 78.8885ZM190.579 96.6577H216.186V80.5808H190.579V96.6577Z" fill="#CED3D7"/>
<path fill-rule="evenodd" clip-rule="evenodd" d="M189.694 99.7208H217.079C217.569 99.7207 217.967 100.094 217.972 100.558V115.332C217.972 115.8 217.572 116.178 217.079 116.178H189.694C189.201 116.178 188.801 115.8 188.801 115.332V100.567C188.801 100.1 189.201 99.7208 189.694 99.7208ZM190.579 114.486H216.186V101.405H190.579V114.486Z" fill="#CED3D7"/>
<path d="M159.47 75.6477H207.647C208.14 75.6477 208.54 75.2689 208.54 74.8015C208.54 74.3342 208.14 73.9554 207.647 73.9554H159.47C158.977 73.9554 158.577 74.3342 158.577 74.8015C158.577 75.2689 158.977 75.6477 159.47 75.6477Z" fill="#CED3D7"/>
<path d="M212.56 74.8015C212.56 74.3342 212.16 73.9554 211.666 73.9554C211.173 73.9554 210.773 74.3342 210.773 74.8015C210.773 75.2689 211.173 75.6477 211.666 75.6477C212.16 75.6477 212.56 75.2689 212.56 74.8015Z" fill="#CED3D7"/>
<path d="M195.866 92.9685C196.088 92.9679 196.301 92.8895 196.465 92.7485L201.618 88.3146L203.155 90.7516C203.296 90.9763 203.54 91.1263 203.814 91.1577C204.088 91.1892 204.363 91.0986 204.557 90.9123L210.103 85.5393C210.327 85.3216 210.411 85.0076 210.323 84.7155C210.236 84.4234 209.991 84.1976 209.68 84.1232C209.369 84.0488 209.041 84.137 208.817 84.3546L204.083 88.9493L202.565 86.5631C202.427 86.3465 202.193 86.2 201.928 86.164C201.664 86.1279 201.396 86.2061 201.198 86.3769L195.268 91.5046C194.904 91.8181 194.876 92.3516 195.205 92.6977C195.376 92.8718 195.616 92.9701 195.866 92.9685Z" fill="#CED3D7"/>
<path fill-rule="evenodd" clip-rule="evenodd" d="M183.362 109.858H180.236V97.5123C180.236 97.045 179.836 96.6662 179.343 96.6662H174.52C174.026 96.6662 173.627 97.045 173.627 97.5123V109.858H171.135V88.5346C171.135 88.0673 170.735 87.6885 170.241 87.6885H165.418C164.925 87.6885 164.525 88.0673 164.525 88.5346V109.858H161.542C161.049 109.858 160.649 110.237 160.649 110.704C160.649 111.171 161.049 111.55 161.542 111.55H183.362C183.855 111.55 184.255 111.171 184.255 110.704C184.255 110.237 183.855 109.858 183.362 109.858ZM175.386 98.35H178.45V109.35H175.413L175.386 98.35ZM169.357 89.3808H166.321V109.358H169.357V89.3808Z" fill="#CED3D7"/>
</g>
</svg>