<?xml version="1.0" encoding="UTF-8"?>
<svg width="104px" height="104px" viewBox="0 0 104 104" version="1.1" xmlns="http://www.w3.org/2000/svg" xmlns:xlink="http://www.w3.org/1999/xlink">
    <!-- Generator: sketchtool 57.1 (101010) - https://sketch.com -->
    <title>25F70D09-26EE-4C20-BECC-5C1F96E07DB6</title>
    <desc>Created with sketchtool.</desc>
    <g id="-⚙-Design-Guideline" stroke="none" stroke-width="1" fill="none" fill-rule="evenodd">
        <g id="-⚙-Iconos" transform="translate(-597.000000, -675.000000)">
            <g id="ico-widget-graf.lcircular" transform="translate(595.000000, 673.000000)">
                <g id="Pie-Chart" transform="translate(26.000000, 26.000000)">
                    <rect id="Icon-Container" x="0" y="0" width="56" height="56"></rect>
                    <path d="M29.2631579,4 L31.7894737,4 C42.9557895,4 52,13.0442105 52,24.2105263 L52,26.7368421 L29.2631579,26.7368421 L29.2631579,4 L29.2631579,4 Z M31.7894737,24.2105263 L49.4736842,24.2105263 C49.4736842,14.4336842 41.5663158,6.52631579 31.7894737,6.52631579 L31.7894737,24.2105263 L31.7894737,24.2105263 Z M24.2105263,31.7894737 L44.4210526,31.7894737 C44.4210526,42.9557895 35.3768421,52 24.2105263,52 C13.0442105,52 4,42.9557895 4,31.7894737 C4,20.6231579 13.0442105,11.5789474 24.2105263,11.5789474 L24.2105263,31.7894737 L24.2105263,31.7894737 Z M21.6842105,34.3157895 L21.6842105,14.2821053 C13.12,15.52 6.52631579,22.8715789 6.52631579,31.7894737 C6.52631579,41.5663158 14.4336842,49.4736842 24.2105263,49.4736842 C33.1284211,49.4736842 40.48,42.88 41.7178947,34.3157895 L21.6842105,34.3157895 Z" id="Shape" fill="#577EE8" fill-rule="nonzero"></path>
                </g>
            </g>
        </g>
    </g>
</svg>