<svg width="101" height="92" viewBox="0 0 101 92" fill="none" xmlns="http://www.w3.org/2000/svg">
<path d="M19.323 22.1148C18.9566 22.1148 18.7123 21.9927 18.468 21.7484C17.9794 21.2598 17.9794 20.527 18.468 20.0384C25.1859 13.3205 35.9344 13.3205 42.6523 20.0384C43.1409 20.527 43.1409 21.2598 42.6523 21.7484C42.1637 22.237 41.4309 22.237 40.9423 21.7484C35.2016 16.0077 25.9187 16.0077 20.178 21.7484C19.9337 21.9927 19.6894 22.1148 19.323 22.1148Z" fill="#396CE1" stroke="#396CE1" stroke-width="0.3"/>
<path d="M37.5226 26.3899C37.1562 26.3899 36.9119 26.2677 36.6676 26.0235C33.3697 22.7256 27.8733 22.7256 24.5755 26.0235C24.0869 26.512 23.354 26.512 22.8655 26.0235C22.3769 25.5349 22.3769 24.802 22.8655 24.3135C27.1405 20.0385 34.1026 20.0385 38.3776 24.3135C38.8662 24.802 38.8662 25.5349 38.3776 26.0235C38.1333 26.2677 37.7669 26.3899 37.5226 26.3899Z" fill="#396CE1" stroke="#396CE1" stroke-width="0.3"/>
<path d="M33.1239 30.7868C32.7575 30.7868 32.5132 30.6647 32.2689 30.4204C31.2917 29.4433 29.7039 29.4433 28.8489 30.4204C28.3603 30.909 27.6275 30.909 27.1389 30.4204C26.6503 29.9318 26.6503 29.199 27.1389 28.7104C29.0932 26.7561 32.1467 26.7561 34.101 28.7104C34.5896 29.199 34.5896 29.9318 34.101 30.4204C33.7346 30.6647 33.4903 30.7868 33.1239 30.7868Z" fill="#396CE1" stroke="#396CE1" stroke-width="0.3"/>
<path fill-rule="evenodd" clip-rule="evenodd" d="M29.5 34.7869C13.7852 34.7869 1 47.5721 1 63.2869C1 67.6278 1.95119 71.7965 3.82684 75.6772C3.88503 75.7972 3.96341 75.9076 4.05781 76.0014C4.28047 76.2241 4.58269 76.3494 4.89737 76.3494H16.4375V78.2155C16.4375 81.8635 19.1011 84.8317 22.375 84.8317H36.625C39.8989 84.8317 42.5625 81.8635 42.5625 78.2155V48.3576C42.5625 44.7096 39.8989 41.7421 36.625 41.7421H22.375C19.1011 41.7421 16.4375 44.7102 16.4375 48.3576V68.136C16.4375 68.7915 16.9695 69.3235 17.625 69.3235C18.2805 69.3235 18.8125 68.7915 18.8125 68.136V48.3576C18.8125 46.0194 20.4103 44.1171 22.375 44.1171H23.4141V44.202C23.4141 46.7278 25.2784 48.7827 27.5703 48.7827H31.4297C33.721 48.7827 35.5859 46.7278 35.5859 44.202V44.1171H36.625C38.5897 44.1171 40.1875 46.0194 40.1875 48.3576V73.9744H5.65322C4.14094 70.6102 3.375 67.018 3.375 63.2869C3.375 48.8813 15.0944 37.1619 29.5 37.1619C43.9056 37.1619 55.625 48.8813 55.625 63.2869C55.625 77.6924 43.9056 89.4119 29.5 89.4119C22.3786 89.4119 15.7226 86.5981 10.7595 81.4883C10.3029 81.0186 9.55059 81.0061 9.08034 81.4639C8.61009 81.9211 8.59881 82.6728 9.056 83.1431C14.4704 88.7172 21.7314 91.7869 29.5 91.7869C45.2148 91.7869 58 79.0016 58 63.2869C58 47.5721 45.2148 34.7869 29.5 34.7869ZM33.2095 44.2021C33.2095 45.3979 32.3937 46.4079 31.4283 46.4079H27.5689C26.6035 46.4079 25.7877 45.3979 25.7877 44.2021V44.1172H33.2095V44.2021ZM36.625 82.457C38.5897 82.457 40.1875 80.554 40.1875 78.2159V76.3497H18.8125V78.2159C18.8125 80.5546 20.4103 82.457 22.375 82.457H36.625Z" fill="#396CE1"/>
<path d="M3.82684 75.6772L3.69179 75.7425L3.69189 75.7427L3.82684 75.6772ZM4.05781 76.0014L4.16388 75.8954L4.16354 75.895L4.05781 76.0014ZM16.4375 76.3494H16.5875V76.1994H16.4375V76.3494ZM23.4141 44.1171H23.5641V43.9671H23.4141V44.1171ZM35.5859 44.1171V43.9671H35.4359V44.1171H35.5859ZM40.1875 73.9744V74.1244H40.3375V73.9744H40.1875ZM5.65322 73.9744L5.51641 74.0359L5.55619 74.1244H5.65322V73.9744ZM10.7595 81.4883L10.8671 81.3838L10.867 81.3837L10.7595 81.4883ZM9.08034 81.4639L9.18491 81.5715L9.18497 81.5714L9.08034 81.4639ZM9.056 83.1431L9.1636 83.0385L9.16355 83.0385L9.056 83.1431ZM25.7877 44.1172V43.9672H25.6377V44.1172H25.7877ZM33.2095 44.1172H33.3595V43.9672H33.2095V44.1172ZM40.1875 76.3497H40.3375V76.1997H40.1875V76.3497ZM18.8125 76.3497V76.1997H18.6625V76.3497H18.8125ZM1.15 63.2869C1.15 47.6549 13.8681 34.9369 29.5 34.9369V34.6369C13.7024 34.6369 0.85 47.4892 0.85 63.2869H1.15ZM3.9619 75.612C2.09615 71.7517 1.15 67.6053 1.15 63.2869H0.85C0.85 67.6502 1.80623 71.8413 3.69179 75.7425L3.9619 75.612ZM4.16354 75.895C4.08134 75.8133 4.01276 75.7168 3.9618 75.6118L3.69189 75.7427C3.75731 75.8776 3.84548 76.0019 3.95208 76.1078L4.16354 75.895ZM4.89737 76.1994C4.62251 76.1994 4.35844 76.0899 4.16388 75.8954L3.95175 76.1075C4.2025 76.3582 4.54286 76.4994 4.89737 76.4994V76.1994ZM16.4375 76.1994H4.89737V76.4994H16.4375V76.1994ZM16.5875 78.2155V76.3494H16.2875V78.2155H16.5875ZM22.375 84.6817C19.1988 84.6817 16.5875 81.7964 16.5875 78.2155H16.2875C16.2875 81.9307 19.0034 84.9817 22.375 84.9817V84.6817ZM36.625 84.6817H22.375V84.9817H36.625V84.6817ZM42.4125 78.2155C42.4125 81.7964 39.8012 84.6817 36.625 84.6817V84.9817C39.9966 84.9817 42.7125 81.9307 42.7125 78.2155H42.4125ZM42.4125 48.3576V78.2155H42.7125V48.3576H42.4125ZM36.625 41.8921C39.8013 41.8921 42.4125 44.7768 42.4125 48.3576H42.7125C42.7125 44.6424 39.9966 41.5921 36.625 41.5921V41.8921ZM22.375 41.8921H36.625V41.5921H22.375V41.8921ZM16.5875 48.3576C16.5875 44.7774 19.1988 41.8921 22.375 41.8921V41.5921C19.0034 41.5921 16.2875 44.643 16.2875 48.3576H16.5875ZM16.5875 68.136V48.3576H16.2875V68.136H16.5875ZM17.625 69.1735C17.0523 69.1735 16.5875 68.7087 16.5875 68.136H16.2875C16.2875 68.8744 16.8867 69.4735 17.625 69.4735V69.1735ZM18.6625 68.136C18.6625 68.7087 18.1977 69.1735 17.625 69.1735V69.4735C18.3633 69.4735 18.9625 68.8744 18.9625 68.136H18.6625ZM18.6625 48.3576V68.136H18.9625V48.3576H18.6625ZM22.375 43.9671C20.304 43.9671 18.6625 45.9621 18.6625 48.3576H18.9625C18.9625 46.0767 20.5166 44.2671 22.375 44.2671V43.9671ZM23.4141 43.9671H22.375V44.2671H23.4141V43.9671ZM23.5641 44.202V44.1171H23.2641V44.202H23.5641ZM27.5703 48.6327C25.3747 48.6327 23.5641 46.659 23.5641 44.202H23.2641C23.2641 46.7965 25.1822 48.9327 27.5703 48.9327V48.6327ZM31.4297 48.6327H27.5703V48.9327H31.4297V48.6327ZM35.4359 44.202C35.4359 46.659 33.6247 48.6327 31.4297 48.6327V48.9327C33.8172 48.9327 35.7359 46.7966 35.7359 44.202H35.4359ZM35.4359 44.1171V44.202H35.7359V44.1171H35.4359ZM36.625 43.9671H35.5859V44.2671H36.625V43.9671ZM40.3375 48.3576C40.3375 45.9621 38.696 43.9671 36.625 43.9671V44.2671C38.4834 44.2671 40.0375 46.0767 40.0375 48.3576H40.3375ZM40.3375 73.9744V48.3576H40.0375V73.9744H40.3375ZM5.65322 74.1244H40.1875V73.8244H5.65322V74.1244ZM3.225 63.2869C3.225 67.0389 3.99533 70.6521 5.51641 74.0359L5.79003 73.9129C4.28654 70.5682 3.525 66.997 3.525 63.2869H3.225ZM29.5 37.0119C15.0116 37.0119 3.225 48.7985 3.225 63.2869H3.525C3.525 48.9641 15.1773 37.3119 29.5 37.3119V37.0119ZM55.775 63.2869C55.775 48.7985 43.9884 37.0119 29.5 37.0119V37.3119C43.8227 37.3119 55.475 48.9641 55.475 63.2869H55.775ZM29.5 89.5619C43.9884 89.5619 55.775 77.7753 55.775 63.2869H55.475C55.475 77.6096 43.8227 89.2619 29.5 89.2619V89.5619ZM10.6519 81.5928C15.6433 86.7317 22.338 89.5619 29.5 89.5619V89.2619C22.4191 89.2619 15.802 86.4645 10.8671 81.3838L10.6519 81.5928ZM9.18497 81.5714C9.59556 81.1717 10.2528 81.1823 10.6519 81.5928L10.867 81.3837C10.3529 80.8549 9.50563 80.8406 8.97571 81.3564L9.18497 81.5714ZM9.16355 83.0385C8.76422 82.6278 8.77394 81.971 9.18491 81.5715L8.97578 81.3564C8.44625 81.8712 8.4334 82.7178 8.94845 83.2476L9.16355 83.0385ZM29.5 91.6369C21.7719 91.6369 14.5498 88.5836 9.1636 83.0385L8.9484 83.2476C14.391 88.8508 21.6908 91.9369 29.5 91.9369V91.6369ZM57.85 63.2869C57.85 78.9188 45.1319 91.6369 29.5 91.6369V91.9369C45.2976 91.9369 58.15 79.0845 58.15 63.2869H57.85ZM29.5 34.9369C45.1319 34.9369 57.85 47.6549 57.85 63.2869H58.15C58.15 47.4892 45.2976 34.6369 29.5 34.6369V34.9369ZM31.4283 46.5579C32.5049 46.5579 33.3595 45.4492 33.3595 44.2021H33.0595C33.0595 45.3466 32.2825 46.2579 31.4283 46.2579V46.5579ZM27.5689 46.5579H31.4283V46.2579H27.5689V46.5579ZM25.6377 44.2021C25.6377 45.4492 26.4923 46.5579 27.5689 46.5579V46.2579C26.7147 46.2579 25.9377 45.3466 25.9377 44.2021H25.6377ZM25.6377 44.1172V44.2021H25.9377V44.1172H25.6377ZM33.2095 43.9672H25.7877V44.2672H33.2095V43.9672ZM33.3595 44.2021V44.1172H33.0595V44.2021H33.3595ZM40.0375 78.2159C40.0375 80.4968 38.4834 82.307 36.625 82.307V82.607C38.696 82.607 40.3375 80.6113 40.3375 78.2159H40.0375ZM40.0375 76.3497V78.2159H40.3375V76.3497H40.0375ZM18.8125 76.4997H40.1875V76.1997H18.8125V76.4997ZM18.9625 78.2159V76.3497H18.6625V78.2159H18.9625ZM22.375 82.307C20.5166 82.307 18.9625 80.4974 18.9625 78.2159H18.6625C18.6625 80.6119 20.304 82.607 22.375 82.607V82.307ZM36.625 82.307H22.375V82.607H36.625V82.307Z" fill="#396CE1"/>
<circle cx="29.4983" cy="79.5731" r="1.35672" fill="#396CE1" stroke="#396CE1" stroke-width="0.3"/>
<path fill-rule="evenodd" clip-rule="evenodd" d="M74.2553 31.7915C73.9641 31.7915 73.6725 31.6793 73.4499 31.4545L68.3999 26.3565C67.9544 25.9068 67.9539 25.1772 68.3987 24.7268C68.8435 24.2766 69.5653 24.2761 70.0106 24.7258L74.2553 29.0107L84.3575 18.8126C84.8028 18.3624 85.5244 18.3632 85.9695 18.8137C86.4142 19.2641 86.4137 19.9937 85.9682 20.4433L75.0608 31.4545C74.8382 31.6793 74.5466 31.7915 74.2553 31.7915Z" fill="#00D3A4"/>
<circle cx="76.5" cy="24.5" r="23.5" stroke="#00D3A4" stroke-width="2"/>
</svg>
