<?xml version="1.0" encoding="UTF-8"?>
<svg width="30px" height="30px" viewBox="0 0 30 30" version="1.1" xmlns="http://www.w3.org/2000/svg" xmlns:xlink="http://www.w3.org/1999/xlink">
    <title>2D5B4077-C852-46D5-9F02-300E0820249A</title>
    <g id="Page-1" stroke="none" stroke-width="1" fill="none" fill-rule="evenodd">
        <g id="Desktop-HD-Copy-15" transform="translate(-97.000000, -282.000000)" stroke="#CED3D7" stroke-width="1.5">
            <g id="Group-5" transform="translate(97.000000, 282.000000)">
                <rect id="Rectangle" x="4.75" y="6.75" width="17.2297297" height="13.2567568" rx="1"></rect>
                <circle id="Oval" cx="10.4864865" cy="15.4864865" r="1.7364865"></circle>
                <circle id="Oval-Copy" cx="16.4864865" cy="15.4864865" r="1.7364865"></circle>
                <path d="M22.487899,9.52925139 L24,9.52925139 C24.5522847,9.52925139 25,9.97696664 25,10.5292514 L25,22.5945946 C25,23.1468793 24.5522847,23.5945946 24,23.5945946 L7.75675676,23.5945946 C7.20447201,23.5945946 6.75675676,23.1468793 6.75675676,22.5945946 L6.75675676,21.2653518 C6.75675676,20.9457677 6.90950549,20.645433 7.1677765,20.4572043" id="Path-30"></path>
                <line x1="22.4459459" y1="13.527027" x2="24.7162162" y2="13.527027" id="Line-19-Copy-6" stroke-linecap="square"></line>
                <line x1="6.98648649" y1="8.98648649" x2="8.12162162" y2="8.98648649" id="Line-19-Copy" stroke-linecap="square"></line>
                <line x1="10.8243243" y1="8.98648649" x2="11.9594595" y2="8.98648649" id="Line-19-Copy-2" stroke-linecap="square"></line>
                <line x1="14.6621622" y1="8.98648649" x2="15.7972973" y2="8.98648649" id="Line-19-Copy-3" stroke-linecap="square"></line>
                <line x1="5" y1="11.2" x2="22" y2="11.2" id="Line-19" stroke-linecap="square"></line>
                <line x1="12.3918919" y1="15.5" x2="14.3918919" y2="15.5" id="Line-19-Copy-4" stroke-linecap="square"></line>
            </g>
        </g>
    </g>
</svg>