<?xml version="1.0" encoding="UTF-8"?>
<svg width="64px" height="64px" viewBox="0 0 64 64" version="1.1" xmlns="http://www.w3.org/2000/svg" xmlns:xlink="http://www.w3.org/1999/xlink">
    <!-- Generator: sketchtool 63.1 (101010) - https://sketch.com -->
    <title>02EC23AD-1C54-4441-BFCC-EE39BF955016</title>
    <desc>Created with sketchtool.</desc>
    <g id="-⚙-Design-Guideline" stroke="none" stroke-width="1" fill="none" fill-rule="evenodd">
        <g id="-⚙-Iconos" transform="translate(-1059.000000, -950.000000)" fill="#2B334A">
            <g id="ico-device2" transform="translate(1059.000000, 950.000000)">
                <g id="Component/Icon/Wizard/ico-device2">
                    <g transform="translate(8.000000, 8.000000)" id="Combined-Shape">
                        <path d="M23.1516735,11.4146939 C24.9325714,11.4146939 26.4323265,12.8635102 26.4323265,14.6444082 C26.4323265,16.0795102 25.2734694,17.2986122 24.2938776,17.7178776 L24.2938776,17.7178776 L24.2938776,21.0612245 L31.8186122,21.0612245 C34.4218776,21.0612245 36.5387755,23.2927347 36.5387755,25.8950204 L36.5387755,25.8950204 L36.5387755,43.2798367 C36.5387755,45.883102 34.4218776,48 31.8186122,48 L31.8186122,48 L14.4337959,48 C11.8310204,48 9.6,45.8826122 9.6,43.2798367 L9.6,43.2798367 L9.6,25.8950204 C9.6,23.2927347 11.8310204,21.0612245 14.4337959,21.0612245 L14.4337959,21.0612245 L21.844898,21.0612245 L21.844898,17.7159184 C20.8653061,17.2942041 19.7681633,16.0770612 19.7681633,14.6444082 C19.7681633,12.8635102 21.3707755,11.4146939 23.1516735,11.4146939 Z M31.8484898,23.0204082 L14.2902857,23.0204082 C12.7822041,23.0204082 11.5591837,24.2429388 11.5591837,25.7515102 L11.5591837,25.7515102 L11.5591837,43.3097143 C11.5591837,44.8182857 12.7822041,46.0408163 14.2902857,46.0408163 L14.2902857,46.0408163 L31.8484898,46.0408163 C33.3570612,46.0408163 34.5795918,44.8182857 34.5795918,43.3097143 L34.5795918,43.3097143 L34.5795918,25.7515102 C34.5795918,24.2429388 33.3570612,23.0204082 31.8484898,23.0204082 L31.8484898,23.0204082 Z M23.0728163,38.1825306 C24.148898,38.1825306 25.0236735,39.0577959 25.0236735,40.1333878 C25.0236735,41.2089796 24.148898,42.0842449 23.0728163,42.0842449 C21.9977143,42.0842449 21.122449,41.2089796 21.122449,40.1333878 C21.122449,39.0577959 21.9977143,38.1825306 23.0728163,38.1825306 Z M29.6086531,38.1825306 C30.6847347,38.1825306 31.5595102,39.0577959 31.5595102,40.1333878 C31.5595102,41.2089796 30.6847347,42.0842449 29.6086531,42.0842449 C28.533551,42.0842449 27.6582857,41.2089796 27.6582857,40.1333878 C27.6582857,39.0577959 28.533551,38.1825306 29.6086531,38.1825306 Z M16.5942857,38.1825306 C17.6698776,38.1825306 18.5451429,39.0577959 18.5451429,40.1333878 C18.5451429,41.2089796 17.6698776,42.0842449 16.5942857,42.0842449 C15.5186939,42.0842449 14.6434286,41.2089796 14.6434286,40.1333878 C14.6434286,39.0577959 15.5182041,38.1825306 16.5942857,38.1825306 Z M23.1012245,27.8958367 C24.8821224,27.8958367 26.3314286,29.3451429 26.3314286,31.1260408 C26.3314286,32.9069388 24.8821224,34.3557551 23.1012245,34.3557551 C21.3203265,34.3557551 19.8715102,32.9069388 19.8715102,31.1260408 C19.8715102,29.3451429 21.3203265,27.8958367 23.1012245,27.8958367 Z M23.1012245,29.8853878 C22.4174694,29.8853878 21.8605714,30.4422857 21.8605714,31.1260408 C21.8605714,31.8097959 22.4174694,32.3662041 23.1012245,32.3662041 C23.7854694,32.3662041 24.3413878,31.8097959 24.3413878,31.1260408 C24.3413878,30.4422857 23.7849796,29.8853878 23.1012245,29.8853878 Z M23.1012245,13.4037551 C22.4174694,13.4037551 21.8605714,13.9601633 21.8605714,14.6444082 C21.8605714,15.3286531 22.4174694,15.8850612 23.1012245,15.8850612 C23.7849796,15.8850612 24.3413878,15.3286531 24.3413878,14.6444082 C24.3413878,13.9601633 23.7849796,13.4037551 23.1012245,13.4037551 Z M23.1012245,7.89061224 C25.2533878,7.89061224 27.2326531,8.87608163 28.5340408,10.5928163 C28.8651429,11.0306939 28.7794286,11.6546939 28.341551,11.9862857 C27.9031837,12.3178776 27.2796735,12.2316735 26.9480816,11.7937959 C26.0267755,10.5776327 24.6244898,9.88065306 23.1017143,9.88065306 C21.5588571,9.88065306 20.1457959,10.5923265 19.2254694,11.8339592 C19.0300408,12.0969796 18.7297959,12.2360816 18.4256327,12.2360816 C18.2194286,12.2360816 18.0122449,12.1724082 17.8339592,12.0401633 C17.3926531,11.7129796 17.3000816,11.0899592 17.6272653,10.6491429 C18.9075918,8.92163265 20.9539592,7.89061224 23.1012245,7.89061224 Z M23.1012245,3.79934694 C24.8262857,3.79934694 26.544,4.21273469 28.0687347,4.99444898 C29.5435102,5.75020408 30.8483265,6.85371429 31.8416327,8.1844898 C32.1707755,8.62481633 32.0801633,9.24734694 31.6403265,9.5764898 C31.4620408,9.70922449 31.252898,9.77387755 31.0457143,9.77387755 C30.7425306,9.77387755 30.4432653,9.6357551 30.2483265,9.37420408 C29.4347755,8.28538776 28.3670204,7.38269388 27.1611429,6.76408163 C25.8979592,6.11608163 24.5324082,5.78791837 23.1012245,5.78791837 C21.6710204,5.78791837 20.3054694,6.11657143 19.0422857,6.76359184 C17.8364082,7.38171429 16.7691429,8.28342857 15.9560816,9.3722449 C15.6274286,9.81208163 15.0039184,9.90220408 14.5640816,9.57355102 C14.1237551,9.24489796 14.0336327,8.62187755 14.3622857,8.18204082 C15.3560816,6.85126531 16.660898,5.74922449 18.1351837,4.99346939 C19.6599184,4.2122449 21.3766531,3.79934694 23.1012245,3.79934694 Z M23.1012245,0.0293877551 C25.4551837,0.0293877551 27.7033469,0.570122449 29.784,1.63591837 C31.7681633,2.6522449 33.5235918,4.13583673 34.8612245,5.92604082 C35.1898776,6.36587755 35.0997551,6.98938776 34.6599184,7.31804082 C34.2195918,7.64669388 33.5965714,7.55657143 33.2679184,7.11673469 C32.1105306,5.568 30.5921633,4.28522449 28.8764082,3.40604082 C27.0793469,2.48522449 25.1358367,2.01844898 23.1012245,2.01844898 C21.0592653,2.01844898 19.1098776,2.48816327 17.3074286,3.41534694 C15.5867755,4.30089796 14.066449,5.592 12.9100408,7.14955102 C12.715102,7.41257143 12.4153469,7.55167347 12.1111837,7.55167347 C11.9054694,7.55167347 11.6973061,7.488 11.5190204,7.3557551 C11.0782041,7.02857143 10.9861224,6.40555102 11.3133061,5.9642449 C12.650449,4.1637551 14.4083265,2.67085714 16.3978776,1.64718367 C18.4550204,0.58922449 20.7727347,0.0293877551 23.1012245,0.0293877551 Z"></path>
                    </g>
                </g>
            </g>
        </g>
    </g>
</svg>