<svg width="73" height="66" viewBox="0 0 73 66" fill="none" xmlns="http://www.w3.org/2000/svg">
<path fill-rule="evenodd" clip-rule="evenodd" d="M67.6758 55.1877H70.7878C71.4717 55.1877 71.8815 55.2905 72.0865 55.5304C72.3784 55.9237 72.5013 56.4178 72.428 56.9026C72.2374 61.288 68.7268 64.794 64.355 64.9649H43.5639C32.2446 64.9649 20.5154 64.9649 8.99117 64.9992H8.95702C4.64665 65.0582 0.9605 61.9023 0.340625 57.6223V57.5195C0.340625 57.4713 0.333239 57.4233 0.325336 57.3719C0.316244 57.3129 0.30647 57.2493 0.30647 57.176C0.240489 56.3178 0.342954 55.838 0.616971 55.5631C0.890211 55.2539 1.33578 55.1511 2.18966 55.1511H5.02763V54.9455C5.05479 54.7651 5.06622 54.5827 5.06179 54.4003V46.715C5.06179 39.0297 5.06179 31.1044 5.02763 23.282C4.99982 22.1438 5.43147 21.0426 6.22461 20.2283C7.02396 19.417 8.13334 18.9912 9.2683 19.0601C13.9538 19.0944 18.7091 19.0944 23.289 19.0944H29.6154C27.0565 16.8787 25.7407 13.5466 26.0928 10.1738C26.3176 7.63531 27.5197 5.28464 29.4439 3.62089C33.2991 0.152684 39.1299 0.123248 43.0197 3.55236C45.2833 5.51021 46.5617 8.37676 46.5082 11.3748C46.4896 14.3426 45.1927 17.1574 42.9514 19.0944H63.5011C65.4503 19.0944 66.7839 19.9526 67.3653 21.5305C67.5871 22.1697 67.6923 22.8437 67.6758 23.5204V55.1877ZM35.3605 34.2244C35.16 35.1159 35.5624 36.0344 36.3526 36.4892C37.0919 36.0877 37.502 35.2651 37.3788 34.4308C37.1762 32.4752 37.0023 30.4853 36.8657 28.564C36.8185 27.9936 36.7716 27.4087 36.7244 26.8189L36.7243 26.818L36.7243 26.8173L36.7243 26.8171L36.7242 26.8166L36.7242 26.8159L36.7241 26.815L36.6607 26.025C36.6266 25.6015 36.5843 25.1692 36.5421 24.737L36.542 24.7368L36.542 24.7367L36.542 24.7366L36.542 24.7364L36.542 24.7363L36.542 24.7362L36.5419 24.7356C36.4987 24.2932 36.4554 23.8507 36.4209 23.4176C36.3928 23.3409 36.3811 23.2592 36.3867 23.1777L36.3559 23.4982L36.3558 23.4983L36.3558 23.4986L36.3558 23.499L36.3557 23.4996L36.3557 23.5002L36.3557 23.5005C36.1971 25.1466 36.036 26.8186 35.9078 28.4612L35.8354 29.2632L35.8353 29.2638C35.6881 30.8989 35.5372 32.5743 35.3605 34.2244ZM32.8991 21.6676H33.857L33.7204 23.2797C33.6692 23.8454 33.6265 24.4111 33.5839 24.9767V24.9768V24.9769V24.9769V24.977V24.977C33.5411 25.5435 33.4984 26.1099 33.4471 26.6761L33.3447 28.0826C33.1376 30.6216 32.9325 33.1605 32.7291 35.6994C32.667 36.2235 32.8576 36.7459 33.2422 37.106L34.3709 38.2384C34.4842 38.3524 34.5939 38.4663 34.7024 38.5789L34.7025 38.5791C34.9208 38.8057 35.134 39.0272 35.3621 39.2337C35.6205 39.5434 36.0024 39.7224 36.405 39.7224C36.8076 39.7224 37.1895 39.5434 37.4479 39.2337C37.7212 38.9596 37.9913 38.6885 38.2684 38.4448L39.3971 37.3124C39.9075 36.8417 40.1511 36.1472 40.0468 35.4596C39.9125 33.8863 39.7791 32.3065 39.6462 30.7313C39.4719 28.6657 39.2982 26.608 39.1238 24.5834L38.9531 22.4222V21.7704C39.3637 21.7704 39.8069 21.7704 40.2184 21.7361C41.1989 21.6731 42.183 21.6961 43.1596 21.8046C48.7408 22.4157 52.9855 27.1167 53.042 32.7493C53.1103 34.5336 53.1103 36.3513 53.0762 38.1013V40.4377C53.0817 40.5083 53.0699 40.5791 53.042 40.6441V40.6784H48.494V34.3311C48.4998 34.1132 48.4883 33.8952 48.4598 33.6792C48.4337 33.3448 48.2734 33.0353 48.0155 32.8218C47.7576 32.6083 47.4243 32.509 47.0921 32.5468C46.4048 32.5988 45.8863 33.1945 45.9277 33.8848V40.6099H26.9142V34.3311C26.9191 34.0904 26.9077 33.8497 26.88 33.6107C26.8525 33.2794 26.6903 32.9741 26.4316 32.7664C26.1729 32.5587 25.8405 32.4669 25.5123 32.5125C24.8555 32.5868 24.3649 33.1534 24.3836 33.8163V40.6099H19.8355C19.8355 39.7173 19.8014 38.8256 19.7672 37.9681C19.5559 35.4136 19.671 32.8424 20.1096 30.3171C21.2918 25.2359 25.8177 21.6493 31.0182 21.6722L32.8991 21.6676ZM18.3291 27.2405C18.3848 27.1131 18.4418 26.9829 18.5027 26.8482H18.4996C18.5681 26.7131 18.6498 26.585 18.7433 26.4658H12.5535V50.3108H60.3256V26.4658H54.0333L54.0674 26.5344C54.0849 26.5885 54.1112 26.6418 54.1374 26.6947C54.1625 26.7454 54.1873 26.7956 54.204 26.8459C55.1405 28.7336 55.6319 30.812 55.6401 32.9206V41.7041C55.6401 42.7329 55.1619 43.2134 54.1016 43.2134H18.8108C17.4431 43.2134 17.0666 42.8357 17.0666 41.4634V33.3326C17.0275 31.4802 17.3527 29.6383 18.0237 27.9121C18.1321 27.6911 18.2286 27.4704 18.3291 27.2405ZM22.2644 22.1481C22.0704 22.3313 21.8802 22.5145 21.6914 22.6964C21.3143 23.0597 20.9425 23.4177 20.5567 23.7602C20.4051 23.8216 20.2411 23.8451 20.0785 23.8288H11.6321C10.2643 23.8288 9.81955 24.275 9.81955 25.6473V51.1386C9.81955 52.5109 10.2643 52.9572 11.5979 52.9572H61.0801C62.4137 52.9572 62.8585 52.5109 62.8585 51.1729V25.613C62.8585 24.3093 62.4137 23.8288 61.1143 23.8288H52.8386C52.426 23.8497 52.0252 23.6863 51.7441 23.3825C51.4361 23.0478 51.1098 22.7521 50.7779 22.4513L50.7778 22.4512C50.6672 22.351 50.556 22.2503 50.4447 22.1473C50.2924 22.0016 50.1325 21.8641 49.9657 21.7353C50.022 21.7353 50.0783 21.725 50.129 21.7157C50.1707 21.708 50.2086 21.7011 50.2397 21.7011H63.5765C64.7052 21.7011 65.1151 22.113 65.1151 23.2447V54.6379C65.1206 54.7645 65.1091 54.8913 65.0809 55.0148V55.1519H7.63129V23.3825C7.63129 22.0788 7.97362 21.7011 9.30722 21.7011H22.7465C22.5941 21.8594 22.4326 22.0086 22.2629 22.1481H22.2644ZM41.6885 5.7821C40.2674 4.37424 38.3504 3.58536 36.3533 3.58663C36.3176 3.58663 36.2834 3.58663 36.3191 3.62012C32.1009 3.66823 28.7036 7.10727 28.6932 11.3397C28.662 13.3878 29.4521 15.3626 30.886 16.8206C32.32 18.2786 34.2776 19.0976 36.3191 19.0936C40.5525 19.0683 43.9729 15.6214 43.9792 11.374C43.9893 9.27813 43.1647 7.26504 41.6885 5.7821ZM8.89277 62.4268C6.26046 62.4261 4.20945 60.8133 3.38834 58.0693C3.38834 58.0386 3.38147 58.0147 3.37389 57.9884C3.36457 57.9561 3.35418 57.92 3.35418 57.8629V57.7944H28.5909V58C28.5909 58.108 28.6003 58.2064 28.6092 58.3002L28.6092 58.3003C28.6173 58.3857 28.6251 58.4674 28.6251 58.549C28.701 60.2184 30.0714 61.5331 31.737 61.5342C34.7466 61.5685 37.8244 61.5685 40.8673 61.5342C42.5281 61.5209 43.8915 60.213 43.9793 58.549C43.9793 58.4635 43.9878 58.3779 43.9964 58.2922C44.0049 58.2064 44.0135 58.1204 44.0135 58.0343V57.8279H69.2843C69.1159 58.7747 68.7032 59.6608 68.0874 60.398C67.063 61.7336 65.4569 62.4883 63.7784 62.4229H28.556C22.1604 62.3925 15.4925 62.3925 8.89277 62.4268ZM40.5598 58.9283C41.0038 58.9283 41.2437 58.8598 41.3803 58.6885L41.3787 58.6869C41.5154 58.5498 41.5154 58.2406 41.4501 57.831H31.3278C31.2595 58.345 31.2937 58.6199 31.4303 58.757C31.6904 58.9013 31.9887 58.9612 32.2842 58.9283H40.5598Z" fill="#577EE8"/>
<path d="M67.6758 55.1877H67.4258V55.4377H67.6758V55.1877ZM72.0865 55.5304L72.2872 55.3814L72.2821 55.3745L72.2765 55.368L72.0865 55.5304ZM72.428 56.9026L72.1808 56.8653L72.1788 56.8785L72.1782 56.8918L72.428 56.9026ZM64.355 64.9649V65.2151L64.3648 65.2147L64.355 64.9649ZM8.99117 64.9992V65.2492L8.99192 65.2492L8.99117 64.9992ZM8.95702 64.9992V64.7492L8.9536 64.7492L8.95702 64.9992ZM0.340625 57.6223H0.0906251V57.6403L0.0932065 57.6581L0.340625 57.6223ZM0.325336 57.3719L0.078244 57.41L0.078244 57.41L0.325336 57.3719ZM0.30647 57.176H0.55647V57.1664L0.555735 57.1568L0.30647 57.176ZM0.616971 55.5631L0.794038 55.7396L0.799334 55.7343L0.804302 55.7286L0.616971 55.5631ZM5.02763 55.1511V55.4011H5.27763V55.1511H5.02763ZM5.02763 54.9455L4.78042 54.9083L4.77763 54.9268V54.9455H5.02763ZM5.06179 54.4003H4.81171L4.81186 54.4064L5.06179 54.4003ZM5.02763 23.282L5.27768 23.2809L5.27756 23.2759L5.02763 23.282ZM6.22461 20.2283L6.04653 20.0528L6.04553 20.0539L6.22461 20.2283ZM9.2683 19.0601L9.25313 19.31L9.26647 19.3101L9.2683 19.0601ZM29.6154 19.0944V19.3444H30.286L29.7791 18.9054L29.6154 19.0944ZM26.0928 10.1738L26.3415 10.1998L26.3418 10.1959L26.0928 10.1738ZM29.4439 3.62089L29.6074 3.81004L29.6111 3.80675L29.4439 3.62089ZM43.0197 3.55236L42.8544 3.7399L42.8562 3.74144L43.0197 3.55236ZM46.5082 11.3748L46.2582 11.3703L46.2582 11.3732L46.5082 11.3748ZM42.9514 19.0944L42.7879 18.9052L42.2798 19.3444H42.9514V19.0944ZM67.3653 21.5305L67.6015 21.4485L67.5999 21.4441L67.3653 21.5305ZM67.6758 23.5204L67.4258 23.5143V23.5204H67.6758ZM36.3526 36.4892L36.2279 36.7059L36.349 36.7756L36.4719 36.7089L36.3526 36.4892ZM35.3605 34.2244L35.6044 34.2792L35.6076 34.2652L35.6091 34.251L35.3605 34.2244ZM37.3788 34.4308L37.1299 34.4566L37.1314 34.4673L37.3788 34.4308ZM36.8657 28.564L37.115 28.5462L37.1148 28.5434L36.8657 28.564ZM36.7244 26.8189L36.4752 26.8384L36.4752 26.8388L36.7244 26.8189ZM36.7243 26.818L36.9736 26.7985L36.9735 26.7977L36.7243 26.818ZM36.7243 26.8173L36.4747 26.8324L36.4751 26.8376L36.7243 26.8173ZM36.7243 26.8171L36.9739 26.802L36.9733 26.7955L36.7243 26.8171ZM36.7242 26.8166L36.475 26.8367L36.4752 26.8382L36.7242 26.8166ZM36.7242 26.8159L36.4749 26.835L36.475 26.836L36.7242 26.8159ZM36.7241 26.815L36.9734 26.7958L36.9733 26.795L36.7241 26.815ZM36.6607 26.025L36.9099 26.005L36.9099 26.005L36.6607 26.025ZM36.5421 24.737L36.293 24.7586L36.2932 24.7613L36.5421 24.737ZM36.542 24.7362L36.7911 24.7145L36.7907 24.7105L36.542 24.7362ZM36.5419 24.7356L36.2931 24.76L36.2933 24.7613L36.5419 24.7356ZM36.4209 23.4176L36.6701 23.3977L36.6674 23.3636L36.6556 23.3316L36.4209 23.4176ZM36.3867 23.1777L36.6361 23.1947L36.1379 23.1537L36.3867 23.1777ZM36.3559 23.4982L36.1069 23.4742L36.1064 23.4815L36.3559 23.4982ZM36.3558 23.4983L36.6051 23.5179L36.6053 23.515L36.3558 23.4983ZM36.3558 23.4986L36.6049 23.5197L36.6051 23.5182L36.3558 23.4986ZM36.3558 23.499L36.6048 23.5207L36.6049 23.5201L36.3558 23.499ZM36.3557 23.4996L36.6048 23.5218L36.6048 23.5212L36.3557 23.4996ZM36.3557 23.5002L36.1067 23.478L36.1067 23.4781L36.3557 23.5002ZM36.3557 23.5005L36.6045 23.5244L36.6047 23.5226L36.3557 23.5005ZM35.9078 28.4612L36.1568 28.4836L36.157 28.4806L35.9078 28.4612ZM35.8354 29.2632L36.0844 29.2861L36.0844 29.2857L35.8354 29.2632ZM35.8353 29.2638L35.5864 29.241L35.5864 29.2414L35.8353 29.2638ZM33.857 21.6676L34.1061 21.6887L34.1291 21.4176H33.857V21.6676ZM32.8991 21.6676V21.4176H32.8985L32.8991 21.6676ZM33.7204 23.2797L33.9693 23.3022L33.9695 23.3008L33.7204 23.2797ZM33.5839 24.9767L33.3346 24.9579L33.3339 24.9673V24.9767H33.5839ZM33.5839 24.977L33.8331 24.9958L33.8339 24.9864V24.977H33.5839ZM33.4471 26.6761L33.1981 26.6536L33.1978 26.6579L33.4471 26.6761ZM33.3447 28.0826L33.5938 28.103L33.594 28.1008L33.3447 28.0826ZM32.7291 35.6994L32.9775 35.7289L32.9783 35.7194L32.7291 35.6994ZM33.2422 37.106L33.4194 36.9294L33.413 36.9235L33.2422 37.106ZM34.3709 38.2384L34.5481 38.0621L34.5479 38.0619L34.3709 38.2384ZM34.7024 38.5789L34.8848 38.4079L34.8824 38.4055L34.7024 38.5789ZM34.7025 38.5791L34.5201 38.7501L34.5224 38.7525L34.7025 38.5791ZM35.3621 39.2337L35.5541 39.0736L35.5429 39.0601L35.5299 39.0484L35.3621 39.2337ZM37.4479 39.2337L37.2709 39.0572L37.263 39.0651L37.2559 39.0736L37.4479 39.2337ZM38.2684 38.4448L38.4335 38.6325L38.4397 38.6271L38.4455 38.6213L38.2684 38.4448ZM39.3971 37.3124L39.2275 37.1284L39.22 37.1359L39.3971 37.3124ZM40.0468 35.4596L39.7977 35.4808L39.7984 35.489L39.7996 35.497L40.0468 35.4596ZM39.6462 30.7313L39.3971 30.7523L39.6462 30.7313ZM39.1238 24.5834L38.8746 24.6031L38.8748 24.6049L39.1238 24.5834ZM38.9531 22.4222H38.7031V22.4321L38.7038 22.4419L38.9531 22.4222ZM38.9531 21.7704V21.5204H38.7031V21.7704H38.9531ZM40.2184 21.7361L40.2023 21.4866L40.1976 21.487L40.2184 21.7361ZM43.1596 21.8046L43.132 22.0531L43.1324 22.0531L43.1596 21.8046ZM53.042 32.7493L52.7919 32.7518L52.7922 32.7589L53.042 32.7493ZM53.0762 38.1013L52.8262 38.0964V38.1013H53.0762ZM53.0762 40.4377H52.8262V40.4474L52.8269 40.4571L53.0762 40.4377ZM53.042 40.6441L52.8123 40.5455L52.792 40.5927V40.6441H53.042ZM53.042 40.6784V40.9284H53.292V40.6784H53.042ZM48.494 40.6784H48.244V40.9284H48.494V40.6784ZM48.494 34.3311L48.244 34.3244V34.3311H48.494ZM48.4598 33.6792L48.2102 33.6987L48.212 33.7119L48.4598 33.6792ZM48.0155 32.8218L48.1749 32.6292V32.6292L48.0155 32.8218ZM47.0921 32.5468L47.1109 32.7963L47.1203 32.7952L47.0921 32.5468ZM45.9277 33.8848H46.1777V33.8773L46.1772 33.8698L45.9277 33.8848ZM45.9277 40.6099V40.8599H46.1777V40.6099H45.9277ZM26.9142 40.6099H26.6642V40.8599H26.9142V40.6099ZM26.9142 34.3311L26.6642 34.326V34.3311H26.9142ZM26.88 33.6107L26.6308 33.6314L26.6317 33.6394L26.88 33.6107ZM26.4316 32.7664L26.5881 32.5714H26.5881L26.4316 32.7664ZM25.5123 32.5125L25.5404 32.761L25.5467 32.7602L25.5123 32.5125ZM24.3836 33.8163H24.6337L24.6335 33.8092L24.3836 33.8163ZM24.3836 40.6099V40.8599H24.6336V40.6099H24.3836ZM19.8355 40.6099H19.5855V40.8599H19.8355V40.6099ZM19.7672 37.9681L20.0173 37.9582L20.0164 37.9475L19.7672 37.9681ZM20.1096 30.3171L19.8661 30.2604L19.8645 30.2673L19.8632 30.2743L20.1096 30.3171ZM31.0182 21.6722L31.0171 21.9222L31.0188 21.9222L31.0182 21.6722ZM18.5027 26.8482L18.7305 26.9512L18.8901 26.5982H18.5027V26.8482ZM18.3291 27.2405L18.1001 27.1403V27.1403L18.3291 27.2405ZM18.4996 26.8482L18.2766 26.7352L18.0925 27.0982H18.4996V26.8482ZM18.7433 26.4658L18.9399 26.6202L19.2575 26.2158H18.7433V26.4658ZM12.5535 26.4658V26.2158H12.3035V26.4658H12.5535ZM12.5535 50.3108H12.3035V50.5608H12.5535V50.3108ZM60.3256 50.3108V50.5608H60.5756V50.3108H60.3256ZM60.3256 26.4658H60.5756V26.2158H60.3256V26.4658ZM54.0333 26.4658V26.2158H53.6293L53.8095 26.5773L54.0333 26.4658ZM54.0674 26.5344L54.3053 26.4576L54.2996 26.4397L54.2912 26.4229L54.0674 26.5344ZM54.1374 26.6947L54.3615 26.5839L54.3615 26.5839L54.1374 26.6947ZM54.204 26.8459L53.9668 26.9247L53.9723 26.9413L53.9801 26.957L54.204 26.8459ZM55.6401 32.9206H55.8901V32.9197L55.6401 32.9206ZM17.0666 33.3326H17.3167L17.3165 33.3274L17.0666 33.3326ZM18.0237 27.9121L17.7993 27.802L17.7946 27.8116L17.7907 27.8215L18.0237 27.9121ZM21.6914 22.6964L21.8648 22.8764L21.6914 22.6964ZM22.2644 22.1481L22.4361 22.3299L22.8933 21.8981H22.2644V22.1481ZM20.5567 23.7602L20.6505 23.992L20.6904 23.9758L20.7226 23.9472L20.5567 23.7602ZM20.0785 23.8288L20.1035 23.58L20.091 23.5788H20.0785V23.8288ZM52.8386 23.8288V23.5785L52.826 23.5791L52.8386 23.8288ZM51.7441 23.3825L51.5602 23.5518L51.5606 23.5523L51.7441 23.3825ZM50.7779 22.4513L50.6009 22.6283L50.61 22.6366L50.7779 22.4513ZM50.7778 22.4512L50.9548 22.2742L50.9457 22.266L50.7778 22.4512ZM50.4447 22.1473L50.2718 22.3279L50.275 22.3309L50.4447 22.1473ZM49.9657 21.7353V21.4853H49.2326L49.813 21.9332L49.9657 21.7353ZM50.129 21.7157L50.1742 21.9616L50.129 21.7157ZM65.1151 54.6379H64.8648L64.8653 54.6487L65.1151 54.6379ZM65.0809 55.0148L64.8372 54.9592L64.8309 54.9867V55.0148H65.0809ZM65.0809 55.1519V55.4019H65.3309V55.1519H65.0809ZM7.63129 55.1519H7.38129V55.4019H7.63129V55.1519ZM22.7465 21.7011L22.9266 21.8744L23.3342 21.4511H22.7465V21.7011ZM22.2629 22.1481L22.1041 21.9549L21.5648 22.3981H22.2629V22.1481ZM36.3533 3.58663V3.83663H36.3534L36.3533 3.58663ZM41.6885 5.7821L41.8657 5.60572L41.8644 5.6045L41.6885 5.7821ZM36.3191 3.62012L36.322 3.8701L36.9436 3.86301L36.4902 3.43776L36.3191 3.62012ZM28.6932 11.3397L28.9432 11.3435L28.9432 11.3403L28.6932 11.3397ZM30.886 16.8206L31.0643 16.6453L30.886 16.8206ZM36.3191 19.0936L36.3196 19.3436L36.3206 19.3436L36.3191 19.0936ZM43.9792 11.374L43.7292 11.3728V11.3736L43.9792 11.374ZM3.38834 58.0693H3.13834V58.1059L3.14883 58.141L3.38834 58.0693ZM8.89277 62.4268L8.89271 62.6768L8.89407 62.6768L8.89277 62.4268ZM3.37389 57.9884L3.13366 58.0576L3.13366 58.0576L3.37389 57.9884ZM3.35418 57.7944V57.5444H3.10418V57.7944H3.35418ZM28.5909 57.7944H28.8409V57.5444H28.5909V57.7944ZM28.6092 58.3002L28.8583 58.2794L28.858 58.2765L28.6092 58.3002ZM28.6092 58.3003L28.36 58.321L28.3603 58.3239L28.6092 58.3003ZM28.6251 58.549H28.3748L28.3753 58.5604L28.6251 58.549ZM31.737 61.5342L31.7399 61.2842L31.7372 61.2842L31.737 61.5342ZM40.8673 61.5342L40.8653 61.2843L40.8645 61.2843L40.8673 61.5342ZM43.9793 58.549L44.2293 58.5622V58.549H43.9793ZM43.9964 58.2922L43.7476 58.2675L43.9964 58.2922ZM44.0135 57.8279V57.5779H43.7635V57.8279H44.0135ZM69.2843 57.8279L69.5305 57.8717L69.5828 57.5779H69.2843V57.8279ZM68.0874 60.398L67.8953 60.2375L67.889 60.2458L68.0874 60.398ZM63.7784 62.4229L63.7881 62.1729H63.7784V62.4229ZM28.556 62.4229L28.5548 62.6729H28.556V62.4229ZM41.3803 58.6885L41.5758 58.8443L41.7147 58.6701L41.5575 58.5121L41.3803 58.6885ZM41.3787 58.6869L41.2017 58.5104L41.0259 58.6868L41.2015 58.8632L41.3787 58.6869ZM41.4501 57.831L41.697 57.7917L41.6635 57.581H41.4501V57.831ZM31.3278 57.831V57.581H31.1089L31.08 57.7981L31.3278 57.831ZM31.4303 58.757L31.2532 58.9335L31.2781 58.9585L31.309 58.9756L31.4303 58.757ZM32.2842 58.9283V58.6783H32.2703L32.2565 58.6799L32.2842 58.9283ZM70.7878 54.9377H67.6758V55.4377H70.7878V54.9377ZM72.2765 55.368C72.1301 55.1966 71.924 55.0908 71.6798 55.0272C71.4369 54.9638 71.1395 54.9377 70.7878 54.9377V55.4377C71.12 55.4377 71.3695 55.463 71.5537 55.511C71.7366 55.5587 71.8379 55.6243 71.8964 55.6928L72.2765 55.368ZM72.6752 56.94C72.7585 56.3895 72.6188 55.8282 72.2872 55.3814L71.8857 55.6794C72.1379 56.0192 72.2442 56.4462 72.1808 56.8653L72.6752 56.94ZM64.3648 65.2147C68.8672 65.0387 72.4816 61.4282 72.6778 56.9135L72.1782 56.8918C71.9933 61.1479 68.5864 64.5493 64.3452 64.7151L64.3648 65.2147ZM43.5639 65.2149H64.355V64.7149H43.5639V65.2149ZM8.99192 65.2492C20.5157 65.2149 32.2445 65.2149 43.5639 65.2149V64.7149C32.2446 64.7149 20.5151 64.7149 8.99043 64.7492L8.99192 65.2492ZM8.95702 65.2492H8.99117V64.7492H8.95702V65.2492ZM0.0932065 57.6581C0.730984 62.0618 4.52393 65.3099 8.96044 65.2492L8.9536 64.7492C4.76938 64.8065 1.19002 61.7429 0.588044 57.5864L0.0932065 57.6581ZM0.0906251 57.5195V57.6223H0.590625V57.5195H0.0906251ZM0.078244 57.41C0.0867076 57.465 0.0906251 57.4938 0.0906251 57.5195H0.590625C0.590625 57.4488 0.579769 57.3816 0.572427 57.3339L0.078244 57.41ZM0.05647 57.176C0.05647 57.2708 0.0693 57.3518 0.078244 57.41L0.572427 57.3339C0.563189 57.2739 0.55647 57.2278 0.55647 57.176H0.05647ZM0.439903 55.3866C0.0806473 55.747 -0.00914696 56.3321 0.0572056 57.1952L0.555735 57.1568C0.490124 56.3034 0.60526 55.929 0.794038 55.7396L0.439903 55.3866ZM2.18966 54.9011C1.33955 54.9011 0.784109 54.9964 0.42964 55.3975L0.804302 55.7286C0.996313 55.5114 1.33201 55.4011 2.18966 55.4011V54.9011ZM5.02763 54.9011H2.18966V55.4011H5.02763V54.9011ZM4.77763 54.9455V55.1511H5.27763V54.9455H4.77763ZM4.81186 54.4064C4.81594 54.5743 4.80542 54.7422 4.78042 54.9083L5.27485 54.9827C5.30416 54.788 5.3165 54.5911 5.31171 54.3942L4.81186 54.4064ZM4.81179 46.715V54.4003H5.31179V46.715H4.81179ZM4.77764 23.2831C4.81179 31.1049 4.81179 39.0296 4.81179 46.715H5.31179C5.31179 39.0297 5.31179 31.104 5.27763 23.2809L4.77764 23.2831ZM6.04553 20.0539C5.20535 20.9165 4.74825 22.0828 4.77771 23.2881L5.27756 23.2759C5.25139 22.2049 5.65759 21.1688 6.4037 20.4027L6.04553 20.0539ZM9.28344 18.8106C8.07626 18.7373 6.89647 19.1902 6.04653 20.0529L6.4027 20.4038C7.15146 19.6438 8.19042 19.2451 9.25315 19.3096L9.28344 18.8106ZM23.289 18.8444C18.7089 18.8444 13.9545 18.8444 9.27012 18.8101L9.26647 19.3101C13.953 19.3444 18.7092 19.3444 23.289 19.3444V18.8444ZM29.6154 18.8444H23.289V19.3444H29.6154V18.8444ZM25.8441 10.1479C25.4836 13.6017 26.831 17.0141 29.4518 19.2834L29.7791 18.9054C27.2821 16.7433 25.9978 13.4915 26.3414 10.1998L25.8441 10.1479ZM29.2803 3.43178C27.307 5.13809 26.0743 7.54871 25.8438 10.1518L26.3418 10.1959C26.5609 7.7219 27.7324 5.4312 29.6074 3.81L29.2803 3.43178ZM43.185 3.36482C39.2 -0.148213 33.2263 -0.118049 29.2767 3.43503L29.6111 3.80675C33.372 0.423416 39.0597 0.394709 42.8544 3.73989L43.185 3.36482ZM46.7582 11.3792C46.813 8.30724 45.5031 5.36974 43.1833 3.36327L42.8562 3.74144C45.0636 5.65068 46.3104 8.44627 46.2582 11.3703L46.7582 11.3792ZM43.1149 19.2835C45.4108 17.2993 46.7391 14.4161 46.7582 11.3763L46.2582 11.3732C46.24 14.2691 44.9745 17.0154 42.7879 18.9052L43.1149 19.2835ZM63.5011 18.8444H42.9514V19.3444H63.5011V18.8444ZM67.5999 21.4441C67.292 20.6084 66.7802 19.9534 66.08 19.5096C65.3818 19.067 64.512 18.8444 63.5011 18.8444V19.3444C64.4394 19.3444 65.211 19.5508 65.8123 19.9319C66.4115 20.3117 66.8572 20.8747 67.1307 21.6169L67.5999 21.4441ZM67.9257 23.5264C67.9429 22.8199 67.8331 22.116 67.6015 21.4485L67.1291 21.6124C67.3411 22.2233 67.4416 22.8676 67.4259 23.5143L67.9257 23.5264ZM67.9258 55.1877V23.5204H67.4258V55.1877H67.9258ZM36.4773 36.2725C35.7823 35.8726 35.4279 35.0643 35.6044 34.2792L35.1166 34.1695C34.8922 35.1676 35.3424 36.1963 36.2279 36.7059L36.4773 36.2725ZM37.1314 34.4673C37.2394 35.1982 36.8801 35.9182 36.2333 36.2695L36.4719 36.7089C37.3037 36.2571 37.7646 35.3321 37.6261 34.3942L37.1314 34.4673ZM36.6163 28.5817C36.7531 30.5057 36.9272 32.4983 37.1301 34.4565L37.6274 34.405C37.4251 32.452 37.2515 30.4648 37.115 28.5462L36.6163 28.5817ZM36.4752 26.8388C36.5224 27.4286 36.5693 28.0138 36.6165 28.5846L37.1148 28.5434C37.0676 27.9734 37.0208 27.3888 36.9736 26.7989L36.4752 26.8388ZM36.4751 26.8376L36.4752 26.8384L36.9736 26.7993L36.9736 26.7985L36.4751 26.8376ZM36.4751 26.8376L36.4752 26.8383L36.9735 26.7977L36.9735 26.797L36.4751 26.8376ZM36.4747 26.8322L36.4747 26.8324L36.9738 26.8022L36.9738 26.802L36.4747 26.8322ZM36.4752 26.8382L36.4752 26.8387L36.9733 26.7955L36.9733 26.795L36.4752 26.8382ZM36.475 26.836L36.475 26.8367L36.9734 26.7965L36.9734 26.7958L36.475 26.836ZM36.4748 26.8342L36.4749 26.835L36.9734 26.7967L36.9734 26.7958L36.4748 26.8342ZM36.4115 26.045L36.4749 26.835L36.9733 26.795L36.9099 26.005L36.4115 26.045ZM36.2932 24.7613C36.3356 25.194 36.3776 25.6241 36.4115 26.0451L36.9099 26.005C36.8756 25.5789 36.8331 25.1445 36.7909 24.7126L36.2932 24.7613ZM36.293 24.7585L36.293 24.7586L36.7911 24.7153L36.7911 24.7152L36.293 24.7585ZM36.293 24.7584L36.293 24.7585L36.7911 24.7152L36.7911 24.715L36.293 24.7584ZM36.293 24.7582L36.293 24.7584L36.7911 24.715L36.7911 24.7149L36.293 24.7582ZM36.293 24.7581L36.293 24.7582L36.7911 24.7149L36.7911 24.7148L36.293 24.7581ZM36.2929 24.758L36.293 24.7581L36.7911 24.7148L36.7911 24.7146L36.2929 24.758ZM36.2929 24.7578L36.2929 24.758L36.7911 24.7146L36.7911 24.7145L36.2929 24.7578ZM36.2933 24.7613L36.2933 24.7618L36.7907 24.7105L36.7906 24.71L36.2933 24.7613ZM36.1717 23.4374C36.2064 23.8732 36.2499 24.3179 36.2931 24.76L36.7907 24.7113C36.7474 24.2684 36.7044 23.8282 36.6701 23.3977L36.1717 23.4374ZM36.1373 23.1606C36.1293 23.2771 36.146 23.394 36.1861 23.5036L36.6556 23.3316C36.6396 23.2879 36.633 23.2412 36.6361 23.1947L36.1373 23.1606ZM36.6047 23.5221L36.6356 23.2017L36.1379 23.1537L36.107 23.4742L36.6047 23.5221ZM36.6053 23.515L36.6053 23.5148L36.1064 23.4815L36.1064 23.4817L36.6053 23.515ZM36.6051 23.5182L36.6051 23.5179L36.1066 23.4788L36.1066 23.4791L36.6051 23.5182ZM36.6049 23.5201L36.6049 23.5197L36.1067 23.4776L36.1067 23.478L36.6049 23.5201ZM36.6048 23.5212L36.6048 23.5207L36.1067 23.4774L36.1067 23.4779L36.6048 23.5212ZM36.6047 23.5224L36.6047 23.5218L36.1067 23.4773L36.1067 23.478L36.6047 23.5224ZM36.6047 23.5226L36.6047 23.5223L36.1067 23.4781L36.1066 23.4783L36.6047 23.5226ZM36.157 28.4806C36.285 26.8407 36.4459 25.171 36.6045 23.5244L36.1068 23.4765C35.9483 25.1222 35.787 26.7965 35.6585 28.4417L36.157 28.4806ZM36.0844 29.2857L36.1568 28.4836L35.6588 28.4387L35.5864 29.2407L36.0844 29.2857ZM36.0843 29.2867L36.0844 29.2861L35.5864 29.2404L35.5864 29.241L36.0843 29.2867ZM35.6091 34.251C35.786 32.5984 35.9371 30.921 36.0843 29.2863L35.5864 29.2414C35.4391 30.8768 35.2883 32.5501 35.1119 34.1978L35.6091 34.251ZM33.857 21.4176H32.8991V21.9176H33.857V21.4176ZM33.9695 23.3008L34.1061 21.6887L33.6079 21.6464L33.4712 23.2586L33.9695 23.3008ZM33.8331 24.9955C33.8758 24.4296 33.9184 23.8658 33.9693 23.3022L33.4714 23.2572C33.42 23.8251 33.3772 24.3926 33.3346 24.9579L33.8331 24.9955ZM33.8339 24.9768V24.9767H33.3339V24.9768H33.8339ZM33.8339 24.9769V24.9768H33.3339V24.9769H33.8339ZM33.8339 24.9769V24.9769H33.3339V24.9769H33.8339ZM33.8339 24.977V24.9769H33.3339V24.977H33.8339ZM33.8339 24.977V24.977H33.3339V24.977H33.8339ZM33.6961 26.6987C33.7476 26.1303 33.7904 25.562 33.8331 24.9958L33.3346 24.9582C33.2918 25.525 33.2492 26.0895 33.1981 26.6536L33.6961 26.6987ZM33.594 28.1008L33.6965 26.6943L33.1978 26.6579L33.0953 28.0645L33.594 28.1008ZM32.9783 35.7194C33.1817 33.1806 33.3868 30.6418 33.5938 28.103L33.0955 28.0623C32.8885 30.6014 32.6833 33.1404 32.4799 35.6795L32.9783 35.7194ZM33.413 36.9235C33.0866 36.6178 32.9246 36.1742 32.9773 35.7288L32.4808 35.67C32.4094 36.2729 32.6286 36.874 33.0713 37.2885L33.413 36.9235ZM34.5479 38.0619L33.4193 36.9295L33.0651 37.2825L34.1938 38.4149L34.5479 38.0619ZM34.8824 38.4055C34.7742 38.2931 34.6631 38.1777 34.5481 38.0621L34.1936 38.4147C34.3053 38.527 34.4136 38.6395 34.5223 38.7523L34.8824 38.4055ZM34.8849 38.4081L34.8847 38.4079L34.52 38.7499L34.5201 38.7501L34.8849 38.4081ZM35.5299 39.0484C35.3092 38.8486 35.1019 38.6334 34.8826 38.4057L34.5224 38.7525C34.7397 38.9781 34.9588 39.2058 35.1944 39.419L35.5299 39.0484ZM36.405 39.4724C36.0767 39.4724 35.7651 39.3265 35.5541 39.0736L35.1702 39.3938C35.476 39.7604 35.9281 39.9724 36.405 39.9724V39.4724ZM37.2559 39.0736C37.0449 39.3265 36.7333 39.4724 36.405 39.4724V39.9724C36.8819 39.9724 37.3341 39.7604 37.6399 39.3938L37.2559 39.0736ZM38.1033 38.257C37.8189 38.5072 37.5429 38.7842 37.2709 39.0572L37.625 39.4102C37.8994 39.1349 38.1637 38.8699 38.4335 38.6325L38.1033 38.257ZM39.22 37.1359L38.0913 38.2683L38.4455 38.6213L39.5742 37.4889L39.22 37.1359ZM39.7996 35.497C39.8915 36.1027 39.6769 36.7143 39.2276 37.1286L39.5666 37.4962C40.1381 36.9691 40.4107 36.1916 40.294 35.4221L39.7996 35.497ZM39.3971 30.7523C39.53 32.3275 39.6634 33.9074 39.7977 35.4808L40.2959 35.4383C40.1616 33.8652 40.0283 32.2855 39.8953 30.7102L39.3971 30.7523ZM38.8748 24.6049C39.0491 26.6292 39.2228 28.6867 39.3971 30.7523L39.8953 30.7102C39.721 28.6447 39.5473 26.5868 39.3729 24.562L38.8748 24.6049ZM38.7038 22.4419L38.8746 24.6031L39.3731 24.5637L39.2023 22.4025L38.7038 22.4419ZM38.7031 21.7704V22.4222H39.2031V21.7704H38.7031ZM40.1976 21.487C39.7984 21.5202 39.3658 21.5204 38.9531 21.5204V22.0204C39.3616 22.0204 39.8155 22.0205 40.2391 21.9852L40.1976 21.487ZM43.1872 21.5562C42.1962 21.446 41.1974 21.4227 40.2023 21.4866L40.2344 21.9856C41.2004 21.9235 42.1699 21.9461 43.132 22.0531L43.1872 21.5562ZM53.292 32.7468C53.2343 26.9882 48.8945 22.1811 43.1868 21.5561L43.1324 22.0531C48.5871 22.6504 52.7368 27.2451 52.792 32.7518L53.292 32.7468ZM53.3261 38.1062C53.3604 36.353 53.3604 34.5302 53.2919 32.7397L52.7922 32.7589C52.8603 34.5369 52.8603 36.3496 52.8262 38.0964L53.3261 38.1062ZM53.3262 40.4377V38.1013H52.8262V40.4377H53.3262ZM53.2718 40.7428C53.3156 40.6406 53.334 40.5293 53.3254 40.4184L52.8269 40.4571C52.8293 40.4873 52.8243 40.5177 52.8123 40.5455L53.2718 40.7428ZM53.292 40.6784V40.6441H52.792V40.6784H53.292ZM48.494 40.9284H53.042V40.4284H48.494V40.9284ZM48.244 34.3311V40.6784H48.744V34.3311H48.244ZM48.212 33.7119C48.2388 33.9149 48.2495 34.1197 48.2441 34.3244L48.7439 34.3377C48.75 34.1067 48.7379 33.8756 48.7077 33.6465L48.212 33.7119ZM47.856 33.0144C48.0617 33.1846 48.1897 33.4315 48.2106 33.6986L48.7091 33.6598C48.6777 33.258 48.485 32.886 48.1749 32.6292L47.856 33.0144ZM47.1203 32.7952C47.3849 32.7651 47.6504 32.8441 47.856 33.0144L48.1749 32.6292C47.8647 32.3724 47.4637 32.2529 47.0638 32.2984L47.1203 32.7952ZM46.1772 33.8698C46.144 33.3151 46.5605 32.8377 47.1109 32.7961L47.0732 32.2975C46.249 32.3598 45.6286 33.074 45.6781 33.8998L46.1772 33.8698ZM46.1777 40.6099V33.8848H45.6777V40.6099H46.1777ZM26.9142 40.8599H45.9277V40.3599H26.9142V40.8599ZM26.6642 34.3311V40.6099H27.1642V34.3311H26.6642ZM26.6317 33.6394C26.658 33.8672 26.6689 34.0966 26.6642 34.326L27.1641 34.3362C27.1693 34.0842 27.1573 33.8322 27.1284 33.5819L26.6317 33.6394ZM26.2751 32.9613C26.4802 33.126 26.609 33.3683 26.6309 33.6314L27.1292 33.5899C27.0959 33.1905 26.9004 32.8222 26.5881 32.5714L26.2751 32.9613ZM25.5467 32.7602C25.8066 32.724 26.07 32.7967 26.2751 32.9613L26.5881 32.5714C26.2758 32.3207 25.8743 32.2098 25.4778 32.2649L25.5467 32.7602ZM24.6335 33.8092C24.6185 33.2756 25.0133 32.8205 25.5403 32.761L25.4842 32.2641C24.6977 32.353 24.1114 33.0313 24.1337 33.8233L24.6335 33.8092ZM24.6336 40.6099V33.8163H24.1336V40.6099H24.6336ZM19.8355 40.8599H24.3836V40.3599H19.8355V40.8599ZM19.5174 37.9781C19.5516 38.836 19.5855 39.723 19.5855 40.6099H20.0855C20.0855 39.7117 20.0512 38.8153 20.017 37.9582L19.5174 37.9781ZM19.8632 30.2743C19.421 32.8205 19.305 35.413 19.5181 37.9887L20.0164 37.9475C19.8068 35.4141 19.9209 32.8642 20.3559 30.3598L19.8632 30.2743ZM31.0193 21.4222C25.7016 21.3988 21.0746 25.0662 19.8661 30.2604L20.3531 30.3737C21.509 25.4057 25.9338 21.8998 31.0171 21.9222L31.0193 21.4222ZM32.8985 21.4176L31.0176 21.4222L31.0188 21.9222L32.8997 21.9176L32.8985 21.4176ZM18.2749 26.7452C18.2132 26.8815 18.1557 27.0131 18.1001 27.1403L18.5582 27.3406C18.614 27.2131 18.6703 27.0843 18.7305 26.9512L18.2749 26.7452ZM18.4996 27.0982H18.5027V26.5982H18.4996V27.0982ZM18.5467 26.3114C18.443 26.4435 18.3525 26.5854 18.2766 26.7352L18.7225 26.9613C18.7837 26.8407 18.8565 26.7265 18.9399 26.6202L18.5467 26.3114ZM12.5535 26.7158H18.7433V26.2158H12.5535V26.7158ZM12.8035 50.3108V26.4658H12.3035V50.3108H12.8035ZM60.3256 50.0608H12.5535V50.5608H60.3256V50.0608ZM60.0756 26.4658V50.3108H60.5756V26.4658H60.0756ZM54.0333 26.7158H60.3256V26.2158H54.0333V26.7158ZM54.2912 26.4229L54.257 26.3543L53.8095 26.5773L53.8437 26.6459L54.2912 26.4229ZM54.3615 26.5839C54.3337 26.5276 54.3161 26.4911 54.3053 26.4576L53.8295 26.6111C53.8536 26.6859 53.8888 26.756 53.9133 26.8056L54.3615 26.5839ZM54.4413 26.7671C54.4181 26.6974 54.3849 26.6312 54.3615 26.5839L53.9133 26.8056C53.94 26.8595 53.9565 26.8939 53.9668 26.9247L54.4413 26.7671ZM55.8901 32.9197C55.8817 30.7729 55.3815 28.6567 54.428 26.7348L53.9801 26.957C54.8996 28.8104 55.382 30.8512 55.3901 32.9216L55.8901 32.9197ZM55.8901 41.7041V32.9206H55.3901V41.7041H55.8901ZM54.1016 43.4634C54.6641 43.4634 55.1259 43.3365 55.4441 43.0225C55.763 42.7079 55.8901 42.2524 55.8901 41.7041H55.3901C55.3901 42.1846 55.2781 42.4838 55.0929 42.6666C54.9069 42.8501 54.5994 42.9634 54.1016 42.9634V43.4634ZM18.8108 43.4634H54.1016V42.9634H18.8108V43.4634ZM16.8166 41.4634C16.8166 42.1527 16.906 42.6857 17.2487 43.0295C17.5917 43.3736 18.1236 43.4634 18.8108 43.4634V42.9634C18.1303 42.9634 17.7901 42.8644 17.6029 42.6766C17.4154 42.4885 17.3166 42.1465 17.3166 41.4634H16.8166ZM16.8166 33.3326V41.4634H17.3166V33.3326H16.8166ZM17.7907 27.8215C17.1078 29.5782 16.7768 31.4528 16.8167 33.3379L17.3165 33.3274C17.2781 31.5077 17.5976 29.6983 18.2567 28.0027L17.7907 27.8215ZM18.1001 27.1403C17.9992 27.371 17.9048 27.5867 17.7993 27.802L18.2482 28.0222C18.3594 27.7954 18.458 27.5697 18.5582 27.3406L18.1001 27.1403ZM21.8648 22.8764C22.0538 22.6944 22.2431 22.5121 22.4361 22.3299L22.0928 21.9663C21.8977 22.1505 21.7067 22.3346 21.518 22.5163L21.8648 22.8764ZM20.7226 23.9472C21.1129 23.6007 21.4883 23.2391 21.8648 22.8764L21.518 22.5163C21.1402 22.8802 20.7721 23.2347 20.3907 23.5733L20.7226 23.9472ZM20.0535 24.0775C20.2565 24.0979 20.4614 24.0685 20.6505 23.992L20.4628 23.5285C20.3489 23.5746 20.2256 23.5923 20.1035 23.58L20.0535 24.0775ZM11.6321 24.0788H20.0785V23.5788H11.6321V24.0788ZM10.0695 25.6473C10.0695 24.9735 10.1822 24.6084 10.39 24.3999C10.5975 24.1917 10.9608 24.0788 11.6321 24.0788V23.5788C10.9356 23.5788 10.3927 23.6889 10.0358 24.047C9.67925 24.4047 9.56955 24.9489 9.56955 25.6473H10.0695ZM10.0695 51.1386V25.6473H9.56955V51.1386H10.0695ZM11.5979 52.7072C10.9451 52.7072 10.5905 52.5947 10.3871 52.3874C10.1822 52.1786 10.0695 51.8124 10.0695 51.1386H9.56955C9.56955 51.8372 9.67934 52.3802 10.0302 52.7376C10.3825 53.0965 10.9172 53.2072 11.5979 53.2072V52.7072ZM61.0801 52.7072H11.5979V53.2072H61.0801V52.7072ZM62.6085 51.1729C62.6085 51.8282 62.4963 52.1856 62.2923 52.3903C62.0886 52.5948 61.7329 52.7072 61.0801 52.7072V53.2072C61.7609 53.2072 62.2944 53.0965 62.6465 52.7433C62.9982 52.3903 63.1085 51.8557 63.1085 51.1729H62.6085ZM62.6085 25.613V51.1729H63.1085V25.613H62.6085ZM61.1143 24.0788C61.7446 24.0788 62.0928 24.1977 62.2939 24.4057C62.4972 24.616 62.6085 24.977 62.6085 25.613H63.1085C63.1085 24.9454 62.9974 24.4142 62.6534 24.0583C62.3073 23.7001 61.7834 23.5788 61.1143 23.5788V24.0788ZM52.8386 24.0788H61.1143V23.5788H52.8386V24.0788ZM51.5606 23.5523C51.892 23.9104 52.3645 24.1031 52.8513 24.0785L52.826 23.5791C52.4875 23.5963 52.1585 23.4623 51.9276 23.2127L51.5606 23.5523ZM50.61 22.6366C50.9431 22.9384 51.2611 23.2268 51.5602 23.5518L51.9281 23.2132C51.6112 22.8688 51.2764 22.5657 50.9457 22.266L50.61 22.6366ZM50.601 22.628L50.6011 22.6281L50.9546 22.2745L50.9546 22.2745L50.601 22.628ZM50.275 22.3309C50.3874 22.4348 50.4995 22.5364 50.6099 22.6365L50.9457 22.266C50.8349 22.1656 50.7247 22.0657 50.6144 21.9638L50.275 22.3309ZM49.813 21.9332C49.9728 22.0566 50.1259 22.1883 50.2718 22.3279L50.6175 21.9667C50.4589 21.8148 50.2923 21.6715 50.1185 21.5374L49.813 21.9332ZM50.0838 21.4698C50.0296 21.4798 49.9955 21.4853 49.9657 21.4853V21.9853C50.0485 21.9853 50.1269 21.9702 50.1742 21.9616L50.0838 21.4698ZM50.2397 21.4511C50.1808 21.4511 50.1177 21.4636 50.0838 21.4698L50.1742 21.9616C50.1961 21.9575 50.2111 21.9548 50.2242 21.9529C50.2375 21.951 50.2414 21.9511 50.2397 21.9511V21.4511ZM63.5765 21.4511H50.2397V21.9511H63.5765V21.4511ZM65.3651 23.2447C65.3651 22.6601 65.2616 22.1887 64.9461 21.8721C64.6304 21.5552 64.16 21.4511 63.5765 21.4511V21.9511C64.1217 21.9511 64.4206 22.0529 64.5919 22.225C64.7636 22.3972 64.8651 22.6976 64.8651 23.2447H65.3651ZM65.3651 54.6379V23.2447H64.8651V54.6379H65.3651ZM65.3246 55.0704C65.3578 54.9251 65.3713 54.7759 65.3648 54.627L64.8653 54.6487C64.8698 54.753 64.8604 54.8575 64.8372 54.9592L65.3246 55.0704ZM65.3309 55.1519V55.0148H64.8309V55.1519H65.3309ZM7.63129 55.4019H65.0809V54.9019H7.63129V55.4019ZM7.38129 23.3825V55.1519H7.88129V23.3825H7.38129ZM9.30722 21.4511C8.63645 21.4511 8.12081 21.541 7.79061 21.8779C7.46175 22.2134 7.38129 22.7291 7.38129 23.3825H7.88129C7.88129 22.7322 7.972 22.4071 8.1477 22.2279C8.32207 22.05 8.64439 21.9511 9.30722 21.9511V21.4511ZM22.7465 21.4511H9.30722V21.9511H22.7465V21.4511ZM22.4216 22.3412C22.5988 22.1956 22.7674 22.0397 22.9266 21.8744L22.5664 21.5277C22.4207 21.679 22.2664 21.8216 22.1041 21.9549L22.4216 22.3412ZM22.2644 21.8981H22.2629V22.3981H22.2644V21.8981ZM36.3534 3.83663C38.2845 3.83541 40.1382 4.59818 41.5125 5.9597L41.8644 5.6045C40.3966 4.15031 38.4163 3.33532 36.3531 3.33663L36.3534 3.83663ZM36.4902 3.43776C36.4921 3.43958 36.4996 3.44669 36.5086 3.45866C36.5163 3.46893 36.535 3.49552 36.5459 3.53607C36.5583 3.58234 36.5601 3.64834 36.5247 3.71384C36.4923 3.77361 36.4449 3.80282 36.4195 3.81529C36.3937 3.82792 36.3723 3.83244 36.3638 3.83405C36.3538 3.83593 36.3468 3.83644 36.3449 3.83657C36.3424 3.83674 36.342 3.83663 36.3533 3.83663V3.33663C36.3467 3.33663 36.3287 3.33651 36.3108 3.33773C36.3013 3.33839 36.2513 3.34089 36.1994 3.36634C36.1697 3.3809 36.1191 3.41273 36.085 3.47577C36.0478 3.54454 36.0492 3.61446 36.0629 3.66544C36.0839 3.74399 36.1369 3.79193 36.1481 3.80247L36.4902 3.43776ZM28.9432 11.3403C28.9532 7.24384 32.2412 3.91665 36.322 3.8701L36.3163 3.37013C31.9605 3.41982 28.4539 6.9707 28.4432 11.3391L28.9432 11.3403ZM31.0643 16.6453C29.6773 15.2351 28.913 13.3248 28.9432 11.3435L28.4433 11.3359C28.411 13.4507 29.2268 15.4901 30.7078 16.9959L31.0643 16.6453ZM36.3186 18.8436C34.3444 18.8475 32.4512 18.0555 31.0643 16.6453L30.7078 16.9959C32.1888 18.5017 34.2107 19.3477 36.3196 19.3436L36.3186 18.8436ZM43.7292 11.3736C43.7231 15.4845 40.4129 18.8192 36.3176 18.8436L36.3206 19.3436C40.6921 19.3175 44.2227 15.7584 44.2292 11.3744L43.7292 11.3736ZM41.5113 5.95848C42.9405 7.39418 43.739 9.34333 43.7292 11.3728L44.2292 11.3752C44.2397 9.21294 43.3889 7.1359 41.8656 5.60573L41.5113 5.95848ZM3.14883 58.141C3.99814 60.9792 6.1383 62.6761 8.89271 62.6768L8.89283 62.1768C6.38261 62.1762 4.42077 60.6474 3.62784 57.9976L3.14883 58.141ZM3.13366 58.0576C3.13568 58.0646 3.13683 58.0686 3.13778 58.0722C3.13864 58.0755 3.13893 58.0768 3.13898 58.0771C3.13901 58.0772 3.13881 58.0763 3.13863 58.0746C3.13844 58.0729 3.13834 58.071 3.13834 58.0693H3.63834C3.63834 57.9991 3.62132 57.9442 3.61411 57.9192L3.13366 58.0576ZM3.10418 57.8629C3.10418 57.9559 3.12258 58.0192 3.13366 58.0576L3.61411 57.9192C3.60931 57.9025 3.6076 57.8961 3.60631 57.8892C3.60527 57.8836 3.60418 57.8756 3.60418 57.8629H3.10418ZM3.10418 57.7944V57.8629H3.60418V57.7944H3.10418ZM28.5909 57.5444H3.35418V58.0444H28.5909V57.5444ZM28.8409 58V57.7944H28.3409V58H28.8409ZM28.858 58.2765C28.849 58.1817 28.8409 58.0945 28.8409 58H28.3409C28.3409 58.1215 28.3515 58.2311 28.3603 58.3238L28.858 58.2765ZM28.8583 58.2795L28.8583 58.2794L28.36 58.321L28.36 58.321L28.8583 58.2795ZM28.8751 58.549C28.8751 58.4535 28.866 58.3599 28.8581 58.2766L28.3603 58.3239C28.3686 58.4115 28.3751 58.4813 28.3751 58.549H28.8751ZM31.7372 61.2842C30.2059 61.2832 28.9447 60.0744 28.8748 58.5377L28.3753 58.5604C28.4572 60.3625 29.9369 61.783 31.7369 61.7842L31.7372 61.2842ZM40.8645 61.2843C37.8235 61.3185 34.7475 61.3185 31.7399 61.2843L31.7342 61.7842C34.7456 61.8185 37.8254 61.8185 40.8701 61.7842L40.8645 61.2843ZM43.7297 58.5359C43.6488 60.0685 42.3932 61.272 40.8653 61.2843L40.8693 61.7842C42.6629 61.7699 44.1343 60.3575 44.229 58.5622L43.7297 58.5359ZM43.7476 58.2675C43.7393 58.351 43.7293 58.449 43.7293 58.549H44.2293C44.2293 58.478 44.2364 58.4048 44.2451 58.317L43.7476 58.2675ZM43.7635 58.0343C43.7635 58.1059 43.7563 58.1795 43.7476 58.2675L44.2451 58.317C44.2535 58.2332 44.2635 58.1349 44.2635 58.0343H43.7635ZM43.7635 57.8279V58.0343H44.2635V57.8279H43.7635ZM69.2843 57.5779H44.0135V58.0779H69.2843V57.5779ZM68.2792 60.5582C68.923 59.7876 69.3544 58.8614 69.5305 57.8717L69.0382 57.7841C68.8774 58.6881 68.4834 59.534 67.8955 60.2377L68.2792 60.5582ZM63.7686 62.6727C65.5285 62.7413 67.212 61.95 68.2857 60.5501L67.889 60.2458C66.9139 61.5172 65.3853 62.2354 63.7881 62.1731L63.7686 62.6727ZM28.556 62.6729H63.7784V62.1729H28.556V62.6729ZM8.89407 62.6768C15.4929 62.6425 22.1601 62.6425 28.5548 62.6729L28.5572 62.1729C22.1608 62.1425 15.492 62.1425 8.89147 62.1768L8.89407 62.6768ZM41.1848 58.5326C41.1271 58.6049 40.9993 58.6783 40.5598 58.6783V59.1783C41.0083 59.1783 41.3602 59.1147 41.5758 58.8443L41.1848 58.5326ZM41.2015 58.8632L41.2031 58.8648L41.5575 58.5121L41.5559 58.5106L41.2015 58.8632ZM41.2033 57.8703C41.2348 58.0687 41.2479 58.2273 41.2406 58.3459C41.2329 58.4715 41.205 58.5071 41.2017 58.5104L41.5558 58.8634C41.6891 58.7297 41.7295 58.5421 41.7397 58.3765C41.7502 58.2037 41.7307 58.0029 41.697 57.7917L41.2033 57.8703ZM31.3278 58.081H41.4501V57.581H31.3278V58.081ZM31.6074 58.5805C31.5938 58.5669 31.5642 58.5265 31.5506 58.4071C31.5369 58.2869 31.5425 58.1132 31.5756 57.8639L31.08 57.7981C31.0448 58.0628 31.0333 58.2836 31.0538 58.4636C31.0744 58.6444 31.1302 58.81 31.2532 58.9335L31.6074 58.5805ZM32.2565 58.6799C32.0127 58.707 31.7664 58.6576 31.5516 58.5384L31.309 58.9756C31.6144 59.1451 31.9648 59.2154 32.3118 59.1768L32.2565 58.6799ZM40.5598 58.6783H32.2842V59.1783H40.5598V58.6783Z" fill="white"/>
</svg>
