<?xml version="1.0" encoding="UTF-8"?>
<svg width="80px" height="80px" viewBox="0 0 80 80" version="1.1" xmlns="http://www.w3.org/2000/svg" xmlns:xlink="http://www.w3.org/1999/xlink">
    <title>Widget needle</title>
    <g id="Widget-needle" stroke="none" stroke-width="1" fill="none" fill-rule="evenodd">
        <g id="Pie2" transform="translate(-606.000000, -552.000000)" fill="#6C7A88">
            <g id="Group-21" transform="translate(606.000000, 552.000000)">
                <path d="M56.3613,38.9902 C56.9363,38.4142 56.9363,37.5442 56.3613,36.9672 C55.7823,36.3892 54.9123,36.3912 54.3373,36.9672 L44.6653,46.5692 C43.6083,45.9372 42.3543,45.6042 41.0193,45.6042 C37.3193,45.6042 34.1753,48.3572 33.7133,51.9322 L11.8923,51.9322 C12.0113,47.8842 13.0343,43.8852 14.9353,40.0332 L17.5273,41.5502 C17.6943,41.6342 17.9693,41.7312 18.1933,41.7312 C18.6843,41.7312 19.1613,41.4432 19.4423,40.9742 C19.6343,40.6382 19.6873,40.2362 19.5883,39.8692 C19.4913,39.5152 19.2633,39.2202 18.9513,39.0432 L16.3683,37.5302 C18.6373,33.9132 21.5273,30.9312 24.9653,28.6592 L26.5473,31.3802 C26.8243,31.8442 27.3013,32.1322 27.7933,32.1322 C28.0943,32.1322 28.2953,32.0312 28.4763,31.9402 C28.8313,31.7382 29.0833,31.4002 29.1673,31.0142 C29.2473,30.6502 29.1713,30.2812 28.9723,30.0072 L27.3833,27.2102 C31.0733,25.2252 35.2003,24.0852 39.3653,23.8972 L39.3653,27.2062 C39.3653,27.9872 40.0253,28.6472 40.8063,28.6472 C41.5883,28.6472 42.2483,27.9872 42.2483,27.2062 L42.2483,23.8962 C46.4913,24.0812 50.6403,25.1752 54.2983,27.0722 L52.6413,30.0062 C52.4493,30.3422 52.3963,30.7442 52.4963,31.1112 C52.5923,31.4652 52.8203,31.7602 53.1533,31.9492 C53.3213,32.0332 53.5953,32.1322 53.8193,32.1322 C54.3113,32.1322 54.7893,31.8442 55.0683,31.3752 L56.7213,28.5152 C60.2243,30.7862 63.1833,33.7682 65.5233,37.3872 L62.6643,39.0412 C62.3103,39.2432 62.0583,39.5812 61.9743,39.9672 C61.8943,40.3312 61.9713,40.6992 62.1733,40.9812 C62.4523,41.4442 62.9293,41.7312 63.4203,41.7312 C63.7233,41.7312 63.9323,41.6272 64.1083,41.5382 L66.8913,39.8932 C68.7743,43.7112 69.8193,47.7582 70.0003,51.9322 L48.3223,51.9322 C48.1433,50.6532 47.6533,49.4982 46.8593,48.4922 L56.3613,38.9902 Z M41.0193,21.0002 C23.3643,21.0002 9.0003,35.3642 9.0003,53.0192 L9.0003,53.4452 C9.0003,54.2272 9.6603,54.8872 10.4423,54.8872 L35.0473,54.8872 C35.4153,54.8872 35.7973,54.7192 36.0943,54.4222 C36.3553,54.1592 36.4883,53.8072 36.4883,53.3752 L36.4883,53.0192 C36.4883,50.5202 38.5203,48.4872 41.0193,48.4872 C43.5183,48.4872 45.5513,50.5202 45.5513,53.0192 L45.5513,53.3752 C45.5513,53.8072 45.6843,54.1592 45.9453,54.4222 L45.9453,54.4232 C46.2413,54.7182 46.6233,54.8872 46.9933,54.8872 L71.5973,54.8872 C72.3793,54.8872 73.0393,54.2272 73.0393,53.4452 L73.0393,53.0192 C73.0393,35.3642 58.6743,21.0002 41.0193,21.0002 L41.0193,21.0002 Z" id="Fill-1"></path>
            </g>
        </g>
    </g>
</svg>