<?xml version="1.0" encoding="UTF-8"?>
<svg width="104px" height="104px" viewBox="-21 -21 104 104" version="1.1" xmlns="http://www.w3.org/2000/svg" xmlns:xlink="http://www.w3.org/1999/xlink">
    <title>8086FF7D-B4F7-47AC-91E4-FF3122C344C0</title>
    <g id="Open-Data" stroke="none" stroke-width="1" fill="none" fill-rule="evenodd">
        <g id="Open-Data---Wizard-1" transform="translate(-1015.000000, -455.000000)" fill="#577EE8" fill-rule="nonzero">
            <g id="Group-7" transform="translate(968.000000, 455.000000)">
                <path d="M102.235976,-3.55271368e-15 C102.858547,-3.55271368e-15 103.363241,0.504693647 103.363241,1.12726481 L103.363,9.427 L106.74547,9.42708223 C107.934015,9.42708223 108.90775,10.3467926 108.993816,11.5133537 L109,11.6816119 L109,50.7021475 C109,51.8906924 108.08029,52.8644275 106.913729,52.9504932 L106.74547,52.9566771 L55.0361652,52.9566771 C53.8476202,52.9566771 52.8738851,52.0369668 52.7878194,50.8704057 L52.7816355,50.7021475 L52.781,43.963 L48.1272648,43.9633276 C47.5046936,43.9633276 47,43.458634 47,42.8360628 L47,1.12726481 C47,0.504693647 47.5046936,-3.55271368e-15 48.1272648,-3.55271368e-15 L102.235976,-3.55271368e-15 Z M106.744636,18.9970822 L103.363,18.997 L103.363241,42.8360628 C103.363241,43.458634 102.858547,43.9633276 102.235976,43.9633276 L55.036,43.963 L55.0361652,50.7021475 L106.74547,50.7021475 L106.744636,18.9970822 Z M101.108,10.709 L49.254,10.709 L49.2545296,41.708798 L101.108711,41.708798 L101.108,10.709 Z M89.8360628,20.2907666 C92.9489186,20.2907666 95.4723869,22.8142348 95.4723869,25.9270907 C95.4723869,29.0399465 92.9489186,31.5634147 89.8360628,31.5634147 C87.1093884,31.5634147 84.8349337,29.6272317 84.3125613,27.0547281 L80.7051218,27.0547281 C80.1827494,29.6272317 77.9082947,31.5634147 75.1816203,31.5634147 C72.4549458,31.5634147 70.1804911,29.6272317 69.6581188,27.0547281 L66.0506792,27.0547281 C65.5283069,29.6272317 63.2538522,31.5634147 60.5271777,31.5634147 C57.4143219,31.5634147 54.8908537,29.0399465 54.8908537,25.9270907 C54.8908537,22.8142348 57.4143219,20.2907666 60.5271777,20.2907666 C63.2542068,20.2907666 65.5288985,22.2274533 66.0508829,24.8004569 L69.6579151,24.8004569 C70.1798995,22.2274533 72.4545912,20.2907666 75.1816203,20.2907666 C77.9086494,20.2907666 80.183341,22.2274533 80.7053255,24.8004569 L84.3123576,24.8004569 C84.8343421,22.2274533 87.1090337,20.2907666 89.8360628,20.2907666 Z M57.4751537,24.4686701 C57.2637634,24.9102478 57.1453833,25.4048446 57.1453833,25.9270907 C57.1453833,27.7948041 58.6594642,29.3088851 60.5271777,29.3088851 C61.0490272,29.3088851 61.5432695,29.1906847 61.9845923,28.979596 L57.4751537,24.4686701 Z M75.1816203,22.5452962 C73.3139068,22.5452962 71.7998258,24.0593772 71.7998258,25.9270907 C71.7998258,27.7948041 73.3139068,29.3088851 75.1816203,29.3088851 C77.0493338,29.3088851 78.5634147,27.7948041 78.5634147,25.9270907 C78.5634147,24.0593772 77.0493338,22.5452962 75.1816203,22.5452962 Z M89.8360628,22.5452962 C87.9683493,22.5452962 86.4542684,24.0593772 86.4542684,25.9270907 C86.4542684,27.7948041 87.9683493,29.3088851 89.8360628,29.3088851 C91.7037763,29.3088851 93.2178572,27.7948041 93.2178572,25.9270907 C93.2178572,24.0593772 91.7037763,22.5452962 89.8360628,22.5452962 Z M60.5271777,22.5452962 C60.0049317,22.5452962 59.5103349,22.6636764 59.0687572,22.8750666 L63.5796831,27.3845052 C63.7907717,26.9431824 63.9089722,26.4489401 63.9089722,25.9270907 C63.9089722,24.0593772 62.3948912,22.5452962 60.5271777,22.5452962 Z M106.74547,11.6816119 L103.363,11.681 L103.363,16.743 L106.744636,16.7430822 L106.74547,11.6816119 Z M101.108711,2.25452962 L49.2545296,2.25452962 L49.254,8.454 L101.108,8.454 L101.108711,2.25452962 Z M54.8908537,4.05815332 L54.8908537,6.31268294 L51.5090592,6.31268294 L51.5090592,4.05815332 L54.8908537,4.05815332 Z M60.5271777,4.05815332 L60.5271777,6.31268294 L57.1453833,6.31268294 L57.1453833,4.05815332 L60.5271777,4.05815332 Z M66.1635018,4.05815332 L66.1635018,6.31268294 L62.7817074,6.31268294 L62.7817074,4.05815332 L66.1635018,4.05815332 Z" id="Combined-Shape"></path>
            </g>
        </g>
    </g>
</svg>
