<svg width="154" height="113" viewBox="0 0 154 113" fill="none" xmlns="http://www.w3.org/2000/svg">
<path fill-rule="evenodd" clip-rule="evenodd" d="M115.794 45.4164C115.378 45.4164 114.961 45.2562 114.643 44.935L107.429 37.6521C106.793 37.0097 106.792 35.9675 107.427 35.324C108.063 34.6809 109.094 34.6801 109.73 35.3225L115.794 41.4439L130.226 26.8752C130.862 26.2321 131.893 26.2332 132.528 26.8766C133.164 27.5201 133.163 28.5624 132.527 29.2048L116.945 44.935C116.627 45.2562 116.21 45.4164 115.794 45.4164Z" fill="#00D3A4"/>
<circle cx="119" cy="35" r="34" stroke="#00D3A4" stroke-width="2"/>
<path fill-rule="evenodd" clip-rule="evenodd" d="M82.8767 37.0492H4.55527C4.06199 37.0492 3.66211 37.428 3.66211 37.8953V100.672C3.66211 101.139 4.06199 101.518 4.55527 101.518H82.8767C83.37 101.518 83.7698 101.139 83.7698 100.672V37.8953C83.7698 37.428 83.37 37.0492 82.8767 37.0492ZM5.4395 38.7415H15.4072V99.8338H5.4395V38.7415ZM17.1935 99.8253H81.9835V38.733H17.1935V99.8253Z" fill="#577EE8"/>
<path fill-rule="evenodd" clip-rule="evenodd" d="M32.0462 50.9262H20.1314C19.6451 50.9263 19.248 50.5576 19.2383 50.0969V42.7692C19.2383 42.3019 19.6382 41.9231 20.1314 41.9231H32.0462C32.5395 41.9231 32.9394 42.3019 32.9394 42.7692V50.08C32.9394 50.5473 32.5395 50.9262 32.0462 50.9262ZM31.162 43.5985H21.0246V49.2339H31.162V43.5985Z" fill="#577EE8"/>
<path fill-rule="evenodd" clip-rule="evenodd" d="M47.2669 50.9262H35.3521C34.8658 50.9263 34.4687 50.5576 34.459 50.0969V42.7692C34.459 42.3019 34.8589 41.9231 35.3521 41.9231H47.2669C47.7602 41.9231 48.1601 42.3019 48.1601 42.7692V50.08C48.1601 50.5473 47.7602 50.9262 47.2669 50.9262ZM46.3827 43.5985H36.2453V49.2339H46.3827V43.5985Z" fill="#577EE8"/>
<path fill-rule="evenodd" clip-rule="evenodd" d="M62.4857 50.9262H50.5709C50.0845 50.9263 49.6875 50.5576 49.6777 50.0969V42.7692C49.6777 42.3019 50.0776 41.9231 50.5709 41.9231H62.4857C62.979 41.9231 63.3788 42.3019 63.3788 42.7692V50.08C63.3788 50.5473 62.979 50.9262 62.4857 50.9262ZM61.5925 43.5985H51.4641V49.2339H61.5925V43.5985Z" fill="#577EE8"/>
<path fill-rule="evenodd" clip-rule="evenodd" d="M77.7044 50.9262H65.7896C65.3033 50.9263 64.9062 50.5576 64.8965 50.0969V42.7692C64.8965 42.3019 65.2964 41.9231 65.7896 41.9231H77.7044C78.1977 41.9231 78.5976 42.3019 78.5976 42.7692V50.08C78.5976 50.5473 78.1977 50.9262 77.7044 50.9262ZM76.8113 43.5985H66.6828V49.2339H76.8113V43.5985Z" fill="#577EE8"/>
<path fill-rule="evenodd" clip-rule="evenodd" d="M46.7298 97.1769H20.1314C19.6382 97.1769 19.2383 96.7981 19.2383 96.3308V60.7923C19.2383 60.325 19.6382 59.9462 20.1314 59.9462H46.7298C47.2231 59.9462 47.623 60.325 47.623 60.7923V96.3308C47.623 96.7981 47.2231 97.1769 46.7298 97.1769ZM45.8367 61.6385H21.0246V95.4846H45.8367V61.6385Z" fill="#577EE8"/>
<path fill-rule="evenodd" clip-rule="evenodd" d="M50.3561 59.9376H77.7404C78.2337 59.9376 78.6336 60.3165 78.6336 60.7838V78.553C78.6336 79.0203 78.2337 79.3992 77.7404 79.3992H50.3561C49.8628 79.3992 49.4629 79.0203 49.4629 78.553V60.7838C49.4629 60.3165 49.8628 59.9376 50.3561 59.9376ZM51.2403 77.7069H76.8472V61.6299H51.2403V77.7069Z" fill="#577EE8"/>
<path fill-rule="evenodd" clip-rule="evenodd" d="M50.3561 80.77H77.7404C78.2302 80.77 78.6287 81.1437 78.6336 81.6077V96.3816C78.6336 96.8489 78.2337 97.2277 77.7404 97.2277H50.3561C49.8628 97.2277 49.4629 96.8489 49.4629 96.3816V81.6162C49.4629 81.1489 49.8628 80.77 50.3561 80.77ZM51.2403 95.5354H76.8472V82.4539H51.2403V95.5354Z" fill="#577EE8"/>
<path d="M20.1314 56.6969H68.3086C68.8019 56.6969 69.2018 56.3181 69.2018 55.8508C69.2018 55.3835 68.8019 55.0046 68.3086 55.0046H20.1314C19.6382 55.0046 19.2383 55.3835 19.2383 55.8508C19.2383 56.3181 19.6382 56.6969 20.1314 56.6969Z" fill="#577EE8"/>
<path d="M73.2219 55.8508C73.2219 55.3835 72.822 55.0046 72.3287 55.0046C71.8354 55.0046 71.4355 55.3835 71.4355 55.8508C71.4355 56.3181 71.8354 56.6969 72.3287 56.6969C72.822 56.6969 73.2219 56.3181 73.2219 55.8508Z" fill="#577EE8"/>
<path d="M56.5277 74.0176C56.749 74.0171 56.9623 73.9387 57.1261 73.7976L62.2796 69.3638L63.8159 71.8007C63.9576 72.0254 64.2011 72.1754 64.4754 72.2069C64.7497 72.2383 65.024 72.1477 65.2182 71.9615L70.7647 66.5884C70.9881 66.3707 71.0719 66.0567 70.9846 65.7646C70.8973 65.4725 70.6522 65.2468 70.3415 65.1723C70.0309 65.0979 69.7019 65.1861 69.4785 65.4038L64.7448 69.9984L63.2264 67.6122C63.0879 67.3956 62.8542 67.2491 62.5896 67.2131C62.325 67.177 62.0572 67.2552 61.8599 67.4261L55.9293 72.5538C55.5651 72.8673 55.5371 73.4007 55.8667 73.7469C56.0372 73.921 56.277 74.0192 56.5277 74.0176Z" fill="#577EE8"/>
<path fill-rule="evenodd" clip-rule="evenodd" d="M44.0237 90.9069H40.8976V78.5615C40.8976 78.0942 40.4977 77.7154 40.0044 77.7154H35.1814C34.6881 77.7154 34.2882 78.0942 34.2882 78.5615V90.9069H31.7963V69.5838C31.7963 69.1165 31.3964 68.7377 30.9031 68.7377H26.08C25.5868 68.7377 25.1869 69.1165 25.1869 69.5838V90.9069H22.2037C21.7104 90.9069 21.3105 91.2857 21.3105 91.7531C21.3105 92.2204 21.7104 92.5992 22.2037 92.5992H44.0237C44.5169 92.5992 44.9168 92.2204 44.9168 91.7531C44.9168 91.2857 44.5169 90.9069 44.0237 90.9069ZM36.0477 79.3992H39.1113V90.3992H36.0745L36.0477 79.3992ZM30.0189 70.43H26.9821V90.4077H30.0189V70.43Z" fill="#577EE8"/>
</svg>
