<?xml version="1.0" encoding="UTF-8"?>
<svg width="104px" height="104px" viewBox="0 0 104 104" version="1.1" xmlns="http://www.w3.org/2000/svg" xmlns:xlink="http://www.w3.org/1999/xlink">
    <!-- Generator: sketchtool 60.1 (101010) - https://sketch.com -->
    <title>D254281A-A131-4791-BE07-726623B494D0</title>
    <desc>Created with sketchtool.</desc>
    <g id="-⚙-Design-Guideline" stroke="none" stroke-width="1" fill="none" fill-rule="evenodd">
        <g id="-⚙-Iconos" transform="translate(-334.000000, -1190.000000)" fill="#577EE8" fill-rule="nonzero">
            <g id="ico-rule" transform="translate(334.000000, 1190.000000)">
                <g transform="translate(22.000000, 23.000000)">
                    <path d="M52.4894333,1.2543554 L52.107851,1.2543554 L51.9170599,1.2543554 L15.7988289,1.2543554 C11.702777,1.26175938 8.36726363,4.5342855 8.29926941,8.61229451 C8.29926941,8.61229451 8.29926941,8.64882847 8.29926941,8.67074884 L8.29926941,42.0189456 L7.08847947,42.0189456 C6.97982735,42.0191853 6.87153796,42.0314383 6.76560215,42.0554795 C2.9256021,42.4349097 0,45.6514078 0,49.4937933 C0,53.3361789 2.9256021,56.552677 6.76560215,56.9321072 C6.87153796,56.9561483 6.97982735,56.9686411 7.08847947,56.9686411 L40.4035482,56.9686411 C44.5461525,56.9646345 47.9056612,53.6260023 47.917784,49.5011001 L47.917784,16.2113577 L52.4894333,16.2113577 C56.6374047,16.2113577 60,12.8631187 60,8.73285657 C60,4.60259442 56.6374047,1.2543554 52.4894333,1.2543554 Z M2.94244117,49.4791798 C2.9464815,46.9667754 4.99091374,44.9310717 7.51409048,44.9270486 L34.4670084,44.9270486 C32.3750262,47.6070742 32.3750262,51.3585921 34.4670084,54.0386177 L7.5214286,54.0386177 C5.00109593,54.0386177 2.95455816,52.0106435 2.94244117,49.5011001 L2.94244117,49.4791798 Z M44.9751975,49.4791798 C44.9751975,51.9932524 42.9284004,54.0313109 40.4035482,54.0313109 C37.878696,54.0313109 35.8318989,51.9932524 35.8318989,49.4791798 C35.8318989,46.9651071 37.878696,44.9270486 40.4035482,44.9270486 C41.2140947,44.9270486 41.8711724,44.2727762 41.8711724,43.4656903 C41.8711724,42.6586044 41.2140947,42.004332 40.4035482,42.004332 L11.2271796,42.004332 L11.2271796,8.72920318 C11.23122,6.21679886 13.2756522,4.1810951 15.7988289,4.17707203 L46.5455554,4.17707203 C45.5563274,5.44814144 45.0078732,7.00443413 44.9825356,8.61229451 C44.9825356,8.61229451 44.9825356,8.64882847 44.9825356,8.67074884 L44.9751975,49.4791798 Z M52.4894333,13.2886411 L47.917784,13.2886411 L47.917784,8.72920318 C47.917784,6.21513056 49.9645811,4.17707203 52.4894333,4.17707203 C55.0142855,4.17707203 57.0610826,6.21513056 57.0610826,8.72920318 C57.0610826,11.2432758 55.0142855,13.2813343 52.4894333,13.2813343 L52.4894333,13.2886411 Z" id="Shape"></path>
                    <rect id="Rectangle" x="15.7142857" y="31.2543554" width="4.28571429" height="2.85714286"></rect>
                    <rect id="Rectangle" x="25.7142857" y="31.2543554" width="14.2857143" height="2.85714286"></rect>
                    <rect id="Rectangle" x="15.7142857" y="22.6829268" width="4.28571429" height="2.85714286"></rect>
                    <rect id="Rectangle" x="25.7142857" y="22.6829268" width="14.2857143" height="2.85714286"></rect>
                    <rect id="Rectangle" x="15.7142857" y="14.1114983" width="4.28571429" height="2.85714286"></rect>
                    <rect id="Rectangle" x="25.7142857" y="14.1114983" width="14.2857143" height="2.85714286"></rect>
                </g>
            </g>
        </g>
    </g>
</svg>