<?xml version="1.0" encoding="UTF-8"?>
<svg width="104px" height="104px" viewBox="0 0 104 104" version="1.1" xmlns="http://www.w3.org/2000/svg" xmlns:xlink="http://www.w3.org/1999/xlink">
    <!-- Generator: sketchtool 60.1 (101010) - https://sketch.com -->
    <title>89375743-7904-4B44-9F60-7489C149272F</title>
    <desc>Created with sketchtool.</desc>
    <g id="-⚙-Design-Guideline" stroke="none" stroke-width="1" fill="none" fill-rule="evenodd">
        <g id="-⚙-Iconos" transform="translate(-1128.000000, -1189.000000)">
            <g id="ico-ApiExterna" transform="translate(1128.000000, 1189.000000)">
                <g transform="translate(24.000000, 31.000000)">
                    <g id="ico-external-link" fill-rule="nonzero">
                        <path d="M52.0298901,0 L3.35472527,0 C1.50646154,0 0,1.47115385 0,3.2760989 L0,37.8667582 C0,39.6717033 1.50646154,41.1428571 3.35472527,41.1428571 L52.0298901,41.1428571 C53.8781538,41.1428571 55.3846154,39.6717033 55.3846154,37.8667582 L55.3846154,3.2760989 C55.3846154,1.47115385 53.8781538,0 52.0298901,0 Z" id="Shape" stroke="#577EE8" stroke-width="2"></path>
                        <path d="M7.08407871,9 C8.15285654,9 9.01610018,8.13829787 9.01610018,7.07142857 C9.01610018,6.00455927 8.15285654,5.14285714 7.08407871,5.14285714 C6.01530088,5.14285714 5.15205725,6.00455927 5.15205725,7.07142857 C5.15205725,8.13829787 6.01530088,9 7.08407871,9 Z" id="Path" fill="#577EE8"></path>
                        <ellipse id="Oval" fill="#577EE8" cx="12.236136" cy="7.07142857" rx="1.93202147" ry="1.92857143"></ellipse>
                        <ellipse id="Oval" fill="#577EE8" cx="17.3881932" cy="7.07142857" rx="1.93202147" ry="1.92857143"></ellipse>
                    </g>
                    <g id="external" transform="translate(38.769231, 6.329670)" stroke="#577EE8">
                        <rect id="Rectangle" fill="#F9FAFC" x="1.29091961" y="1.29091961" width="21.9456333" height="21.9456333" rx="2"></rect>
                        <path d="M19.3637941,13.3364232 C19.3637941,12.513683 19.3637941,11.6909427 19.3637941,10.8682025 C19.3637941,9.55642087 19.3637941,8.24463924 19.3637941,6.9328576 C19.3637941,6.63080262 19.3637941,6.32874764 19.3637941,6.02669266 C19.3637941,5.56066497 18.9696843,5.16367843 18.5007799,5.16367843 C17.6780396,5.16367843 16.8552994,5.16367843 16.0325592,5.16367843 C14.7207775,5.16367843 13.4089959,5.16367843 12.0972143,5.16367843 C11.7951593,5.16367843 11.4931043,5.16367843 11.1910493,5.16367843 C10.7394052,5.16367843 10.3078981,5.56066497 10.3280351,6.02669266 C10.3481721,6.49559706 10.7077613,6.88970689 11.1910493,6.88970689 C12.0137896,6.88970689 12.8365298,6.88970689 13.65927,6.88970689 C14.9710517,6.88970689 16.2828333,6.88970689 17.5946149,6.88970689 C17.8966699,6.88970689 18.1987249,6.88970689 18.5007799,6.88970689 C18.2131085,6.60203548 17.925437,6.31436407 17.6377656,6.02669266 C17.6377656,6.84943289 17.6377656,7.67217313 17.6377656,8.49491337 C17.6377656,9.806695 17.6377656,11.1184766 17.6377656,12.4302583 C17.6377656,12.7323132 17.6377656,13.0343682 17.6377656,13.3364232 C17.6377656,13.7880673 18.0347522,14.2195744 18.5007799,14.1994374 C18.9696843,14.1793004 19.3637941,13.8225879 19.3637941,13.3364232 L19.3637941,13.3364232 Z" id="Path" stroke-width="0.5" fill="#577EE8" fill-rule="nonzero"></path>
                        <path d="M6.446855,19.1495867 C6.82405569,18.7722768 7.20377105,18.3924515 7.58097174,18.0151416 C8.48876807,17.1070825 9.3965644,16.1990234 10.3068754,15.2884489 C11.4057867,14.1892195 12.5046981,13.08999 13.6036094,11.9907606 C14.5541552,11.0399397 15.5021862,10.0916342 16.452732,9.14081329 C16.9129168,8.68049524 17.3831603,8.22520799 17.8358012,7.75734374 C17.8433452,7.74979754 17.8483745,7.74476674 17.8559185,7.73722054 C18.135047,7.45801123 18.1551644,6.9448698 17.8559185,6.67069129 C17.554158,6.39399738 17.0864291,6.37135878 16.7896979,6.67069129 C16.4124972,7.04800116 16.0327819,7.42782644 15.6555812,7.80513632 C14.7477849,8.71319543 13.8399885,9.62125454 12.9296775,10.531829 C11.8307662,11.6310585 10.7318548,12.7302879 9.6329435,13.8295174 C8.68239776,14.7803383 7.73436669,15.7286438 6.78382095,16.6794647 C6.32363611,17.1397827 5.85339258,17.59507 5.40075175,18.0629342 C5.39320774,18.0704804 5.3881784,18.0755112 5.38063438,18.0830574 C5.10150587,18.3622667 5.0813885,18.8754082 5.38063438,19.1495867 C5.67988026,19.4237652 6.14760912,19.4464038 6.446855,19.1495867 L6.446855,19.1495867 Z" id="Path" stroke-width="0.5" fill="#577EE8" fill-rule="nonzero"></path>
                        <path d="M21.1967957,22.9490237 C21.0344684,22.9490237 20.8721412,22.9490237 20.7098139,22.9490237 C20.2699595,22.9490237 19.8327232,22.9490237 19.3928688,22.9490237 C18.7409416,22.9490237 18.0916327,22.9490237 17.4397055,22.9490237 C16.6463966,22.9490237 15.8530877,22.9490237 15.0597787,22.9490237 C14.1957789,22.9490237 13.3343973,22.9490237 12.4703974,22.9490237 C11.5985431,22.9490237 10.7266887,22.9490237 9.85221616,22.9490237 C9.04319815,22.9490237 8.23418013,22.9490237 7.42516212,22.9490237 C6.74967134,22.9490237 6.07679876,22.9490237 5.40130798,22.9490237 C4.92218081,22.9490237 4.44567182,22.9490237 3.96654464,22.9490237 C3.75709014,22.9490237 3.54763564,22.9490237 3.33818113,22.9490237 C3.22559934,22.9490237 3.11301754,22.9411707 3.00043575,22.9280824 C3.07112664,22.938553 3.13919936,22.946406 3.20989025,22.9568766 C2.98734484,22.9254647 2.77265398,22.8678762 2.56581766,22.7841111 C2.62865401,22.8102877 2.69149036,22.8364643 2.75432671,22.8626409 C2.60509038,22.799817 2.46370859,22.7239049 2.32756316,22.6349045 C2.31185407,22.6244338 2.21498136,22.5720806 2.21498136,22.5563747 C2.21498136,22.5746983 2.39039951,22.6977283 2.26472681,22.5956396 C2.20189046,22.5432864 2.14429047,22.4909332 2.08669048,22.4333447 C2.02909049,22.3757562 1.97672687,22.3181676 1.92436324,22.2553438 C1.88247234,22.2056083 1.83010872,22.1035195 1.96363596,22.3050793 C1.93745415,22.2658144 1.90865415,22.2317849 1.88509052,22.19252 C1.79607236,22.0590193 1.7201451,21.915048 1.65730875,21.7658414 C1.68349056,21.8286653 1.70967238,21.8914891 1.73585419,21.9543129 C1.65207239,21.7475178 1.5944724,21.5328697 1.56305423,21.3103686 C1.57352695,21.3810454 1.58138149,21.4491046 1.59185422,21.5197814 C1.56305423,21.276339 1.57090877,21.0276613 1.57090877,20.7816013 C1.57090877,20.3549228 1.57090877,19.9308619 1.57090877,19.5041833 C1.57090877,18.8628567 1.57090877,18.2189124 1.57090877,17.5775857 C1.57090877,16.7818171 1.57090877,15.9886662 1.57090877,15.1928976 C1.57090877,14.3238345 1.57090877,13.4547715 1.57090877,12.5857084 C1.57090877,11.7035571 1.57090877,10.8214057 1.57090877,9.93925434 C1.57090877,9.12254448 1.57090877,8.30583461 1.57090877,7.49174241 C1.57090877,6.80591554 1.57090877,6.12008866 1.57090877,5.43687945 C1.57090877,4.94999472 1.57090877,4.46311 1.57090877,3.97884293 C1.57090877,3.76681248 1.57090877,3.55216438 1.57090877,3.34013393 C1.57090877,3.22757456 1.57876331,3.11501519 1.59185422,3.00245582 C1.58138149,3.07313263 1.57352695,3.14119179 1.56305423,3.2118686 C1.5944724,2.98936752 1.65207239,2.77471941 1.73585419,2.56792428 C1.70967238,2.63074812 1.68349056,2.69357196 1.65730875,2.75639579 C1.7201451,2.60718918 1.79607236,2.46583555 1.88509052,2.32971724 C1.89556325,2.31401128 1.94792687,2.21715787 1.96363596,2.21715787 C1.94530869,2.21715787 1.82225417,2.39254108 1.92436324,2.26689341 C1.97672687,2.20406957 2.02909049,2.14648105 2.08669048,2.08889254 C2.14429047,2.03130402 2.20189046,1.97895083 2.26472681,1.92659763 C2.31447225,1.88471507 2.41658132,1.83236188 2.21498136,1.96586253 C2.25425408,1.93968593 2.28829044,1.91089167 2.32756316,1.88733273 C2.46109041,1.7983323 2.60509038,1.72242016 2.75432671,1.65959633 C2.69149036,1.68577293 2.62865401,1.71194952 2.56581766,1.73812612 C2.77265398,1.65436101 2.98734484,1.59677249 3.20989025,1.56536057 C3.13919936,1.57583121 3.07112664,1.58368419 3.00043575,1.59415483 C3.24392661,1.56536057 3.49265383,1.57321355 3.73876287,1.57321355 C4.16552642,1.57321355 4.58967179,1.57321355 5.01643534,1.57321355 C5.65788975,1.57321355 6.30196235,1.57321355 6.94341676,1.57321355 C7.73934387,1.57321355 8.5326528,1.57321355 9.32857991,1.57321355 C10.1978161,1.57321355 11.0670523,1.57321355 11.9362885,1.57321355 C12.8186156,1.57321355 13.7009426,1.57321355 14.5832697,1.57321355 C15.4001423,1.57321355 16.2170149,1.57321355 17.0312692,1.57321355 C17.7172327,1.57321355 18.4031962,1.57321355 19.0865415,1.57321355 C19.5735233,1.57321355 20.060505,1.57321355 20.5448685,1.57321355 C20.7569412,1.57321355 20.9716321,1.57321355 21.1837048,1.57321355 C21.2962865,1.57321355 21.4088683,1.58106653 21.5214501,1.59415483 C21.4507592,1.58368419 21.3826865,1.57583121 21.3119956,1.56536057 C21.534541,1.59677249 21.7492319,1.65436101 21.9560682,1.73812612 C21.8932319,1.71194952 21.8303955,1.68577293 21.7675592,1.65959633 C21.9167955,1.72242016 22.0581773,1.7983323 22.1943227,1.88733273 C22.2100318,1.89780337 22.3069045,1.95015657 22.3069045,1.96586253 C22.3069045,1.94753891 22.1314864,1.8245089 22.2571591,1.92659763 C22.3199954,1.97895083 22.3775954,2.03130402 22.4351954,2.08889254 C22.4927954,2.14648105 22.545159,2.20406957 22.5975226,2.26689341 C22.6394135,2.31662894 22.6917772,2.41871768 22.5582499,2.21715787 C22.5844317,2.25642277 22.6132317,2.29045234 22.6367954,2.32971724 C22.7258135,2.46321789 22.8017408,2.60718918 22.8645771,2.75639579 C22.8383953,2.69357196 22.8122135,2.63074812 22.7860317,2.56792428 C22.8698135,2.77471941 22.9274135,2.98936752 22.9588317,3.2118686 C22.9483589,3.14119179 22.9405044,3.07313263 22.9300317,3.00245582 C22.9588317,3.24589818 22.9509771,3.49457586 22.9509771,3.74063588 C22.9509771,4.16731444 22.9509771,4.59137533 22.9509771,5.01805388 C22.9509771,5.65938053 22.9509771,6.30332485 22.9509771,6.94465151 C22.9509771,7.74042009 22.9509771,8.53357102 22.9509771,9.3293396 C22.9509771,10.1984027 22.9509771,11.0674657 22.9509771,11.9365288 C22.9509771,12.8186801 22.9509771,13.7008315 22.9509771,14.5829829 C22.9509771,15.3996927 22.9509771,16.2164026 22.9509771,17.0304948 C22.9509771,17.7163217 22.9509771,18.4021485 22.9509771,19.0853578 C22.9509771,19.5722425 22.9509771,20.0591272 22.9509771,20.5433943 C22.9509771,20.7554247 22.9509771,20.9700728 22.9509771,21.1821033 C22.9509771,21.2946626 22.9431226,21.407222 22.9300317,21.5197814 C22.9405044,21.4491046 22.9483589,21.3810454 22.9588317,21.3103686 C22.9274135,21.5328697 22.8698135,21.7475178 22.7860317,21.9543129 C22.8122135,21.8914891 22.8383953,21.8286653 22.8645771,21.7658414 C22.8017408,21.915048 22.7258135,22.0564017 22.6367954,22.19252 C22.6263226,22.2082259 22.573959,22.3050793 22.5582499,22.3050793 C22.5765772,22.3050793 22.6996317,22.1296961 22.5975226,22.2553438 C22.545159,22.3181676 22.4927954,22.3757562 22.4351954,22.4333447 C22.3775954,22.4909332 22.3199954,22.5432864 22.2571591,22.5956396 C22.2074136,22.6375221 22.1053046,22.6898753 22.3069045,22.5563747 C22.2676318,22.5825513 22.2335954,22.6113455 22.1943227,22.6349045 C22.0607955,22.7239049 21.9167955,22.799817 21.7675592,22.8626409 C21.8303955,22.8364643 21.8932319,22.8102877 21.9560682,22.7841111 C21.7492319,22.8678762 21.534541,22.9254647 21.3119956,22.9568766 C21.3826865,22.946406 21.4507592,22.938553 21.5214501,22.9280824 C21.4141047,22.9411707 21.3041411,22.946406 21.1967957,22.9490237 C20.7857412,22.9516413 20.393014,23.3076431 20.4113413,23.7343216 C20.4296685,24.1583825 20.7569412,24.5222372 21.1967957,24.5196195 C22.0346137,24.5143842 22.8253044,24.1950297 23.4484316,23.6374682 C24.0689405,23.0799066 24.4171586,22.3024617 24.508795,21.4831342 C24.537595,21.2187505 24.5245041,20.9465139 24.5245041,20.6821302 C24.5245041,20.1743042 24.5245041,19.6690959 24.5245041,19.1612699 C24.5245041,18.4047662 24.5245041,17.6482625 24.5245041,16.8917588 C24.5245041,15.9860485 24.5245041,15.0777206 24.5245041,14.1720103 C24.5245041,13.2008585 24.5245041,12.227089 24.5245041,11.2559372 C24.5245041,10.318815 24.5245041,9.38431046 24.5245041,8.44718824 C24.5245041,7.6357137 24.5245041,6.82423915 24.5245041,6.01276461 C24.5245041,5.41593817 24.5245041,4.81911173 24.5245041,4.21966763 C24.5245041,3.93434271 24.5245041,3.64901779 24.5245041,3.36369287 C24.5218859,2.13077509 23.8385406,0.931886896 22.7231953,0.374325354 C22.2388318,0.133500651 21.7204319,0.00261765982 21.1758502,0 C21.0894502,0 21.0004321,0 20.9140321,0 C20.479414,0 20.0474141,0 19.612796,0 C18.905887,0 18.2015963,0 17.4946873,0 C16.6149784,0 15.7378877,0 14.8581788,0 C13.8920699,0 12.925961,0 11.9598521,0 C11.0068341,0 10.0564343,0 9.10341632,0 C8.24988922,0 7.39636212,0 6.54283502,0 C5.8882897,0 5.2311262,0 4.57658088,0 C4.20741732,0 3.83825376,0 3.47170838,0 C3.3983993,0 3.32770841,0 3.25439933,0 C2.42181769,0.0235589384 1.62850876,0.356001736 1.02632706,0.926651577 C0.424145368,1.49730142 0.0890181636,2.26951107 0.0104727251,3.08883859 C0,3.20925094 0,3.32704563 0,3.44745798 C0,3.80345972 0,4.1568438 0,4.51284553 C0,5.16202517 0,5.8112048 0,6.46038444 C0,7.30588856 0,8.14877502 0,8.99427915 C0,9.94972498 0,10.9025532 0,11.857999 C0,12.8212978 0,13.7845966 0,14.7478954 C0,15.6352821 0,16.5226688 0,17.4100555 C0,18.1220589 0,18.8314448 0,19.5434482 C0,19.9910681 0,20.4360702 0,20.8836901 C0,20.9779258 0,21.0747792 0,21.169015 C0,21.6716057 0.112581795,22.1427844 0.314181754,22.6008749 C0.835199829,23.7814395 2.07883594,24.5248549 3.35127204,24.5274725 C3.62356289,24.5274725 3.89585375,24.5274725 4.17076278,24.5274725 C4.75461721,24.5274725 5.34108982,24.5274725 5.92494424,24.5274725 C6.73396226,24.5274725 7.54298027,24.5274725 8.35199829,24.5274725 C9.28407083,24.5274725 10.2187615,24.5274725 11.1508341,24.5274725 C12.1195612,24.5274725 13.0882882,24.5274725 14.0570153,24.5274725 C14.9733788,24.5274725 15.887124,24.5274725 16.8034875,24.5274725 C17.5653782,24.5274725 18.3246508,24.5274725 19.0865415,24.5274725 C19.6049414,24.5274725 20.1233413,24.5274725 20.6443594,24.5274725 C20.8302503,24.5274725 21.013523,24.5274725 21.1994138,24.5274725 C21.6104683,24.5274725 22.0031955,24.1662355 21.9848682,23.7421746 C21.9639228,23.3076431 21.6366501,22.9490237 21.1967957,22.9490237 Z" id="Path" fill="#577EE8" fill-rule="nonzero"></path>
                    </g>
                </g>
            </g>
        </g>
    </g>
</svg>