<?xml version="1.0" encoding="UTF-8"?>
<svg width="60px" height="61px" viewBox="0 0 60 61" version="1.1" xmlns="http://www.w3.org/2000/svg" xmlns:xlink="http://www.w3.org/1999/xlink">
    <title>D3048745-29BD-414D-BB28-4A80158FCC08</title>
    <g id="Widget-enlazado" stroke="none" stroke-width="1" fill="none" fill-rule="evenodd">
        <g id="Linked14" transform="translate(-435.000000, -548.000000)">
            <g id="Group-22" transform="translate(405.000000, 533.000000)">
                <g id="ico-average" transform="translate(30.000000, 16.000000)">
                    <g id="Group-6-Copy" transform="translate(13.000000, 13.000000)">
                        <g id="Group-7" transform="translate(0.000000, 0.000000)">
                            <polyline id="Path-21" stroke-width="1.5" stroke-linecap="round" stroke-linejoin="round" points="9.13047415e-13 0 9.13047415e-13 30.6593407 35.8913178 30.6593407"></polyline>
                            <path d="M3.07813099,26.7902784 C3.18321849,26.7902784 3.69659577,26.7902784 4.61826284,26.7902784 C10.1194941,26.7902784 12.1194941,10.7902784 18.5619409,10.7902784 C25.0043876,10.7902784 27.0043876,26.7902784 32.4028732,26.7902784 C33.2837962,26.7902784 34.078131,26.7902784 34.078131,26.7902784" id="Path-22" stroke-width="1.5" stroke-linecap="round" stroke-linejoin="round"></path>
                            <rect id="Rectangle-Copy-7" x="2.5" y="18" width="1.5" height="1.5"></rect>
                            <rect id="Rectangle-Copy-14" x="4.5" y="18" width="1.5" height="1.5"></rect>
                            <rect id="Rectangle-Copy-15" x="6.5" y="18" width="1.5" height="1.5"></rect>
                            <rect id="Rectangle-Copy-16" x="8.5" y="18" width="1.5" height="1.5"></rect>
                            <rect id="Rectangle-Copy-17" x="10.5" y="18" width="1.5" height="1.5"></rect>
                            <rect id="Rectangle-Copy-18" x="12.5" y="18" width="1.5" height="1.5"></rect>
                            <rect id="Rectangle-Copy-19" x="14.5" y="18" width="1.5" height="1.5"></rect>
                            <rect id="Rectangle-Copy-20" x="16.5" y="18" width="1.5" height="1.5"></rect>
                            <rect id="Rectangle-Copy-21" x="18.5" y="18" width="1.5" height="1.5"></rect>
                            <rect id="Rectangle-Copy-22" x="20.5" y="18" width="1.5" height="1.5"></rect>
                            <rect id="Rectangle-Copy-23" x="22.5" y="18" width="1.5" height="1.5"></rect>
                            <rect id="Rectangle-Copy-24" x="24.5" y="18" width="1.5" height="1.5"></rect>
                            <rect id="Rectangle-Copy-25" x="26.5" y="18" width="1.5" height="1.5"></rect>
                            <rect id="Rectangle-Copy-26" x="28.5" y="18" width="1.5" height="1.5"></rect>
                            <rect id="Rectangle-Copy-27" x="30.5" y="18" width="1.5" height="1.5"></rect>
                            <rect id="Rectangle-Copy-28" x="32.5" y="18" width="1.5" height="1.5"></rect>
                        </g>
                    </g>
                </g>
            </g>
        </g>
    </g>
</svg>