<?xml version="1.0" encoding="UTF-8"?>
<svg width="30px" height="30px" viewBox="0 0 30 30" version="1.1" xmlns="http://www.w3.org/2000/svg" xmlns:xlink="http://www.w3.org/1999/xlink">
    <title>B33FE865-990B-4FDE-AB83-901F77BECEAE@3x</title>
    <g id="Page-1" stroke="none" stroke-width="1" fill="none" fill-rule="evenodd">
        <g id="Desktop-HD-Copy-10" transform="translate(-1336.000000, -1139.000000)">
            <g id="Group-2" transform="translate(1212.000000, 1134.000000)">
                <g id="ICO-execute" transform="translate(124.000000, 5.000000)">
                    <rect id="Rectangle" x="0" y="0" width="30" height="30"></rect>
                    <rect id="Rectangle" x="0" y="0" width="30" height="30"></rect>
                    <path d="M13.284823,5.03109258 L13.3794,5.06976147 L21.2156497,9.01415606 C21.4085758,9.11126588 21.5392024,9.2962599 21.5688446,9.50635685 L21.5752529,9.59775228 L21.5760597,15.1567476 C23.7208174,15.8081534 25.281727,17.8011908 25.281727,20.1587982 C25.281727,23.045514 22.9415814,25.3856596 20.0548655,25.3856596 C17.8488069,25.3856596 15.961955,24.0189731 15.1948049,22.0860952 L13.3705314,22.9287917 L13.3215164,22.9501267 L13.3215164,22.9501267 L13.288,22.961 L13.3596426,22.9337437 L13.28,22.963 L13.2147773,22.9810903 L13.2147773,22.9810903 L13.1803156,22.9871743 L13.1803156,22.9871743 C13.1585676,22.9902812 13.1362357,22.9923971 13.11387,22.9933634 L13.0857169,22.9939726 L13.0032571,22.9887595 C13.0270263,22.9917795 13.0509282,22.9934881 13.0748517,22.9938834 L13.0857169,22.9939726 C13.0522843,22.9939726 13.0194382,22.9914615 12.9873569,22.9866176 C12.9683482,22.9836446 12.949587,22.9799412 12.9309814,22.9754086 C12.916129,22.9719312 12.9015815,22.9678478 12.8872486,22.9632834 L12.8834382,22.9619007 L12.862705,22.9549229 C12.8404966,22.9468589 12.8188496,22.9376248 12.7978383,22.9272952 L12.7922031,22.9243681 L5.35991525,19.1882883 C5.16683889,19.0912322 5.03608605,18.906174 5.00641465,18.6959759 L5,18.6045351 L4.99989781,9.36303954 C5.00010232,9.34417336 5.00112793,9.32525967 5.0029918,9.30635087 L5,9.37061561 C5,9.29844403 5.01189173,9.22807868 5.03422945,9.16185917 L5.03577215,9.15715316 L5.07051462,9.07536956 L5.07538979,9.0659317 C5.11216137,8.99619441 5.16143967,8.93329453 5.22111556,8.88064516 C5.26620424,8.84074959 5.3159187,8.80796777 5.36889201,8.7823976 L12.793385,5.06901185 C12.9471372,4.99211271 13.1236281,4.97948917 13.284823,5.03109258 Z M20.0548655,16.2386521 C17.8898286,16.2386521 16.1347195,17.9937613 16.1347195,20.1587982 C16.1347195,22.3238351 17.8898286,24.0789443 20.0548655,24.0789443 C22.2199024,24.0789443 23.9750116,22.3238351 23.9750116,20.1587982 C23.9750116,17.9937613 22.2199024,16.2386521 20.0548655,16.2386521 Z M19.6285124,18.0001647 C19.842417,18.0001647 20.0506851,18.0687542 20.2227296,18.19586 L21.7910019,19.3544935 C22.2352071,19.6826706 22.3292664,20.3088101 22.0010894,20.7530153 C21.941912,20.833115 21.8711015,20.9039255 21.7910019,20.9631028 L20.2227296,22.1217363 C19.7785244,22.4499134 19.1523848,22.355854 18.8242077,21.9116488 C18.697102,21.7396044 18.6285124,21.5313363 18.6285124,21.3174317 L18.6285124,19.0001647 C18.6285124,18.4478799 19.0762276,18.0001647 19.6285124,18.0001647 Z M20.2679033,10.381 L13.7389033,13.544 L13.7389033,21.319 L14.8667374,20.7983292 C14.8411674,20.5887311 14.8280041,20.3753019 14.8280041,20.1587982 C14.8280041,17.2720823 17.1681497,14.9319367 20.0548655,14.9319367 L20.268,14.936 L20.2679033,10.381 Z M6.30490327,10.433 L6.30584422,18.2013098 L12.4319033,21.281 L12.4317258,13.537207 L6.30490327,10.433 Z M13.0842124,6.383376 L7.10490327,9.373 L13.0919033,12.406 L19.1829033,9.454 L13.0842124,6.383376 Z" id="Combined-Shape" fill="#577EE8"></path>
                </g>
            </g>
        </g>
    </g>
</svg>