<?xml version="1.0" encoding="UTF-8"?>
<svg width="30px" height="30px" viewBox="0 0 30 30" version="1.1" xmlns="http://www.w3.org/2000/svg" xmlns:xlink="http://www.w3.org/1999/xlink">
    <!-- Generator: sketchtool 64 (101010) - https://sketch.com -->
    <title>90B39231-CCF2-4109-9130-2A0C05D6FE9C</title>
    <desc>Created with sketchtool.</desc>
    <g id="-⚙-Reports-v3---Search-Devices" stroke="none" stroke-width="1" fill="none" fill-rule="evenodd">
        <g id="Report---Editor-v2" transform="translate(-1166.000000, -90.000000)">
            <g id="Report/Header-editor" transform="translate(212.000000, 72.000000)">
                <g id="ICO-Preferences" transform="translate(954.000000, 18.000000)">
                    <g id="preferences" transform="translate(7.000000, 7.000000)" stroke="#577EE8" stroke-linecap="round" stroke-linejoin="round" stroke-width="1.5">
                        <path d="M13.641931,8 C13.641931,7.65241379 13.606069,7.3142069 13.5481379,6.98317241 L15.4571034,5.38537931 L13.8571034,2.61406897 L11.5227586,3.46703448 C11.0035862,3.03172414 10.4066207,2.68910345 9.7577931,2.45186207 L9.32910345,0 L6.12855172,0 L5.69931034,2.45186207 C5.05103448,2.68910345 4.45406897,3.03172414 3.93434483,3.46703448 L1.60055172,2.61406897 L-1.95399252e-14,5.38537931 L1.90896552,6.98317241 C1.85158621,7.3142069 1.81517241,7.65241379 1.81517241,8 C1.81517241,8.34758621 1.85158621,8.6857931 1.90896552,9.01682759 L-1.95399252e-14,10.614069 L1.60055172,13.385931 L3.93434483,12.5329655 C4.45406897,12.9682759 5.05103448,13.3108966 5.69931034,13.5481379 L6.12855172,16 L9.32910345,16 L9.7577931,13.5481379 C10.4066207,13.3108966 11.0035862,12.9682759 11.5227586,12.5329655 L13.8571034,13.385931 L15.4571034,10.614069 L13.5481379,9.01682759 C13.606069,8.6857931 13.641931,8.34758621 13.641931,8 Z" id="Stroke-1617"></path>
                        <path d="M10.8689655,7.83448276 C10.8689655,9.51062069 9.51006897,10.8689655 7.83448276,10.8689655 C6.15834483,10.8689655 4.8,9.51062069 4.8,7.83448276 C4.8,6.15834483 6.15834483,4.8 7.83448276,4.8 C9.51006897,4.8 10.8689655,6.15834483 10.8689655,7.83448276 Z" id="Stroke-1619"></path>
                    </g>
                </g>
            </g>
        </g>
    </g>
</svg>
