<?xml version="1.0" encoding="UTF-8"?>
<svg width="80px" height="80px" viewBox="0 0 80 80" version="1.1" xmlns="http://www.w3.org/2000/svg" xmlns:xlink="http://www.w3.org/1999/xlink">
    <title>Widget lines</title>
    <g id="Widget-lines" stroke="none" stroke-width="1" fill="none" fill-rule="evenodd">
        <g id="Pie2" transform="translate(-418.000000, -373.000000)" fill="#6C7A88" fill-rule="nonzero">
            <g id="Group-13" transform="translate(418.000000, 373.000000)">
                <path d="M63.1246417,29.2888898 C61.6258133,26.9775778 58.5153894,26.3050222 56.1773155,27.7866949 C53.8392417,29.2683675 53.1588988,32.3431891 54.6577272,34.6545011 L48.7487122,40.7073335 C46.9365992,39.6165693 44.6097801,39.8621151 43.0714232,41.3064494 L37.1445831,37.3681436 C37.226411,37.1439773 37.2919364,36.9143192 37.340659,36.6809224 C37.7559862,34.5015451 36.6654943,32.3128938 34.6646019,31.3099921 C32.6637095,30.3070904 30.2332575,30.7309489 28.700295,32.350137 C27.1673324,33.9693251 26.9002504,36.3947304 28.0448782,38.3020595 L23.3747065,43.0597444 C21.6144822,42.1535673 19.4803325,42.3518775 17.9217627,43.5664446 C16.3631928,44.7810118 15.6698461,46.7861217 16.1501997,48.6896804 C16.6305532,50.593239 18.1953385,52.0414906 20.1483664,52.390093 C20.4425195,52.442344 20.7407569,52.4688781 21.0396206,52.4693878 C23.4781379,52.4647189 25.564164,50.7363708 25.9949937,48.3636819 L25.9949937,48.3636819 C26.2218598,47.1465466 25.9802628,45.8895379 25.3176405,44.8394709 L29.9521621,40.1170282 C30.4290703,40.383534 30.9469083,40.5710362 31.4851193,40.6720914 C31.7792723,40.7243424 32.0775097,40.7508765 32.3763734,40.7513861 C33.401744,40.7555524 34.4036183,40.4479727 35.2462118,39.8703334 C35.3824403,39.768319 35.5133269,39.6595151 35.6383636,39.5443439 L41.5652037,43.4738391 C40.9634117,45.244122 41.4145896,47.1984548 42.7337102,48.5353689 C44.0528308,49.8722829 46.017942,50.3668322 47.8231549,49.816203 C49.6283678,49.2655738 50.9699416,47.7624135 51.2976991,45.9231658 C51.5060202,44.7501368 51.2780979,43.5422066 50.6559961,42.5223022 L56.5650111,36.4782803 C57.0368917,36.7400733 57.5485668,36.9245483 58.0801432,37.024533 C58.3742962,37.076784 58.6725336,37.1033181 58.9713973,37.1038277 C60.8464213,37.0979818 62.5634556,36.0645423 63.4295673,34.4205679 C64.2956791,32.7765934 64.1679412,30.7933754 63.097904,29.2712688 L63.1246417,29.2888898 Z M23.3747065,47.896724 C23.1530248,49.1174718 22.0076098,49.9561193 20.7617392,49.8098808 C19.5158685,49.6636424 18.6009652,48.5831578 18.6746244,47.3450352 C18.7482836,46.1069127 19.7849984,45.1398923 21.0396206,45.1390288 C21.1819426,45.1265662 21.3251006,45.1265662 21.4674226,45.1390288 C22.7534547,45.3670546 23.6104398,46.5806834 23.383619,47.8526713 L23.3747065,47.896724 Z M33.7310797,37.7205647 C32.8933011,38.2996125 31.7744041,38.2825926 30.9550443,37.6783376 C30.1356845,37.0740826 29.8003992,36.0186835 30.1231858,35.0598435 C30.4459724,34.1010035 31.3541326,33.4546738 32.3763734,33.4562693 C32.5186954,33.4438066 32.6618534,33.4438066 32.8041754,33.4562693 C33.7402724,33.6372599 34.4754838,34.3552075 34.6700222,35.2783035 C34.8645606,36.2013995 34.4805357,37.1498524 33.6954296,37.6853226 L33.7310797,37.7205647 Z M48.6774119,45.4738289 C48.4565167,46.6888935 47.320001,47.5262169 46.0790056,47.3881945 C44.8380102,47.250172 43.9181151,46.1841363 43.9758571,44.950926 C44.0335991,43.7177157 45.0491765,42.740241 46.2977633,42.7161338 C46.4371276,42.7040971 46.5772884,42.7040971 46.7166527,42.7161338 C48.0026848,42.9441595 48.8596699,44.1577883 48.6328491,45.4297763 L48.6774119,45.4738289 Z M61.3153957,32.548785 C61.093714,33.7695329 59.9482991,34.6081803 58.7024284,34.4619419 C57.4565578,34.3157034 56.5416545,33.2352188 56.6153137,31.9970963 C56.6889729,30.7589737 57.7256877,29.7919534 58.9803099,29.7910899 C59.1196742,29.7790532 59.2598349,29.7790532 59.3991993,29.7910899 C60.6852314,30.0191156 61.5422165,31.2327444 61.3153957,32.5047324 L61.3153957,32.548785 Z" id="Shape"></path>
            </g>
        </g>
    </g>
</svg>