<?xml version="1.0" encoding="UTF-8"?>
<svg width="104px" height="104px" viewBox="0 0 104 104" version="1.1" xmlns="http://www.w3.org/2000/svg" xmlns:xlink="http://www.w3.org/1999/xlink">
    <!-- Generator: sketchtool 63.1 (101010) - https://sketch.com -->
    <title>076C4790-367B-4C21-9DB4-FADEB19EC02F</title>
    <desc>Created with sketchtool.</desc>
    <g id="-⚙-Design-Guideline" stroke="none" stroke-width="1" fill="none" fill-rule="evenodd">
        <g id="-⚙-Iconos" transform="translate(-334.000000, -1334.000000)" fill="#577EE8" fill-rule="nonzero">
            <g id="ico-widget" transform="translate(334.000000, 1334.000000)">
                <g id="Component/Icon/Wizard/ico-rule" transform="translate(4.000000, 14.000000)">
                    <path d="M93.9444444,0.24 L1.38277778,0.24 C0.799810542,0.24 0.327222222,0.68771525 0.327222222,1.24 L0.327222222,75.43 C0.327222222,75.9822847 0.799810542,76.43 1.38277778,76.43 L93.9444444,76.43 C94.5274117,76.43 95,75.9822847 95,75.43 L95,1.24 C95,0.68771525 94.5274117,0.24 93.9444444,0.24 Z M2.42777778,2.24 L14.2077778,2.24 L14.2077778,74.44 L2.42777778,74.44 L2.42777778,2.24 Z M92.8888889,74.43 L16.3188889,74.43 L16.3188889,2.23 L92.8888889,2.23 L92.8888889,74.43 Z" id="Shape"></path>
                    <path d="M19.7916667,16.64 L33.8727778,16.64 C34.455745,16.64 34.9283333,16.1922847 34.9283333,15.64 L34.9283333,7 C34.9283333,6.44771525 34.455745,6 33.8727778,6 L19.7916667,6 C19.2086994,6 18.7361111,6.44771525 18.7361111,7 L18.7361111,15.66 C18.7476075,16.2044587 19.2168453,16.6401089 19.7916667,16.64 Z M20.8472222,7.98 L32.8277778,7.98 L32.8277778,14.64 L20.8472222,14.64 L20.8472222,7.98 Z" id="Shape"></path>
                    <path d="M37.7783333,16.64 L51.8594444,16.64 C52.4424117,16.64 52.915,16.1922847 52.915,15.64 L52.915,7 C52.915,6.44771525 52.4424117,6 51.8594444,6 L37.7783333,6 C37.1953661,6 36.7227778,6.44771525 36.7227778,7 L36.7227778,15.66 C36.7342742,16.2044587 37.203512,16.6401089 37.7783333,16.64 Z M38.8338889,7.98 L50.8144444,7.98 L50.8144444,14.64 L38.8338889,14.64 L38.8338889,7.98 Z" id="Shape"></path>
                    <path d="M55.765,16.64 L69.8461111,16.64 C70.4290783,16.64 70.9016667,16.1922847 70.9016667,15.64 L70.9016667,7 C70.9016667,6.44771525 70.4290783,6 69.8461111,6 L55.765,6 C55.1820328,6 54.7094444,6.44771525 54.7094444,7 L54.7094444,15.66 C54.7209409,16.2044587 55.1901786,16.6401089 55.765,16.64 Z M56.8205556,7.98 L68.7905556,7.98 L68.7905556,14.64 L56.8205556,14.64 L56.8205556,7.98 Z" id="Shape"></path>
                    <path d="M73.7516667,16.64 L87.8327778,16.64 C88.415745,16.64 88.8883333,16.1922847 88.8883333,15.64 L88.8883333,7 C88.8883333,6.44771525 88.415745,6 87.8327778,6 L73.7516667,6 C73.1686994,6 72.6961111,6.44771525 72.6961111,7 L72.6961111,15.66 C72.7076075,16.2044587 73.1768453,16.6401089 73.7516667,16.64 Z M74.8072222,7.98 L86.7772222,7.98 L86.7772222,14.64 L74.8072222,14.64 L74.8072222,7.98 Z" id="Shape"></path>
                    <path d="M19.7916667,71.3 L51.2261111,71.3 C51.8090783,71.3 52.2816667,70.8522847 52.2816667,70.3 L52.2816667,28.3 C52.2816667,27.7477153 51.8090783,27.3 51.2261111,27.3 L19.7916667,27.3 C19.2086994,27.3 18.7361111,27.7477153 18.7361111,28.3 L18.7361111,70.3 C18.7361111,70.8522847 19.2086994,71.3 19.7916667,71.3 Z M20.8472222,29.3 L50.1705556,29.3 L50.1705556,69.3 L20.8472222,69.3 L20.8472222,29.3 Z" id="Shape"></path>
                    <path d="M87.875,27.29 L55.5116667,27.29 C54.9286994,27.29 54.4561111,27.7377153 54.4561111,28.29 L54.4561111,49.29 C54.4561111,49.8422847 54.9286994,50.29 55.5116667,50.29 L87.875,50.29 C88.4579672,50.29 88.9305556,49.8422847 88.9305556,49.29 L88.9305556,28.29 C88.9305556,27.7377153 88.4579672,27.29 87.875,27.29 Z M86.8194444,48.29 L56.5566667,48.29 L56.5566667,29.29 L86.8194444,29.29 L86.8194444,48.29 Z" id="Shape"></path>
                    <path d="M87.875,51.91 L55.5116667,51.91 C54.9286994,51.91 54.4561111,52.3577153 54.4561111,52.91 L54.4561111,70.36 C54.4561111,70.9122847 54.9286994,71.36 55.5116667,71.36 L87.875,71.36 C88.4579672,71.36 88.9305556,70.9122847 88.9305556,70.36 L88.9305556,52.9 C88.9247669,52.3516245 88.4538698,51.91 87.875,51.91 L87.875,51.91 Z M86.8194444,69.36 L56.5566667,69.36 L56.5566667,53.9 L86.8194444,53.9 L86.8194444,69.36 Z" id="Shape"></path>
                    <path d="M19.7916667,23.46 L76.7283333,23.46 C77.3113006,23.46 77.7838889,23.0122847 77.7838889,22.46 C77.7838889,21.9077153 77.3113006,21.46 76.7283333,21.46 L19.7916667,21.46 C19.2086994,21.46 18.7361111,21.9077153 18.7361111,22.46 C18.7361111,23.0122847 19.2086994,23.46 19.7916667,23.46 Z" id="Path"></path>
                    <path d="M82.5338889,22.46 C82.5338889,21.9077153 82.0613006,21.46 81.4783333,21.46 C80.8953661,21.46 80.4227778,21.9077153 80.4227778,22.46 C80.4227778,23.0122847 80.8953661,23.46 81.4783333,23.46 C82.0613006,23.46 82.5338889,23.0122847 82.5338889,22.46 Z" id="Path"></path>
                    <path d="M62.8055556,43.9300229 C63.06716,43.929353 63.3191907,43.8366976 63.5127778,43.67 L69.6033333,38.43 L71.4188889,41.31 C71.5863305,41.575616 71.8741157,41.752853 72.1983163,41.7900225 C72.5225169,41.827192 72.846622,41.720108 73.0761111,41.5 L79.6311111,35.15 C79.8950907,34.8927688 79.9941627,34.5216581 79.8910077,34.1764617 C79.7878526,33.8312653 79.4981423,33.5644269 79.1310077,33.4764617 C78.7638731,33.3884966 78.3750907,33.4927688 78.1111111,33.75 L72.5166667,39.18 L70.7222222,36.36 C70.5585207,36.103977 70.2823671,35.93089 69.9696227,35.888287 C69.6568784,35.8456841 69.3404351,35.9380459 69.1072222,36.14 L62.0983333,42.2 C61.6679335,42.5704771 61.6348941,43.2009586 62.0244444,43.61 C62.2258808,43.8157808 62.5093224,43.9318991 62.8055556,43.9300229 Z" id="Path"></path>
                    <path d="M48.0277778,63.89 L44.3333333,63.89 L44.3333333,49.3 C44.3333333,48.7477153 43.860745,48.3 43.2777778,48.3 L37.5777778,48.3 C36.9948105,48.3 36.5222222,48.7477153 36.5222222,49.3 L36.5222222,63.89 L33.5772222,63.89 L33.5772222,38.69 C33.5772222,38.1377153 33.1046339,37.69 32.5216667,37.69 L26.8216667,37.69 C26.2386994,37.69 25.7661111,38.1377153 25.7661111,38.69 L25.7661111,63.89 L22.2405556,63.89 C21.6575883,63.89 21.185,64.3377153 21.185,64.89 C21.185,65.4422847 21.6575883,65.89 22.2405556,65.89 L48.0277778,65.89 C48.610745,65.89 49.0833333,65.4422847 49.0833333,64.89 C49.0833333,64.3377153 48.610745,63.89 48.0277778,63.89 Z M38.6016667,50.29 L42.2222222,50.29 L42.2222222,63.29 L38.6333333,63.29 L38.6016667,50.29 Z M27.8877778,39.69 L31.4766667,39.69 L31.4766667,63.3 L27.8877778,63.3 L27.8877778,39.69 Z" id="Shape"></path>
                </g>
            </g>
        </g>
    </g>
</svg>