<?xml version="1.0" encoding="UTF-8"?>
<svg width="64px" height="64px" viewBox="0 0 64 64" version="1.1" xmlns="http://www.w3.org/2000/svg" xmlns:xlink="http://www.w3.org/1999/xlink">
    <!-- Generator: sketchtool 58 (101010) - https://sketch.com -->
    <title>49A52CD6-DB9B-4996-9C08-C03BAA4D7160</title>
    <desc>Created with sketchtool.</desc>
    <g id="-⚙-Design-Guideline" stroke="none" stroke-width="1" fill="none" fill-rule="evenodd">
        <g id="-⚙-Iconos" transform="translate(-1112.000000, -836.000000)">
            <g id="ico-sincontenido" transform="translate(1112.000000, 836.000000)">
                <g>
                    <g transform="translate(10.000000, 8.000000)">
                        <g id="ico-nocontent" transform="translate(0.000000, 1.000000)" fill="#2B334A" fill-rule="nonzero" stroke="#2B334A">
                            <path d="M35.5927083,14.7854167 C35.396875,14.7854167 35.25,15.2116894 35.25,15.780053 L35.25,34.5360533 C35.2010417,35.1044169 35.3479167,35.6727806 35.5927083,35.6727806 C35.7885417,35.8148715 35.984375,35.3885987 35.984375,34.6781442 C35.984375,34.5360533 35.984375,34.5360533 35.984375,34.3939624 L35.984375,15.780053 C35.984375,15.2116894 35.8375,14.7854167 35.5927083,14.7854167 C35.6416667,14.7854167 35.5927083,14.7854167 35.5927083,14.7854167 Z" id="Path"></path>
                            <path d="M35.5927083,35.25 C35.396875,35.25 35.25,35.396875 35.25,35.5927083 L35.25,41.6145833 C35.25,44.0135417 33.2916667,45.971875 30.8927083,45.971875 L5.33645833,45.971875 C2.9375,46.0208333 0.979166667,44.0625 0.979166667,41.6635417 L0.979166667,5.33645833 C0.979166667,2.9375 2.9375,0.979166667 5.33645833,0.979166667 L22.765625,0.979166667 C22.471875,1.37083333 22.2760417,1.86041667 22.325,2.35 L22.325,10.8197917 C22.3739583,11.9458333 23.3041667,12.8760417 24.4791667,12.8270833 C24.4791667,12.8270833 24.4791667,12.8270833 24.4791667,12.8270833 L35.25,12.8270833 L35.25,13.0229167 C35.2010417,13.21875 35.3479167,13.4145833 35.5927083,13.4145833 C35.7885417,13.4635417 35.984375,13.3166667 35.984375,13.071875 C35.984375,13.0229167 35.984375,13.0229167 35.984375,12.9739583 L35.984375,12.5333333 C35.984375,12.5333333 35.984375,12.484375 35.984375,12.484375 C35.984375,12.484375 35.984375,12.484375 35.984375,12.4354167 C35.984375,12.3864583 35.984375,12.3864583 35.984375,12.3375 C35.9354167,12.0927083 35.8375,11.896875 35.690625,11.75 L24.675,0.5875 C24.4791667,0.342708333 24.1364583,0.244791667 23.8427083,0.244791667 L5.33645833,0.244791667 C2.54583333,0.244791667 0.244791667,2.54583333 0.244791667,5.33645833 L0.244791667,41.6635417 C0.244791667,44.503125 2.54583333,46.7552083 5.33645833,46.7552083 L30.8927083,46.7552083 C33.7322917,46.7552083 35.984375,44.4541667 35.984375,41.6635417 L35.984375,35.5927083 C35.984375,35.396875 35.8375,35.25 35.5927083,35.25 C35.6416667,35.25 35.5927083,35.25 35.5927083,35.25 Z M34.95625,12.0927083 L24.4791667,12.0927083 C23.7447917,12.1416667 23.1083333,11.5541667 23.059375,10.8197917 L23.059375,2.35 C22.9614583,1.71354167 23.4020833,1.175 24.0385417,1.07708333 C24.0875,1.07708333 24.0875,1.07708333 24.1364583,1.07708333 C24.1364583,1.07708333 24.1854167,1.07708333 24.1854167,1.12604167 L34.95625,12.0927083 Z" id="Shape"></path>
                            <path d="M23.7447917,31.4802083 L5.97291667,31.4802083 C5.77708333,31.5291667 5.63020833,31.6760417 5.63020833,31.871875 C5.63020833,32.01875 5.77708333,32.165625 5.97291667,32.2145833 L23.7447917,32.2145833 C23.940625,32.2635417 24.1364583,32.1166667 24.1364583,31.871875 C24.1364583,31.6270833 24.0385417,31.4802083 23.79375,31.4802083 C23.8427083,31.4802083 23.79375,31.4802083 23.7447917,31.4802083 Z" id="Path"></path>
                            <path d="M5.97291667,37.9427083 C5.77708333,37.9916667 5.63020833,38.1385417 5.63020833,38.334375 C5.63020833,38.48125 5.77708333,38.628125 5.97291667,38.6770833 L14.0510417,38.6770833 C14.246875,38.7260417 14.4427083,38.5791667 14.4427083,38.334375 C14.4916667,38.1385417 14.3447917,37.9427083 14.1,37.9427083 C14.0510417,37.9427083 14.0510417,37.9427083 14.0020833,37.9427083 L5.97291667,37.9427083 Z" id="Path"></path>
                            <path d="M23.7447917,37.9427083 L16.2052083,37.9427083 C16.009375,37.9916667 15.8625,38.1385417 15.8625,38.334375 C15.8625,38.48125 16.009375,38.628125 16.2052083,38.6770833 L23.7447917,38.6770833 C23.940625,38.7260417 24.1364583,38.5791667 24.1364583,38.334375 C24.1854167,38.1385417 24.0385417,37.9427083 23.79375,37.9427083 C23.8427083,37.9427083 23.79375,37.9427083 23.7447917,37.9427083 Z" id="Path"></path>
                        </g>
                        <g id="Group-2" transform="translate(12.000000, 0.000000)">
                            <circle id="Oval" fill="#FFFFFF" cx="16" cy="16" r="16"></circle>
                            <path d="M26.6699965,16.0000107 C26.6740962,17.582055 26.3232594,19.1448736 25.6432937,20.5733441 C25.3268713,21.2385158 24.5311321,21.521233 23.8659604,21.2048107 C23.2007886,20.8883884 22.9180714,20.0926491 23.2344937,19.4274774 C24.4863829,16.7886726 24.1951056,13.6765477 22.4752937,11.3158774 C22.4239567,11.4221583 22.3582281,11.5208633 22.2799603,11.6092107 L11.6132937,22.2758774 C11.5249462,22.3541452 11.4262412,22.4198737 11.3199603,22.4712107 C13.6806306,24.1910226 16.7927556,24.4823 19.4315603,23.2304107 C19.8619939,23.0258643 20.3688552,23.0664891 20.7612144,23.3369823 C21.1535736,23.6074755 21.3718221,24.0667427 21.3337478,24.5417823 C21.2956734,25.016822 21.0070606,25.4354643 20.576627,25.6400107 C16.2867209,27.676429 11.1672411,26.6321733 8.01763237,23.0782659 C4.8680236,19.5243584 4.44662562,14.3164829 6.98386816,10.3024209 C9.5211107,6.28835883 14.406095,4.43458672 18.9676038,5.7547881 C23.5291125,7.07498948 26.668859,11.2512959 26.6699965,16.0000107 Z M20.3939603,9.72401073 C20.4823078,9.64574295 20.5810128,9.58001442 20.6872937,9.52867739 C17.5092694,7.2159132 13.1208598,7.55956427 10.3415868,10.3388372 C7.56231388,13.1181102 7.21866282,17.5065198 9.53142701,20.6845441 C9.58276403,20.5782632 9.64849256,20.4795582 9.72676034,20.3912107 L20.3939603,9.72401073 Z" id="Shape" stroke="#FFFFFF" fill="#2B334A" fill-rule="nonzero"></path>
                        </g>
                    </g>
                </g>
            </g>
        </g>
    </g>
</svg>