<svg width="20" height="20" viewBox="0 0 20 20" fill="none" xmlns="http://www.w3.org/2000/svg">
<path fill-rule="evenodd" clip-rule="evenodd" d="M17.93 9H19C19.5523 9 20 9.44771 20 10C20 10.5523 19.5523 11 19 11H17.93C17.4709 14.6202 14.6202 17.4709 11 17.93V19C11 19.5523 10.5523 20 10 20C9.44771 20 9 19.5523 9 19V17.93C5.37981 17.4709 2.52909 14.6202 2.07 11H1C0.447715 11 0 10.5523 0 10C0 9.44771 0.447715 9 1 9H2.07C2.52909 5.37981 5.37981 2.52909 9 2.07V1C9 0.447715 9.44771 0 10 0C10.5523 0 11 0.447715 11 1V2.07C14.6202 2.52909 17.4709 5.37981 17.93 9ZM4 10C4 13.3137 6.68629 16 10 16C11.5913 16 13.1174 15.3679 14.2426 14.2426C15.3679 13.1174 16 11.5913 16 10C16 6.68629 13.3137 4 10 4C6.68629 4 4 6.68629 4 10ZM10 7C8.34315 7 7 8.34315 7 10C7 11.6569 8.34315 13 10 13C11.6569 13 13 11.6569 13 10C13 8.34315 11.6569 7 10 7ZM9 10C9 10.5523 9.44771 11 10 11C10.5523 11 11 10.5523 11 10C11 9.44771 10.5523 9 10 9C9.44771 9 9 9.44771 9 10Z" fill="#577EE8"/>
</svg>
