<?xml version="1.0" encoding="UTF-8"?>
<svg width="104px" height="104px" viewBox="0 0 104 104" version="1.1" xmlns="http://www.w3.org/2000/svg" xmlns:xlink="http://www.w3.org/1999/xlink">
    <!-- Generator: sketchtool 57.1 (101010) - https://sketch.com -->
    <title>0EC93FD5-56F6-4612-9B48-804C4E415FC7</title>
    <desc>Created with sketchtool.</desc>
    <g id="-⚙-Design-Guideline" stroke="none" stroke-width="1" fill="none" fill-rule="evenodd">
        <g id="-⚙-Iconos" transform="translate(-966.000000, -675.000000)" fill="#577EE8" fill-rule="nonzero">
            <g id="ico-accountant" transform="translate(966.000000, 673.000000)">
                <path d="M75,76 L72,76 L72,31 C72,30.4 71.6,30 71,30 C70.4,30 70,30.4 70,31 L70,36 L56.3,36 C55.9,34.3 54.3,33 52.4,33 C50.5,33 49,34.3 48.5,36 L44.7,36 C44.3,34.3 42.7,33 40.8,33 C38.9,33 37.5,34.3 37.1,36 L34,36 L34,31 C34,30.4 33.6,30 33,30 C32.4,30 32,30.4 32,31 L32,37 C32,37 32,37 32,37 C32,37 32,37 32,37 L32,49.3 C32,49.3 32,49.3 32,49.3 C32,49.3 32,49.3 32,49.3 L32,61.6 C32,61.6 32,61.6 32,61.6 C32,61.6 32,61.6 32,61.6 L32,76 L29,76 C28.4,76 28,76.4 28,77 C28,77.6 28.4,78 29,78 L33,78 L71,78 L75,78 C75.6,78 76,77.6 76,77 C76,76.4 75.6,76 75,76 Z M60.3,60.6 C59.9,58.9 58.3,57.6 56.4,57.6 C54.5,57.6 53,58.9 52.5,60.6 L48.7,60.6 C48.3,58.9 46.7,57.6 44.8,57.6 C42.9,57.6 41.4,58.9 40.9,60.6 L34,60.6 L34,50.3 L47.1,50.3 C47.5,52 49.1,53.3 51,53.3 C52.9,53.3 54.4,52 54.9,50.3 L58.7,50.3 C59.1,52 60.7,53.3 62.6,53.3 C64.5,53.3 66,52 66.5,50.3 L70,50.3 L70,60.6 L60.3,60.6 Z M54.5,61.6 C54.5,60.5 55.4,59.6 56.5,59.6 C57.6,59.6 58.5,60.5 58.5,61.6 C58.5,62.7 57.6,63.6 56.5,63.6 C55.4,63.6 54.5,62.7 54.5,61.6 C54.5,61.6 54.5,61.6 54.5,61.6 C54.5,61.6 54.5,61.6 54.5,61.6 Z M46.9,61.6 C46.9,62.7 46,63.6 44.9,63.6 C43.8,63.6 42.9,62.7 42.9,61.6 C42.9,60.5 43.8,59.6 44.9,59.6 C46,59.6 46.9,60.5 46.9,61.6 C46.9,61.6 46.9,61.6 46.9,61.6 C46.9,61.6 46.9,61.6 46.9,61.6 Z M52.9,49.3 C52.9,50.4 52,51.3 50.9,51.3 C49.8,51.3 48.9,50.4 48.9,49.3 C48.9,48.2 49.8,47.3 50.9,47.3 C52,47.3 52.9,48.2 52.9,49.3 C52.9,49.3 52.9,49.3 52.9,49.3 C52.9,49.3 52.9,49.3 52.9,49.3 Z M60.5,49.3 C60.5,48.2 61.4,47.3 62.5,47.3 C63.6,47.3 64.5,48.2 64.5,49.3 C64.5,50.4 63.6,51.3 62.5,51.3 C61.4,51.3 60.5,50.4 60.5,49.3 C60.5,49.3 60.5,49.3 60.5,49.3 C60.5,49.3 60.5,49.3 60.5,49.3 Z M52.5,35 C53.6,35 54.5,35.9 54.5,37 C54.5,38.1 53.6,39 52.5,39 C51.4,39 50.5,38.1 50.5,37 C50.5,37 50.5,37 50.5,37 C50.5,37 50.5,37 50.5,37 C50.5,35.9 51.4,35 52.5,35 Z M40.9,35 C42,35 42.9,35.9 42.9,37 C42.9,37 42.9,37 42.9,37 C42.9,37 42.9,37 42.9,37 C42.9,38.1 42,39 40.9,39 C39.8,39 38.9,38.1 38.9,37 C38.9,35.9 39.8,35 40.9,35 Z M37.1,38 C37.5,39.7 39.1,41 41,41 C42.9,41 44.4,39.7 44.9,38 L48.7,38 C49.1,39.7 50.7,41 52.6,41 C54.5,41 56,39.7 56.5,38 L70,38 L70,48.3 L66.3,48.3 C65.9,46.6 64.3,45.3 62.4,45.3 C60.5,45.3 59,46.6 58.5,48.3 L54.7,48.3 C54.3,46.6 52.7,45.3 50.8,45.3 C48.9,45.3 47.4,46.6 46.9,48.3 L34,48.3 L34,38 L37.1,38 Z M34,76 L34,62.6 L41.1,62.6 C41.5,64.3 43.1,65.6 45,65.6 C46.9,65.6 48.4,64.3 48.9,62.6 L52.7,62.6 C53.1,64.3 54.7,65.6 56.6,65.6 C58.5,65.6 60,64.3 60.5,62.6 L70,62.6 L70,76 L34,76 Z" id="Shape"></path>
            </g>
        </g>
    </g>
</svg>