<?xml version="1.0" encoding="UTF-8"?>
<svg width="64px" height="64px" viewBox="0 0 64 64" version="1.1" xmlns="http://www.w3.org/2000/svg" xmlns:xlink="http://www.w3.org/1999/xlink">
    <!-- Generator: sketchtool 58 (101010) - https://sketch.com -->
    <title>82A2E595-6084-4706-A3AE-8D7D4BEC01B6</title>
    <desc>Created with sketchtool.</desc>
    <g id="-⚙-Design-Guideline" stroke="none" stroke-width="1" fill="none" fill-rule="evenodd">
        <g id="-⚙-Iconos" transform="translate(-748.000000, -840.000000)" fill="#2B334A" fill-rule="nonzero" stroke="#2B334A" stroke-width="0.5">
            <g id="ico-menu-dashboard" transform="translate(748.000000, 840.000000)">
                <g id="ico-dashboard">
                    <g transform="translate(12.000000, 17.000000)">
                        <path d="M11.9449541,29.3302752 C8.59633028,29.3302752 5.23853211,29.3302752 1.88990826,29.3302752 C1.41284404,29.3302752 0.935779817,29.3302752 0.458715596,29.3302752 C0.614678899,29.4862385 0.76146789,29.6330275 0.917431193,29.7889908 C0.917431193,26.4678899 0.917431193,23.146789 0.917431193,19.8256881 C0.917431193,14.5779817 0.917431193,9.32110092 0.917431193,4.0733945 C0.917431193,2.87155963 0.917431193,1.67889908 0.917431193,0.47706422 C0.76146789,0.633027523 0.614678899,0.779816514 0.458715596,0.935779817 C3.80733945,0.935779817 7.16513761,0.935779817 10.5137615,0.935779817 C10.9908257,0.935779817 11.4678899,0.935779817 11.9449541,0.935779817 C11.7889908,0.779816514 11.6422018,0.633027523 11.4862385,0.47706422 C11.4862385,3.79816514 11.4862385,7.11926606 11.4862385,10.440367 C11.4862385,15.6880734 11.4862385,20.9449541 11.4862385,26.1926606 C11.4862385,27.3944954 11.4862385,28.587156 11.4862385,29.7889908 C11.4862385,30.3761468 12.4036697,30.3761468 12.4036697,29.7889908 C12.4036697,26.4678899 12.4036697,23.146789 12.4036697,19.8256881 C12.4036697,14.5779817 12.4036697,9.32110092 12.4036697,4.0733945 C12.4036697,2.87155963 12.4036697,1.67889908 12.4036697,0.47706422 C12.4036697,0.229357798 12.1926606,0.0183486239 11.9449541,0.0183486239 C8.59633028,0.0183486239 5.23853211,0.0183486239 1.88990826,0.0183486239 C1.41284404,0.0183486239 0.935779817,0.0183486239 0.458715596,0.0183486239 C0.211009174,0.0183486239 0,0.229357798 0,0.47706422 C0,3.79816514 0,7.11926606 0,10.440367 C0,15.6880734 0,20.9449541 0,26.1926606 C0,27.3944954 0,28.587156 0,29.7889908 C0,30.0366972 0.211009174,30.2477064 0.458715596,30.2477064 C3.80733945,30.2477064 7.16513761,30.2477064 10.5137615,30.2477064 C10.9908257,30.2477064 11.4678899,30.2477064 11.9449541,30.2477064 C12.5321101,30.2477064 12.5321101,29.3302752 11.9449541,29.3302752 Z" id="Path"></path>
                        <path d="M39.5321101,10.9082569 C36.7981651,10.9082569 34.0642202,10.9082569 31.3211009,10.9082569 C26.9633028,10.9082569 22.6055046,10.9082569 18.2477064,10.9082569 C17.2568807,10.9082569 16.2568807,10.9082569 15.266055,10.9082569 C15.4220183,11.0642202 15.5688073,11.2110092 15.7247706,11.3669725 C15.7247706,8.19266055 15.7247706,5.00917431 15.7247706,1.83486239 C15.7247706,1.3853211 15.7247706,0.926605505 15.7247706,0.47706422 C15.5688073,0.633027523 15.4220183,0.779816514 15.266055,0.935779817 C18,0.935779817 20.733945,0.935779817 23.4770642,0.935779817 C27.8348624,0.935779817 32.1926606,0.935779817 36.5504587,0.935779817 C37.5412844,0.935779817 38.5412844,0.935779817 39.5321101,0.935779817 C39.3761468,0.779816514 39.2293578,0.633027523 39.0733945,0.47706422 C39.0733945,3.65137615 39.0733945,6.83486239 39.0733945,10.0091743 C39.0733945,10.4587156 39.0733945,10.9174312 39.0733945,11.3669725 C39.0733945,11.9541284 39.9908257,11.9541284 39.9908257,11.3669725 C39.9908257,8.19266055 39.9908257,5.00917431 39.9908257,1.83486239 C39.9908257,1.3853211 39.9908257,0.926605505 39.9908257,0.47706422 C39.9908257,0.229357798 39.7798165,0.0183486239 39.5321101,0.0183486239 C36.7981651,0.0183486239 34.0642202,0.0183486239 31.3211009,0.0183486239 C26.9633028,0.0183486239 22.6055046,0.0183486239 18.2477064,0.0183486239 C17.2568807,0.0183486239 16.2568807,0.0183486239 15.266055,0.0183486239 C15.0183486,0.0183486239 14.8073394,0.229357798 14.8073394,0.47706422 C14.8073394,3.65137615 14.8073394,6.83486239 14.8073394,10.0091743 C14.8073394,10.4587156 14.8073394,10.9174312 14.8073394,11.3669725 C14.8073394,11.6146789 15.0183486,11.8256881 15.266055,11.8256881 C18,11.8256881 20.733945,11.8256881 23.4770642,11.8256881 C27.8348624,11.8256881 32.1926606,11.8256881 36.5504587,11.8256881 C37.5412844,11.8256881 38.5412844,11.8256881 39.5321101,11.8256881 C40.1284404,11.8256881 40.1284404,10.9082569 39.5321101,10.9082569 Z" id="Path"></path>
                        <path d="M25.6146789,29.3302752 C22.5963303,29.3302752 19.5779817,29.3302752 16.559633,29.3302752 C16.1284404,29.3302752 15.6972477,29.3302752 15.2752294,29.3302752 C15.4311927,29.4862385 15.5779817,29.6330275 15.733945,29.7889908 C15.733945,25.3761468 15.733945,20.9541284 15.733945,16.5412844 C15.733945,15.9082569 15.733945,15.2752294 15.733945,14.6330275 C15.5779817,14.7889908 15.4311927,14.9357798 15.2752294,15.0917431 C18.293578,15.0917431 21.3119266,15.0917431 24.3302752,15.0917431 C24.7614679,15.0917431 25.1926606,15.0917431 25.6146789,15.0917431 C25.4587156,14.9357798 25.3119266,14.7889908 25.1559633,14.6330275 C25.1559633,19.0458716 25.1559633,23.4678899 25.1559633,27.8807339 C25.1559633,28.5137615 25.1559633,29.146789 25.1559633,29.7889908 C25.1559633,30.3761468 26.0733945,30.3761468 26.0733945,29.7889908 C26.0733945,25.3761468 26.0733945,20.9541284 26.0733945,16.5412844 C26.0733945,15.9082569 26.0733945,15.2752294 26.0733945,14.6330275 C26.0733945,14.3853211 25.8623853,14.1743119 25.6146789,14.1743119 C22.5963303,14.1743119 19.5779817,14.1743119 16.559633,14.1743119 C16.1284404,14.1743119 15.6972477,14.1743119 15.2752294,14.1743119 C15.0275229,14.1743119 14.8165138,14.3853211 14.8165138,14.6330275 C14.8165138,19.0458716 14.8165138,23.4678899 14.8165138,27.8807339 C14.8165138,28.5137615 14.8165138,29.146789 14.8165138,29.7889908 C14.8165138,30.0366972 15.0275229,30.2477064 15.2752294,30.2477064 C18.293578,30.2477064 21.3119266,30.2477064 24.3302752,30.2477064 C24.7614679,30.2477064 25.1926606,30.2477064 25.6146789,30.2477064 C26.2018349,30.2477064 26.2018349,29.3302752 25.6146789,29.3302752 Z" id="Path"></path>
                        <path d="M39.5321101,29.3302752 C36.559633,29.3302752 33.5963303,29.3302752 30.6238532,29.3302752 C30.2018349,29.3302752 29.7706422,29.3302752 29.3486239,29.3302752 C29.5045872,29.4862385 29.6513761,29.6330275 29.8073394,29.7889908 C29.8073394,25.3761468 29.8073394,20.9541284 29.8073394,16.5412844 C29.8073394,15.9082569 29.8073394,15.2752294 29.8073394,14.6330275 C29.6513761,14.7889908 29.5045872,14.9357798 29.3486239,15.0917431 C32.3211009,15.0917431 35.2844037,15.0917431 38.2568807,15.0917431 C38.6788991,15.0917431 39.1100917,15.0917431 39.5321101,15.0917431 C39.3761468,14.9357798 39.2293578,14.7889908 39.0733945,14.6330275 C39.0733945,19.0458716 39.0733945,23.4678899 39.0733945,27.8807339 C39.0733945,28.5137615 39.0733945,29.146789 39.0733945,29.7889908 C39.0733945,30.3761468 39.9908257,30.3761468 39.9908257,29.7889908 C39.9908257,25.3761468 39.9908257,20.9541284 39.9908257,16.5412844 C39.9908257,15.9082569 39.9908257,15.2752294 39.9908257,14.6330275 C39.9908257,14.3853211 39.7798165,14.1743119 39.5321101,14.1743119 C36.559633,14.1743119 33.5963303,14.1743119 30.6238532,14.1743119 C30.2018349,14.1743119 29.7706422,14.1743119 29.3486239,14.1743119 C29.1009174,14.1743119 28.8899083,14.3853211 28.8899083,14.6330275 C28.8899083,19.0458716 28.8899083,23.4678899 28.8899083,27.8807339 C28.8899083,28.5137615 28.8899083,29.146789 28.8899083,29.7889908 C28.8899083,30.0366972 29.1009174,30.2477064 29.3486239,30.2477064 C32.3211009,30.2477064 35.2844037,30.2477064 38.2568807,30.2477064 C38.6788991,30.2477064 39.1100917,30.2477064 39.5321101,30.2477064 C40.1284404,30.2477064 40.1284404,29.3302752 39.5321101,29.3302752 Z" id="Path"></path>
                    </g>
                </g>
            </g>
        </g>
    </g>
</svg>