<?xml version="1.0" encoding="UTF-8"?>
<svg width="30px" height="30px" viewBox="0 0 30 30" version="1.1" xmlns="http://www.w3.org/2000/svg" xmlns:xlink="http://www.w3.org/1999/xlink">
    <title>958DBAA1-61F0-4901-B64B-6B8E3178F183</title>
    <g id="Page-1" stroke="none" stroke-width="1" fill="none" fill-rule="evenodd">
        <g id="Desktop-HD-Copy-15" transform="translate(-97.000000, -324.000000)" fill="#CED3D7">
            <g id="Group-2" transform="translate(97.000000, 324.000000)">
                <g id="Group-3" transform="translate(6.000000, 8.000000)">
                    <path d="M0.857142857,4.99285714 C0.6,4.99285714 0.428571429,4.90714286 0.257142857,4.73571429 C-0.0857142857,4.39285714 -0.0857142857,3.87857143 0.257142857,3.53571429 C4.97142857,-1.17857143 12.5142857,-1.17857143 17.2285714,3.53571429 C17.5714286,3.87857143 17.5714286,4.39285714 17.2285714,4.73571429 C16.8857143,5.07857143 16.3714286,5.07857143 16.0285714,4.73571429 C12,0.707142857 5.48571429,0.707142857 1.45714286,4.73571429 C1.28571429,4.90714286 1.11428571,4.99285714 0.857142857,4.99285714 Z" id="Path" fill-rule="nonzero"></path>
                    <path d="M13.6285714,7.99285714 C13.3714286,7.99285714 13.2,7.90714286 13.0285714,7.73571429 C10.7142857,5.42142857 6.85714286,5.42142857 4.54285714,7.73571429 C4.2,8.07857143 3.68571429,8.07857143 3.34285714,7.73571429 C3,7.39285714 3,6.87857143 3.34285714,6.53571429 C6.34285714,3.53571429 11.2285714,3.53571429 14.2285714,6.53571429 C14.5714286,6.87857143 14.5714286,7.39285714 14.2285714,7.73571429 C14.0571429,7.90714286 13.8,7.99285714 13.6285714,7.99285714 Z" id="Path" fill-rule="nonzero"></path>
                    <path d="M10.5428571,11.0785714 C10.2857143,11.0785714 10.1142857,10.9928571 9.94285714,10.8214286 C9.25714286,10.1357143 8.14285714,10.1357143 7.54285714,10.8214286 C7.2,11.1642857 6.68571429,11.1642857 6.34285714,10.8214286 C6,10.4785714 6,9.96428571 6.34285714,9.62142857 C7.71428571,8.25 9.85714286,8.25 11.2285714,9.62142857 C11.5714286,9.96428571 11.5714286,10.4785714 11.2285714,10.8214286 C10.9714286,10.9928571 10.8,11.0785714 10.5428571,11.0785714 Z" id="Path" fill-rule="nonzero"></path>
                    <circle id="Oval" cx="9" cy="14" r="1"></circle>
                </g>
            </g>
        </g>
    </g>
</svg>