<?xml version="1.0" encoding="UTF-8"?>
<svg width="40px" height="40px" viewBox="0 0 40 40" version="1.1" xmlns="http://www.w3.org/2000/svg" xmlns:xlink="http://www.w3.org/1999/xlink">
    <title>E0543636-1405-46DF-845B-F672D1BC77E0</title>
    <g id="New-Dashboards" stroke="none" stroke-width="1" fill="none" fill-rule="evenodd">
        <g id="Dashboards---Mapas-v2---Config-avanzado-colapsed-Copy" transform="translate(-1164.000000, -376.000000)">
            <g id="Ico-elements" transform="translate(1164.000000, 376.000000)">
                <rect id="Rectangle" x="8" y="8" width="24" height="24"></rect>
                <g id="Group-16" transform="translate(3.000000, 3.000000)" stroke="#577EE8" stroke-width="1.3">
                    <g id="Group-14" transform="translate(9.928352, 10.565211) rotate(-315.000000) translate(-9.928352, -10.565211) translate(2.428352, 6.565211)" stroke-linecap="round">
                        <polyline id="Path-8" stroke-linejoin="round" points="11.1707614 4.54747351e-13 14.7933873 3.62336161 11.1707614 7.33163465"></polyline>
                        <line x1="2.95469308e-07" y1="3.62496229" x2="14.7933873" y2="3.62496229" id="Path-9" transform="translate(7.396694, 3.624962) scale(-1, -1) translate(-7.396694, -3.624962) "></line>
                    </g>
                    <g id="Group-14-Copy-3" transform="translate(9.928352, 23.858010) scale(1, -1) rotate(-315.000000) translate(-9.928352, -23.858010) translate(2.428352, 19.858010)" stroke-linecap="round">
                        <polyline id="Path-8" stroke-linejoin="round" points="11.1707614 0 14.7933873 3.62336161 11.1707614 7.33163465"></polyline>
                        <line x1="2.95471549e-07" y1="3.62496229" x2="14.7933873" y2="3.62496229" id="Path-9" transform="translate(7.396694, 3.624962) scale(-1, -1) translate(-7.396694, -3.624962) "></line>
                    </g>
                    <g id="Group-14-Copy-2" transform="translate(23.878100, 10.565211) scale(-1, 1) rotate(-315.000000) translate(-23.878100, -10.565211) translate(16.378100, 6.565211)" stroke-linecap="round">
                        <polyline id="Path-8" stroke-linejoin="round" points="11.1707614 0 14.7933873 3.62336161 11.1707614 7.33163465"></polyline>
                        <line x1="2.95465454e-07" y1="3.62496229" x2="14.7933873" y2="3.62496229" id="Path-9" transform="translate(7.396694, 3.624962) scale(-1, -1) translate(-7.396694, -3.624962) "></line>
                    </g>
                    <g id="Group-14-Copy-4" transform="translate(23.878100, 23.858010) scale(-1, -1) rotate(-315.000000) translate(-23.878100, -23.858010) translate(16.378100, 19.858010)" stroke-linecap="round">
                        <polyline id="Path-8" stroke-linejoin="round" points="11.1707614 9.09494702e-13 14.7933873 3.62336161 11.1707614 7.33163465"></polyline>
                        <line x1="2.95467759e-07" y1="3.62496229" x2="14.7933873" y2="3.62496229" id="Path-9" transform="translate(7.396694, 3.624962) scale(-1, -1) translate(-7.396694, -3.624962) "></line>
                    </g>
                    <circle id="Oval" cx="5.22580645" cy="5.22580645" r="4.57580645"></circle>
                    <circle id="Oval-Copy-6" cx="5.22580645" cy="5.22580645" r="2.35"></circle>
                    <circle id="Oval-Copy-8" cx="5.22580645" cy="29.2258065" r="4.57580645"></circle>
                    <circle id="Oval-Copy-12" cx="5.22580645" cy="29.2258065" r="2.35"></circle>
                    <circle id="Oval-Copy-7" cx="28.7258065" cy="5.22580645" r="4.57580645"></circle>
                    <circle id="Oval-Copy-10" cx="28.7258065" cy="5.22580645" r="2.35"></circle>
                    <circle id="Oval-Copy-9" cx="28.7258065" cy="29.2258065" r="4.57580645"></circle>
                    <circle id="Oval-Copy-11" cx="28.7258065" cy="29.2258065" r="2.35"></circle>
                </g>
            </g>
        </g>
    </g>
</svg>