<?xml version="1.0" encoding="UTF-8"?>
<svg width="104px" height="104px" viewBox="-21 -21 104 104" version="1.1" xmlns="http://www.w3.org/2000/svg" xmlns:xlink="http://www.w3.org/1999/xlink">
    <title>A479D597-07F8-4E67-B5B4-2C671FFD79FC</title>
    <g id="Open-Data" stroke="none" stroke-width="1" fill="none" fill-rule="evenodd">
        <g id="Open-Data---Wizard-1" transform="translate(-386.000000, -451.000000)" fill="#577EE8" fill-rule="nonzero">
            <g id="Group-5" transform="translate(370.000000, 451.000000)">
                <g id="Group-4" transform="translate(16.000000, 0.000000)">
                    <path d="M31,0 C13.9067292,0 0,13.9067292 0,31 C0,35.7216875 1.034625,40.2560833 3.0748125,44.47725 C3.13810417,44.6077083 3.22335417,44.7278333 3.32604167,44.829875 C3.56822917,45.0720625 3.89695833,45.2083333 4.23925,45.2083333 L16.7916667,45.2083333 L16.7916667,47.2381875 C16.7916667,51.2061875 19.688875,54.4347083 23.25,54.4347083 L38.75,54.4347083 C42.311125,54.4347083 45.2083333,51.2061875 45.2083333,47.2381875 L45.2083333,14.7611667 C45.2083333,10.7931667 42.311125,7.56529167 38.75,7.56529167 L23.25,7.56529167 C19.688875,7.56529167 16.7916667,10.7938125 16.7916667,14.7611667 L16.7916667,36.2745208 C16.7916667,36.9875208 17.3703333,37.5661875 18.0833333,37.5661875 C18.7963333,37.5661875 19.375,36.9875208 19.375,36.2745208 L19.375,14.7611667 C19.375,12.217875 21.1129375,10.148625 23.25,10.148625 L24.3802083,10.148625 L24.3802083,10.2409792 C24.3802083,12.9883542 26.408125,15.2235833 28.9010417,15.2235833 L33.0989583,15.2235833 C35.5912292,15.2235833 37.6197917,12.9883542 37.6197917,10.2409792 L37.6197917,10.148625 L38.75,10.148625 C40.8870625,10.148625 42.625,12.217875 42.625,14.7611667 L42.625,42.625 L5.06139583,42.625 C3.41645833,38.9657083 2.58333333,35.0584167 2.58333333,31 C2.58333333,15.3307917 15.3307917,2.58333333 31,2.58333333 C46.6692083,2.58333333 59.4166667,15.3307917 59.4166667,31 C59.4166667,46.6692083 46.6692083,59.4166667 31,59.4166667 C23.253875,59.4166667 16.0140833,56.3560625 10.6155625,50.7980208 C10.1189167,50.2871667 9.30064583,50.2736042 8.78914583,50.7715417 C8.27764583,51.2688333 8.265375,52.0864583 8.76266667,52.5979583 C14.6520208,58.6610417 22.5499167,62 31,62 C48.0932708,62 62,48.0932708 62,31 C62,13.9067292 48.0932708,0 31,0 Z M35.0364583,10.2409792 C35.0364583,11.5416875 34.1490833,12.64025 33.0989583,12.64025 L28.9010417,12.64025 C27.8509167,12.64025 26.9635417,11.5416875 26.9635417,10.2409792 L26.9635417,10.148625 L35.0364583,10.148625 L35.0364583,10.2409792 Z M42.625,47.2381875 C42.625,49.7814792 40.8870625,51.851375 38.75,51.851375 L23.25,51.851375 C21.1129375,51.851375 19.375,49.782125 19.375,47.2381875 L19.375,45.2083333 L42.625,45.2083333 L42.625,47.2381875 Z" id="Shape"></path>
                    <circle id="Oval" cx="31" cy="48.7145625" r="1.47572917"></circle>
                </g>
            </g>
        </g>
    </g>
</svg>
