<?xml version="1.0" encoding="UTF-8"?>
<svg width="104px" height="104px" viewBox="0 0 104 104" version="1.1" xmlns="http://www.w3.org/2000/svg" xmlns:xlink="http://www.w3.org/1999/xlink">
    <title>5CABBF25-74A7-4E7A-B8C7-ACC3CD5CB8C1</title>
    <g id="-⚙-Reports-v3---Search-Devices" stroke="none" stroke-width="1" fill="none" fill-rule="evenodd">
        <g id="Report---Stepper-2-v2" transform="translate(-673.000000, -382.000000)" stroke="#577EE8" stroke-width="2">
            <g id="ico-papper" transform="translate(673.000000, 382.000000)">
                <rect id="Rectangle" x="13" y="10.3898921" width="68" height="92" rx="3"></rect>
                <rect id="Rectangle-Copy-3" x="23" y="68.3898921" width="48" height="28" rx="3"></rect>
                <line x1="23.5" y1="25.8898921" x2="60.5" y2="25.8898921" id="Line-13-Copy" stroke-linecap="round" stroke-linejoin="round"></line>
                <g id="Group-6" transform="translate(24.000000, 35.389892)">
                    <circle id="Oval" cx="12" cy="12" r="11"></circle>
                    <polyline id="Path-25" points="0 12 12 12 12 1.09663453"></polyline>
                    <line x1="29" y1="14" x2="40" y2="14" id="Line-13-Copy-2" stroke-linecap="round" stroke-linejoin="round"></line>
                    <line x1="29" y1="20" x2="44" y2="20" id="Line-13-Copy-3" stroke-linecap="round" stroke-linejoin="round"></line>
                </g>
                <line x1="23.5" y1="19.8898921" x2="40.5" y2="19.8898921" id="Line-13" stroke-linecap="round" stroke-linejoin="round"></line>
                <line x1="27" y1="73.3898921" x2="33" y2="73.3898921" id="Line-13-Copy-2" stroke-linecap="round" stroke-linejoin="round"></line>
                <line x1="60" y1="73.3898921" x2="66" y2="73.3898921" id="Line-13-Copy-6" stroke-linecap="round" stroke-linejoin="round"></line>
                <line x1="49" y1="73.3898921" x2="55" y2="73.3898921" id="Line-13-Copy-5" stroke-linecap="round" stroke-linejoin="round"></line>
                <line x1="38" y1="73.3898921" x2="44" y2="73.3898921" id="Line-13-Copy-4" stroke-linecap="round" stroke-linejoin="round"></line>
                <rect id="Rectangle" x="28" y="87.3898921" width="4" height="9"></rect>
                <rect id="Rectangle-Copy-4" x="39" y="83.3898921" width="4" height="13"></rect>
                <rect id="Rectangle-Copy-6" x="61" y="89.3898921" width="4" height="7"></rect>
                <rect id="Rectangle-Copy-5" x="50" y="81.3898921" width="4" height="15"></rect>
                <path d="M23.5,10.0362275 L23.5,4 C23.5,2.8954305 24.3954305,2 25.5,2 L88.8645456,2 C89.9691151,2 90.8645456,2.8954305 90.8645456,4 L90.8645456,92.8406533 C90.8645456,93.9452228 89.9691151,94.8406533 88.8645456,94.8406533 L82,94.8406533 L82,94.8406533" id="Path-26"></path>
            </g>
        </g>
    </g>
</svg>