<?xml version="1.0" encoding="UTF-8"?>
<svg width="104px" height="104px" viewBox="0 0 104 104" version="1.1" xmlns="http://www.w3.org/2000/svg" xmlns:xlink="http://www.w3.org/1999/xlink">
    <!-- Generator: sketchtool 60.1 (101010) - https://sketch.com -->
    <title>8FE0B884-1E54-4439-B2C1-72EC95AA5A3B</title>
    <desc>Created with sketchtool.</desc>
    <g id="-⚙-Design-Guideline" stroke="none" stroke-width="1" fill="none" fill-rule="evenodd">
        <g id="-⚙-Iconos" transform="translate(-863.000000, -1188.000000)" fill="#577EE8" fill-rule="nonzero">
            <g id="ico-alertas" transform="translate(863.000000, 1188.000000)">
                <g transform="translate(26.000000, 24.000000)" id="Group">
                    <g>
                        <path d="M13.3885057,38.7494253 C13.3885057,38.6850575 13.3241379,38.6206897 13.2597701,38.5563218 C13.1954023,38.491954 13.1954023,38.4275862 13.1310345,38.3632184 C12.8091954,38.0413793 12.4229885,37.9126437 11.9724138,38.0413793 C11.908046,38.0413793 11.8436782,38.1057471 11.7149425,38.1057471 C11.6505747,38.1701149 11.5862069,38.1701149 11.5218391,38.2344828 C11.4574713,38.2988506 11.3931034,38.3632184 11.3287356,38.3632184 C11.2643678,38.4275862 11.2,38.491954 11.2,38.5563218 C11.1356322,38.6206897 11.1356322,38.6850575 11.0712644,38.7494253 C11.0068966,38.8137931 11.0068966,38.8781609 11.0068966,39.0068966 C11.0068966,39.0712644 11.0068966,39.2 11.0068966,39.2643678 C11.0068966,39.5862069 11.1356322,39.908046 11.3931034,40.1655172 C11.4574713,40.2298851 11.5218391,40.2942529 11.5862069,40.2942529 C11.6505747,40.3586207 11.7149425,40.3586207 11.7793103,40.4229885 C11.8436782,40.4229885 11.908046,40.4873563 12.0367816,40.4873563 C12.1011494,40.4873563 12.2298851,40.4873563 12.2942529,40.4873563 C12.616092,40.4873563 12.937931,40.3586207 13.1954023,40.1011494 C13.3885057,39.908046 13.5172414,39.5862069 13.5172414,39.2643678 C13.5172414,39.2 13.5172414,39.0712644 13.5172414,39.0068966 C13.4528736,38.9425287 13.4528736,38.8137931 13.3885057,38.7494253 Z" id="Path"></path>
                        <path d="M39.5862069,7.72413793 C37.462069,7.72413793 35.4666667,8.23908046 33.7287356,9.2045977 C32.4413793,8.30344828 31.0252874,7.5954023 29.4804598,7.08045977 C29.5448276,6.69425287 29.6091954,6.24367816 29.6091954,5.85747126 C29.6091954,2.63908046 27.0344828,0.0643678161 23.816092,0.0643678161 C20.5977011,0.0643678161 18.0229885,2.63908046 18.0229885,5.85747126 C18.0229885,6.24367816 18.0873563,6.69425287 18.1517241,7.08045977 C13.3241379,8.8183908 6.75862069,13.1954023 6.75862069,24.0091954 C6.75862069,35.5954023 4.11954023,39.1356322 2.51034483,40.1655172 C1.15862069,41.0666667 0.386206897,42.6114943 0.386206897,44.1563218 C0.386206897,46.8597701 2.57471264,48.983908 5.2137931,48.983908 L16.4781609,48.983908 L16.4781609,49.1126437 C17.0574713,53.0390805 20.4689655,56 24.4597701,56 C28.4505747,56 31.862069,53.0390805 32.4413793,49.1126437 L32.4413793,48.983908 L42.4183908,48.983908 C45.0574713,48.983908 47.245977,46.7954023 47.245977,44.1563218 C47.245977,42.5471264 46.4735632,41.0666667 45.1218391,40.1655172 C43.9632184,39.3287356 42.4183908,37.3977011 41.5816092,32.6988506 C47.5678161,31.7333333 52.137931,26.5195402 52.137931,20.2758621 C52.137931,13.3241379 46.537931,7.72413793 39.5862069,7.72413793 Z M23.816092,2.57471264 C25.6183908,2.57471264 27.0344828,3.9908046 27.0344828,5.79310345 C27.0344828,5.9862069 27.0344828,6.11494253 26.9701149,6.30804598 C24.3310345,5.72873563 21.8850575,6.05057471 20.5977011,6.30804598 C20.5977011,6.11494253 20.5333333,5.9862069 20.5333333,5.79310345 C20.5977011,3.9908046 22.0137931,2.57471264 23.816092,2.57471264 Z M24.4597701,53.4252874 C22.2712644,53.4252874 20.3402299,52.137931 19.5034483,50.2068966 L29.4804598,50.2068966 C28.5793103,52.137931 26.6482759,53.4252874 24.4597701,53.4252874 Z M41.8390805,40.5517241 C41.8390805,40.5517241 41.9034483,40.5517241 41.9034483,40.5517241 C42.4183908,41.2597701 42.9977011,41.7747126 43.6413793,42.2252874 C44.2850575,42.6758621 44.6712644,43.383908 44.6712644,44.091954 C44.6712644,45.3149425 43.6413793,46.3448276 42.4183908,46.3448276 L5.2137931,46.3448276 C3.9908046,46.3448276 2.96091954,45.3149425 2.96091954,44.091954 C2.96091954,43.3195402 3.34712644,42.6114943 3.9908046,42.2252874 C7.53103448,39.7793103 9.33333333,33.6643678 9.33333333,23.9448276 C9.33333333,14.1609195 15.383908,10.4275862 20.4045977,9.01149425 L20.4689655,9.01149425 C20.4689655,9.01149425 23.6873563,7.91724138 27.2275862,9.01149425 C28.7724138,9.46206897 30.1241379,10.0413793 31.4114943,10.7494253 C28.708046,13.0666667 27.0344828,16.4781609 27.0344828,20.2758621 C27.0344828,26.9701149 32.3126437,32.5057471 38.9425287,32.8275862 C39.2643678,34.8229885 39.7793103,36.5609195 40.4229885,37.9770115 L17.3793103,37.9770115 C16.6712644,37.9770115 16.091954,38.5563218 16.091954,39.2643678 C16.091954,39.9724138 16.6712644,40.5517241 17.3793103,40.5517241 L41.8390805,40.5517241 Z M39.5862069,30.2528736 C34.1149425,30.2528736 29.6091954,25.7471264 29.6091954,20.2758621 C29.6091954,14.8045977 34.1149425,10.2988506 39.5862069,10.2988506 C45.0574713,10.2988506 49.5632184,14.8045977 49.5632184,20.2758621 C49.5632184,25.7471264 45.0574713,30.2528736 39.5862069,30.2528736 Z" id="Shape"></path>
                    </g>
                </g>
            </g>
        </g>
    </g>
</svg>