<?xml version="1.0" encoding="UTF-8"?>
<svg width="80px" height="80px" viewBox="0 0 80 80" version="1.1" xmlns="http://www.w3.org/2000/svg" xmlns:xlink="http://www.w3.org/1999/xlink">
    <title>45A0BCA2-1113-4381-812E-D25EE4A26974</title>
    <g id="Widget-Linked" stroke="none" stroke-width="1" fill="none" fill-rule="evenodd">
        <g id="Pie2" transform="translate(-606.000000, -732.000000)" fill="#6C7A88" fill-rule="nonzero">
            <g id="Group-26" transform="translate(606.000000, 732.000000)">
                <path d="M61,11 C68.1797017,11 74,16.8202983 74,24 C74,30.1468575 69.7338244,35.2972964 64.0008554,36.6519342 L64,65 C64,65.5522847 63.5522847,66 63,66 L8,66 C7.44771525,66 7,65.5522847 7,65 L7,22 C7,21.4477153 7.44771525,21 8,21 L48.3478287,21.000148 C49.7021026,15.2666734 54.8527838,11 61,11 Z M14.73,23 L9,23 L9,64 L14.73,64 L14.73,23 Z M48.0378567,23.0004329 L16.73,23 L16.73,64 L62,64 L62,37.02 L61.7607622,37.042688 C59.8849605,37.1923245 58.1627008,36.9575671 56.6086029,36.3213582 L56.3000297,36.1887587 C54.5558716,35.4032198 53.4926005,34.7559848 52.6476266,33.9833132 C52.5723918,33.914516 52.4998587,33.8458144 52.4280365,33.7754007 C51.544865,32.9986824 50.7669327,32.1048028 50.1197601,31.1175053 C49.3729165,30.0923384 48.9087277,29.1007941 48.4602074,27.576044 C48.2787047,26.9590234 48.1573179,26.2938144 48.0942454,25.5795375 C48.0322268,25.0609674 48,24.5342472 48,24 C48,23.6636751 48.0127718,23.3303332 48.0378567,23.0004329 Z M37,41 C38.1045695,41 39,41.8954305 39,43 L39,60 C39,61.1045695 38.1045695,62 37,62 L22,62 C20.8954305,62 20,61.1045695 20,60 L20,43 C20,41.8954305 20.8954305,41 22,41 L37,41 Z M55,53 C56.1045695,53 57,53.8954305 57,55 L57,60 C57,61.1045695 56.1045695,62 55,62 L42,62 C40.8954305,62 40,61.1045695 40,60 L40,55 C40,53.8954305 40.8954305,53 42,53 L55,53 Z M37,43 L22,43 L22,60 L37,60 L37,43 Z M55,55 L42,55 L42,60 L55,60 L55,55 Z M28,47 C28.5522847,47 29,47.4477153 29,48 L29,56 L30,56 L30,51 C30,50.4477153 30.4477153,50 31,50 L34,50 C34.5522847,50 35,50.4477153 35,51 L35,56 L36,56 C36.5522847,56 37,56.4477153 37,57 C37,57.5128358 36.6139598,57.9355072 36.1166211,57.9932723 L36,58 L24,58 C23.4477153,58 23,57.5522847 23,57 C23,56.4871642 23.3860402,56.0644928 23.8833789,56.0067277 L24,56 L24,48 C24,47.4477153 24.4477153,47 25,47 L28,47 Z M27,49 L26,49 L26,56 L27,56 L27,49 Z M33,52 L32,52 L32,56 L33,56 L33,52 Z M55,41 C56.1045695,41 57,41.8954305 57,43 L57,50 C57,51.1045695 56.1045695,52 55,52 L42,52 C40.8954305,52 40,51.1045695 40,50 L40,43 C40,41.8954305 40.8954305,41 42,41 L55,41 Z M55,43 L42,43 L42,50 L55,50 L55,43 Z M49.1266293,36 C49.678914,36 50.1266293,36.4477153 50.1266293,37 C50.1266293,37.5128358 49.7405891,37.9355072 49.2432504,37.9932723 L49.1266293,38 L21.0554336,38 C20.5031488,38 20.0554336,37.5522847 20.0554336,37 C20.0554336,36.4871642 20.4414737,36.0644928 20.9388124,36.0067277 L21.0554336,36 L49.1266293,36 Z M61,13 C55.8222487,13 51.48004,16.5773833 50.3102069,21.3953169 L50.3789164,21 C50.0774896,22.6726013 49.9789293,24.1271784 50.0832357,25.3637312 C50.2929196,27.0567655 50.8873193,28.6313224 51.7765014,29.9962726 C51.9097405,30.1817184 52.0463232,30.3559274 52.1860507,30.5246468 L52.4660556,30.8522168 L53.4607855,31.9628935 L53.6415313,32.1574606 L53.7803831,32.2994408 C55.7123635,33.9814785 58.2372375,35 61,35 C67.0751322,35 72,30.0751322 72,24 C72,17.9248678 67.0751322,13 61,13 Z M28,26 C29.1045695,26 30,26.8954305 30,28 L30,31 C30,32.1045695 29.1045695,33 28,33 L22,33 C20.8954305,33 20,32.1045695 20,31 L20,28 C20,26.8954305 20.8954305,26 22,26 L28,26 Z M40,26 C41.1045695,26 42,26.8954305 42,28 L42,31 C42,32.1045695 41.1045695,33 40,33 L34,33 C32.8954305,33 32,32.1045695 32,31 L32,28 C32,26.8954305 32.8954305,26 34,26 L40,26 Z M57.4494,21.9602 C58.8244,20.5762 61.0554,20.4972 62.5274,21.7782 C62.6084,21.8602 62.6614,21.9222 62.7114,21.9872 C63.1224,22.3842 63.1294,23.0982 62.6964,23.5412 C62.2604,23.9852 61.5484,23.9922 61.1044,23.5592 L61.1044,23.5592 L61.0364,23.5022 C60.4424,22.9702 59.5524,22.9932 58.9994,23.5472 L58.9994,23.5472 L55.5944,26.9602 C55.0164,27.5382 55.0164,28.4782 55.5944,29.0552 C56.1704,29.6332 57.1124,29.6332 57.6884,29.0552 L57.6884,29.0552 L59.0194,27.7622 C59.4984,27.3682 60.1694,27.4112 60.5744,27.8382 C60.9774,28.2672 60.9824,28.9402 60.5854,29.3712 L60.5854,29.3712 L59.2734,30.6542 C58.5504,31.3182 57.6414,31.6482 56.7354,31.6482 C55.7794,31.6482 54.8264,31.2822 54.0974,30.5532 C52.6774,29.1332 52.6294,26.8632 53.9874,25.3842 L53.9874,25.3842 Z M28,28 L22,28 L22,31 L28,31 L28,28 Z M40,28 L34,28 L34,31 L40,31 L40,28 Z M62.2903,17.0824 C63.7413,15.6394 66.1083,15.6384 67.5633,17.0854 C69.0033,18.5524 68.9883,20.9194 67.5333,22.3644 L67.5333,22.3644 L64.1223,25.7754 C63.3993,26.4984 62.4423,26.8644 61.4823,26.8644 C60.6133,26.8644 59.7433,26.5644 59.0433,25.9584 C58.9813,25.9094 58.9133,25.8474 58.8483,25.7804 C58.4113,25.3524 58.4033,24.6384 58.8363,24.1944 C59.2723,23.7514 59.9853,23.7434 60.4283,24.1774 L60.4283,24.1774 L60.4973,24.2334 C61.0903,24.7674 61.9793,24.7444 62.5333,24.1884 L62.5333,24.1884 L65.9383,20.7754 C66.5163,20.1974 66.5163,19.2584 65.9383,18.6814 C65.3793,18.1204 64.4033,18.1204 63.8443,18.6814 L63.8443,18.6814 L62.5453,19.9714 C62.0643,20.3684 61.3913,20.3234 60.9893,19.8984 C60.5853,19.4714 60.5813,18.7974 60.9773,18.3644 L60.9773,18.3644 Z" id="Combined-Shape"></path>
            </g>
        </g>
    </g>
</svg>