<?xml version="1.0" encoding="UTF-8"?>
<svg width="64px" height="64px" viewBox="0 0 64 64" version="1.1" xmlns="http://www.w3.org/2000/svg" xmlns:xlink="http://www.w3.org/1999/xlink">
    <!-- Generator: sketchtool 58 (101010) - https://sketch.com -->
    <title>B388FF49-940B-4862-A3BE-EB957F2BD8EE</title>
    <desc>Created with sketchtool.</desc>
    <g id="-⚙-Design-Guideline" stroke="none" stroke-width="1" fill="none" fill-rule="evenodd">
        <g id="-⚙-Iconos" transform="translate(-859.000000, -840.000000)">
            <g id="ico-app-externa" transform="translate(859.000000, 840.000000)">
                <g>
                    <g transform="translate(8.000000, 16.000000)">
                        <g id="ico-external-link" fill-rule="nonzero">
                            <path d="M40.3954286,0 L2.60457143,0 C1.1696,0 0,1.14423077 0,2.54807692 L0,29.4519231 C0,30.8557692 1.1696,32 2.60457143,32 L40.3954286,32 C41.8304,32 43,30.8557692 43,29.4519231 L43,2.54807692 C43,1.14423077 41.8304,0 40.3954286,0 Z" id="Shape" stroke="#2B334A" stroke-width="2"></path>
                            <path d="M5.5,7 C6.32978723,7 7,6.32978723 7,5.5 C7,4.67021277 6.32978723,4 5.5,4 C4.67021277,4 4,4.67021277 4,5.5 C4,6.32978723 4.67021277,7 5.5,7 Z" id="Path" fill="#2B334A"></path>
                            <circle id="Oval" fill="#2B334A" cx="9.5" cy="5.5" r="1.5"></circle>
                            <circle id="Oval" fill="#2B334A" cx="13.5" cy="5.5" r="1.5"></circle>
                        </g>
                        <g id="external" transform="translate(30.000000, 5.000000)">
                            <rect id="Rectangle" fill="#FFFFFF" x="1" y="1" width="17" height="17" rx="2"></rect>
                            <path d="M15,10.3309479 C15,9.69361912 15,9.05629032 15,8.41896153 C15,7.40280094 15,6.38664034 15,5.37047975 C15,5.1364954 15,4.90251105 15,4.66852671 C15,4.30752228 14.6947061,4 14.3314733,4 C13.6941445,4 13.0568157,4 12.4194869,4 C11.4033263,4 10.3871657,4 9.37100513,4 C9.13702079,4 8.90303644,4 8.66905209,4 C8.31918978,4 7.98492643,4.30752228 8.00052538,4.66852671 C8.01612434,5.03175955 8.29467714,5.33705341 8.66905209,5.33705341 C9.30638088,5.33705341 9.94370968,5.33705341 10.5810385,5.33705341 C11.5971991,5.33705341 12.6133597,5.33705341 13.6295203,5.33705341 C13.8635046,5.33705341 14.0974889,5.33705341 14.3314733,5.33705341 C14.1086311,5.11421118 13.8857888,4.89136894 13.6629466,4.66852671 C13.6629466,5.3058555 13.6629466,5.94318429 13.6629466,6.58051309 C13.6629466,7.59667368 13.6629466,8.61283427 13.6629466,9.62899487 C13.6629466,9.86297921 13.6629466,10.0969636 13.6629466,10.3309479 C13.6629466,10.6808102 13.9704689,11.0150736 14.3314733,10.9994746 C14.6947061,10.9838757 15,10.7075513 15,10.3309479 L15,10.3309479 Z" id="Path" stroke="#2B334A" stroke-width="0.5" fill="#2B334A" fill-rule="nonzero"></path>
                            <path d="M4.99400193,14.834066 C5.28619726,14.5417861 5.58034057,14.2475576 5.87253591,13.9552777 C6.57575268,13.2518574 7.27896946,12.548437 7.98413421,11.8430682 C8.83539663,10.9915593 9.68665904,10.1400505 10.5379215,9.28854168 C11.2742537,8.55199628 12.008638,7.81739942 12.7449702,7.08085402 C13.1014486,6.72427252 13.4657187,6.37158809 13.8163531,6.00916099 C13.8221971,6.00331539 13.826093,5.99941832 13.8319369,5.99357272 C14.0481614,5.77728558 14.0637452,5.37978489 13.8319369,5.16739482 C13.5981806,4.95305621 13.2358584,4.93551942 13.0059981,5.16739482 C12.7138027,5.45967474 12.4196594,5.75390319 12.1274641,6.04618311 C11.4242473,6.74960345 10.7210305,7.45302379 10.0158658,8.15839266 C9.16460337,9.00990149 8.31334096,9.86141032 7.46207854,10.7129192 C6.72574629,11.4494645 5.99136201,12.1840614 5.25502976,12.9206068 C4.89855145,13.2771883 4.53428126,13.6298727 4.18364686,13.9922998 C4.17780295,13.9981454 4.17390701,14.0020425 4.1680631,14.0078881 C3.95183856,14.2241752 3.9362548,14.6216759 4.1680631,14.834066 C4.39987141,15.0464561 4.76219362,15.0639929 4.99400193,14.834066 L4.99400193,14.834066 Z" id="Path" stroke="#2B334A" stroke-width="0.5" fill="#2B334A" fill-rule="nonzero"></path>
                            <path d="M16.4199192,17.7772679 C16.2941738,17.7772679 16.1684284,17.7772679 16.0426829,17.7772679 C15.7019534,17.7772679 15.363252,17.7772679 15.0225224,17.7772679 C14.5175126,17.7772679 14.0145309,17.7772679 13.509521,17.7772679 C12.8949909,17.7772679 12.2804608,17.7772679 11.6659307,17.7772679 C10.9966406,17.7772679 10.3293785,17.7772679 9.66008834,17.7772679 C8.9847137,17.7772679 8.30933906,17.7772679 7.63193627,17.7772679 C7.00523727,17.7772679 6.37853828,17.7772679 5.75183929,17.7772679 C5.22857606,17.7772679 4.70734097,17.7772679 4.18407774,17.7772679 C3.81292591,17.7772679 3.44380223,17.7772679 3.0726504,17.7772679 C2.91039823,17.7772679 2.74814606,17.7772679 2.5858939,17.7772679 C2.49868336,17.7772679 2.41147282,17.7711846 2.32426228,17.7610459 C2.37902239,17.7691569 2.43175434,17.7752401 2.48651445,17.7833511 C2.31412152,17.7590181 2.14781305,17.7144077 1.98758904,17.6495197 C2.03626469,17.6697972 2.08494034,17.6900747 2.13361599,17.7103522 C2.01801132,17.6616862 1.9084911,17.6028815 1.8030272,17.5339381 C1.79085828,17.5258271 1.71581666,17.4852721 1.71581666,17.4731057 C1.71581666,17.4872999 1.85170285,17.5826041 1.75435155,17.5035219 C1.7056759,17.4629669 1.66105655,17.422412 1.61643721,17.3778015 C1.57181786,17.333191 1.53125482,17.2885806 1.49069178,17.2399146 C1.45824134,17.2013874 1.4176783,17.1223052 1.52111406,17.2784418 C1.50083254,17.2480256 1.47852286,17.2216649 1.4602695,17.1912487 C1.39131233,17.0878335 1.33249591,16.9763074 1.28382026,16.8607257 C1.30410179,16.9093917 1.32438331,16.9580576 1.34466483,17.0067236 C1.27976396,16.8465315 1.23514462,16.6802561 1.21080679,16.5078975 C1.2189194,16.5626467 1.22500385,16.6153682 1.23311646,16.6701174 C1.21080679,16.4815368 1.21689125,16.2889007 1.21689125,16.0982924 C1.21689125,15.7677695 1.21689125,15.4392743 1.21689125,15.1087513 C1.21689125,14.611953 1.21689125,14.113127 1.21689125,13.6163287 C1.21689125,12.9998933 1.21689125,12.3854856 1.21689125,11.7690502 C1.21689125,11.0958378 1.21689125,10.4226254 1.21689125,9.74941302 C1.21689125,9.0660619 1.21689125,8.38271078 1.21689125,7.69935966 C1.21689125,7.06670224 1.21689125,6.43404482 1.21689125,5.80341515 C1.21689125,5.27214514 1.21689125,4.74087513 1.21689125,4.21163287 C1.21689125,3.83447172 1.21689125,3.45731057 1.21689125,3.08217716 C1.21689125,2.91792956 1.21689125,2.75165422 1.21689125,2.58740662 C1.21689125,2.50021345 1.2229757,2.41302028 1.23311646,2.32582711 C1.22500385,2.38057631 1.2189194,2.43329776 1.21080679,2.48804696 C1.23514462,2.31568837 1.27976396,2.14941302 1.34466483,1.98922092 C1.32438331,2.03788687 1.30410179,2.08655283 1.28382026,2.13521878 C1.33249591,2.01963714 1.39131233,1.91013874 1.4602695,1.80469584 C1.4683821,1.79252935 1.50894515,1.71750267 1.52111406,1.71750267 C1.50691699,1.71750267 1.41159385,1.85336179 1.49069178,1.75602988 C1.53125482,1.70736393 1.57181786,1.66275347 1.61643721,1.61814301 C1.66105655,1.57353255 1.7056759,1.53297759 1.75435155,1.49242263 C1.79288644,1.45997866 1.87198437,1.41942369 1.71581666,1.52283885 C1.74623894,1.50256137 1.77260492,1.48025614 1.8030272,1.4620064 C1.90646295,1.39306297 2.01801132,1.33425827 2.13361599,1.28559232 C2.08494034,1.3058698 2.03626469,1.32614728 1.98758904,1.34642476 C2.14781305,1.28153682 2.31412152,1.23692636 2.48651445,1.21259338 C2.43175434,1.22070438 2.37902239,1.22678762 2.32426228,1.23489861 C2.51288042,1.21259338 2.70555487,1.21867663 2.89620117,1.21867663 C3.22678995,1.21867663 3.55535059,1.21867663 3.88593938,1.21867663 C4.38283664,1.21867663 4.88176205,1.21867663 5.37865931,1.21867663 C5.99521754,1.21867663 6.60974762,1.21867663 7.22630585,1.21867663 C7.89965234,1.21867663 8.57299883,1.21867663 9.24634532,1.21867663 C9.92983257,1.21867663 10.6133198,1.21867663 11.2968071,1.21867663 C11.9295905,1.21867663 12.562374,1.21867663 13.1931293,1.21867663 C13.7245051,1.21867663 14.255881,1.21867663 14.7852286,1.21867663 C15.1624649,1.21867663 15.5397012,1.21867663 15.9149094,1.21867663 C16.0791897,1.21867663 16.2454981,1.21867663 16.4097785,1.21867663 C16.496989,1.21867663 16.5841995,1.22475987 16.6714101,1.23489861 C16.61665,1.22678762 16.563918,1.22070438 16.5091579,1.21259338 C16.6815508,1.23692636 16.8478593,1.28153682 17.0080833,1.34642476 C16.9594077,1.32614728 16.910732,1.3058698 16.8620564,1.28559232 C16.977661,1.33425827 17.0871813,1.39306297 17.1926452,1.4620064 C17.2048141,1.4701174 17.2798557,1.51067236 17.2798557,1.52283885 C17.2798557,1.50864461 17.1439695,1.41334045 17.2413208,1.49242263 C17.2899965,1.53297759 17.3346158,1.57353255 17.3792352,1.61814301 C17.4238545,1.66275347 17.4644175,1.70736393 17.5049806,1.75602988 C17.537431,1.7945571 17.5779941,1.87363927 17.4745583,1.71750267 C17.4948398,1.74791889 17.5171495,1.77427962 17.5354029,1.80469584 C17.60436,1.90811099 17.6631764,2.01963714 17.7118521,2.13521878 C17.6915706,2.08655283 17.671289,2.03788687 17.6510075,1.98922092 C17.7159084,2.14941302 17.7605277,2.31568837 17.7848656,2.48804696 C17.776753,2.43329776 17.7706685,2.38057631 17.7625559,2.32582711 C17.7848656,2.51440768 17.7787811,2.70704376 17.7787811,2.89765208 C17.7787811,3.22817503 17.7787811,3.55667022 17.7787811,3.88719317 C17.7787811,4.38399146 17.7787811,4.8828175 17.7787811,5.3796158 C17.7787811,5.99605123 17.7787811,6.61045891 17.7787811,7.22689434 C17.7787811,7.90010672 17.7787811,8.5733191 17.7787811,9.24653148 C17.7787811,9.9298826 17.7787811,10.6132337 17.7787811,11.2965848 C17.7787811,11.9292423 17.7787811,12.5618997 17.7787811,13.1925293 C17.7787811,13.7237994 17.7787811,14.2550694 17.7787811,14.7843116 C17.7787811,15.1614728 17.7787811,15.5386339 17.7787811,15.9137673 C17.7787811,16.0780149 17.7787811,16.2442903 17.7787811,16.4085379 C17.7787811,16.4957311 17.7726967,16.5829242 17.7625559,16.6701174 C17.7706685,16.6153682 17.776753,16.5626467 17.7848656,16.5078975 C17.7605277,16.6802561 17.7159084,16.8465315 17.6510075,17.0067236 C17.671289,16.9580576 17.6915706,16.9093917 17.7118521,16.8607257 C17.6631764,16.9763074 17.60436,17.0858058 17.5354029,17.1912487 C17.5272903,17.2034152 17.4867272,17.2784418 17.4745583,17.2784418 C17.4887554,17.2784418 17.5840785,17.1425827 17.5049806,17.2399146 C17.4644175,17.2885806 17.4238545,17.333191 17.3792352,17.3778015 C17.3346158,17.422412 17.2899965,17.4629669 17.2413208,17.5035219 C17.2027859,17.5359658 17.123688,17.5765208 17.2798557,17.4731057 C17.2494334,17.4933831 17.2230674,17.5156884 17.1926452,17.5339381 C17.0892094,17.6028815 16.977661,17.6616862 16.8620564,17.7103522 C16.910732,17.6900747 16.9594077,17.6697972 17.0080833,17.6495197 C16.8478593,17.7144077 16.6815508,17.7590181 16.5091579,17.7833511 C16.563918,17.7752401 16.61665,17.7691569 16.6714101,17.7610459 C16.5882558,17.7711846 16.5030735,17.7752401 16.4199192,17.7772679 C16.1014993,17.7792956 15.7972765,18.0550694 15.8114736,18.3855923 C15.8256707,18.7140875 16.0791897,18.9959445 16.4199192,18.9939168 C17.0689279,18.9898613 17.6814298,18.742476 18.16413,18.3105656 C18.644802,17.8786553 18.9145463,17.2764141 18.9855316,16.6417289 C19.0078413,16.4369264 18.9977005,16.2260406 18.9977005,16.021238 C18.9977005,15.6278549 18.9977005,15.2364995 18.9977005,14.8431163 C18.9977005,14.2570971 18.9977005,13.6710779 18.9977005,13.0850587 C18.9977005,12.3834578 18.9977005,11.6798292 18.9977005,10.9782284 C18.9977005,10.2259338 18.9977005,9.47161153 18.9977005,8.71931697 C18.9977005,7.99338314 18.9977005,7.26947705 18.9977005,6.54354322 C18.9977005,5.9149413 18.9977005,5.28633938 18.9977005,4.65773746 C18.9977005,4.19541089 18.9977005,3.73308431 18.9977005,3.26872999 C18.9977005,3.04770544 18.9977005,2.8266809 18.9977005,2.60565635 C18.9956724,1.65058698 18.4663247,0.721878335 17.6023319,0.289967983 C17.2271237,0.103415155 16.8255496,0.00202774813 16.403694,0 C16.336765,0 16.2678078,0 16.2008788,0 C15.8642055,0 15.5295605,0 15.1928872,0 C14.6452862,0 14.0997132,0 13.5521122,0 C12.8706531,0 12.1912221,0 11.509763,0 C10.7613749,0 10.0129868,0 9.26459869,0 C8.52635133,0 7.79013213,0 7.05188477,0 C6.3907072,0 5.72952962,0 5.06835204,0 C4.56131402,0 4.05224785,0 3.54520983,0 C3.25924039,0 2.97327095,0 2.68932965,0 C2.6325414,0 2.57778129,0 2.52099303,0 C1.87604067,0.0182497332 1.26151059,0.275773746 0.795035614,0.717822839 C0.328560637,1.15987193 0.0689571706,1.75805763 0.00811260831,2.3927428 C0,2.48601921 0,2.57726788 0,2.67054429 C0,2.94631804 0,3.22006403 0,3.49583778 C0,3.99871932 0,4.50160085 0,5.00448239 C0,5.65944504 0,6.31237994 0,6.96734258 C0,7.70747065 0,8.44557097 0,9.18569904 C0,9.93191035 0,10.6781217 0,11.424333 C0,12.1117396 0,12.7991462 0,13.4865528 C0,14.0381003 0,14.5876201 0,15.1391676 C0,15.4859125 0,15.8306297 0,16.1773746 C0,16.2503735 0,16.3254002 0,16.3983991 C0,16.7877268 0.0872105393,17.1527215 0.243378249,17.5075774 C0.646980513,18.4220918 1.61035275,18.9979723 2.59603466,19 C2.80696247,19 3.01789029,19 3.23084626,19 C3.68312417,19 4.13743024,19 4.58970815,19 C5.21640714,19 5.84310613,19 6.46980513,19 C7.19182727,19 7.91587756,19 8.6378997,19 C9.38831597,19 10.1387322,19 10.8891485,19 C11.5990017,19 12.3068268,19 13.01668,19 C13.6068723,19 14.1950364,19 14.7852286,19 C15.1868028,19 15.5883769,19 15.9919791,19 C16.1359779,19 16.2779486,19 16.4219474,19 C16.7403672,19 17.0445901,18.7201708 17.030393,18.3916756 C17.0141678,18.0550694 16.7606488,17.7772679 16.4199192,17.7772679 Z" id="Path" stroke="#2B334A" stroke-width="0.5" fill="#2B334A" fill-rule="nonzero"></path>
                        </g>
                    </g>
                </g>
            </g>
        </g>
    </g>
</svg>