<?xml version="1.0" encoding="UTF-8"?>
<svg width="80px" height="80px" viewBox="0 0 80 80" version="1.1" xmlns="http://www.w3.org/2000/svg" xmlns:xlink="http://www.w3.org/1999/xlink">
    <title>Widget-issues</title>
    <g id="Widget-issues" stroke="none" stroke-width="1" fill="none" fill-rule="evenodd">
        <g id="Pie2" transform="translate(-1170.000000, -732.000000)" fill="#6C7A88"  fill-rule="nonzero">
            <g id="Group-28" transform="translate(1170.000000, 732.000000)">
                <path d="M68.7887326,16 C69.7242931,16 70.4907665,16.7239479 70.5585129,17.6422038 L70.5633805,17.7746479 L70.5636579,43.0252346 C73.2731021,45.2620427 75.000002,48.6465453 75.000002,52.434387 C75.000002,59.1696617 69.539983,64.6296807 62.8047082,64.6296807 C60.6057036,64.6296807 58.5426363,64.0476635 56.7611474,63.02927 L13.7746479,63.0281692 C12.8390874,63.0281692 12.072614,62.3042213 12.0048676,61.3859654 L12,61.2535213 L12,17.7746479 C12,16.8390874 12.7239479,16.072614 13.6422038,16.0048676 L13.7746479,16 L68.7887326,16 Z M62.8047082,42.0137411 C57.0495444,42.0137411 52.3840624,46.6792232 52.3840624,52.434387 C52.3840624,58.1895508 57.0495444,62.8550328 62.8047082,62.8550328 C68.559872,62.8550328 73.2253541,58.1895508 73.2253541,52.434387 C73.2253541,46.6792232 68.559872,42.0137411 62.8047082,42.0137411 Z M20.108,17.774 L13.7746479,17.7746479 L13.7746479,61.2535213 L20.108,61.253 L20.108,17.774 Z M68.7887326,17.7746479 L21.882,17.774 L21.882,61.253 L54.3812343,61.2531603 C52.0571409,59.0326101 50.6094145,55.9025658 50.6094145,52.434387 C50.6094145,52.3007825 50.6115629,52.1676799 50.6158272,52.0351117 C50.5454257,52.0650079 50.4693727,52.0846499 50.3901357,52.0938532 L50.286655,52.0998229 L49.463,52.099 L49.4623199,52.1156348 C49.3447798,54.0377355 47.4288263,55.477447 45.1687919,55.477447 C42.9025086,55.477447 40.9822115,54.029763 40.8743303,52.09968 L31.5211179,52.0998229 C31.0660664,52.0998229 30.69102,51.7572802 30.6397636,51.3159796 L30.633794,51.2124989 L30.633794,49.506541 C30.633794,49.2712081 30.7272796,49.0455137 30.8936851,48.8791082 C33.3179795,46.4548139 34.7977582,43.3762136 34.8937164,40.4282374 L34.8986888,40.1237725 L34.8986888,34.1529197 C34.8986888,28.7798684 39.0248382,24.3705184 44.281374,23.9206329 L44.281468,22.2112676 C44.281468,21.7212121 44.6787364,21.3239437 45.1687919,21.3239437 C45.6238434,21.3239437 45.9988898,21.6664864 46.0501462,22.1077869 L46.0561159,22.2112676 L46.0563296,23.9206449 C51.2274291,24.3632897 55.3045544,28.6377393 55.4356217,33.8919101 L55.4388738,34.1529197 L55.4388738,40.1237725 C55.4388738,40.9065511 55.537265,41.7025046 55.7298818,42.4996384 C57.7260334,41.0761052 60.1676235,40.2390932 62.8047082,40.2390932 C64.979435,40.2390932 67.0212093,40.8083299 68.7891612,41.8059332 L68.7887326,17.7746479 Z M64.1827823,45.980758 L64.2604745,46.0927268 L70.4236825,55.8179313 C71.045012,56.7981509 70.4497405,58.1575578 69.2995676,58.2501445 L69.1742416,58.255142 L64.8590329,58.255142 L64.8590329,56.4804941 L68.7425918,56.4797185 L63.0104791,47.4352255 L57.2783664,56.4797185 L61.1627907,56.4804941 L61.1627907,58.255142 L56.847582,58.255142 C55.6586173,58.255142 55.0009219,56.9295357 55.5361575,55.9243906 L55.5980991,55.8179977 L61.7613306,46.0928777 C62.3288383,45.1969827 63.5598981,45.1596537 64.1827823,45.980758 Z M63.9127563,56.7517777 L63.9127563,57.9838584 L62.1381084,57.9838584 L62.1381084,56.7517777 L63.9127563,56.7517777 Z M63.9127563,50.5913741 L63.9127563,55.5196969 L62.1381084,55.5196969 L62.1381084,50.5913741 L63.9127563,50.5913741 Z M47.680932,52.09967 L42.656624,52.0994783 C42.780797,52.9555508 43.8222094,53.7027991 45.1687919,53.7027991 C46.5152739,53.7027991 47.5566313,52.9556624 47.680932,52.09967 Z M45.1687813,25.6574751 C40.5577777,25.6574751 36.8047575,29.3309953 36.6767137,33.9110425 L36.6733367,34.1529197 L36.6733367,40.1237725 C36.6733367,43.4432513 35.1778266,46.8553833 32.6646198,49.5952011 L32.4075635,49.8682677 L32.4075635,50.3243523 L50.286655,50.325175 C50.4640408,50.325175 50.6292694,50.3772263 50.7679003,50.4668883 C51.011351,48.9613353 51.5316497,47.5471932 52.2744296,46.2791887 L45.1687919,46.2790531 C44.6787364,46.2790531 44.281468,45.8817846 44.281468,45.3917291 C44.281468,44.9366776 44.6240107,44.5616312 45.0653112,44.5103748 L45.1687919,44.5044052 L53.5397357,44.5040068 C53.7619651,44.2446223 53.994898,43.9946789 54.23785,43.7548611 L54.3573016,44.1198807 C53.9469985,42.9281078 53.7138496,41.7188913 53.6713229,40.5221741 L53.6642259,40.1237725 L53.6642259,34.1529197 C53.6642259,29.4610214 49.8606796,25.6574751 45.1687813,25.6574751 Z M42.0008864,44.5044052 C42.4909419,44.5044052 42.8882104,44.9016736 42.8882104,45.3917291 C42.8882104,45.8467806 42.5456677,46.221827 42.1043671,46.2730834 L42.0008864,46.2790531 L41.5572245,46.2790531 C41.067169,46.2790531 40.6699005,45.8817846 40.6699005,45.3917291 C40.6699005,44.9366776 41.0124432,44.5616312 41.4537437,44.5103748 L41.5572245,44.5044052 L42.0008864,44.5044052 Z M34.3507256,22.248143 C34.5031532,22.7138899 34.2491576,23.2150194 33.7834107,23.3674469 C31.0724805,24.254668 29.0530033,26.5799063 28.5987922,29.4476823 C28.4065442,30.6614884 28.5068074,31.8777528 28.8801684,33.0190069 C29.0325431,33.4847712 28.7784907,33.9858718 28.3127264,34.1382465 C27.8469622,34.2906211 27.3458616,34.0365687 27.1934869,33.5708045 C26.7331756,32.1637693 26.6094854,30.6633176 26.8459932,29.1700662 C27.4054033,25.6380899 29.893539,22.7732353 33.2314217,21.6808281 C33.6971686,21.5284005 34.1982981,21.782396 34.3507256,22.248143 Z M56.1986415,22.248143 C56.3510691,21.782396 56.8521985,21.5284005 57.3179454,21.6808281 C60.6558281,22.7732353 63.1439638,25.6380899 63.7033739,29.1700662 C63.9398817,30.6633176 63.8161915,32.1637693 63.3558802,33.5708045 C63.2035055,34.0365687 62.7024049,34.2906211 62.2366407,34.1382465 C61.7708764,33.9858718 61.516824,33.4847712 61.6691987,33.0190069 C62.0425597,31.8777528 62.1428229,30.6614884 61.9505749,29.4476823 C61.4963638,26.5799063 59.4768866,24.254668 56.7659564,23.3674469 C56.3002095,23.2150194 56.0462139,22.7138899 56.1986415,22.248143 Z M35.3145697,25.976685 C35.4907764,26.4339656 35.2629209,26.9475085 34.8056403,27.1237152 C33.5574016,27.6047064 32.6461039,28.7099864 32.4330753,30.054996 C32.3282714,30.7167019 32.3997378,31.378451 32.6334977,31.9890255 C32.8087143,32.4466864 32.579748,32.959735 32.1220871,33.1349516 C31.6644261,33.3101682 31.1513775,33.0812019 30.9761609,32.6235409 C30.6319232,31.7244015 30.5265037,30.7482614 30.6802763,29.7773799 C30.9933779,27.8005339 32.3343116,26.1741641 34.1675395,25.4677555 C34.6248202,25.2915488 35.1383631,25.5194043 35.3145697,25.976685 Z M55.2347569,25.976685 C55.4109636,25.5194043 55.9245065,25.2915488 56.3817872,25.4677555 C58.2150151,26.1741641 59.5559488,27.8005339 59.8690504,29.7773799 C60.0228229,30.7482614 59.9174035,31.7244015 59.5731658,32.6235409 C59.3979491,33.0812019 58.8849005,33.3101682 58.4272396,33.1349516 C57.9695787,32.959735 57.7406123,32.4466864 57.915829,31.9890255 C58.1495889,31.378451 58.2210553,30.7167019 58.1162514,30.054996 C57.9032228,28.7099864 56.9919251,27.6047064 55.7436864,27.1237152 C55.2864058,26.9475085 55.0585503,26.4339656 55.2347569,25.976685 Z" id="Combined-Shape"></path>
            </g>
        </g>
    </g>
</svg>