<?xml version="1.0" encoding="UTF-8"?>
<svg width="30px" height="30px" viewBox="0 0 30 30" version="1.1" xmlns="http://www.w3.org/2000/svg" xmlns:xlink="http://www.w3.org/1999/xlink">
    <title>7EA7E510-7305-40A8-8B64-853027141C1E</title>
    <g id="New-Dashboards" stroke="none" stroke-width="1" fill="none" fill-rule="evenodd">
        <g id="Dashboards---Mapas-v2---Config-avanzado-colapsed" transform="translate(-843.000000, -294.000000)">
            <g id="ICO-back2" transform="translate(843.000000, 294.000000)">
                <rect id="Rectangle" x="0" y="0" width="30" height="30"></rect>
                <rect id="Rectangle-Copy" x="0" y="0" width="30" height="30"></rect>
                <rect id="Rectangle-44" x="7" y="7" width="16" height="16"></rect>
                <g id="back" transform="translate(6.000000, 9.000000)" fill="#577EE8" fill-rule="nonzero">
                    <g id="arrow-left">
                        <path d="M17,5 L3.41,5 L6.71,1.71 C7.10212217,1.31787783 7.10212217,0.682122172 6.71,0.29 C6.31787783,-0.102122172 5.68212217,-0.102122172 5.29,0.29 L0.29,5.29 C0.198959371,5.38510371 0.127594388,5.49724868 0.08,5.62 C-0.0200180181,5.86346136 -0.0200180181,6.13653864 0.08,6.38 C0.127594388,6.50275132 0.198959371,6.61489629 0.29,6.71 L5.29,11.71 C5.4777666,11.8993127 5.73336246,12.0057983 6,12.0057983 C6.26663754,12.0057983 6.5222334,11.8993127 6.71,11.71 C6.89931265,11.5222334 7.00579832,11.2666375 7.00579832,11 C7.00579832,10.7333625 6.89931265,10.4777666 6.71,10.29 L3.41,7 L17,7 C17.5522847,7 18,6.55228475 18,6 C18,5.44771525 17.5522847,5 17,5 Z" id="Path"></path>
                    </g>
                </g>
            </g>
        </g>
    </g>
</svg>