<?xml version="1.0" encoding="UTF-8"?>
<svg width="104px" height="104px" viewBox="0 0 104 104" version="1.1" xmlns="http://www.w3.org/2000/svg" xmlns:xlink="http://www.w3.org/1999/xlink">
    <!-- Generator: sketchtool 57.1 (101010) - https://sketch.com -->
    <title>99509C24-B03E-4981-8D68-D7A09EA5AE8B</title>
    <desc>Created with sketchtool.</desc>
    <g id="-⚙-Design-Guideline" stroke="none" stroke-width="1" fill="none" fill-rule="evenodd">
        <g id="-⚙-Iconos" transform="translate(-847.000000, -675.000000)" fill="#577EE8" fill-rule="nonzero">
            <g id="ico-KPI-Text" transform="translate(845.000000, 673.000000)">
                <g id="noun_text_2000007" transform="translate(31.000000, 31.000000)">
                    <path d="M44.4156627,0.5 L1.58433735,0.5 C0.985783133,0.5 0.5,0.985783133 0.5,1.58433735 L0.5,44.4156627 C0.5,45.0142169 0.985783133,45.5 1.58433735,45.5 L14.0542169,45.5 L14.0542169,43.3313253 L2.6686747,43.3313253 L2.6686747,2.6686747 L43.3313253,2.6686747 L43.3313253,43.3313253 L21.798012,43.3313253 L21.798012,13.8059036 C21.798012,13.2073494 21.3122289,12.7215663 20.7136747,12.7215663 L12.4109036,12.7215663 C11.8123494,12.7215663 11.3265663,13.2073494 11.3265663,13.8059036 L11.3265663,14.9872892 L9.81825301,14.9872892 L9.81825301,10.296988 L36.1812048,10.296988 L36.1812048,14.9872892 L34.6734337,14.9872892 L34.6734337,13.8059036 C34.6734337,13.2073494 34.1876506,12.7215663 33.5890964,12.7215663 L25.2863253,12.7215663 C24.6877711,12.7215663 24.201988,13.2073494 24.201988,13.8059036 L24.201988,38.6594578 L26.3706627,38.6594578 L26.3706627,14.890241 L32.504759,14.890241 L32.504759,16.0716265 C32.504759,16.6701807 32.9905422,17.1559639 33.5890964,17.1559639 L37.2655422,17.1559639 C37.8640964,17.1559639 38.3498795,16.6701807 38.3498795,16.0716265 L38.3498795,9.2126506 C38.3498795,8.61409639 37.8640964,8.12831325 37.2655422,8.12831325 L8.73391566,8.12831325 C8.13536145,8.12831325 7.64957831,8.61409639 7.64957831,9.2126506 L7.64957831,16.0716265 C7.64957831,16.6701807 8.13536145,17.1559639 8.73391566,17.1559639 L12.4109036,17.1559639 C13.0094578,17.1559639 13.495241,16.6701807 13.495241,16.0716265 L13.495241,14.890241 L19.6293373,14.890241 L19.6293373,44.4156627 C19.6293373,45.0142169 20.1151205,45.5 20.7136747,45.5 L44.4156627,45.5 C45.0142169,45.5 45.5,45.0142169 45.5,44.4156627 L45.5,1.58433735 C45.5,0.985783133 45.0142169,0.5 44.4156627,0.5 Z" id="Path"></path>
                </g>
            </g>
        </g>
    </g>
</svg>