<?xml version="1.0" encoding="UTF-8"?>
<svg width="80px" height="80px" viewBox="0 0 80 80" version="1.1" xmlns="http://www.w3.org/2000/svg" xmlns:xlink="http://www.w3.org/1999/xlink">
    <title>Widget percent</title>
    <g id="Widget-percent" stroke="none" stroke-width="1" fill="none" fill-rule="evenodd">
        <g id="Pie2" transform="translate(-794.000000, -373.000000)" fill="#6C7A88" fill-rule="nonzero">
            <g id="Group-17" transform="translate(794.000000, 373.000000)">
                <path d="M40,16 C53.2413793,16 64,26.7586207 64,40 C64,53.2413793 53.2413793,64 40,64 C26.7586207,64 16,53.2413793 16,40 C16,26.7586207 26.7586207,16 40,16 Z M40,18.4827586 C28.1241379,18.4827586 18.4827586,28.1241379 18.4827586,40 C18.4827586,51.8758621 28.1241379,61.5172414 40,61.5172414 C51.8758621,61.5172414 61.5172414,51.8758621 61.5172414,40 C61.5172414,28.1241379 51.8758621,18.4827586 40,18.4827586 Z M47.4482759,42.8965517 C50.1793103,42.8965517 52.4137931,45.1310345 52.4137931,47.862069 C52.4137931,50.5931034 50.1793103,52.8275862 47.4482759,52.8275862 C44.7172414,52.8275862 42.4827586,50.5931034 42.4827586,47.862069 C42.4827586,45.1310345 44.7172414,42.8965517 47.4482759,42.8965517 Z M29.6551724,49.1034483 C30.3407673,49.1034483 30.8965517,49.6592327 30.8965517,50.3448276 C30.8965517,51.0304224 30.3407673,51.5862069 29.6551724,51.5862069 C28.9695776,51.5862069 28.4137931,51.0304224 28.4137931,50.3448276 C28.4137931,49.6592327 28.9695776,49.1034483 29.6551724,49.1034483 Z M47.4482759,45.3793103 C46.0827586,45.3793103 44.9655172,46.4965517 44.9655172,47.862069 C44.9655172,49.2275862 46.0827586,50.3448276 47.4482759,50.3448276 C48.8137931,50.3448276 49.9310345,49.2275862 49.9310345,47.862069 C49.9310345,46.4965517 48.8137931,45.3793103 47.4482759,45.3793103 Z M49.4758621,28.7862069 C49.9310345,28.2896552 50.7172414,28.2896552 51.2137931,28.7862069 C51.7103448,29.2413793 51.7103448,30.0275862 51.2137931,30.5241379 L51.2137931,30.5241379 L34.662069,47.0758621 C34.4137931,47.3241379 34.0827586,47.4482759 33.7931034,47.4482759 C33.5034483,47.4482759 33.1724138,47.3241379 32.9241379,47.0758621 C32.4275862,46.6206897 32.4275862,45.7931034 32.9241379,45.337931 L32.9241379,45.337931 Z M32.137931,27.1724138 C34.8689655,27.1724138 37.1034483,29.4068966 37.1034483,32.137931 C37.1034483,34.8689655 34.8689655,37.1034483 32.137931,37.1034483 C29.4068966,37.1034483 27.1724138,34.8689655 27.1724138,32.137931 C27.1724138,29.4068966 29.4068966,27.1724138 32.137931,27.1724138 Z M32.137931,29.6551724 C30.7724138,29.6551724 29.6551724,30.7724138 29.6551724,32.137931 C29.6551724,33.5034483 30.7724138,34.6206897 32.137931,34.6206897 C33.5034483,34.6206897 34.6206897,33.5034483 34.6206897,32.137931 C34.6206897,30.7724138 33.5034483,29.6551724 32.137931,29.6551724 Z" id="Combined-Shape"></path>
            </g>
        </g>
    </g>
</svg>