<?xml version="1.0" encoding="UTF-8"?>
<svg width="24px" height="23px" viewBox="0 0 24 23" version="1.1" xmlns="http://www.w3.org/2000/svg" xmlns:xlink="http://www.w3.org/1999/xlink">
    <!-- Generator: sketchtool 63.1 (101010) - https://sketch.com -->
    <title>6704A955-C1C1-49D4-8274-52B60ABC38FF</title>
    <desc>Created with sketchtool.</desc>
    <g id="-⚙-Design-Guideline" stroke="none" stroke-width="1" fill="none" fill-rule="evenodd">
        <g id="-⚙-Iconos" transform="translate(-1181.000000, -261.000000)">
            <g id="ICO-open-map" transform="translate(1178.000000, 257.000000)">
                <rect id="Rectangle" x="0" y="0" width="30" height="30"></rect>
                <rect id="Rectangle" x="0" y="0" width="30" height="30"></rect>
                <g id="noun_world_1819918" transform="translate(3.000000, 4.000000)" fill="#000000" fill-rule="nonzero">
                    <path d="M22.854248,10.9488999 L21.2774048,10.9488999 C21.0234375,6.14107342 17.0849915,2.28324299 12.1770019,2.03445869 L12.1770019,0.489795918 C12.1770019,0.219308033 11.953125,0 11.6770019,0 C11.4008789,0 11.1770019,0.219308033 11.1770019,0.489795918 L11.1770019,2.03445869 C6.27545165,2.28291414 2.341156,6.1309391 2.0778198,10.9300064 L0.5,10.9300064 C0.22387695,10.9300064 0,11.1493144 0,11.4198023 C0,11.6902902 0.22387695,11.9095982 0.5,11.9095982 L2.0758667,11.9095982 C2.3205261,16.7261838 6.26260375,20.5938197 11.177002,20.8429329 L11.177002,22.3875957 C11.177002,22.6580835 11.4008789,22.8773916 11.677002,22.8773916 C11.953125,22.8773916 12.177002,22.6580835 12.177002,22.3875957 L12.177002,20.8429329 C17.0849915,20.5941486 21.0234375,16.7363182 21.2774048,11.9284917 L22.854248,11.9284917 C23.1303711,11.9284917 23.354248,11.7091837 23.354248,11.4386958 C23.354248,11.1682079 23.1303711,10.9488999 22.854248,10.9488999 Z M11.6770019,19.8881537 C6.92089845,19.8881537 3.05151365,16.097736 3.05151365,11.4386958 C3.05151365,6.77965558 6.92089845,2.98923791 11.6770019,2.98923791 C16.4333496,2.98923791 20.3027344,6.77965562 20.3027344,11.4386958 C20.3027344,16.097736 16.4333496,19.8881537 11.6770019,19.8881537 Z M11.7529297,4.48373726 C7.8486328,4.48373726 4.6723633,7.59518498 4.6723633,11.4198023 C4.6723633,15.2444196 7.8486328,18.3558673 11.7529297,18.3558673 C15.6572266,18.3558673 18.8334961,15.2444196 18.8334961,11.4198023 C18.8334961,7.59518498 15.6572265,4.48373726 11.7529297,4.48373726 Z M17.8081665,10.9300064 L15.9343872,10.9300064 C15.853424,8.95976165 15.2934265,7.239497 14.4333496,6.08146325 C16.3019104,6.98566051 17.6297607,8.79838967 17.8081665,10.9300064 Z M11.7529297,17.3284439 C10.1097718,17.3284439 8.71081545,14.8932458 8.5707703,11.9095982 L14.9350891,11.9095982 C14.7950439,14.8932458 13.3960876,17.3284439 11.7529297,17.3284439 Z M8.57077025,10.9300064 C8.7108154,7.94635881 10.1097717,5.5111607 11.7529296,5.5111607 C13.3960876,5.5111607 14.7950439,7.94635881 14.935089,10.9300064 L8.57077025,10.9300064 Z M9.07250975,6.08146325 C8.21243285,7.23949695 7.6524353,8.95976165 7.57147215,10.9300064 L5.69769285,10.9300064 C5.8760986,8.79838967 7.20394895,6.98566051 9.07250975,6.08146325 Z M5.69769285,11.9095982 L7.57147215,11.9095982 C7.6524353,13.879843 8.21243285,15.6001076 9.07250975,16.7581414 C7.20394895,15.8539441 5.8760986,14.0412149 5.69769285,11.9095982 Z M14.4333496,16.7581414 C15.2934265,15.6001077 15.853424,13.879843 15.9343872,11.9095982 L17.8081665,11.9095982 C17.6297607,14.0412149 16.3019104,15.8539441 14.4333496,16.7581414 Z" id="Shape"></path>
                </g>
            </g>
        </g>
    </g>
</svg>