<?xml version="1.0" encoding="UTF-8"?>
<svg width="104px" height="104px" viewBox="0 0 104 104" version="1.1" xmlns="http://www.w3.org/2000/svg" xmlns:xlink="http://www.w3.org/1999/xlink">
    <!-- Generator: sketchtool 63.1 (101010) - https://sketch.com -->
    <title>BFE4DA02-FA48-4A3D-AA3D-EF209C9B7A8B</title>
    <desc>Created with sketchtool.</desc>
    <g id="-⚙-Design-Guideline" stroke="none" stroke-width="1" fill="none" fill-rule="evenodd">
        <g id="-⚙-Iconos" transform="translate(-468.000000, -1333.000000)" fill="#577EE8">
            <g id="ico-rule" transform="translate(468.000000, 1333.000000)">
                <g id="Component/Icon/Wizard/ico-rule">
                    <path d="M50.4093878,28.402551 C53.7485714,28.402551 56.5606122,31.1190816 56.5606122,34.4582653 C56.5606122,37.1490816 54.3877551,39.434898 52.5510204,40.2210204 L52.5510204,40.2210204 L52.5510204,46.4897959 L66.659898,46.4897959 C71.5410204,46.4897959 75.5102041,50.6738776 75.5102041,55.5531633 L75.5102041,55.5531633 L75.5102041,88.1496939 C75.5102041,93.0308163 71.5410204,97 66.659898,97 L66.659898,97 L34.0633673,97 C29.1831633,97 25,93.029898 25,88.1496939 L25,88.1496939 L25,55.5531633 C25,50.6738776 29.1831633,46.4897959 34.0633673,46.4897959 L34.0633673,46.4897959 L47.9591837,46.4897959 L47.9591837,40.2173469 C46.122449,39.4266327 44.0653061,37.1444898 44.0653061,34.4582653 C44.0653061,31.1190816 47.0702041,28.402551 50.4093878,28.402551 Z M66.7159184,50.1632653 L33.7942857,50.1632653 C30.9666327,50.1632653 28.6734694,52.4555102 28.6734694,55.2840816 L28.6734694,55.2840816 L28.6734694,88.2057143 C28.6734694,91.0342857 30.9666327,93.3265306 33.7942857,93.3265306 L33.7942857,93.3265306 L66.7159184,93.3265306 C69.5444898,93.3265306 71.8367347,91.0342857 71.8367347,88.2057143 L71.8367347,88.2057143 L71.8367347,55.2840816 C71.8367347,52.4555102 69.5444898,50.1632653 66.7159184,50.1632653 L66.7159184,50.1632653 Z M50.2615306,78.5922449 C52.2791837,78.5922449 53.9193878,80.2333673 53.9193878,82.250102 C53.9193878,84.2668367 52.2791837,85.9079592 50.2615306,85.9079592 C48.2457143,85.9079592 46.6045918,84.2668367 46.6045918,82.250102 C46.6045918,80.2333673 48.2457143,78.5922449 50.2615306,78.5922449 Z M62.5162245,78.5922449 C64.5338776,78.5922449 66.1740816,80.2333673 66.1740816,82.250102 C66.1740816,84.2668367 64.5338776,85.9079592 62.5162245,85.9079592 C60.5004082,85.9079592 58.8592857,84.2668367 58.8592857,82.250102 C58.8592857,80.2333673 60.5004082,78.5922449 62.5162245,78.5922449 Z M38.1142857,78.5922449 C40.1310204,78.5922449 41.7721429,80.2333673 41.7721429,82.250102 C41.7721429,84.2668367 40.1310204,85.9079592 38.1142857,85.9079592 C36.097551,85.9079592 34.4564286,84.2668367 34.4564286,82.250102 C34.4564286,80.2333673 36.0966327,78.5922449 38.1142857,78.5922449 Z M50.3147959,59.3046939 C53.6539796,59.3046939 56.3714286,62.0221429 56.3714286,65.3613265 C56.3714286,68.7005102 53.6539796,71.4170408 50.3147959,71.4170408 C46.9756122,71.4170408 44.2590816,68.7005102 44.2590816,65.3613265 C44.2590816,62.0221429 46.9756122,59.3046939 50.3147959,59.3046939 Z M50.3147959,63.035102 C49.0327551,63.035102 47.9885714,64.0792857 47.9885714,65.3613265 C47.9885714,66.6433673 49.0327551,67.6866327 50.3147959,67.6866327 C51.5977551,67.6866327 52.640102,66.6433673 52.640102,65.3613265 C52.640102,64.0792857 51.5968367,63.035102 50.3147959,63.035102 Z M50.3147959,32.1320408 C49.0327551,32.1320408 47.9885714,33.1753061 47.9885714,34.4582653 C47.9885714,35.7412245 49.0327551,36.7844898 50.3147959,36.7844898 C51.5968367,36.7844898 52.640102,35.7412245 52.640102,34.4582653 C52.640102,33.1753061 51.5968367,32.1320408 50.3147959,32.1320408 Z M50.3147959,21.794898 C54.350102,21.794898 58.0612245,23.6426531 60.5013265,26.8615306 C61.1221429,27.682551 60.9614286,28.852551 60.1404082,29.4742857 C59.3184694,30.0960204 58.1493878,29.9343878 57.5276531,29.1133673 C55.8002041,26.8330612 53.1709184,25.5262245 50.3157143,25.5262245 C47.4228571,25.5262245 44.7733673,26.8606122 43.0477551,29.1886735 C42.6813265,29.6818367 42.1183673,29.9426531 41.5480612,29.9426531 C41.1614286,29.9426531 40.7729592,29.8232653 40.4386735,29.5753061 C39.6112245,28.9618367 39.4376531,27.7936735 40.0511224,26.9671429 C42.4517347,23.7280612 46.2886735,21.794898 50.3147959,21.794898 Z M50.3147959,14.1237755 C53.5492857,14.1237755 56.77,14.8988776 59.6288776,16.3645918 C62.3940816,17.7816327 64.8406122,19.8507143 66.7030612,22.3459184 C67.3202041,23.1715306 67.1503061,24.3387755 66.3256122,24.9559184 C65.9913265,25.2047959 65.5991837,25.3260204 65.2107143,25.3260204 C64.6422449,25.3260204 64.0811224,25.0670408 63.7156122,24.5766327 C62.1902041,22.535102 60.1881633,20.842551 57.9271429,19.6826531 C55.5586735,18.4676531 52.9982653,17.8523469 50.3147959,17.8523469 C47.6331633,17.8523469 45.0727551,18.4685714 42.7042857,19.6817347 C40.4432653,20.8407143 38.4421429,22.5314286 36.9176531,24.5729592 C36.3014286,25.3976531 35.1323469,25.5666327 34.3076531,24.9504082 C33.4820408,24.3341837 33.3130612,23.1660204 33.9292857,22.3413265 C35.7926531,19.8461224 38.2391837,17.7797959 41.0034694,16.3627551 C43.8623469,14.8979592 47.0812245,14.1237755 50.3147959,14.1237755 Z M50.3147959,7.05510204 C54.7284694,7.05510204 58.9437755,8.06897959 62.845,10.0673469 C66.5653061,11.9729592 69.8567347,14.7546939 72.3647959,18.1113265 C72.9810204,18.9360204 72.8120408,20.105102 71.9873469,20.7213265 C71.1617347,21.337551 69.9935714,21.1685714 69.3773469,20.3438776 C67.2072449,17.44 64.3603061,15.0347959 61.1432653,13.3863265 C57.7737755,11.6597959 54.1296939,10.7845918 50.3147959,10.7845918 C46.4861224,10.7845918 42.8310204,11.6653061 39.4514286,13.4037755 C36.2252041,15.0641837 33.3745918,17.485 31.2063265,20.4054082 C30.8408163,20.8985714 30.2787755,21.1593878 29.7084694,21.1593878 C29.3227551,21.1593878 28.932449,21.04 28.5981633,20.7920408 C27.7716327,20.1785714 27.5989796,19.0104082 28.212449,18.1829592 C30.7195918,14.8070408 34.0156122,12.0078571 37.7460204,10.0884694 C41.6031633,8.10479592 45.9488776,7.05510204 50.3147959,7.05510204 Z" id="Combined-Shape"></path>
                </g>
            </g>
        </g>
    </g>
</svg>