<?xml version="1.0" encoding="UTF-8"?>
<svg width="60px" height="61px" viewBox="0 0 60 61" version="1.1" xmlns="http://www.w3.org/2000/svg" xmlns:xlink="http://www.w3.org/1999/xlink">
    <title>52878C6A-5C55-4248-A8F5-5B0F0CCE7CE4</title>
    <g id="Widget-enlazado" stroke-width="1" fill="none" fill-rule="evenodd">
        <g id="Linked14" transform="translate(-776.000000, -548.000000)">
            <g id="Group-13" transform="translate(745.000000, 533.000000)">
                <g id="ico-min" transform="translate(31.000000, 16.000000)">
                    <g id="Group-9" transform="translate(12.000000, 15.000000)">
                        <polyline id="Path-21" stroke-width="1.5" stroke-linecap="round" stroke-linejoin="round" points="9.13047415e-13 0 9.13047415e-13 30.6593407 35.8913178 30.6593407"></polyline>
                        <path d="M3.07813099,16 C3.18321849,16 3.69659577,16 4.61826284,16 C10.1194941,16 12.1194941,0 18.5619409,0 C25.0043876,0 27.0043876,16 32.4028732,16 C33.2837962,16 34.078131,16 34.078131,16" id="Path-22" stroke-width="1.5" stroke-linecap="round" stroke-linejoin="round" transform="translate(18.578131, 8.000000) scale(1, -1) translate(-18.578131, -8.000000) "></path>
                        <g id="Group-8" transform="translate(18.750000, 24.000000) scale(1, -1) translate(-18.750000, -24.000000) translate(13.750000, 21.000000)">
                            <rect id="Rectangle" x="4" y="0" width="1.5" height="1.5"></rect>
                            <rect id="Rectangle-Copy-8" x="2" y="0" width="1.5" height="1.5"></rect>
                            <rect id="Rectangle-Copy-9" x="0" y="0" width="1.5" height="1.5"></rect>
                            <rect id="Rectangle-Copy-6" x="6" y="0" width="1.5" height="1.5"></rect>
                            <rect id="Rectangle-Copy-12" x="4" y="2" width="1.5" height="1.5"></rect>
                            <rect id="Rectangle-Copy-13" x="4" y="4" width="1.5" height="1.5"></rect>
                            <rect id="Rectangle-Copy-11" x="2" y="2" width="1.5" height="1.5"></rect>
                            <rect id="Rectangle-Copy-10" x="6" y="2" width="1.5" height="1.5"></rect>
                            <rect id="Rectangle-Copy-7" x="8" y="0" width="1.5" height="1.5"></rect>
                        </g>
                    </g>
                </g>
            </g>
        </g>
    </g>
</svg>