<?xml version="1.0" encoding="UTF-8"?>
<svg width="104px" height="104px" viewBox="0 0 104 104" version="1.1" xmlns="http://www.w3.org/2000/svg" xmlns:xlink="http://www.w3.org/1999/xlink">
    <!-- Generator: sketchtool 57.1 (101010) - https://sketch.com -->
    <title>30D3166C-927D-482F-8066-50CDB7BF9B12</title>
    <desc>Created with sketchtool.</desc>
    <g id="-⚙-Design-Guideline" stroke="none" stroke-width="1" fill="none" fill-rule="evenodd">
        <g id="-⚙-Iconos" transform="translate(-596.000000, -810.000000)" fill="#577EE8">
            <g id="ico-KPI-Text" transform="translate(337.000000, 673.000000)">
                <g id="ico-widget-digital" transform="translate(259.000000, 137.000000)">
                    <g id="ico-digital" transform="translate(10.000000, 38.000000)">
                        <g id="Group">
                            <path d="M0.50678733,0 L17.7375566,0 L18.2443439,0 L18.2443439,0.50678733 L18.2443439,27.4932127 L18.2443439,28 L17.7375566,28 L0.50678733,28 L0,28 L0,27.4932127 L0,0.50678733 L0,0 L0.50678733,0 Z M17.2307692,0.886877828 L1.14027149,0.886877828 L1.14027149,26.9864253 L17.2307692,26.9864253 L17.2307692,0.886877828 Z" id="Shape" fill-rule="nonzero"></path>
                            <path d="M20.0180995,0 L37.1221719,0 L37.6289593,0 L37.6289593,0.50678733 L37.6289593,27.4932127 L37.6289593,28 L37.1221719,28 L20.0180995,28 L19.3846154,28 L19.3846154,27.4932127 L19.3846154,0.50678733 L19.3846154,0 L20.0180995,0 Z M36.6153846,0.886877828 L20.5248869,0.886877828 L20.5248869,26.9864253 L36.6153846,26.9864253 L36.6153846,0.886877828 Z" id="Shape" fill-rule="nonzero"></path>
                            <path d="M47.7647059,0 L64.8687783,0 L65.5022624,0 L65.5022624,0.50678733 L65.5022624,27.4932127 L65.5022624,28 L64.8687783,28 L47.7647059,28 L47.2579186,28 L47.2579186,27.4932127 L47.2579186,0.50678733 L47.2579186,0 L47.7647059,0 Z M64.361991,0.886877828 L48.2714932,0.886877828 L48.2714932,26.9864253 L64.361991,26.9864253 L64.361991,0.886877828 Z" id="Shape" fill-rule="nonzero"></path>
                            <path d="M67.1493213,0 L84.3800905,0 L84.8868778,0 L84.8868778,0.50678733 L84.8868778,27.4932127 L84.8868778,28 L84.3800905,28 L67.1493213,28 L66.6425339,28 L66.6425339,27.4932127 L66.6425339,0.50678733 L66.6425339,0 L67.1493213,0 Z M83.7466063,0.886877828 L67.6561086,0.886877828 L67.6561086,26.9864253 L83.7466063,26.9864253 L83.7466063,0.886877828 Z" id="Shape" fill-rule="nonzero"></path>
                            <circle id="Oval" cx="42.5701357" cy="7.09502262" r="2.02714932"></circle>
                            <circle id="Oval" cx="42.5701357" cy="21.918552" r="2.02714932"></circle>
                            <path d="M62.2081448,14.5701357 L62.841629,15.0769231 L62.841629,23.8190045 C62.7149321,24.5791855 62.2081448,25.0859729 61.321267,25.3393665 L60.4343891,22.8054299 L60.4343891,16.3438914 L62.2081448,14.5701357 Z M60.6877828,25.3393665 L51.438914,25.3393665 C50.678733,25.0859729 50.0452489,24.5791855 49.918552,23.8190045 L52.3257919,22.8054299 L59.800905,22.8054299 L60.6877828,25.3393665 Z M49.918552,23.1855204 L49.918552,15.2036199 L50.5520362,14.5701357 L52.3257919,16.3438914 L52.3257919,22.2986425 L49.918552,23.1855204 Z M59.800905,5.57466063 L52.4524887,5.57466063 L49.918552,4.68778281 C50.1719457,3.80090498 50.678733,3.29411765 51.438914,3.04072398 L60.6877828,3.04072398 L59.800905,5.57466063 Z M52.3257919,6.2081448 L52.3257919,12.0361991 L50.5520362,13.9366516 L49.918552,13.3031674 L49.918552,5.19457014 L52.3257919,6.2081448 Z M60.4343891,12.0361991 L60.4343891,5.57466063 L61.321267,3.04072398 C62.2081448,3.29411765 62.7149321,3.80090498 62.841629,4.68778281 L62.841629,13.3031674 L62.2081448,13.9366516 L60.4343891,12.0361991 Z" id="Shape" fill-rule="nonzero"></path>
                            <path d="M81.5927602,14.5701357 L82.2262443,15.0769231 L82.2262443,23.8190045 C81.9728507,24.5791855 81.4660633,25.0859729 80.7058824,25.3393665 L79.6923077,22.8054299 L79.6923077,16.3438914 L81.5927602,14.5701357 Z M80.0723982,25.3393665 L70.8235294,25.3393665 C69.9366516,25.0859729 69.4298643,24.5791855 69.3031674,23.8190045 L71.7104072,22.8054299 L79.1855204,22.8054299 L80.0723982,25.3393665 Z M69.3031674,23.1855204 L69.3031674,15.2036199 L69.8099548,14.5701357 L71.7104072,16.3438914 L71.7104072,22.2986425 L69.3031674,23.1855204 Z M79.1855204,5.57466063 L71.7104072,5.57466063 L69.3031674,4.68778281 C69.4298643,3.80090498 69.9366516,3.29411765 70.8235294,3.04072398 L80.0723982,3.04072398 L79.1855204,5.57466063 Z M71.7104072,6.2081448 L71.7104072,12.0361991 L69.8099548,13.9366516 L69.3031674,13.3031674 L69.3031674,5.19457014 L71.7104072,6.2081448 Z M79.6923077,12.0361991 L79.6923077,5.57466063 L80.7058824,3.04072398 C81.4660633,3.29411765 81.9728507,3.80090498 82.2262443,4.68778281 L82.2262443,13.3031674 L81.5927602,13.9366516 L79.6923077,12.0361991 Z" id="Shape" fill-rule="nonzero"></path>
                            <path d="M15.0769231,14.5701357 L15.7104072,15.0769231 L15.7104072,23.8190045 C15.4570136,24.5791855 14.9502262,25.0859729 14.0633484,25.3393665 L13.1764706,22.8054299 L13.1764706,16.3438914 L15.0769231,14.5701357 Z M13.4298643,25.3393665 L4.18099548,25.3393665 C3.42081448,25.0859729 2.91402715,24.5791855 2.66063348,23.8190045 L5.19457014,22.8054299 L12.5429864,22.8054299 L13.4298643,25.3393665 Z M2.66063348,23.1855204 L2.66063348,15.2036199 L3.29411765,14.5701357 L5.19457014,16.3438914 L5.19457014,22.2986425 L2.66063348,23.1855204 Z M12.5429864,5.57466063 L5.19457014,5.57466063 L2.66063348,4.68778281 C2.91402715,3.80090498 3.42081448,3.29411765 4.18099548,3.04072398 L13.4298643,3.04072398 L12.5429864,5.57466063 Z M5.19457014,6.2081448 L5.19457014,12.0361991 L3.29411765,13.9366516 L2.66063348,13.3031674 L2.66063348,5.19457014 L5.19457014,6.2081448 Z M13.1764706,12.0361991 L13.1764706,5.57466063 L14.0633484,3.04072398 C14.9502262,3.29411765 15.4570136,3.80090498 15.7104072,4.68778281 L15.7104072,13.3031674 L15.0769231,13.9366516 L13.1764706,12.0361991 Z" id="Shape" fill-rule="nonzero"></path>
                            <path d="M32.561086,12.9230769 L33.8280543,14.1900452 L32.561086,15.4570136 L24.5791855,15.4570136 L23.3122172,14.1900452 L24.5791855,12.9230769 L32.561086,12.9230769 Z M34.4615385,14.5701357 L35.0950226,15.0769231 L35.0950226,23.8190045 C34.841629,24.5791855 34.3348416,25.0859729 33.4479638,25.3393665 L32.561086,22.8054299 L32.561086,16.3438914 L34.4615385,14.5701357 Z M32.8144796,25.3393665 L23.5656109,25.3393665 C22.8054299,25.0859729 22.2986425,24.5791855 22.0452489,23.8190045 L24.5791855,22.8054299 L31.9276018,22.8054299 L32.8144796,25.3393665 Z M32.9411765,5.57466063 L24.5791855,5.57466063 L22.0452489,4.68778281 C22.2986425,3.80090498 22.8054299,3.29411765 23.6923077,3.04072398 L33.8280543,3.04072398 L32.9411765,5.57466063 Z M24.5791855,6.2081448 L24.5791855,12.0361991 L22.678733,13.9366516 L22.0452489,13.3031674 L22.0452489,5.19457014 L24.5791855,6.2081448 Z" id="Shape" fill-rule="nonzero"></path>
                        </g>
                    </g>
                </g>
            </g>
        </g>
    </g>
</svg>