<?xml version="1.0" encoding="UTF-8"?>
<svg width="80px" height="64px" viewBox="0 0 80 64" version="1.1" xmlns="http://www.w3.org/2000/svg" xmlns:xlink="http://www.w3.org/1999/xlink">
    <title>2F59A1DD-DA50-4B36-AD06-B1713A29259C</title>
    <g id="✅-Incidencias" stroke="none" stroke-width="1" fill="none" fill-rule="evenodd">
        <g id="Incidencia---Creacion-Copy-4" transform="translate(-681.000000, -146.000000)" stroke="#577EE8" stroke-width="2">
            <g id="Group-13" transform="translate(681.000000, 146.000000)">
                <g id="Group-11" transform="translate(21.999934, 10.999891)">
                    <g id="Group-9" transform="translate(5.000056, 1.000109)">
                        <path d="M19.2258869,33.490456 C19.2258869,35.147331 17.50433,36.490456 15.3807119,36.490456 C13.2570939,36.490456 11.5355369,35.147331 11.5355369,33.490456" id="Stroke-1" stroke-linejoin="round"></path>
                        <line x1="15.3807119" y1="-1.08801856e-14" x2="15.3807119" y2="2.88388123" id="Stroke-3" stroke-linecap="round" stroke-linejoin="round"></line>
                        <path d="M26.681549,24.3651315 C26.2129183,23.0039395 25.9549311,21.595524 25.9549311,20.1871085 L25.9549311,13.4580523 C25.9549311,7.61807267 21.2206795,2.88382115 15.3806999,2.88382115 C9.54072024,2.88382115 4.80646872,7.61807267 4.80646872,13.4580523 L4.80646872,20.1871085 C4.80646872,24.0322835 2.88388123,27.8774585 1.61648472e-13,30.7613397 L1.61648472e-13,32.6839272 L21.1484624,32.6839272" id="Stroke-5" stroke-linecap="round" stroke-linejoin="round"></path>
                        <line x1="24.8105327" y1="26.124012" x2="15.3807119" y2="26.124012" id="Path-4" stroke-linecap="round"></line>
                        <line x1="11.8105327" y1="26.124012" x2="11.3105327" y2="26.124012" id="Path-4-Copy" stroke-linecap="round"></line>
                    </g>
                    <g id="Group-10" transform="translate(4.500000, 7.500000) rotate(9.000000) translate(-4.500000, -7.500000) translate(1.000000, 1.000000)" stroke-linecap="round" stroke-linejoin="round">
                        <path d="M6.998075,4.02556875 C5.42996563,4.9336 4.37504375,6.62967813 4.37504375,8.57206875 C4.37504375,9.52483438 4.62879375,10.4184281 5.0726375,11.1887563" id="Stroke-1"></path>
                        <path d="M5.24321875,-3.55271368e-15 C2.13051562,1.59435937 -6.66133815e-14,4.83448437 -6.66133815e-14,8.57204687 C-6.66133815e-14,10.15 0.37975,11.63925 1.05273437,12.9535" id="Stroke-3"></path>
                    </g>
                    <g id="Group-10-Copy" transform="translate(36.500000, 7.500000) scale(-1, 1) rotate(9.000000) translate(-36.500000, -7.500000) translate(33.000000, 1.000000)" stroke-linecap="round" stroke-linejoin="round">
                        <path d="M6.998075,4.02556875 C5.42996563,4.9336 4.37504375,6.62967813 4.37504375,8.57206875 C4.37504375,9.52483438 4.62879375,10.4184281 5.0726375,11.1887563" id="Stroke-1"></path>
                        <path d="M5.24321875,-3.55271368e-15 C2.13051562,1.59435937 -6.66133815e-14,4.83448437 -6.66133815e-14,8.57204687 C-6.66133815e-14,10.15 0.37975,11.63925 1.05273437,12.9535" id="Stroke-3"></path>
                    </g>
                </g>
                <g id="Group-12" transform="translate(48.512197, 32.317073)">
                    <g id="Group-7" transform="translate(6.339355, 6.806939)" stroke-linejoin="round">
                        <path d="M9.71973914,12.4968621 L14.5829108,12.4968621 C15.1421435,12.4968621 15.46897,11.7944367 15.1463959,11.2855385 L8.20050784,0.325307811 C7.92566461,-0.108435937 7.34820745,-0.108435937 7.07345101,0.325307811 L0.127476201,11.2855385 C-0.195097931,11.7944367 0.131728591,12.4968621 0.690961226,12.4968621 L5.55413292,12.4968621" id="Stroke-7"></path>
                        <line x1="7.6533004" y1="4.85991732" x2="7.6533004" y2="10.4140589" id="Stroke-9"></line>
                        <line x1="7.6533004" y1="11.8025944" x2="7.6533004" y2="13.1911298" id="Stroke-11"></line>
                    </g>
                    <circle id="Oval" cx="13.7439024" cy="13.7439024" r="12.7439024"></circle>
                </g>
                <path d="M55.7613535,57 L7,57 C6.44771525,57 6,56.5522847 6,56 L6,7 C6,6.44771525 6.44771525,6 7,6 L69,6 C69.5522847,6 70,6.44771525 70,7 L70,36.3635292 L70,36.3635292" id="Path-3"></path>
                <line x1="15.1376761" y1="6" x2="15.1376761" y2="57" id="Path-2"></line>
            </g>
        </g>
    </g>
</svg>