<?xml version="1.0" encoding="UTF-8"?>
<svg width="80px" height="80px" viewBox="0 0 80 80" version="1.1" xmlns="http://www.w3.org/2000/svg" xmlns:xlink="http://www.w3.org/1999/xlink">
    <title>Widget heatmap</title>
    <g id="Widget-heatmap" stroke="none" stroke-width="1" fill="none" fill-rule="evenodd">
        <g id="Pie2" transform="translate(-1170.000000, -373.000000)" fill="#6C7A88">
            <g id="Group-16" transform="translate(1170.000000, 373.000000)">
                <path d="M64.043,16.0004 C64.596,16.0004 65.043,16.4474 65.043,17.0004 L65.043,62.5684 C65.043,63.1204 64.596,63.5684 64.043,63.5684 L16,63.5684 C15.447,63.5684 15,63.1204 15,62.5684 L15,17.0004 C15,16.4474 15.447,16.0004 16,16.0004 L64.043,16.0004 Z M63.043,22.7494 L17,22.7494 L17,61.5684 L63.043,61.5684 L63.043,22.7494 Z M37.5674,34.0228 C43.6417259,34.0228 48.5674,38.9476339 48.5674,45.0228 C48.5674,51.0979661 43.6417259,56.0228 37.5674,56.0228 C31.4922339,56.0228 26.5674,51.0979661 26.5674,45.0228 C26.5674,38.9476339 31.4922339,34.0228 37.5674,34.0228 Z M53.9307,44.4771 C55.8887,44.4771 57.4767,46.0641 57.4767,48.0221 C57.4767,49.9811 55.8887,51.5681 53.9307,51.5681 C51.9727,51.5681 50.3847,49.9811 50.3847,48.0221 C50.3847,46.0641 51.9727,44.4771 53.9307,44.4771 Z M51.6123,26.2045 C54.6496713,26.2045 57.1123,28.6663531 57.1123,31.7045 C57.1123,34.7418713 54.6496713,37.2045 51.6123,37.2045 C48.5749287,37.2045 46.1123,34.7418713 46.1123,31.7045 C46.1123,28.6663531 48.5749287,26.2045 51.6123,26.2045 Z M28.3847859,26.2955 C30.5929866,26.2955 32.3844,28.0863144 32.3844,30.2955 C32.3844,32.5039137 30.5929866,34.2955 28.3847859,34.2955 C26.1758134,34.2955 24.3844,32.5039137 24.3844,30.2955 C24.3844,28.0863144 26.1758134,26.2955 28.3847859,26.2955 Z M63.043,18.0004 L17,18.0004 L17,21.6584 L63.043,21.6584 L63.043,18.0004 Z M25.0215,18.9317 C25.4735,18.9317 25.8395,19.2977 25.8395,19.7497 C25.8395,20.2017 25.4735,20.5687 25.0215,20.5687 C24.5695,20.5687 24.2035,20.2017 24.2035,19.7497 C24.2035,19.2977 24.5695,18.9317 25.0215,18.9317 Z M19.5674,18.9317 C20.0184,18.9317 20.3844,19.2977 20.3844,19.7497 C20.3844,20.2017 20.0184,20.5687 19.5674,20.5687 C19.1154,20.5687 18.7494,20.2017 18.7494,19.7497 C18.7494,19.2977 19.1154,18.9317 19.5674,18.9317 Z M22.2939,18.9317 C22.7459,18.9317 23.1119,19.2977 23.1119,19.7497 C23.1119,20.2017 22.7459,20.5687 22.2939,20.5687 C21.8429,20.5687 21.4769,20.2017 21.4769,19.7497 C21.4769,19.2977 21.8429,18.9317 22.2939,18.9317 Z" id="Combined-Shape"></path>
            </g>
        </g>
    </g>
</svg>