<?xml version="1.0" encoding="UTF-8"?>
<svg width="30px" height="30px" viewBox="0 0 30 30" version="1.1" xmlns="http://www.w3.org/2000/svg" xmlns:xlink="http://www.w3.org/1999/xlink">
    <!-- Generator: sketchtool 60 (101010) - https://sketch.com -->
    <title>DAF8E25B-83E0-4F39-B74B-613CD5E26574</title>
    <desc>Created with sketchtool.</desc>
    <g id="-⚙-Design-Guideline" stroke="none" stroke-width="1" fill="none" fill-rule="evenodd">
        <g id="-⚙-Iconos" transform="translate(-814.000000, -257.000000)">
            <g id="ico-notifications" transform="translate(796.000000, 240.000000)">
                <rect id="Rectangle-Copy-4" stroke="#CED3D7" stroke-width="0.5" x="0.25" y="0.25" width="63.5" height="63.5"></rect>
                <g id="ico-notificaciones" transform="translate(32.000000, 32.000000) rotate(-28.000000) translate(-32.000000, -32.000000) translate(17.000000, 17.000000)">
                    <g id="023-notification">
                        <rect id="Rectangle" x="0" y="0" width="30" height="30"></rect>
                        <g id="noun_Ping_1986159" transform="translate(5.000000, 3.000000)" fill="#000000" fill-rule="nonzero" stroke="#000000" stroke-width="0.5">
                            <path d="M17.4256638,12.7059083 C17.4256638,9.80636292 17.7663725,7.54383955 15.4092909,5.33466152 C11.032743,1.22697228 3.57123812,4.18300206 3.57123812,9.88167587 C3.57123812,11.940228 3.78185797,14.3376879 2.74734473,16.1985426 C2.36327377,16.8889099 1.83362793,17.4255161 1.12743314,17.6106583 L1.12743314,19.5876215 L19.8725655,19.5876215 L19.8725655,17.6137979 C18.0079654,17.1211247 17.4256638,14.2372699 17.4256638,12.7059083 Z M9.93628263,0.564846622 C9.93628263,-0.188282207 11.0637171,-0.188282207 11.0637171,0.564846622 L11.0637171,2.29704226 C15.105752,2.56691354 18.5561939,5.76457261 18.5561939,9.88167584 C18.5561939,11.7142892 18.3517709,14.0489881 19.2314157,15.6399721 C19.5225654,16.1640241 19.9190267,16.5405899 20.4362833,16.5405899 C20.7460179,16.5405899 21,16.7979086 21,17.1117124 L21,20.1587439 C21,20.4725477 20.7460179,20.7298664 20.4362833,20.7298664 L13.6716818,20.7298664 C13.55708,23.6858967 10.1933626,25.1074269 8.23893793,22.9829775 C7.70309749,22.399303 7.359292,21.6053803 7.32522113,20.7298664 L0.563716696,20.7298664 C0.250884776,20.7298664 0,20.4725477 0,20.1587439 L0,17.1117124 C0,16.7979086 0.250884776,16.5405899 0.563716696,16.5405899 C1.99778768,16.5405899 2.44380524,13.7508749 2.44380524,12.7059083 L2.44380524,9.88167584 C2.44380524,5.76457261 5.89114986,2.56691354 9.93628263,2.29704226 L9.93628263,0.564846622 Z M8.45575236,20.7298664 C8.61061968,23.5384105 12.3862833,23.5384105 12.5411506,20.7298664 L8.45575236,20.7298664 Z" id="Shape"></path>
                        </g>
                    </g>
                </g>
            </g>
        </g>
    </g>
</svg>