<?xml version="1.0" encoding="UTF-8"?>
<svg width="80px" height="80px" viewBox="0 0 80 80" version="1.1" xmlns="http://www.w3.org/2000/svg" xmlns:xlink="http://www.w3.org/1999/xlink">
    <title>Widget bars</title>
    <g id="Widget-bars" stroke="none" stroke-width="1" fill="none" fill-rule="evenodd">
        <g id="Pie2" transform="translate(-230.000000, -373.000000)" fill="#6C7A88" fill-rule="nonzero">
            <g id="Group-9" transform="translate(230.000000, 373.000000)">
                <path d="M18.5263158,19 L18.5263158,59.4210526 L23.5789474,59.4210526 L23.5789474,34.1578947 L33.6842105,34.1578947 L33.6842105,59.4210526 L38.7368421,59.4210526 L38.7368421,24.0526316 L48.8421053,24.0526316 L48.8421053,59.4210526 L53.8947368,59.4210526 L53.8947368,44.2631579 L64,44.2631579 L64,61.9473684 L16,61.9473684 L16,19 L18.5263158,19 Z M56.4210526,46.7894737 L56.4210526,59.4210526 L61.4736842,59.4210526 L61.4736842,46.7894737 L56.4210526,46.7894737 L56.4210526,46.7894737 Z M41.2631579,26.5789474 L41.2631579,59.4210526 L46.3157895,59.4210526 L46.3157895,26.5789474 L41.2631579,26.5789474 L41.2631579,26.5789474 Z M26.1052632,36.6842105 L26.1052632,59.4210526 L31.1578947,59.4210526 L31.1578947,36.6842105 L26.1052632,36.6842105 Z" id="Shape"></path>
            </g>
        </g>
    </g>
</svg>