<?xml version="1.0" encoding="UTF-8"?>
<svg width="80px" height="80px" viewBox="0 0 80 80" version="1.1" xmlns="http://www.w3.org/2000/svg" xmlns:xlink="http://www.w3.org/1999/xlink">
    <title>Widget image</title>
    <g id="Widget-image" stroke="none" stroke-width="1" fill="none" fill-rule="evenodd">
        <g id="Pie2" transform="translate(-418.000000, -732.000000)" fill="#6C7A88" fill-rule="nonzero">
            <g id="Group-25" transform="translate(418.000000, 732.000000)">
                <path d="M68.7929825,18 C69.3433294,18 69.7894737,18.4477153 69.7894737,19 L69.7894737,19 L69.7894737,60.7142857 C69.7894737,61.2665705 69.3433294,61.7142857 68.7929825,61.7142857 L68.7929825,61.7142857 L10.9964912,61.7142857 C10.4461443,61.7142857 10,61.2665705 10,60.7142857 L10,60.7142857 L10,19 C10,18.4477153 10.4461443,18 10.9964912,18 L10.9964912,18 Z M67.7964912,45 L11.9929825,45 L11.9929825,59.7142857 L67.7964912,59.7142857 L67.7964912,45 Z M33.9157895,55 L33.9157895,57 L14.9824561,57 L14.9824561,55 L33.9157895,55 Z M26.9403509,51 L26.9403509,53 L14.9824561,53 L14.9824561,51 L26.9403509,51 Z M33.9157895,47 L33.9157895,49 L14.9824561,49 L14.9824561,47 L33.9157895,47 Z M67.7964912,33.45 L48.2254035,40.93 C47.9482754,41.0377572 47.6376818,41.0157558 47.378386,40.87 L47.378386,40.87 L38.7786667,36.08 L14.6237193,43 L67.7964912,43 L67.7964912,33.45 Z M67.7964912,28 L11.9929825,28 L11.9929825,41.67 L38.629193,34.04 C38.8835427,33.968039 39.1559604,34.0004126 39.3865263,34.13 L39.3865263,34.13 L47.946386,38.9 L67.7964912,31.31 L67.7964912,28 Z M25.445614,29 C27.3718282,29 28.9333333,30.5670034 28.9333333,32.5 C28.9333333,34.4329966 27.3718282,36 25.445614,36 C23.5193999,36 21.9578947,34.4329966 21.9578947,32.5 C21.9578947,30.5670034 23.5193999,29 25.445614,29 Z M25.445614,31 C24.6200937,31 23.9508772,31.6715729 23.9508772,32.5 C23.9508772,33.3284271 24.6200937,34 25.445614,34 C26.2711344,34 26.9403509,33.3284271 26.9403509,32.5 C26.9403509,31.6715729 26.2711344,31 25.445614,31 Z M67.7964912,20 L11.9929825,20 L11.9929825,26 L67.7964912,26 L67.7964912,20 Z M15.9789474,22 L15.9789474,24 L13.9859649,24 L13.9859649,22 L15.9789474,22 Z M19.9649123,22 L19.9649123,24 L17.9719298,24 L17.9719298,22 L19.9649123,22 Z M23.9508772,22 L23.9508772,24 L21.9578947,24 L21.9578947,22 L23.9508772,22 Z" id="Combined-Shape"></path>
            </g>
        </g>
    </g>
</svg>