<?xml version="1.0" encoding="UTF-8"?>
<svg width="90px" height="90px" viewBox="0 0 90 90" version="1.1" xmlns="http://www.w3.org/2000/svg" xmlns:xlink="http://www.w3.org/1999/xlink">
    <title>B730A43F-60CF-446D-9A1C-E07FCB7AD486</title>
    <defs>
        <linearGradient x1="50%" y1="0%" x2="50%" y2="98.3585555%" id="linearGradient-1">
            <stop stop-color="#EC8CE5" offset="0%"></stop>
            <stop stop-color="#F3A7E7" offset="100%"></stop>
        </linearGradient>
        <rect id="path-2" x="0" y="0" width="48" height="48" rx="24"></rect>
        <filter x="-31.2%" y="-31.2%" width="162.5%" height="162.5%" filterUnits="objectBoundingBox" id="filter-3">
            <feOffset dx="0" dy="0" in="SourceAlpha" result="shadowOffsetOuter1"></feOffset>
            <feGaussianBlur stdDeviation="5" in="shadowOffsetOuter1" result="shadowBlurOuter1"></feGaussianBlur>
            <feColorMatrix values="0 0 0 0 1   0 0 0 0 0.62553972   0 0 0 0 0.920672596  0 0 0 1 0" type="matrix" in="shadowBlurOuter1"></feColorMatrix>
        </filter>
    </defs>
    <g id="-⚙-Design-Guideline" stroke="none" stroke-width="1" fill="none" fill-rule="evenodd">
        <g id="-⚙-Iconos" transform="translate(-1120.000000, -751.000000)">
            <g id="KPI" transform="translate(1120.000000, 751.000000)">
                <g id="Group"></g>
                <g id="Group-12" transform="translate(21.000000, 21.000000)">
                    <g id="Rectangle">
                        <use fill="black" fill-opacity="1" filter="url(#filter-3)" xlink:href="#path-2"></use>
                        <use fill="url(#linearGradient-1)" fill-rule="evenodd" xlink:href="#path-2"></use>
                    </g>
                    <g id="Group-31" transform="translate(3.778032, 3.183402)" stroke="#2B334A" stroke-width="1.3">
                        <g id="Group-30" transform="translate(0.000000, 6.594630)">
                            <g id="ico-dashboard" transform="translate(0.221968, 0.221968)">
                                <g id="Activity" transform="translate(0.000000, 0.000000)">
                                    <rect id="Rectangle" x="0.65" y="0.65" width="30.7" height="34.7" rx="2"></rect>
                                </g>
                            </g>
                            <polyline id="Path_33966" stroke-linecap="round" stroke-linejoin="round" points="11.4668192 17.5034326 14.4599543 13.6132724 17.8741419 16.2951946 20.8032037 12.5148742"></polyline>
                            <circle id="Ellipse_741" stroke-linecap="round" stroke-linejoin="round" cx="24.2173914" cy="6.92219681" r="1.92219681"></circle>
                            <path d="M19.1464531,5.84210527 L11.8787186,5.84210527 C8.8672769,5.84210527 7,7.97482839 7,10.9862701 L7,19.06865 C7,22.0800916 8.83066362,24.2036614 11.8787186,24.2036614 L20.4828376,24.2036614 C23.4942793,24.2036614 25.3615562,22.0800916 25.3615562,19.06865 L25.3615562,12.0297483" id="Path" stroke-linecap="round" stroke-linejoin="round"></path>
                            <line x1="9.22196796" y1="31.221968" x2="23.221968" y2="31.221968" id="Line-3-Copy" stroke-linecap="round"></line>
                            <line x1="12.221968" y1="28.221968" x2="20.221968" y2="28.221968" id="Line-3" stroke-linecap="round"></line>
                        </g>
                        <path d="M9.22196796,3.94841913 L9.22196796,1 C9.22196796,0.44771525 9.66968321,-2.84312787e-14 10.221968,-2.84217094e-14 L37.4312835,-2.84217094e-14 C37.9835682,-2.47099656e-14 38.4312835,0.44771525 38.4312835,1 L38.4312835,33.8165982 C38.4312835,34.368883 37.9835682,34.8165982 37.4312835,34.8165982 L34.6030268,34.8165982 L34.6030268,34.8165982" id="Path-10" stroke-linecap="round" stroke-linejoin="round"></path>
                    </g>
                </g>
            </g>
        </g>
    </g>
</svg>