<?xml version="1.0" encoding="UTF-8"?>
<svg width="91px" height="74px" viewBox="0 0 91 74" version="1.1" xmlns="http://www.w3.org/2000/svg" xmlns:xlink="http://www.w3.org/1999/xlink">
    <title>443C6941-48CF-47EF-A300-AD06B4C05107</title>
    <g id="KPI-Wizzard" stroke="none" stroke-width="1" fill="none" fill-rule="evenodd">
        <g id="KPI-Wizard-Auto-1" transform="translate(-230.000000, -495.000000)">
            <g id="Group-7" transform="translate(230.000000, 495.000000)">
                <rect id="Rectangle" stroke="#577EE8" stroke-width="2" x="12" y="15" width="69" height="55"></rect>
                <rect id="Rectangle" fill="#577EE8" x="15" y="18" width="3" height="3"></rect>
                <rect id="Rectangle-Copy-2" fill="#577EE8" x="20" y="18" width="3" height="3"></rect>
                <rect id="Rectangle-Copy-3" fill="#577EE8" x="25" y="18" width="3" height="3"></rect>
                <line x1="12.5" y1="23.5" x2="79.5" y2="23.5" id="Line" stroke="#577EE8" stroke-width="2" stroke-linecap="square"></line>
                <circle id="Oval" stroke="#577EE8" stroke-width="2" cx="32" cy="38" r="8"></circle>
                <circle id="Oval-Copy" stroke="#577EE8" stroke-width="2" cx="40" cy="38" r="8"></circle>
                <line x1="24" y1="55" x2="24" y2="60" id="Line-4" stroke="#577EE8" stroke-width="2"></line>
                <line x1="26" y1="55" x2="22" y2="55" id="Line-4-Copy" stroke="#577EE8" stroke-width="2"></line>
                <line x1="26" y1="60" x2="22" y2="60" id="Line-4-Copy-2" stroke="#577EE8" stroke-width="2"></line>
                <line x1="34" y1="60" x2="28" y2="60" id="Line-4-Copy-3" stroke="#577EE8" stroke-width="2"></line>
                <rect id="Rectangle" stroke="#577EE8" stroke-width="2" x="19.5" y="52" width="52" height="11"></rect>
                <polygon id="Path-23" stroke="#577EE8" stroke-width="2" fill="#FFFFFF" stroke-linecap="round" points="41.5076278 67.1079664 39 59 47.0981922 62.2135604"></polygon>
                <line x1="44.7857143" y1="64.7857143" x2="47.3571429" y2="67.3571429" id="Line-5" stroke="#577EE8" stroke-width="2" stroke-linecap="square"></line>
            </g>
        </g>
    </g>
</svg>