<?xml version="1.0" encoding="UTF-8"?>
<svg width="91px" height="74px" viewBox="0 0 91 74" version="1.1" xmlns="http://www.w3.org/2000/svg" xmlns:xlink="http://www.w3.org/1999/xlink">
    <title>9626A324-90B7-4174-8BE4-72942C826A5D</title>
    <g id="KPI-Wizzard" stroke="none" stroke-width="1" fill="none" fill-rule="evenodd">
        <g id="KPI-Wizard-Auto-1" transform="translate(-682.000000, -495.000000)">
            <g id="Group-7-Copy" transform="translate(682.000000, 495.000000)">
                <path d="M75.0001579,2.00007837 C76.5260349,1.98913624 77.8170877,3.12526268 78.0001579,4.64015787 C78.6712331,4.85224593 79.3234859,5.11983681 79.9501579,5.44015787 C81.1517674,4.49002375 82.8762041,4.59780105 83.9501579,5.69015787 L85.3101579,7.10015787 C86.4025147,8.17411168 86.510292,9.89854838 85.5601579,11.1001579 C85.8804789,11.7268298 86.1480698,12.3790826 86.3601579,13.0501579 C87.8561506,13.2309155 88.985924,14.4933517 89.0002374,16.0001579 L89.0002374,18.0001579 C89.0111795,19.5260349 87.8750531,20.8170877 86.3601579,21.0001579 C86.1480698,21.6712331 85.8804789,22.3234859 85.5601579,22.9501579 C86.510292,24.1517674 86.4025147,25.8762041 85.3101579,26.9501579 L83.9001579,28.3101579 C82.8262041,29.4025147 81.1017674,29.510292 79.9001579,28.5601579 C79.2734859,28.8804789 78.6212331,29.1480698 77.9501579,29.3601579 C77.7694003,30.8561506 76.5069641,31.985924 75.0001579,32.0002374 L73.0001579,32.0002374 C71.4742809,32.0111795 70.1832281,30.8750531 70.0001579,29.3601579 C69.3290826,29.1480698 68.6768298,28.8804789 68.0501579,28.5601579 C66.8485484,29.510292 65.1241117,29.4025147 64.0501579,28.3101579 L62.6901579,26.9001579 C61.597801,25.8262041 61.4900238,24.1017674 62.4401579,22.9001579 C62.1223633,22.289588 61.8548126,21.6541551 61.6401579,21.0001579 C60.1252627,20.8170877 58.9891362,19.5260349 59.0000784,18.0001579 L59.0000784,16.0001579 C58.9891362,14.4742809 60.1252627,13.1832281 61.6401579,13.0001579 C61.8522459,12.3290826 62.1198368,11.6768298 62.4401579,11.0501579 C61.4900238,9.84854838 61.597801,8.12411168 62.6901579,7.05015787 L64.1001579,5.69015787 C65.1741117,4.59780105 66.8985484,4.49002375 68.1001579,5.44015787 C68.7107278,5.12236326 69.3461607,4.85481256 70.0001579,4.64015787 C70.1832281,3.12526268 71.4742809,1.98913624 73.0001579,2.00007837 L75.0001579,2.00007837 Z M75.0001579,4.00015787 L73.0001579,4.00015787 C72.4478731,4.00015787 72.0001579,4.44787312 72.0001579,5.00015787 L72.0001579,5.39015787 C72.0149585,5.85792431 71.7033578,6.27339183 71.2501579,6.39015787 C70.2568867,6.6462994 69.3043249,7.0401147 68.4201579,7.56015787 C68.0294613,7.79025989 67.5328412,7.72869541 67.2101579,7.41015787 L66.9301579,7.10015787 C66.7423913,6.91084522 66.4867954,6.80435955 66.2201579,6.80435955 C65.9535203,6.80435955 65.6979245,6.91084522 65.5101579,7.10015787 L64.1001579,8.51015787 C63.9108452,8.69792447 63.8043595,8.95352034 63.8043595,9.22015787 C63.8043595,9.48679541 63.9108452,9.74239127 64.1001579,9.93015787 L64.3801579,10.2101579 C64.6986954,10.5328412 64.7602599,11.0294613 64.5301579,11.4201579 C64.0101147,12.3043249 63.6162994,13.2568867 63.3601579,14.2501579 C63.2433918,14.7033578 62.8279243,15.0149585 62.3601579,15.0001579 L62.0001579,15.0001579 C61.4478731,15.0001579 61.0001579,15.4478731 61.0001579,16.0001579 L61.0001579,18.0001579 C61.0001579,18.5524426 61.4478731,19.0001579 62.0001579,19.0001579 L62.3901579,19.0001579 C62.8579243,18.9853573 63.2733918,19.2969579 63.3901579,19.7501579 C63.6462994,20.7434291 64.0401147,21.6959909 64.5601579,22.5801579 C64.7902599,22.9708544 64.7286954,23.4674745 64.4101579,23.7901579 L64.1301579,24.0701579 C63.9408452,24.2579245 63.8343595,24.5135203 63.8343595,24.7801579 C63.8343595,25.0467954 63.9408452,25.3023913 64.1301579,25.4901579 L65.5101579,26.9001579 C65.6979245,27.0894705 65.9535203,27.1959562 66.2201579,27.1959562 C66.4867954,27.1959562 66.7423913,27.0894705 66.9301579,26.9001579 L67.2101579,26.6201579 C67.3964185,26.4354137 67.647818,26.3312625 67.9101579,26.3301579 C68.090053,26.3270542 68.2670597,26.3756443 68.4201579,26.4701579 C69.3043249,26.9902011 70.2568867,27.3840163 71.2501579,27.6401579 C71.7033578,27.7569239 72.0149585,28.1723914 72.0001579,28.6401579 L72.0001579,29.0001579 C72.0001579,29.5524426 72.4478731,30.0001579 73.0001579,30.0001579 L75.0001579,30.0001579 C75.5524426,30.0001579 76.0001579,29.5524426 76.0001579,29.0001579 L76.0001579,28.6101579 C75.9853573,28.1423914 76.2969579,27.7269239 76.7501579,27.6101579 C77.7434291,27.3540163 78.6959909,26.9602011 79.5801579,26.4401579 C79.9708544,26.2100559 80.4674745,26.2716203 80.7901579,26.5901579 L81.0701579,26.8701579 C81.2579245,27.0594705 81.5135203,27.1659562 81.7801579,27.1659562 C82.0467954,27.1659562 82.3023913,27.0594705 82.4901579,26.8701579 L83.9001579,25.4601579 C84.0894705,25.2723913 84.1959562,25.0167954 84.1959562,24.7501579 C84.1959562,24.4835203 84.0894705,24.2279245 83.9001579,24.0401579 L83.6201579,23.7601579 C83.3016203,23.4374745 83.2400559,22.9408544 83.4701579,22.5501579 C83.9902011,21.6659909 84.3840163,20.7134291 84.6401579,19.7201579 C84.7569239,19.2669579 85.1723914,18.9553573 85.6401579,18.9701579 L86.0001579,18.9701579 C86.5524426,18.9701579 87.0001579,18.5224426 87.0001579,17.9701579 L87.0001579,16.0001579 C87.0001579,15.4478731 86.5524426,15.0001579 86.0001579,15.0001579 L85.6101579,15.0001579 C85.1423914,15.0149585 84.7269239,14.7033578 84.6101579,14.2501579 C84.3540163,13.2568867 83.9602011,12.3043249 83.4401579,11.4201579 C83.2100559,11.0294613 83.2716203,10.5328412 83.5901579,10.2101579 L83.8701579,9.93015787 C84.0594705,9.74239127 84.1659562,9.48679541 84.1659562,9.22015787 C84.1659562,8.95352034 84.0594705,8.69792447 83.8701579,8.51015787 L82.4901579,7.10015787 C82.3023913,6.91084522 82.0467954,6.80435955 81.7801579,6.80435955 C81.5135203,6.80435955 81.2579245,6.91084522 81.0701579,7.10015787 L80.7901579,7.38015787 C80.4674745,7.69869541 79.9708544,7.76025989 79.5801579,7.53015787 C78.6959909,7.0101147 77.7434291,6.6162994 76.7501579,6.36015787 C76.2969579,6.24339183 75.9853573,5.82792431 76.0001579,5.36015787 L76.0001579,5.00015787 C76.0001579,4.44787312 75.5524426,4.00015787 75.0001579,4.00015787 Z M74.0001579,10.0001579 C77.8661511,10.0001579 81.0001579,13.1341646 81.0001579,17.0001579 C81.0001579,18.8566733 80.26266,20.6371507 78.9499053,21.9499053 C77.6371507,23.26266 75.8566733,24.0001579 74.0001579,24.0001579 C70.1341646,24.0001579 67.0001579,20.8661511 67.0001579,17.0001579 C67.0001579,13.1341646 70.1341646,10.0001579 74.0001579,10.0001579 Z M74.0001579,12.0001579 C71.2387341,12.0001579 69.0001579,14.2387341 69.0001579,17.0001579 C69.0001579,19.7615816 71.2387341,22.0001579 74.0001579,22.0001579 C76.7615816,22.0001579 79.0001579,19.7615816 79.0001579,17.0001579 C79.0001579,15.6740754 78.4733737,14.4023059 77.5356918,13.464624 C76.5980099,12.5269421 75.3262403,12.0001579 74.0001579,12.0001579 Z" id="Combined-Shape" fill="#577EE8" fill-rule="nonzero"></path>
                <rect id="Rectangle" stroke="#577EE8" stroke-width="2" fill="#FFFFFF" x="4" y="15" width="69" height="55"></rect>
                <rect id="Rectangle" fill="#577EE8" x="7" y="18" width="3" height="3"></rect>
                <rect id="Rectangle-Copy-2" fill="#577EE8" x="12" y="18" width="3" height="3"></rect>
                <rect id="Rectangle-Copy-3" fill="#577EE8" x="17" y="18" width="3" height="3"></rect>
                <line x1="4.5" y1="23.5" x2="71.5" y2="23.5" id="Line" stroke="#577EE8" stroke-width="2" stroke-linecap="square"></line>
                <line x1="14.5" y1="52" x2="61.5" y2="52" id="Line-Copy" stroke="#577EE8" stroke-width="2" stroke-linecap="square"></line>
                <line x1="14.5" y1="57" x2="37.5" y2="57" id="Line-Copy-2" stroke="#577EE8" stroke-width="2" stroke-linecap="square"></line>
                <line x1="14.5" y1="62" x2="32.5" y2="62" id="Line-Copy-3" stroke="#577EE8" stroke-width="2" stroke-linecap="square"></line>
                <circle id="Oval" stroke="#577EE8" stroke-width="2" cx="24" cy="38" r="8"></circle>
                <circle id="Oval-Copy" stroke="#577EE8" stroke-width="2" cx="32" cy="38" r="8"></circle>
            </g>
        </g>
    </g>
</svg>