<?xml version="1.0" encoding="UTF-8"?>
<svg width="528px" height="115px" viewBox="0 0 528 115" version="1.1" xmlns="http://www.w3.org/2000/svg" xmlns:xlink="http://www.w3.org/1999/xlink">
    <title>E4B615DB-9226-4154-9B33-04CAE92FDC7A</title>
    <defs>
        <polygon id="path-1" points="1.16157871 1.26497481 146.849063 1.26497481 146.849063 110.532313 1.16157871 110.532313 1.16157871 1.26497481"></polygon>
    </defs>
    <g id="Transicion" stroke="none" stroke-width="1" fill="none" fill-rule="evenodd" opacity="0.139136905">
        <g id="Loading-layout" transform="translate(-568.000000, -454.000000)">
            <g id="Logo-load" transform="translate(568.000000, 454.000000)">
                <g id="Logo-Fiwoo">
                    <path d="M63.9620587,2.10958131 C66.444213,2.10958131 68.5696941,2.99119377 70.3421415,4.76167476 C72.0636356,6.52852771 72.9262024,8.64730005 72.9262024,11.1216198 C72.9262024,13.5959395 72.0381589,15.6893156 70.2657115,17.4053761 C68.5442174,19.172229 66.444213,20.0574695 63.9620587,20.0574695 L63.8856287,20.0574695 L18.0021697,19.9050921 L18.0021697,47.3947119 L51.1254632,47.3947119 C53.6039779,47.3947119 55.7330985,48.2509281 57.505546,49.9669885 C59.2779934,51.7338415 60.1623973,53.8562419 60.1623973,56.3269336 C60.1623973,58.8012533 59.2779934,60.9236537 57.505546,62.6905066 C55.7330985,64.4065671 53.6039779,65.2627833 51.1254632,65.2627833 L18.0021697,65.2627833 L18.0021697,101.764442 C18.0021697,104.238761 17.1177658,106.332137 15.3453183,108.048198 C13.5728709,109.815051 11.4437503,110.700291 8.96523556,110.700291 C6.48308127,110.700291 4.37943732,109.815051 2.65794322,108.048198 C0.885495803,106.332137 0.00109185672,104.238761 0.00109185672,101.764442 L0.00109185672,10.9692423 C0.00109185672,8.4441301 0.885495803,6.32535776 2.65794322,4.6092973 C4.37943732,2.84244434 6.48308127,1.95720385 8.96523556,1.95720385 L9.038026,1.95720385 L63.9620587,2.10958131 Z" id="Fill-1" fill="#577EE8"></path>
                    <path d="M102.248379,110.433631 C99.7662244,110.433631 97.66622,109.54839 95.9447259,107.781537 C94.1722784,106.065477 93.284235,103.972101 93.284235,101.497781 L93.284235,11.1597142 C93.284235,8.68539441 94.1722784,6.58839029 95.9447259,4.87232982 C97.66622,3.10547687 99.7662244,2.22386441 102.248379,2.22386441 C104.730533,2.22386441 106.830537,3.10547687 108.552031,4.87232982 C110.324479,6.58839029 111.212522,8.68539441 111.212522,11.1597142 L111.212522,101.497781 C111.212522,103.972101 110.324479,106.065477 108.552031,107.781537 C106.830537,109.54839 104.730533,110.433631 102.248379,110.433631" id="Fill-3" fill="#577EE8"></path>
                    <g id="Group-7" transform="translate(131.022807, 0.429559)">
                        <mask id="mask-2" fill="white">
                            <use xlink:href="#path-1"></use>
                        </mask>
                        <g id="Clip-6"></g>
                        <path d="M140.854249,2.47492442 C143.183543,3.33476867 144.87956,4.87305543 145.942301,7.09341273 C147.008681,9.31377004 147.132425,11.5885479 146.324451,13.9104902 L114.343967,104.553312 L114.343967,104.625873 C114.242061,104.98142 114.089201,105.358736 113.885388,105.765076 C113.787121,105.863033 113.736167,105.939221 113.736167,105.990014 C113.532354,106.345561 113.303064,106.672084 113.051937,106.973211 C113.153844,106.824462 113.10289,106.90065 112.899077,107.201777 C112.695264,107.45574 112.469613,107.706074 112.214847,107.960037 C112.061987,108.112414 112.014673,108.159579 112.061987,108.112414 C111.759907,108.362749 111.454187,108.616711 111.152106,108.867045 C111.20306,108.816253 111.12663,108.867045 110.922816,109.019423 C110.620736,109.222593 110.315016,109.396738 110.012936,109.549116 C109.860076,109.599908 109.809123,109.625305 109.860076,109.625305 C109.507042,109.777682 109.175846,109.904663 108.873765,110.00262 C108.669952,110.104205 108.644475,110.129601 108.797335,110.078809 C108.491615,110.180394 108.138582,110.256583 107.734595,110.307375 C107.326968,110.40896 107.203224,110.434356 107.352445,110.383564 C106.846551,110.485149 106.366134,110.532313 105.911194,110.532313 C105.456254,110.532313 104.972197,110.485149 104.466304,110.383564 C104.619164,110.434356 104.49178,110.40896 104.087793,110.307375 C103.683806,110.256583 103.35261,110.180394 103.101483,110.078809 C103.19975,110.129601 103.148797,110.104205 102.948623,110.00262 C102.642903,109.904663 102.340823,109.777682 102.035103,109.625305 L101.809452,109.549116 C101.503732,109.396738 101.201652,109.222593 100.895932,109.019423 C100.895932,108.96863 100.870455,108.943234 100.819502,108.943234 L100.746712,108.867045 C100.390039,108.616711 100.087958,108.362749 99.8331916,108.112414 C99.8331916,108.159579 99.7567616,108.112414 99.6039017,107.960037 C99.3527746,107.706074 99.1234847,107.430344 98.923311,107.125589 L98.7704511,106.973211 C98.5666378,106.672084 98.3664641,106.345561 98.1626508,105.990014 C98.1116975,105.888429 98.0607442,105.81224 98.0097909,105.765076 C97.8059776,105.358736 97.6312805,104.98142 97.4784206,104.625873 L97.4784206,104.553312 L74.0071406,37.9135685 L50.532221,104.553312 L50.532221,104.625873 C50.3793611,104.98142 50.204664,105.358736 50.0008507,105.765076 C49.9498974,105.863033 49.8989441,105.939221 49.8479908,105.990014 C49.6478171,106.345561 49.4440038,106.672084 49.2401906,106.973211 C49.3420972,106.824462 49.2911439,106.90065 49.0873306,107.201777 C48.8362036,107.45574 48.581437,107.706074 48.33031,107.960037 C48.17745,108.112414 48.1264967,108.159579 48.17745,108.112414 C47.9226834,108.362749 47.6206031,108.616711 47.2675694,108.867045 C47.3658365,108.816253 47.2930461,108.867045 47.0382795,109.019423 C46.7325596,109.222593 46.4304793,109.396738 46.1247594,109.549116 C45.975539,109.599908 45.9245856,109.625305 45.975539,109.625305 C45.6188658,109.777682 45.3167854,109.904663 45.0620188,110.00262 C44.8108918,110.104205 44.7599385,110.129601 44.9127984,110.078809 C44.6070785,110.180394 44.2540449,110.256583 43.8464183,110.307375 C43.4933847,110.40896 43.3660014,110.434356 43.467908,110.383564 C43.0129677,110.485149 42.5543879,110.532313 42.0994476,110.532313 C41.593554,110.532313 41.113137,110.485149 40.6581967,110.383564 C40.8074171,110.434356 40.6836734,110.40896 40.2760469,110.307375 C39.8720599,110.256583 39.5190262,110.180394 39.2133063,110.078809 C39.3661663,110.129601 39.3406896,110.104205 39.1368763,110.00262 C38.834796,109.904663 38.5035994,109.777682 38.1505658,109.625305 C38.2015191,109.625305 38.1505658,109.599908 37.9977058,109.549116 C37.6956255,109.396738 37.3899056,109.222593 37.0878252,109.019423 C37.0368719,108.96863 36.9859186,108.943234 36.9349653,108.943234 C36.9349653,108.892442 36.9094886,108.867045 36.8585353,108.867045 C36.556455,108.616711 36.2507351,108.362749 35.9486547,108.112414 C35.999608,108.159579 35.9486547,108.112414 35.7957948,107.960037 C35.5410282,107.706074 35.2899012,107.430344 35.0351346,107.125589 L34.9587046,106.973211 C34.7075776,106.672084 34.4782877,106.345561 34.2744744,105.990014 C34.2271606,105.888429 34.1762073,105.81224 34.125254,105.765076 C33.9214407,105.358736 33.7685808,104.98142 33.6666742,104.625873 L33.5938837,104.553312 L1.68619073,13.9104902 C0.878216758,11.5885479 1.00196052,9.31377004 2.06834059,7.09341273 C3.13108113,4.87305543 4.82709857,3.33476867 7.15639292,2.47492442 C9.48568726,1.66587265 11.7640283,1.79285387 13.9950555,2.85224004 C16.2224432,3.96241869 17.7656007,5.68210719 18.6281676,8.00404947 L42.0994476,74.6401649 L65.5743671,8.00404947 L65.5743671,7.92786074 C65.6253205,7.82627577 65.6762738,7.67389831 65.7235876,7.47435639 C65.8764475,7.16960147 65.9274008,7.04262025 65.8764475,7.09341273 C65.9274008,7.09341273 66.0038308,6.99182776 66.1057374,6.79228585 C66.5097244,5.98323408 67.015618,5.27576729 67.6234183,4.66988548 C68.2821718,4.01321118 69.042832,3.45812185 69.9017593,3.0046175 C70.1055725,2.90303252 70.1820025,2.85224004 70.1310492,2.85224004 L70.5095595,2.70349061 C70.7643261,2.60190563 70.917186,2.55111315 70.9681394,2.55111315 C70.917186,2.55111315 70.9426627,2.5257169 71.0445693,2.47492442 C70.993616,2.5257169 71.0918831,2.50032066 71.3466497,2.39873568 C71.5504629,2.3479432 71.6996834,2.29715071 71.80159,2.24635822 C71.9034966,2.24635822 72.0563566,2.22096198 72.2565303,2.17379753 C72.4093902,2.12300504 72.5367735,2.0976088 72.6386801,2.0976088 C72.7405868,2.0976088 72.9152838,2.07221255 73.1700504,2.02142006 L73.5485607,2.02142006 L74.3856509,2.02142006 C74.5385108,2.02142006 74.7132079,2.04681631 74.9170212,2.0976088 L75.2955315,2.0976088 C75.3974381,2.0976088 75.5757747,2.12300504 75.8269018,2.17379753 L76.1326217,2.24635822 C76.2854816,2.29715071 76.4856553,2.3479432 76.7404219,2.39873568 C76.7404219,2.44952817 76.7658986,2.47492442 76.8168519,2.47492442 L76.9697118,2.47492442 L76.9697118,2.55111315 L77.0425023,2.55111315 C77.1444089,2.60190563 77.2972688,2.67809437 77.5010821,2.77605131 L77.8795924,2.85224004 L78.1853123,3.08080623 C78.9932863,3.48351809 79.7284698,4.01321118 80.3872234,4.66988548 C80.9950236,5.27576729 81.5009172,5.95783784 81.9049042,6.71609711 L82.0577641,7.09341273 L82.2106241,7.39816766 C82.3125307,7.64850206 82.3853212,7.82627577 82.4362745,7.92786074 L82.4362745,8.00404947 L105.911194,74.6401649 L129.382474,8.00404947 C130.194088,5.68210719 131.711768,3.96241869 133.942796,2.85224004 C136.170183,1.79285387 137.283877,1.26316079 137.283877,1.26316079 C137.283877,1.26316079 138.474001,1.66587265 140.854249,2.47492442" id="Fill-5" fill="#577EE8" mask="url(#mask-2)"></path>
                    </g>
                    <path d="M471.815311,19.8289033 C461.737473,19.8289033 453.126363,23.3880055 445.98562,30.5062098 C438.797564,37.6752066 435.201716,46.2809052 435.201716,56.3269336 C435.201716,66.372962 438.797564,74.9568923 445.98562,82.0750967 C453.126363,89.2440934 461.737473,92.8285918 471.815311,92.8285918 C481.893149,92.8285918 490.526096,89.2440934 497.717792,82.0750967 C504.858535,74.9568923 508.428906,66.372962 508.428906,56.3269336 C508.428906,46.2809052 504.858535,37.6752066 497.717792,30.5062098 C490.526096,23.3880055 481.893149,19.8289033 471.815311,19.8289033 M471.815311,110.700291 C456.773165,110.700291 443.936569,105.374336 433.301885,94.722426 C422.616247,84.1176803 417.273428,71.3216015 417.273428,56.3269336 C417.273428,41.3358937 422.616247,28.5107907 433.301885,17.8588804 C443.936569,7.25776271 456.773165,1.95720385 471.815311,1.95720385 C486.857457,1.95720385 499.719529,7.25776271 510.405167,17.8588804 C521.039852,28.5107907 526.357194,41.3358937 526.357194,56.3269336 C526.357194,71.3216015 521.039852,84.1176803 510.405167,94.722426 C499.719529,105.374336 486.857457,110.700291 471.815311,110.700291" id="Fill-8" fill="#577EE8"></path>
                    <path d="M384.112648,17.7239175 C381.739679,15.369323 381.910737,19.8136656 379.323036,17.981508 C381.051809,20.8911919 376.906393,16.6935557 373.448847,20.0023234 C370.635496,22.6943252 371.119553,27.3708621 371.119553,27.3708621 C371.778306,27.9477197 370.788356,29.7399689 371.425272,30.3712469 C378.566015,37.5402437 382.136387,46.1459423 382.136387,56.1919707 C382.136387,66.2379991 378.566015,74.8219295 371.425272,81.9401338 C364.233576,89.1055025 355.600629,92.6900009 345.522791,92.6900009 C335.444954,92.6900009 326.833844,89.1055025 319.693101,81.9401338 C312.505044,74.8219295 308.909196,66.2379991 308.909196,56.1919707 C308.909196,46.1459423 312.505044,37.5402437 319.693101,30.3712469 C326.724658,23.3618836 335.441314,19.2622043 345.318978,19.1569913 L346.651043,10.2030014 L351.677224,3.28433898 C349.380685,2.36281814 348.099573,2.21406871 345.741163,2.21406871 C330.699017,2.21406871 317.64405,7.12279982 307.009365,17.7239175 C296.323728,28.3758278 290.980909,41.1973028 290.980909,56.1919707 C290.980909,71.1866386 296.323728,83.9827174 307.009365,94.5838351 C317.64405,105.235745 330.480645,110.5617 345.522791,110.5617 C360.564938,110.5617 373.42701,105.235745 384.112648,94.5838351 C394.747332,83.9827174 400.064674,71.1866386 400.064674,56.1919707 C400.064674,41.1973028 394.747332,28.3758278 384.112648,17.7239175" id="Fill-10" fill="#E12C50"></path>
                    <path d="M385.378474,19.9493541 C387.00534,24.4590014 384.49407,29.4910857 379.76633,31.189006 C375.04223,32.8832982 369.888666,30.6012643 368.2618,26.087989 C366.631294,21.5783417 369.146204,16.5462574 373.870304,14.8519652 C378.598043,13.1540449 383.751607,15.4397068 385.378474,19.9493541" id="Fill-12" fill="#E12C50"></path>
                    <path d="M355.275984,7.66555383 C356.877374,12.1062684 354.406138,17.062164 349.751189,18.73106 C345.099879,20.399956 340.026385,18.1505744 338.424995,13.7098598 C336.819965,9.26914521 339.294841,4.31324966 343.94615,2.64435364 C348.6011,0.975457627 353.674594,3.22483921 355.275984,7.66555383" id="Fill-14" fill="#E12C50"></path>
                </g>
            </g>
        </g>
    </g>
</svg>