<svg width="366" height="76" viewBox="0 0 366 76" fill="none" xmlns="http://www.w3.org/2000/svg">
<path fill-rule="evenodd" clip-rule="evenodd" d="M44.75 0C46.5 0 48 0.5 49.25 1.75C50.5 3 51 4.5 51 6.25C51 8 50.5 9.5 49.25 10.75C48 12 46.5 12.5 44.75 12.5H12.5V31.75H35.75C37.5 31.75 39 32.25 40.25 33.5C41.5 34.75 42 36.25 42 38C42 39.75 41.5 41.25 40.25 42.5C39 43.75 37.5 44.25 35.75 44.25H12.5V69.75C12.5 71.5 12 73 10.75 74.25C9.5 75.5 8 76 6.25 76C4.5 76 3 75.5 1.75 74.25C0.5 73 0 71.5 0 70V6.25C0 4.5 0.5 3 1.75 1.75C3 0.5 4.5 0 6.25 0H44.75Z" fill="#577EE8"/>
<path fill-rule="evenodd" clip-rule="evenodd" d="M71 76C69.32 76 67.88 75.505 66.68 74.2673C65.48 73.0297 65 71.5446 65 69.8119V7.18812C65 5.45545 65.48 3.9703 66.68 2.73267C67.88 1.49505 69.32 1 71 1C72.68 1 74.12 1.49505 75.32 2.73267C76.52 3.9703 77 5.45545 77 7.18812V69.8119C77 71.5446 76.52 73.0297 75.32 74.2673C73.88 75.2574 72.68 76 71 76Z" fill="#577EE8"/>
<mask id="mask0" mask-type="alpha" maskUnits="userSpaceOnUse" x="91" y="0" width="103" height="76">
<path fill-rule="evenodd" clip-rule="evenodd" d="M91.8127 0.0505524H193.231V75.9161H91.8127V0.0505524Z" fill="white"/>
</mask>
<g mask="url(#mask0)">
<path fill-rule="evenodd" clip-rule="evenodd" d="M189.016 0.794333C190.751 1.29019 191.743 2.52982 192.487 4.01738C193.231 5.50494 193.231 7.24043 192.735 8.72799L170.418 71.7014C170.418 71.9493 170.17 72.1972 170.17 72.4452C170.17 72.4452 170.17 72.4452 170.17 72.6931C169.922 72.941 169.922 73.1889 169.674 73.4369C169.674 73.4369 169.674 73.4369 169.674 73.6848C169.426 73.9327 169.426 73.9327 169.178 74.1806C169.178 74.1806 168.93 74.4286 169.178 74.1806C168.93 74.4286 168.682 74.4286 168.434 74.6765C168.434 74.6765 168.434 74.6765 168.186 74.6765C167.938 74.9244 167.69 74.9244 167.442 74.9244C167.442 74.9244 167.194 74.9244 167.442 74.9244C167.194 74.9244 166.946 75.1724 166.699 75.1724C166.451 75.1724 166.451 75.1724 166.699 75.1724C166.451 75.1724 166.203 75.1724 165.955 75.4203C165.707 75.4203 165.707 75.4203 165.707 75.4203C165.459 75.4203 164.963 75.4203 164.715 75.4203C164.467 75.4203 163.971 75.4203 163.723 75.4203C163.723 75.4203 163.723 75.4203 163.475 75.4203C163.227 75.4203 162.979 75.4203 162.731 75.1724C162.483 75.1724 162.235 74.9244 161.987 74.9244H161.739C161.491 74.9244 161.243 74.6765 160.995 74.6765C160.747 74.4286 160.499 74.4286 160.251 74.1806C160.251 74.1806 160.251 74.1806 160.003 74.1806C159.755 73.9327 159.755 73.9327 159.507 73.6848C159.26 73.4369 159.26 73.1889 159.012 72.941C159.012 72.941 159.012 72.941 159.012 72.6931C158.764 72.4452 158.764 72.1972 158.764 71.9493L142.398 25.587L126.032 71.9493C126.032 72.1972 125.784 72.4452 125.784 72.6931C125.784 72.6931 125.784 72.6931 125.784 72.941C125.536 73.1889 125.536 73.4369 125.288 73.6848C125.288 73.6848 125.288 73.6848 125.288 73.9327C125.04 74.1807 125.04 74.1807 124.792 74.4286C124.792 74.4286 124.544 74.6765 124.792 74.4286C124.544 74.6765 124.296 74.6765 124.048 74.9244C124.048 74.9244 124.048 74.9244 123.8 74.9244C123.552 75.1724 123.304 75.1724 123.056 75.1724C123.056 75.1724 122.808 75.1724 123.056 75.1724C122.808 75.1724 122.56 75.4203 122.312 75.4203C122.064 75.4203 122.064 75.4203 122.312 75.4203C122.064 75.4203 121.816 75.4203 121.568 75.6682C121.32 75.6682 121.32 75.6682 121.32 75.6682C121.073 75.6682 120.577 75.6682 120.329 75.6682C120.081 75.6682 119.585 75.6682 119.337 75.6682C119.337 75.6682 119.337 75.6682 119.089 75.6682C118.841 75.6682 118.593 75.6682 118.345 75.4203C118.097 75.4203 117.849 75.1724 117.601 75.1724C117.353 75.1724 117.105 74.9244 116.857 74.9244C116.609 74.6765 116.361 74.6765 116.113 74.4286C115.865 74.1807 115.865 74.1807 115.617 73.9327C115.369 73.6848 115.369 73.4369 115.121 73.1889C115.121 73.1889 115.121 73.1889 115.121 72.941C114.873 72.6931 114.873 72.4452 114.873 72.1972L92.3083 8.72799C91.5644 7.24043 91.8124 5.50494 92.5563 4.01738C93.3002 2.52982 94.54 1.53811 96.0278 0.794333C97.7636 0.298479 99.2514 0.298479 100.739 1.04226C102.227 1.78604 103.467 3.02567 103.963 4.76116L120.329 51.1235L136.694 4.76116V4.51323C136.694 4.26531 136.942 4.26531 136.694 4.26531C136.694 4.26531 136.694 4.26531 136.942 4.01738C137.19 3.2736 137.686 2.77775 138.182 2.28189C138.678 1.78604 139.174 1.53811 139.67 1.04226C139.918 1.04226 139.918 1.04226 139.918 1.04226H140.166C140.414 1.04226 140.414 1.04226 140.414 1.04226C140.414 1.04226 140.414 1.04226 140.662 1.04226C140.91 1.04226 140.91 1.04226 140.91 1.04226H141.158H141.406H141.654H141.902H142.398H142.646H142.894H143.142H143.39C143.39 1.04226 143.638 1.04226 143.886 1.04226C143.886 1.04226 144.133 1.04226 144.133 1.29019H144.381L144.629 1.53811C145.125 1.78604 145.621 2.28189 146.117 2.52982C147.357 2.77775 147.605 3.2736 148.101 3.76945V4.01738V4.26531C148.101 4.51323 148.101 4.51323 148.349 4.51323L164.715 50.8755L181.081 4.51323C181.577 2.77775 182.816 1.78604 184.304 1.04226C185.792 0.298479 186.536 0.0505524 186.536 0.0505524C186.536 0.0505524 187.28 0.298479 189.016 0.794333Z" fill="#577EE8"/>
</g>
<path fill-rule="evenodd" clip-rule="evenodd" d="M328 12.6667C321.046 12.6667 315.085 15.1503 310.118 20.1176C305.15 25.085 302.667 31.0457 302.667 38C302.667 44.9542 305.15 50.915 310.118 55.8824C315.085 60.8497 321.046 63.3333 328 63.3333C334.954 63.3333 340.915 60.8497 346.131 55.8824C351.098 50.915 353.582 44.9542 353.582 38C353.582 31.0457 351.098 25.085 346.131 20.1176C340.915 15.1503 334.954 12.6667 328 12.6667ZM328 76C317.569 76 308.627 72.2745 301.176 64.8235C293.725 57.3725 290 48.4314 290 38C290 27.5686 293.725 18.6274 301.176 11.1765C308.627 3.72549 317.569 0 328 0C338.431 0 347.373 3.72549 354.824 11.1765C362.275 18.6274 366 27.5686 366 38C366 48.4314 362.275 57.3725 354.824 64.8235C347.373 72.2745 338.431 76 328 76Z" fill="#577EE8"/>
<path fill-rule="evenodd" clip-rule="evenodd" d="M267.072 11.6086C265.582 9.63487 262.601 8.64803 259.869 9.63487C256.641 10.8684 254.902 14.3224 255.895 17.2829C256.392 18.5164 257.137 19.5033 258.131 19.9967V20.2434C263.098 25.1776 265.582 31.0987 265.582 38.0066C265.582 44.9145 263.098 50.8355 258.131 55.7697C253.163 60.7039 247.203 63.1711 240 63.1711C232.797 63.1711 227.085 60.7039 222.118 55.7697C217.15 50.8355 214.667 44.9145 214.667 38.0066C214.667 31.0987 217.15 25.1776 222.118 20.2434C227.085 15.3092 233.046 12.5954 240 12.5954C240.993 12.8421 241.987 12.5954 242.98 12.3487C246.209 11.1151 247.948 7.66118 246.706 4.70066C246.209 3.46711 245.216 2.48026 244.222 1.74013H243.974C242.732 1.24671 241.49 1 240 1C229.569 1 220.379 4.45395 213.176 11.6086C205.725 19.0099 202 27.8915 202 38.2533C202 48.6151 205.725 57.4967 213.176 64.898C220.627 72.2993 229.569 76 240 76C250.431 76 259.373 72.2993 266.824 64.898C274.275 57.4967 278 48.6151 278 38.2533C278 27.8915 274.275 19.0099 267.072 11.6086Z" fill="#E12C50"/>
</svg>
