<?xml version="1.0" encoding="UTF-8"?>
<svg width="30px" height="30px" viewBox="0 0 30 30" version="1.1" xmlns="http://www.w3.org/2000/svg" xmlns:xlink="http://www.w3.org/1999/xlink">
    <!-- Generator: sketchtool 56.2 (101010) - https://sketch.com -->
    <title>BF957A79-3B3A-4A2B-95B6-7752B1EBB77B</title>
    <desc>Created with sketchtool.</desc>
    <g id="-⚙-Design-Guideline" stroke="none" stroke-width="1" fill="none" fill-rule="evenodd">
        <g id="-⚙-Iconos" transform="translate(-361.000000, -256.000000)">
            <g id="ICO-rule" transform="translate(361.000000, 256.000000)">
                <rect id="Rectangle" x="0" y="0" width="30" height="30"></rect>
                <g id="ico-rule" transform="translate(15.000000, 15.500000) scale(-1, 1) rotate(-180.000000) translate(-15.000000, -15.500000) translate(6.000000, 11.000000)" fill="#577ee8" fill-rule="nonzero">
                    <polygon id="+" points="8.12173913 8.79118841 -5.6704641e-14 8.79118841 -5.6704641e-14 7.11111111 8.12173913 7.11111111 11.8782609 7.11111111 18 7.11111111 18 8.79118841 11.8782609 8.79118841"></polygon>
                    <polygon id="+" points="8.12173913 1.68007729 6.04885024 1.68007729 6.04885024 4.26325641e-14 8.12173913 4.31490978e-14 11.8782609 4.31490978e-14 18 4.31490978e-14 18 1.68007729 11.8782609 1.68007729"></polygon>
                    <polygon id="+" transform="translate(6.888889, 4.395594) rotate(-270.000000) translate(-6.888889, -4.395594) " points="3.33333333 5.23563285 3.33333333 3.55555556 5.2115942 3.55555556 10.4444444 3.55555556 10.4444444 5.23563285 5.2115942 5.23563285"></polygon>
                </g>
                <rect id="Rectangle" x="0" y="0" width="30" height="30"></rect>
            </g>
        </g>
    </g>
</svg>