<?xml version="1.0" encoding="UTF-8"?>
<svg width="90px" height="90px" viewBox="0 0 90 90" version="1.1" xmlns="http://www.w3.org/2000/svg" xmlns:xlink="http://www.w3.org/1999/xlink">
    <!-- Generator: sketchtool 55.2 (78181) - https://sketchapp.com -->
    <title>6149FC18-A5D8-425E-99ED-4A046C44EA3E</title>
    <desc>Created with sketchtool.</desc>
    <defs>
        <linearGradient x1="50%" y1="-2.48949813e-15%" x2="50%" y2="100%" id="linearGradient-1">
            <stop stop-color="#5FBC51" offset="0%"></stop>
            <stop stop-color="#5AC178" offset="100%"></stop>
        </linearGradient>
        <rect id="path-2" x="21" y="23" width="48" height="48" rx="24"></rect>
        <filter x="-31.2%" y="-31.2%" width="162.5%" height="162.5%" filterUnits="objectBoundingBox" id="filter-3">
            <feOffset dx="0" dy="0" in="SourceAlpha" result="shadowOffsetOuter1"></feOffset>
            <feGaussianBlur stdDeviation="5" in="shadowOffsetOuter1" result="shadowBlurOuter1"></feGaussianBlur>
            <feColorMatrix values="0 0 0 0 0.392156863   0 0 0 0 0.725490196   0 0 0 0 0.329411765  0 0 0 1 0" type="matrix" in="shadowBlurOuter1"></feColorMatrix>
        </filter>
    </defs>
    <g id="-⚙-Design-Guideline" stroke="none" stroke-width="1" fill="none" fill-rule="evenodd">
        <g id="-⚙-Iconos" transform="translate(-796.000000, -352.000000)">
            <g id="Permisos" transform="translate(796.000000, 352.000000)">
                <g id="Group">
                    <g id="Rectangle">
                        <use fill="black" fill-opacity="1" filter="url(#filter-3)" xlink:href="#path-2"></use>
                        <use fill="url(#linearGradient-1)" fill-rule="evenodd" xlink:href="#path-2"></use>
                    </g>
                </g>
                <g transform="translate(36.000000, 30.000000)" fill="#2B334A" fill-rule="nonzero" id="Group">
                    <g>
                        <path d="M32.5670886,0 L3.15949367,0 C1.45822785,0 0.121518987,1.33670886 0.121518987,3.03797468 L0.121518987,44.9620253 C0.121518987,46.6632911 1.45822785,48 3.15949367,48 L32.5670886,48 C34.2683544,48 35.6050633,46.6632911 35.6050633,44.9620253 L35.6050633,3.03797468 C35.6050633,1.33670886 34.2075949,0 32.5670886,0 Z M33.7822785,44.9620253 C33.7822785,45.6303797 33.235443,46.1772152 32.5670886,46.1772152 L3.15949367,46.1772152 C2.49113924,46.1772152 1.9443038,45.6303797 1.9443038,44.9620253 L1.9443038,3.03797468 C1.9443038,2.36962025 2.49113924,1.82278481 3.15949367,1.82278481 L32.5670886,1.82278481 C33.235443,1.82278481 33.7822785,2.36962025 33.7822785,3.03797468 L33.7822785,44.9620253 Z" id="Shape"></path>
                        <path d="M17.8632911,8.14177215 C12.3341772,8.14177215 7.89873418,12.6379747 7.89873418,18.1063291 C7.89873418,23.5746835 12.3949367,28.0708861 17.8632911,28.0708861 C23.3316456,28.0708861 27.8278481,23.5746835 27.8278481,18.1063291 C27.8278481,12.6379747 23.3924051,8.14177215 17.8632911,8.14177215 Z M17.8632911,9.72151899 C18.956962,9.72151899 20.4759494,12.6379747 20.5974684,17.3164557 L15.0683544,17.3164557 C15.2506329,12.6379747 16.7696203,9.72151899 17.8632911,9.72151899 Z M15.1898734,10.1468354 C14.2177215,11.9088608 13.6708861,14.643038 13.5493671,17.3164557 L9.53924051,17.3164557 C9.78227848,13.9746835 12.0911392,11.1797468 15.1898734,10.1468354 Z M9.47848101,18.8962025 L13.4886076,18.8962025 C13.6101266,21.5696203 14.156962,24.3037975 15.1291139,26.0658228 C12.0911392,25.0329114 9.78227848,22.2379747 9.47848101,18.8962025 Z M17.8632911,26.4911392 C16.7696203,26.4911392 15.2506329,23.5746835 15.1291139,18.8962025 L20.6582278,18.8962025 C20.4759494,23.5746835 18.956962,26.4911392 17.8632911,26.4911392 Z M20.5367089,26.0658228 C21.5088608,24.3037975 22.0556962,21.5696203 22.1772152,18.8962025 L26.1873418,18.8962025 C25.9443038,22.2379747 23.635443,25.0329114 20.5367089,26.0658228 Z M22.1772152,17.3164557 C22.0556962,14.643038 21.5088608,11.9088608 20.5367089,10.1468354 C23.635443,11.1797468 25.8835443,13.9746835 26.1873418,17.3164557 L22.1772152,17.3164557 Z" id="Shape"></path>
                        <path d="M26.4911392,33.6 L9.23544304,33.6 C8.81012658,33.6 8.50632911,33.964557 8.50632911,34.3291139 C8.50632911,34.6936709 8.87088608,35.0582278 9.23544304,35.0582278 L26.4911392,35.0582278 C26.9164557,35.0582278 27.2202532,34.6936709 27.2202532,34.3291139 C27.2202532,33.964557 26.9164557,33.6 26.4911392,33.6 Z" id="Path"></path>
                        <path d="M23.4531646,37.8531646 L12.2734177,37.8531646 C11.8481013,37.8531646 11.5443038,38.2177215 11.5443038,38.5822785 C11.5443038,38.9468354 11.9088608,39.3113924 12.2734177,39.3113924 L23.4531646,39.3113924 C23.878481,39.3113924 24.1822785,38.9468354 24.1822785,38.5822785 C24.1822785,38.2177215 23.878481,37.8531646 23.4531646,37.8531646 Z" id="Path"></path>
                    </g>
                </g>
            </g>
        </g>
    </g>
</svg>