<?xml version="1.0" encoding="UTF-8"?>
<svg width="24px" height="24px" viewBox="0 0 24 24" version="1.1" xmlns="http://www.w3.org/2000/svg" xmlns:xlink="http://www.w3.org/1999/xlink">
    <!-- Generator: sketchtool 61 (101010) - https://sketch.com -->
    <title>967A8D42-E559-4C7C-8B90-D660A2DFB179</title>
    <desc>Created with sketchtool.</desc>
    <g id="Layout-FIWOO" stroke="none" stroke-width="1" fill="none" fill-rule="evenodd">
        <g id="Mobile-Dashboard-menu-user" transform="translate(-16.000000, -374.000000)" fill="#2B334A" fill-rule="nonzero" stroke="#2B334A" stroke-width="0.5">
            <g id="Menu-usuariodesplegao" transform="translate(0.000000, 112.000000)">
                <g id="Nav/Menu/List--#3-Nav/Menu/List-" transform="translate(0.000000, 246.000000)">
                    <g id="Nav/Menu/List-">
                        <g id="icon-device-icon-Permisos" transform="translate(12.000000, 12.000000)">
                            <g id="ico_permission" transform="translate(4.000000, 4.000000)">
                                <path d="M21.1666667,5.75 L18.1,5.75 L18.1,1.15 C18.1,0.498333333 17.6016667,0 16.95,0 L3.15,0 C2.49833333,0 2,0.498333333 2,1.15 L2,21.85 C2,22.5016667 2.49833333,23 3.15,23 L14.8033333,23 L18.1,19.7033333 L18.1,17.25 L17.3333333,17.25 L17.3333333,19.1666667 L15.4166667,19.1666667 C14.765,19.1666667 14.2666667,19.665 14.2666667,20.3166667 L14.2666667,22.2333333 L3.15,22.2333333 C2.92,22.2333333 2.76666667,22.08 2.76666667,21.85 L2.76666667,1.15 C2.76666667,0.92 2.92,0.766666667 3.15,0.766666667 L16.95,0.766666667 C17.18,0.766666667 17.3333333,0.92 17.3333333,1.15 L17.3333333,5.75 L14.2666667,5.75 C13.615,5.75 13.1166667,6.24833333 13.1166667,6.9 L13.1166667,13.8 C13.1166667,14.4516667 13.615,14.95 14.2666667,14.95 L16.4133333,14.95 L17.7166667,16.2533333 L19.02,14.95 L21.1666667,14.95 C21.8183333,14.95 22.3166667,14.4516667 22.3166667,13.8 L22.3166667,6.9 C22.3166667,6.24833333 21.8183333,5.75 21.1666667,5.75 Z M15.4166667,19.9333333 L16.7966667,19.9333333 L15.0333333,21.6966667 L15.0333333,20.3166667 C15.0333333,20.0866667 15.1866667,19.9333333 15.4166667,19.9333333 Z M21.55,13.8 C21.55,14.03 21.3966667,14.1833333 21.1666667,14.1833333 L18.7133333,14.1833333 L17.7166667,15.18 L16.72,14.1833333 L14.2666667,14.1833333 C14.0366667,14.1833333 13.8833333,14.03 13.8833333,13.8 L13.8833333,6.9 C13.8833333,6.67 14.0366667,6.51666667 14.2666667,6.51666667 L21.1666667,6.51666667 C21.3966667,6.51666667 21.55,6.67 21.55,6.9 L21.55,13.8 Z" id="Shape"></path>
                                <path d="M19.2916667,9.17083333 L19.2916667,8.48333333 C19.2916667,7.79583333 18.7291667,7.23333333 18.0416667,7.23333333 C17.3541667,7.23333333 16.7916667,7.79583333 16.7916667,8.48333333 L17.4166667,8.48333333 C17.4166667,8.13958333 17.6979167,7.85833333 18.0416667,7.85833333 C18.3854167,7.85833333 18.6666667,8.13958333 18.6666667,8.48333333 L18.6666667,9.10833333 L17.1041667,9.10833333 C16.5729167,9.10833333 16.1666667,9.51458333 16.1666667,10.0458333 L16.1666667,11.2958333 C16.1666667,11.8270833 16.5729167,12.2333333 17.1041667,12.2333333 L18.9791667,12.2333333 C19.5104167,12.2333333 19.9166667,11.8270833 19.9166667,11.2958333 L19.9166667,10.0458333 C19.9166667,9.63958333 19.6666667,9.29583333 19.2916667,9.17083333 Z M19.2916667,11.2958333 C19.2916667,11.4833333 19.1666667,11.6083333 18.9791667,11.6083333 L17.1041667,11.6083333 C16.9166667,11.6083333 16.7916667,11.4833333 16.7916667,11.2958333 L16.7916667,10.0458333 C16.7916667,9.85833333 16.9166667,9.73333333 17.1041667,9.73333333 L18.9791667,9.73333333 C19.1666667,9.73333333 19.2916667,9.85833333 19.2916667,10.0458333 L19.2916667,11.2958333 Z" id="Shape"></path>
                            </g>
                        </g>
                    </g>
                </g>
            </g>
        </g>
    </g>
</svg>