<?xml version="1.0" encoding="UTF-8"?>
<svg width="90px" height="90px" viewBox="0 0 90 90" version="1.1" xmlns="http://www.w3.org/2000/svg" xmlns:xlink="http://www.w3.org/1999/xlink">
    <!-- Generator: sketchtool 64 (101010) - https://sketch.com -->
    <title>C11AFFA6-DB81-4F21-9A17-4121D2701381</title>
    <desc>Created with sketchtool.</desc>
    <defs>
        <linearGradient x1="50%" y1="0%" x2="50%" y2="100%" id="linearGradient-1">
            <stop stop-color="#FB9B51" offset="0%"></stop>
            <stop stop-color="#FBAE46" offset="100%"></stop>
        </linearGradient>
        <rect id="path-2" x="21" y="22" width="48" height="48" rx="24"></rect>
        <filter x="-31.2%" y="-31.2%" width="162.5%" height="162.5%" filterUnits="objectBoundingBox" id="filter-3">
            <feOffset dx="0" dy="0" in="SourceAlpha" result="shadowOffsetOuter1"></feOffset>
            <feGaussianBlur stdDeviation="5" in="shadowOffsetOuter1" result="shadowBlurOuter1"></feGaussianBlur>
            <feColorMatrix values="0 0 0 0 0.883583121   0 0 0 0 0.174248281   0 0 0 0 0.31230674  0 0 0 0.574874344 0" type="matrix" in="shadowBlurOuter1"></feColorMatrix>
        </filter>
        <polygon id="path-4" points="0 0.140540541 6.63340108 0.140540541 6.63340108 6.77419459 0 6.77419459"></polygon>
    </defs>
    <g id="-⚙-FIWOO-BI" stroke="none" stroke-width="1" fill="none" fill-rule="evenodd">
        <g id="Flow---Main" transform="translate(-1327.000000, -512.000000)">
            <g id="Report" transform="translate(1327.000000, 512.000000)">
                <g id="Group"></g>
                <g id="Rectangle-Copy-3">
                    <use fill="black" fill-opacity="1" filter="url(#filter-3)" xlink:href="#path-2"></use>
                    <use fill="url(#linearGradient-1)" fill-rule="evenodd" xlink:href="#path-2"></use>
                </g>
                <g id="Group-29" transform="translate(25.000000, 29.000000)">
                    <rect id="Rectangle" stroke="#2B334A" stroke-width="1.5" x="0.75" y="0.75" width="38.5" height="32.5" rx="1"></rect>
                    <g id="Group-6" transform="translate(4.324324, 3.243243)">
                        <path d="M12.5081081,8.26375568 C12.5081081,10.7589124 10.4778595,12.7891611 7.9827027,12.7891611 C5.77621622,12.7891611 3.87414054,11.1333124 3.52307027,8.96645838 L8.68540541,8.96645838 L8.68540541,3.80412324 C10.8522595,4.15519351 12.5081081,6.05726919 12.5081081,8.26375568 M8.01081081,2.33294486 L7.30810811,2.33294486 L7.30810811,7.56105297 L2.08,7.56105297 L2.08,8.26375568 C2.08,11.5341341 4.74043243,14.1945665 8.01081081,14.1945665 C11.2811892,14.1945665 13.9416216,11.5341341 13.9416216,8.26375568 C13.9416216,4.99365838 11.2811892,2.33294486 8.01081081,2.33294486" id="Fill-1" fill="#2B334A"></path>
                        <g id="Group-5" transform="translate(0.000000, 0.140541)">
                            <mask id="mask-5" fill="white">
                                <use xlink:href="#path-4"></use>
                            </mask>
                            <g id="Clip-4"></g>
                            <path d="M5.22799568,1.60989189 L5.22799568,5.36878919 L1.46937946,5.36878919 C1.76929297,3.45603243 3.31523892,1.90980541 5.22799568,1.60989189 L5.22799568,1.60989189 Z M6.63340108,0.1404 L5.93069838,0.1404 C2.66032,0.1404 -0.000112432432,2.80111351 -0.000112432432,6.07149189 L-0.000112432432,6.77419459 L6.63340108,6.77419459 L6.63340108,0.1404 Z" id="Fill-3" fill="#2B334A" mask="url(#mask-5)"></path>
                        </g>
                    </g>
                    <g id="Group-28" transform="translate(22.463923, 3.414299)" fill="#2B334A" fill-rule="nonzero">
                        <path d="M0.810810811,-1.22904689e-13 C1.22129272,-1.22904689e-13 1.56053077,0.305031223 1.61421987,0.700788587 L1.62162162,0.810810811 L1.62148256,12.5316468 L12.2894402,12.5317662 C12.6999221,12.5317662 13.0391602,12.8367975 13.0928493,13.2325548 L13.1002511,13.3425771 C13.1002511,13.753059 12.7952198,14.092297 12.3994625,14.1459861 L12.2894402,14.1533879 L0.810810811,14.1533879 C0.400328902,14.1533879 0.0610908531,13.8483566 0.00740174702,13.4525993 L0,13.3425771 L0,0.810810811 C0,0.363012365 0.363012365,-1.22904689e-13 0.810810811,-1.22904689e-13 Z" id="Path-24"></path>
                        <g id="Group-27" transform="translate(7.265807, 6.855971) rotate(-90.000000) translate(-7.265807, -6.855971) translate(2.400942, 1.991106)">
                            <path d="M3.78378378,0.810810811 C4.23158223,0.810810811 4.59459459,1.17382318 4.59459459,1.62162162 C4.59459459,2.03210353 4.28956337,2.37134158 3.89380601,2.42503069 L3.78378378,2.43243243 L1.62162162,2.43243243 C1.17382318,2.43243243 0.810810811,2.06942007 0.810810811,1.62162162 C0.810810811,1.21113971 1.11584203,0.871901664 1.5115994,0.818212558 L1.62162162,0.810810811 L3.78378378,0.810810811 Z" id="Line-2"></path>
                            <path d="M8.10810811,4.05405405 C8.55590655,4.05405405 8.91891892,4.41706642 8.91891892,4.86486486 C8.91891892,5.27534677 8.6138877,5.61458482 8.21813033,5.66827393 L8.10810811,5.67567568 L1.62162162,5.67567568 C1.17382318,5.67567568 0.810810811,5.31266331 0.810810811,4.86486486 C0.810810811,4.45438296 1.11584203,4.11514491 1.5115994,4.0614558 L1.62162162,4.05405405 L8.10810811,4.05405405 Z" id="Line-2-Copy"></path>
                            <path d="M4.86486486,7.2972973 C5.31266331,7.2972973 5.67567568,7.66030966 5.67567568,8.10810811 C5.67567568,8.51859002 5.37064445,8.85782807 4.97488709,8.91151717 L4.86486486,8.91891892 L1.62162162,8.91891892 C1.17382318,8.91891892 0.810810811,8.55590655 0.810810811,8.10810811 C0.810810811,7.6976262 1.11584203,7.35838815 1.5115994,7.30469904 L1.62162162,7.2972973 L4.86486486,7.2972973 Z" id="Line-2-Copy-2"></path>
                        </g>
                    </g>
                    <path d="M22.2972973,25.1148649 C22.7115109,25.1148649 23.0472973,25.4506513 23.0472973,25.8648649 C23.0472973,26.2445606 22.7651434,26.5583558 22.3990679,26.6080182 L22.2972973,26.6148649 L5,26.6148649 C4.58578644,26.6148649 4.25,26.2790784 4.25,25.8648649 C4.25,25.4851691 4.53215388,25.1713739 4.89822944,25.1217115 L5,25.1148649 L22.2972973,25.1148649 Z" id="Line-2-Copy-3" fill="#2B334A" fill-rule="nonzero"></path>
                    <path d="M30.2972973,28.1148649 C30.7115109,28.1148649 31.0472973,28.4506513 31.0472973,28.8648649 C31.0472973,29.2445606 30.7651434,29.5583558 30.3990679,29.6080182 L30.2972973,29.6148649 L5,29.6148649 C4.58578644,29.6148649 4.25,29.2790784 4.25,28.8648649 C4.25,28.4851691 4.53215388,28.1713739 4.89822944,28.1217115 L5,28.1148649 L30.2972973,28.1148649 Z" id="Line-2-Copy-4" fill="#2B334A" fill-rule="nonzero"></path>
                    <path d="M11.7567568,21.8716216 C12.1709703,21.8716216 12.5067568,22.2074081 12.5067568,22.6216216 C12.5067568,23.0013174 12.2246029,23.3151126 11.8585273,23.364775 L11.7567568,23.3716216 L5.27027027,23.3716216 C4.85605671,23.3716216 4.52027027,23.0358352 4.52027027,22.6216216 C4.52027027,22.2419259 4.80242415,21.9281307 5.16849971,21.8784682 L5.27027027,21.8716216 L11.7567568,21.8716216 Z" id="Line-2-Copy" fill="#2B334A" fill-rule="nonzero"></path>
                </g>
            </g>
        </g>
    </g>
</svg>