<?xml version="1.0" encoding="UTF-8"?>
<svg width="25px" height="25px" viewBox="0 0 25 25" version="1.1" xmlns="http://www.w3.org/2000/svg" xmlns:xlink="http://www.w3.org/1999/xlink">
    <!-- Generator: sketchtool 61 (101010) - https://sketch.com -->
    <title>4BD7D8AF-5105-4383-AD1B-CFD9C3C5D9BB</title>
    <desc>Created with sketchtool.</desc>
    <defs>
        <rect id="path-1" x="4" y="4" width="48" height="48" rx="4"></rect>
        <filter x="-26.0%" y="-13.5%" width="152.1%" height="154.2%" filterUnits="objectBoundingBox" id="filter-2">
            <feMorphology radius="5" operator="erode" in="SourceAlpha" result="shadowSpreadOuter1"></feMorphology>
            <feOffset dx="0" dy="7" in="shadowSpreadOuter1" result="shadowOffsetOuter1"></feOffset>
            <feGaussianBlur stdDeviation="8" in="shadowOffsetOuter1" result="shadowBlurOuter1"></feGaussianBlur>
            <feColorMatrix values="0 0 0 0 0   0 0 0 0 0   0 0 0 0 0  0 0 0 0.12 0" type="matrix" in="shadowBlurOuter1"></feColorMatrix>
        </filter>
    </defs>
    <g id="Layout-FIWOO" stroke="none" stroke-width="1" fill="none" fill-rule="evenodd">
        <g id="Mobile-Dashboard-menu-user" transform="translate(-16.000000, -313.000000)">
            <rect fill="#F9FAFC" x="0" y="0" width="360" height="1024"></rect>
            <g id="Menu-usuariodesplegao" transform="translate(0.000000, 112.000000)">
                <rect id="Rectangle" fill="#E3E6E9" opacity="0.163853237" x="0" y="0" width="360" height="496"></rect>
                <g id="Nav/Menu/List--#3-Nav/Menu/List-" transform="translate(0.000000, 186.000000)">
                    <g id="Nav/Menu/List-">
                        <rect id="Rectangle" x="0" y="0" width="375" height="56"></rect>
                        <g id="Base-Copy">
                            <use fill="black" fill-opacity="1" filter="url(#filter-2)" xlink:href="#path-1"></use>
                            <use fill="#FFFFFF" fill-rule="evenodd" xlink:href="#path-1"></use>
                        </g>
                        <g id="icon-device-icon-Roles" transform="translate(12.000000, 12.000000)" fill="#2B334A" fill-rule="nonzero" stroke="#2B334A">
                            <g id="Ico-Roles" transform="translate(4.000000, 4.000000)">
                                <path d="M19.3636364,5.18181818 C19.4363636,5.18181818 19.5454545,5.14545455 19.6181818,5.07272727 L22.5636364,2.27272727 L22.5636364,3.87272727 C22.5636364,4.09090909 22.7090909,4.23636364 22.9272727,4.23636364 C23.1090909,4.23636364 23.2909091,4.05454545 23.2909091,3.87272727 L23.2909091,1.4 L23.2909091,1.36363636 C23.2909091,1.14545455 23.1454545,1 22.9272727,1 L20.4181818,1 C20.2,1 20.0545455,1.14545455 20.0545455,1.36363636 C20.0545455,1.58181818 20.2,1.72727273 20.4181818,1.72727273 L22.0909091,1.72727273 L19.1090909,4.56363636 C18.9636364,4.70909091 18.9636364,4.92727273 19.1090909,5.07272727 C19.1818182,5.14545455 19.2545455,5.18181818 19.3636364,5.18181818 Z" id="Path"></path>
                                <path d="M1.36363636,5.18181818 C1.43636364,5.18181818 1.54545455,5.14545455 1.61818182,5.07272727 L4.56363636,2.27272727 L4.56363636,3.87272727 C4.56363636,4.09090909 4.70909091,4.23636364 4.92727273,4.23636364 C5.10909091,4.23636364 5.29090909,4.05454545 5.29090909,3.87272727 L5.29090909,1.4 L5.29090909,1.36363636 C5.29090909,1.14545455 5.14545455,1 4.92727273,1 L2.41818182,1 C2.2,1 2.05454545,1.14545455 2.05454545,1.36363636 C2.05454545,1.58181818 2.2,1.72727273 2.41818182,1.72727273 L4.09090909,1.72727273 L1.10909091,4.56363636 C0.963636364,4.70909091 0.963636364,4.92727273 1.10909091,5.07272727 C1.18181818,5.14545455 1.25454545,5.18181818 1.36363636,5.18181818 Z" id="Path" transform="translate(3.145455, 3.090909) scale(1, -1) rotate(-180.000000) translate(-3.145455, -3.090909) "></path>
                                <path d="M19.3636364,23.1818182 C19.4363636,23.1818182 19.5454545,23.1454545 19.6181818,23.0727273 L22.5636364,20.2727273 L22.5636364,21.8727273 C22.5636364,22.0909091 22.7090909,22.2363636 22.9272727,22.2363636 C23.1090909,22.2363636 23.2909091,22.0545455 23.2909091,21.8727273 L23.2909091,19.4 L23.2909091,19.3636364 C23.2909091,19.1454545 23.1454545,19 22.9272727,19 L20.4181818,19 C20.2,19 20.0545455,19.1454545 20.0545455,19.3636364 C20.0545455,19.5818182 20.2,19.7272727 20.4181818,19.7272727 L22.0909091,19.7272727 L19.1090909,22.5636364 C18.9636364,22.7090909 18.9636364,22.9272727 19.1090909,23.0727273 C19.1818182,23.1454545 19.2545455,23.1818182 19.3636364,23.1818182 Z" id="Path" transform="translate(21.145455, 21.090909) scale(1, -1) translate(-21.145455, -21.090909) "></path>
                                <path d="M1.36363636,23.1818182 C1.43636364,23.1818182 1.54545455,23.1454545 1.61818182,23.0727273 L4.56363636,20.2727273 L4.56363636,21.8727273 C4.56363636,22.0909091 4.70909091,22.2363636 4.92727273,22.2363636 C5.10909091,22.2363636 5.29090909,22.0545455 5.29090909,21.8727273 L5.29090909,19.4 L5.29090909,19.3636364 C5.29090909,19.1454545 5.14545455,19 4.92727273,19 L2.41818182,19 C2.2,19 2.05454545,19.1454545 2.05454545,19.3636364 C2.05454545,19.5818182 2.2,19.7272727 2.41818182,19.7272727 L4.09090909,19.7272727 L1.10909091,22.5636364 C0.963636364,22.7090909 0.963636364,22.9272727 1.10909091,23.0727273 C1.18181818,23.1454545 1.25454545,23.1818182 1.36363636,23.1818182 Z" id="Path" transform="translate(3.145455, 21.090909) scale(-1, -1) rotate(-360.000000) translate(-3.145455, -21.090909) "></path>
                                <path d="M8.20229384,11.7619957 C8.5142671,11.7619957 8.76736471,12.0082177 8.76736471,12.313559 C8.76736471,12.5058591 8.6665317,12.6747712 8.51291363,12.7735199 C7.20343803,13.6746016 6.29932464,15.0999606 6.13420213,16.740358 C6.13487886,17.0456993 5.88178125,17.292571 5.56980799,17.292571 C5.257158,17.292571 5.00473712,17.0456993 5.00473712,16.7410077 L5.00473712,16.4351563 C5.17188982,14.4218527 6.26075094,12.9768642 7.86054439,11.8763363 C7.95596354,11.8055231 8.07371484,11.7619957 8.20229384,11.7619957 L5.56980799,16.740358 M18.5251574,16.7410077 L18.5346316,16.840406 C18.5319247,16.8098719 18.5271876,16.7799874 18.5244806,16.7488036 C18.5190668,17.0495973 18.2693528,17.292571 17.9600865,17.292571 C17.6481132,17.292571 17.3950156,17.0450497 17.3950156,16.7410077 L17.3936622,16.7410077 C17.1128186,13.94681 14.7016239,11.763295 11.7673158,11.7619957 L11.7646089,11.761346 C11.759195,11.761346 11.7544579,11.7619957 11.749044,11.7619957 C9.27152974,11.7619957 7.2629904,9.8000155 7.2629904,7.38067301 C7.2629904,4.96133054 9.27152974,3 11.749044,3 C11.751751,3 11.7544579,3.00064966 11.7564881,3.00064966 C11.759195,3.00064966 11.761902,3 11.7646089,3 C14.2407697,3 16.2486323,4.96068088 16.2486323,7.37937368 C16.2486323,8.28435329 15.9603447,9.11916936 15.4778351,9.81625705 C15.473098,9.82340333 15.4683608,9.82989996 15.4636237,9.83704624 C15.3932436,9.93774388 15.3188032,10.0351932 15.2396255,10.1293943 C15.2125563,10.1625271 15.1841336,10.1937109 15.1563876,10.226194 C15.084654,10.3067521 15.0129204,10.3873102 14.9350964,10.4633207 C14.8789276,10.5191917 14.8180218,10.570515 14.7584694,10.6231377 C14.671171,10.7004475 14.5811657,10.7758083 14.4864233,10.8466215 C14.3916809,10.9174347 14.2969384,10.9862989 14.1961055,11.0499658 C14.1785104,11.06101 14.1629456,11.0753026 14.1446739,11.0856972 C16.5125577,11.9536461 18.2483741,14.0728446 18.5102693,16.6201705 C18.5190668,16.6591502 18.5251574,16.6994293 18.5251574,16.7410077 M11.7646089,10.6556208 C11.8776231,10.6556208 11.9892838,10.6497738 12.1002678,10.6387295 C13.7880363,10.4672187 15.1036025,9.07434265 15.1036025,7.38067301 C15.1036025,5.57136345 13.6019351,4.1050756 11.749044,4.1050756 C11.6360299,4.1050756 11.5236924,4.11092256 11.4133852,4.12131716 C9.72561663,4.29282801 8.4093737,5.68570402 8.4093737,7.37937368 C8.4093737,9.18868325 9.91104108,10.6556208 11.7646089,10.6556208" id="Shape"></path>
                            </g>
                        </g>
                    </g>
                </g>
            </g>
        </g>
    </g>
</svg>