<?xml version="1.0" encoding="UTF-8"?>
<svg width="90px" height="90px" viewBox="0 0 90 90" version="1.1" xmlns="http://www.w3.org/2000/svg" xmlns:xlink="http://www.w3.org/1999/xlink">
    <!-- Generator: sketchtool 55.2 (78181) - https://sketchapp.com -->
    <title>8A85CBD2-3488-4088-A47E-B340D896B4B1</title>
    <desc>Created with sketchtool.</desc>
    <defs>
        <linearGradient x1="50%" y1="0%" x2="50%" y2="100%" id="linearGradient-1">
            <stop stop-color="#70CCBD" offset="0%"></stop>
            <stop stop-color="#8CDDD4" offset="100%"></stop>
        </linearGradient>
        <rect id="path-2" x="21" y="23" width="48" height="48" rx="24"></rect>
        <filter x="-31.2%" y="-31.2%" width="162.5%" height="162.5%" filterUnits="objectBoundingBox" id="filter-3">
            <feOffset dx="0" dy="0" in="SourceAlpha" result="shadowOffsetOuter1"></feOffset>
            <feGaussianBlur stdDeviation="5" in="shadowOffsetOuter1" result="shadowBlurOuter1"></feGaussianBlur>
            <feColorMatrix values="0 0 0 0 0.494117647   0 0 0 0 0.831372549   0 0 0 0 0.788235294  0 0 0 1 0" type="matrix" in="shadowBlurOuter1"></feColorMatrix>
        </filter>
    </defs>
    <g id="-⚙-Design-Guideline" stroke="none" stroke-width="1" fill="none" fill-rule="evenodd">
        <g id="-⚙-Iconos" transform="translate(-682.000000, -352.000000)">
            <g id="Roles" transform="translate(682.000000, 352.000000)">
                <g id="Group">
                    <g id="Rectangle">
                        <use fill="black" fill-opacity="1" filter="url(#filter-3)" xlink:href="#path-2"></use>
                        <use fill="url(#linearGradient-1)" fill-rule="evenodd" xlink:href="#path-2"></use>
                    </g>
                </g>
                <g transform="translate(18.000000, 27.000000)" fill="#2B334A" fill-rule="nonzero" id="Group">
                    <g>
                        <path d="M14.0023333,35.0625 C13.9876,35.0625 13.9723,35.0625 13.9587,35.0625 L13.9587,35.0625 C6.12736667,35.0409667 0,29.0286333 0,21.3571 L0,0 L27.8907667,0 L27.8907667,21.3571 C27.8907667,29.0286333 21.794,35.0409667 14.0023333,35.0625 L14.0023333,35.0625 Z M1.59346667,1.59346667 L1.59346667,21.3565333 C1.59346667,28.1406667 7.03233333,33.4577 13.9802333,33.4684667 C20.8884667,33.4577 26.2967333,28.1406667 26.2967333,21.3565333 L26.2967333,1.59346667 L1.59346667,1.59346667 Z" id="Shape"></path>
                        <path d="M14.0726,29.2666333 C9.67866667,29.2666333 6.10413333,25.9765667 6.10413333,21.9311333 C6.10413333,21.4908333 6.46113333,21.1344 6.90086667,21.1344 C7.3406,21.1344 7.6976,21.4908333 7.6976,21.9311333 C7.6976,25.0971 10.5575667,27.6726 14.0726,27.6726 C17.5876333,27.6726 20.4476,25.0965333 20.4476,21.9311333 C20.4476,21.4908333 20.8046,21.1344 21.2443333,21.1344 C21.6840667,21.1344 22.0410667,21.4908333 22.0410667,21.9311333 C22.0410667,25.976 18.4665333,29.2666333 14.0726,29.2666333 Z" id="Path"></path>
                        <g transform="translate(3.966667, 10.766667)" id="Path">
                            <path d="M4.1157,4.72656667 C1.9261,4.72656667 0.145066667,3.07133333 0.145066667,1.03643333 C0.145066667,0.596133333 0.502066667,0.2397 0.9418,0.2397 C1.38153333,0.2397 1.73853333,0.596133333 1.73853333,1.03643333 C1.73853333,2.19186667 2.80443333,3.1331 4.1157,3.1331 C5.4264,3.1331 6.4923,2.19243333 6.4923,1.03643333 C6.4923,0.596133333 6.8493,0.2397 7.28903333,0.2397 C7.72876667,0.2397 8.0857668,0.596133333 8.0857668,1.03643333 C8.08633333,3.07133333 6.3053,4.72656667 4.1157,4.72656667 Z"></path>
                            <path d="M16.0961667,4.72656667 C13.9065667,4.72656667 12.1255333,3.07133333 12.1255333,1.03643333 C12.1255333,0.596133333 12.4825333,0.2397 12.9222667,0.2397 C13.362,0.2397 13.719,0.596133333 13.719,1.03643333 C13.719,2.19186667 14.7849,3.1331 16.0961667,3.1331 C17.4074333,3.1331 18.4733333,2.19243333 18.4733333,1.03643333 C18.4733333,0.596133333 18.8303333,0.2397 19.2700667,0.2397 C19.7098,0.2397 20.0668,0.596133333 20.0668,1.03643333 C20.0668,3.07133333 18.2857667,4.72656667 16.0961667,4.72656667 Z"></path>
                        </g>
                        <path d="M37.1115667,51 C37.0974,51 37.0821,51 37.0679333,51 L37.0679333,51 C29.2371667,50.9784667 23.1092333,44.9661333 23.1092333,37.2946 L23.1092333,34.2657667 C23.1092333,33.8254667 23.4662333,33.4690333 23.9059667,33.4690333 C24.3457,33.4690333 24.7027,33.8254667 24.7027,34.2657667 L24.7027,37.2946 C24.7027,44.0787333 30.1415667,49.3957667 37.0894667,49.4065333 C43.9977,49.3957667 49.4059667,44.0787333 49.4059667,37.2946 L49.4059667,17.5315333 L30.2809667,17.5315333 C29.8406667,17.5315333 29.4842333,17.1751 29.4842333,16.7348 C29.4842333,16.2945 29.8412333,15.9380667 30.2809667,15.9380667 L51,15.9380667 L51,37.2951667 C51,44.9661333 44.9032333,50.9784667 37.1115667,51 L37.1115667,51 Z" id="Path"></path>
                        <path d="M37.1818333,45.2041333 C32.7879,45.2041333 29.2133667,41.9140667 29.2133667,37.8686333 C29.2133667,37.4283333 29.5703667,37.0719 30.0101,37.0719 C30.4498333,37.0719 30.8068333,37.4283333 30.8068333,37.8686333 C30.8068333,41.0346 33.6668,43.6101 37.1818333,43.6101 C40.6968667,43.6101 43.5568333,41.0340333 43.5568333,37.8686333 C43.5568333,37.4283333 43.9138333,37.0719 44.3535667,37.0719 C44.7933,37.0719 45.1503,37.4283333 45.1503,37.8686333 C45.1508667,41.9135 41.5757667,45.2041333 37.1818333,45.2041333 Z" id="Path"></path>
                        <g transform="translate(27.200000, 26.633333)" id="Path">
                            <path d="M19.1459667,4.7974 C18.7056667,4.7974 18.3492333,4.44096667 18.3492333,4.00066667 C18.3492333,2.84523333 17.2833333,1.904 15.9720667,1.904 C14.6608,1.904 13.5949,2.84466667 13.5949,4.00066667 C13.5949,4.44096667 13.2379,4.7974 12.7981667,4.7974 C12.3584333,4.7974 12.0014333,4.44096667 12.0014333,4.00066667 C12.0014333,1.96576667 13.7824667,0.310533333 15.9720667,0.310533333 C18.1616667,0.310533333 19.9427,1.96576667 19.9427,4.00066667 C19.9427,4.44096667 19.5862667,4.7974 19.1459667,4.7974 Z"></path>
                            <path d="M7.1655,4.7974 C6.7252,4.7974 6.36876667,4.44096667 6.36876667,4.00066667 C6.36876667,2.84523333 5.30286667,1.904 3.99216667,1.904 C2.68146667,1.904 1.615,2.84466667 1.615,4.00066667 C1.615,4.44096667 1.258,4.7974 0.818266667,4.7974 C0.378533333,4.7974 0.0215333333,4.44096667 0.0215333333,4.00066667 C0.0215333333,1.96576667 1.80256667,0.310533333 3.99216667,0.310533333 C6.18176667,0.310533333 7.9628,1.96576667 7.9628,4.00066667 C7.96223333,4.44096667 7.60523333,4.7974 7.1655,4.7974 Z"></path>
                        </g>
                    </g>
                </g>
            </g>
        </g>
    </g>
</svg>