<?xml version="1.0" encoding="UTF-8"?>
<svg width="25px" height="24px" viewBox="0 0 25 24" version="1.1" xmlns="http://www.w3.org/2000/svg" xmlns:xlink="http://www.w3.org/1999/xlink">
    <!-- Generator: sketchtool 61 (101010) - https://sketch.com -->
    <title>DB38BBED-10F2-4388-8645-4A2624FEF2B6</title>
    <desc>Created with sketchtool.</desc>
    <g id="Layout-FIWOO" stroke="none" stroke-width="1" fill="none" fill-rule="evenodd">
        <g id="Mobile-Dashboard-menu-user" transform="translate(-16.000000, -254.000000)" fill="#2B334A" fill-rule="nonzero" stroke="#2B334A" stroke-width="0.6">
            <g id="Menu-usuariodesplegao" transform="translate(0.000000, 112.000000)">
                <g id="Nav/Menu/List--#3-Nav/Menu/List-" transform="translate(0.000000, 126.000000)">
                    <g id="Nav/Menu/List-">
                        <g id="icon-device-icon-Reglas" transform="translate(12.000000, 12.000000)">
                            <g id="Rules" transform="translate(4.000000, 5.000000)">
                                <g id="Group">
                                    <path d="M23.825,2.75 C23.825,1.30025253 22.6497475,0.125 21.2,0.125 L6.125,0.125 C4.7539926,0.125 3.63871007,1.22906115 3.625,2.6 L3.525,16.2 L0.174885321,16.2 L0.174885321,18.525 C0.160209533,20.3232971 1.57791104,21.8074534 3.375,21.875 L16.275,21.875 C18.1113468,21.875 19.6,20.3863468 19.6,18.55 L19.6,6.575 L23.825,6.575 L23.825,2.75 Z M3.5,20.875 C2.21593796,20.875 1.175,19.834062 1.175,18.55 L1.175,17.2 L12.925,17.2 L12.925,18.525 C12.9255271,19.3943953 13.2665498,20.2290034 13.875,20.85 L3.5,20.875 Z M18.6,2.75 L18.6,18.55 C18.6,19.8409656 17.5534656,20.8875 16.2625,20.8875 C14.9715344,20.8875 13.925,19.8409656 13.925,18.55 L13.925,16.2 L4.525,16.2 L4.625,2.6 C4.63864602,1.7813523 5.30623858,1.125 6.125,1.125 L19.15,1.125 C18.7880965,1.58883997 18.5942029,2.1617075 18.6,2.75 Z M22.825,5.575 L19.6,5.575 L19.6,2.75 C19.5221486,2.12596925 19.8113452,1.51303934 20.3424901,1.17634917 C20.8736351,0.839658995 21.5513649,0.839658995 22.0825099,1.17634917 C22.6136548,1.51303934 22.9028514,2.12596925 22.825,2.75 L22.825,5.575 Z" id="Shape"></path>
                                    <rect id="Rectangle" x="6.725" y="4.3" width="4.875" height="1"></rect>
                                    <rect id="Rectangle" x="6.725" y="7.3" width="9.375" height="1"></rect>
                                    <rect id="Rectangle" x="6.725" y="10.3" width="9.375" height="1"></rect>
                                    <rect id="Rectangle" x="6.725" y="13.3" width="9.375" height="1"></rect>
                                </g>
                            </g>
                        </g>
                    </g>
                </g>
            </g>
        </g>
    </g>
</svg>