<?xml version="1.0" encoding="UTF-8"?>
<svg width="177px" height="177px" viewBox="0 0 177 177" version="1.1" xmlns="http://www.w3.org/2000/svg" xmlns:xlink="http://www.w3.org/1999/xlink">
    <!-- Generator: sketchtool 56.3 (101010) - https://sketch.com -->
    <title>BD5DEDA7-6DB2-4BCE-BEE0-CBCF0DD09022</title>
    <desc>Created with sketchtool.</desc>
    <defs>
        <path d="M127,100 C99.9380473,100 78,78.0619527 78,51 C78,23.9380473 99.9380473,2 127,2 C154.061953,2 176,23.9380473 176,51 C176,78.0619527 154.061953,100 127,100 Z M127,98 C152.957383,98 174,76.9573832 174,51 C174,25.0426168 152.957383,4 127,4 C101.042617,4 80,25.0426168 80,51 C80,76.9573832 101.042617,98 127,98 Z" id="path-1"></path>
        <filter x="-4.6%" y="-4.6%" width="109.2%" height="109.2%" filterUnits="objectBoundingBox" id="filter-2">
            <feGaussianBlur stdDeviation="4" in="SourceAlpha" result="shadowBlurInner1"></feGaussianBlur>
            <feOffset dx="0" dy="1" in="shadowBlurInner1" result="shadowOffsetInner1"></feOffset>
            <feComposite in="shadowOffsetInner1" in2="SourceAlpha" operator="arithmetic" k2="-1" k3="1" result="shadowInnerInner1"></feComposite>
            <feColorMatrix values="0 0 0 0 0   0 0 0 0 0   0 0 0 0 0  0 0 0 0.25 0" type="matrix" in="shadowInnerInner1"></feColorMatrix>
        </filter>
    </defs>
    <g id="-✏️-Admin-Rules" stroke="none" stroke-width="1" fill="none" fill-rule="evenodd">
        <g id="01--Admin-Rules-04" transform="translate(-652.000000, -424.000000)">
            <g id="Ilustracion-Ready" transform="translate(652.000000, 424.000000)">
                <g id="Group" transform="translate(10.000000, 87.000000)" fill="#577EE8" fill-rule="nonzero">
                    <path d="M96,10.6593103 C96,4.7723358 91.2294648,0 85.3447114,0 L24.1529113,0 C18.5877762,0 14.0606687,4.48324969 14.0050174,10.0502069 L13.5991016,65.2755862 L0.000458341306,65.2755862 L0.000458341306,74.7166897 C-0.059112995,82.0190162 5.69556078,88.0457141 12.990228,88.32 L65.3533605,88.32 C72.8073814,88.32 78.8500593,82.2750413 78.8500593,74.8182069 L78.8500593,26.1914483 L96,26.1914483 L96,10.6593103 Z M13.4976227,84.2593103 C8.28541257,84.2593103 4.0600814,80.0323844 4.0600814,74.8182069 L4.0600814,69.3362759 L51.7551827,69.3362759 L51.7551827,74.7166897 C51.7573222,78.247034 53.141587,81.6361187 55.6113823,84.1577931 L13.4976227,84.2593103 Z M74.7909018,10.6593103 L74.7909018,74.8182069 C74.7909018,80.0604176 70.5428538,84.310069 65.302621,84.310069 C60.0623882,84.310069 55.8143402,80.0604176 55.8143402,74.8182069 L55.8143402,65.2755862 L17.6582592,65.2755862 L18.064175,10.0502069 C18.1195663,6.72593265 20.8294297,4.06068966 24.1529113,4.06068966 L77.0234384,4.06068966 C75.554415,5.9441998 74.7673703,8.27043709 74.7909018,10.6593103 Z M91.9408424,22.1307586 L78.8500593,22.1307586 L78.8500593,10.6593103 C78.5340484,8.12531512 79.7079429,5.63639699 81.8639438,4.26920269 C84.0199448,2.90200839 86.770957,2.90200839 88.9269579,4.26920269 C91.0829589,5.63639699 92.2568534,8.12531512 91.9408424,10.6593103 L91.9408424,22.1307586 Z" id="Shape"></path>
                    <rect id="Rectangle" x="28.16" y="17.92" width="19.2" height="3.84"></rect>
                    <rect id="Rectangle" x="26.88" y="29.44" width="38.4" height="3.84"></rect>
                    <rect id="Rectangle" x="26.88" y="42.24" width="38.4" height="3.84"></rect>
                    <rect id="Rectangle" x="26.88" y="53.76" width="38.4" height="3.84"></rect>
                </g>
                <path d="M152.47666,163.86122 L144.50761,155.894188 L144.50761,135.754283 C144.507645,135.268685 144.314722,134.802963 143.971282,134.459575 L119.378681,109.873198 C112.891774,103.380711 102.368564,103.374856 95.8744324,109.860121 C89.3803013,116.345385 89.3744445,126.865932 95.861351,133.358419 L120.453953,157.944796 C120.797427,158.288149 121.263267,158.481024 121.748989,158.480989 L141.893992,158.480989 L149.873507,166.463714 C150.588735,167.178762 151.74835,167.178762 152.463579,166.463714 C153.178807,165.748667 153.178807,164.589346 152.463579,163.874298 L152.47666,163.86122 Z M140.844882,152.232387 L132.402295,143.791936 L132.402295,128.064502 L140.844882,136.507568 L140.844882,152.232387 Z M122.531243,154.821803 L98.4618878,130.758541 C93.6615864,125.660846 93.7821069,117.672226 98.734003,112.721583 C103.685899,107.77094 111.676542,107.65045 116.775527,112.449537 L128.729102,124.400085 L128.729102,140.12752 L113.738079,125.137677 C113.274473,124.67372 112.598503,124.492275 111.9648,124.661691 C111.331097,124.831106 110.835936,125.325643 110.665839,125.959014 C110.495743,126.592386 110.676552,127.268368 111.140159,127.732324 L129.252349,145.842545 L129.252349,145.842545 L138.231264,154.819188 L122.531243,154.821803 Z" id="Shape" fill="#577EE8" fill-rule="nonzero" transform="translate(122.000000, 136.000000) scale(-1, 1) translate(-122.000000, -136.000000) "></path>
                <path d="M123.145847,60 C122.762515,60 122.37885,59.8483843 122.085851,59.5444605 L115.440207,52.6532133 C114.853876,52.0453657 114.853209,51.059171 115.438541,50.450285 C116.023872,49.8417451 116.973869,49.8410528 117.559866,50.4489004 L123.145847,56.2411064 L136.440134,42.4558429 C137.026131,41.847303 137.975795,41.8483414 138.561459,42.4572275 C139.146791,43.0661136 139.146124,44.0523082 138.559793,44.6601558 L124.205843,59.5444605 C123.912844,59.8483843 123.529179,60 123.145847,60" id="checkmark" fill="#00D3A4"></path>
                <g id="Combined-Shape" style="mix-blend-mode: multiply;">
                    <use fill="#00D3A4" fill-rule="evenodd" xlink:href="#path-1"></use>
                    <use fill="black" fill-opacity="1" filter="url(#filter-2)" xlink:href="#path-1"></use>
                </g>
            </g>
        </g>
    </g>
</svg>