<?xml version="1.0" encoding="UTF-8"?>
<svg width="30px" height="30px" viewBox="0 0 30 30" version="1.1" xmlns="http://www.w3.org/2000/svg" xmlns:xlink="http://www.w3.org/1999/xlink">
    <!-- Generator: sketchtool 58 (101010) - https://sketch.com -->
    <title>EAAEF2D8-B82D-4B23-8F89-8AAFD2D77B6D</title>
    <desc>Created with sketchtool.</desc>
    <g id="-⚙-Design-Guideline" stroke="none" stroke-width="1" fill="none" fill-rule="evenodd">
        <g id="-⚙-Iconos" transform="translate(-731.000000, -257.000000)">
            <g id="ico-secundary-menu" transform="translate(714.000000, 240.000000)">
                <rect id="Rectangle-Copy-4" stroke="#CED3D7" stroke-width="0.5" x="0.25" y="0.25" width="63.5" height="63.5"></rect>
                <g id="secundary-menu" transform="translate(32.000000, 32.000000) rotate(-270.000000) translate(-32.000000, -32.000000) translate(24.000000, 24.000000)">
                    <rect id="Rectangle-36-Copy-11" x="0" y="0" width="16" height="16"></rect>
                    <g transform="translate(4.515625, 3.000000)" fill="#000000" fill-rule="nonzero" id="Shape">
                        <path d="M0.5703125,0.0078125 L0.5703125,0.0078125 C0.259375,0.0078125 0.0078125,0.259375 0.0078125,0.5703125 L0.0078125,9.4296875 C0.0078125,9.740625 0.259375,9.9921875 0.5703125,9.9921875 L0.5703125,9.9921875 C0.88125,9.9921875 1.1328125,9.740625 1.1171875,9.4296875 L1.1171875,0.5703125 C1.1328125,0.259375 0.88125,0.0078125 0.5703125,0.0078125 Z M3.4840297,0.0078125 L3.4840297,0.0078125 C3.1730922,0.0078125 2.9215297,0.259375 2.9215297,0.5703125 L2.9215297,9.4296875 C2.9215297,9.740625 3.1730922,9.9921875 3.4840297,9.9921875 L3.4840297,9.9921875 C3.7949672,9.9921875 4.0465297,9.740625 4.0309047,9.4296875 L4.0309047,0.5703125 C4.0465297,0.259375 3.7949672,0.0078125 3.4840297,0.0078125 Z M6.4765625,4.0078125 L6.4765625,4.0078125 C6.165625,4.0078125 5.9140625,4.15859253 5.9140625,4.34496039 L5.9140625,9.65503961 C5.9140625,9.84140747 6.165625,9.9921875 6.4765625,9.9921875 L6.4765625,9.9921875 C6.7875,9.9921875 7.0390625,9.84140747 7.0390625,9.65503961 L7.0390625,4.34496039 C7.0390625,4.15859253 6.7875,4.0078125 6.4765625,4.0078125 Z"></path>
                    </g>
                </g>
            </g>
        </g>
    </g>
</svg>