<?xml version="1.0" encoding="UTF-8"?>
<svg width="205px" height="205px" viewBox="0 0 205 205" version="1.1" xmlns="http://www.w3.org/2000/svg" xmlns:xlink="http://www.w3.org/1999/xlink">
    <!-- Generator: sketchtool 55.2 (78181) - https://sketchapp.com -->
    <title>CF0E9B79-6592-4C94-AED0-FF6710088684</title>
    <desc>Created with sketchtool.</desc>
    <defs>
        <path d="M99,99 C71.9380473,99 50,77.0619527 50,50 C50,22.9380473 71.9380473,1 99,1 C126.061953,1 148,22.9380473 148,50 C148,77.0619527 126.061953,99 99,99 Z M99,97 C124.957383,97 146,75.9573832 146,50 C146,24.0426168 124.957383,3 99,3 C73.0426168,3 52,24.0426168 52,50 C52,75.9573832 73.0426168,97 99,97 Z" id="path-1"></path>
        <filter x="-4.6%" y="-4.6%" width="109.2%" height="109.2%" filterUnits="objectBoundingBox" id="filter-2">
            <feGaussianBlur stdDeviation="4" in="SourceAlpha" result="shadowBlurInner1"></feGaussianBlur>
            <feOffset dx="0" dy="1" in="shadowBlurInner1" result="shadowOffsetInner1"></feOffset>
            <feComposite in="shadowOffsetInner1" in2="SourceAlpha" operator="arithmetic" k2="-1" k3="1" result="shadowInnerInner1"></feComposite>
            <feColorMatrix values="0 0 0 0 0   0 0 0 0 0   0 0 0 0 0  0 0 0 0.25 0" type="matrix" in="shadowInnerInner1"></feColorMatrix>
        </filter>
    </defs>
    <g id="-⚙-Admin-Devices" stroke="none" stroke-width="1" fill="none" fill-rule="evenodd">
        <g id="01--Admin-Devices-widget-comand-ok" transform="translate(-623.000000, -377.000000)">
            <g id="Ilustracion-Ready" transform="translate(623.000000, 377.000000)">
                <g id="Group-2" transform="translate(32.000000, 11.000000)">
                    <g id="code" transform="translate(0.000000, 43.000000)" fill="#577EE8" fill-rule="nonzero" stroke="#577EE8">
                        <g id="noun_code_2438960" transform="translate(16.000000, 61.000000)">
                            <path d="M42.6390709,44.6764999 C43.2127897,45.2624551 43.2028709,46.2025568 42.6169155,46.7762758 C42.0309602,47.3499949 41.090858,47.3400755 40.5171393,46.7541203 C34.2005894,40.3028523 27.638159,37.1215374 20.7878788,37.1215374 C10.9471687,37.1215374 2.96969697,45.0990091 2.96969697,54.9397192 C2.96969697,64.7804293 10.9471687,72.757901 20.7878788,72.757901 C30.2984447,72.757901 39.2907406,66.6052784 47.7712745,54.106048 C56.7531497,40.8679039 66.5689352,34.1518404 77.2121212,34.1518404 C88.6929489,34.1518404 98,43.4588907 98,54.9397192 C98,66.4205469 88.6929489,75.727598 77.2121212,75.727598 C69.5003795,75.727598 62.2033143,72.1905092 55.362895,65.204946 C54.7891436,64.6190218 54.7990134,63.6789197 55.3849376,63.1051683 C55.9708618,62.5314184 56.9109639,62.5412867 57.4847153,63.1272123 C63.8006965,69.5772085 70.3625092,72.757901 77.2121212,72.757901 C87.0528313,72.757901 95.030303,64.7804293 95.030303,54.9397192 C95.030303,45.0990091 87.0528313,37.1215374 77.2121212,37.1215374 C67.7015553,37.1215374 58.7092594,43.2741607 50.2287255,55.7733903 C41.2468503,69.0115347 31.4310648,75.727598 20.7878788,75.727598 C9.30705109,75.727598 0,66.4205469 0,54.9397192 C0,43.4588907 9.30705109,34.1518404 20.7878788,34.1518404 C28.5003615,34.1518404 35.79808,37.6896062 42.6390709,44.6764999 Z M62.7985381,2.53512019 C62.2186691,1.95525078 62.2186691,1.01509669 62.7985381,0.435227271 C63.3784085,-0.144642144 64.3185612,-0.144642144 64.8984316,0.435227271 L73.8075225,9.34431818 C74.3873915,9.9241876 74.3873915,10.8643417 73.8075225,11.4442111 L64.8984316,20.353302 C64.3185612,20.9331714 63.3784085,20.9331714 62.7985381,20.353302 C62.2186691,19.7734326 62.2186691,18.8332785 62.7985381,18.2534091 L70.6576822,10.3942646 L62.7985381,2.53512019 Z M35.2014619,18.2534091 C35.7813309,18.8332785 35.7813309,19.7734326 35.2014619,20.353302 C34.6215915,20.9331714 33.6814388,20.9331714 33.1015684,20.353302 L24.1924775,11.4442111 C23.6126085,10.8643417 23.6126085,9.9241876 24.1924775,9.34431818 L33.1015684,0.435227271 C33.6814388,-0.144642144 34.6215915,-0.144642144 35.2014619,0.435227271 C35.7813309,1.01509669 35.7813309,1.95525078 35.2014619,2.53512019 L27.3423178,10.3942646 L35.2014619,18.2534091 Z M52.1264569,0.821129295 C52.4931981,0.087646068 53.3851065,-0.209656681 54.1185905,0.157084859 C54.852073,0.523826547 55.1493753,1.41573494 54.782634,2.14921817 L45.8735431,19.9674 C45.5068019,20.7008832 44.6148935,20.998186 43.8814095,20.6314444 C43.147927,20.2647027 42.8506247,19.3727943 43.217366,18.6393111 L52.1264569,0.821129295 Z" id="Shape"></path>
                        </g>
                    </g>
                    <circle id="Oval" fill="#FFFFFF" cx="99" cy="50" r="50"></circle>
                    <path d="M95.1458469,59 C94.7625149,59 94.3788495,58.8483843 94.0858506,58.5444605 L87.4402072,51.6532133 C86.8538759,51.0453657 86.8532093,50.059171 87.4385406,49.450285 C88.0238718,48.8417451 88.9738685,48.8410528 89.5598665,49.4489004 L95.1458469,55.2411064 L108.440134,41.4558429 C109.026131,40.847303 109.975795,40.8483414 110.561459,41.4572275 C111.146791,42.0661136 111.146124,43.0523082 110.559793,43.6601558 L96.2058431,58.5444605 C95.9128442,58.8483843 95.5291788,59 95.1458469,59" id="checkmark" fill="#00D3A4"></path>
                    <path d="M99,99 C71.9380473,99 50,77.0619527 50,50 C50,22.9380473 71.9380473,1 99,1 C126.061953,1 148,22.9380473 148,50 C148,77.0619527 126.061953,99 99,99 Z M99,97 C124.957383,97 146,75.9573832 146,50 C146,24.0426168 124.957383,3 99,3 C73.0426168,3 52,24.0426168 52,50 C52,75.9573832 73.0426168,97 99,97 Z" id="Combined-Shape" fill="#FFFFFF"></path>
                    <g id="Combined-Shape" style="mix-blend-mode: multiply;">
                        <use fill="#00D3A4" fill-rule="evenodd" xlink:href="#path-1"></use>
                        <use fill="black" fill-opacity="1" filter="url(#filter-2)" xlink:href="#path-1"></use>
                    </g>
                </g>
            </g>
        </g>
    </g>
</svg>