<?xml version="1.0" encoding="UTF-8"?>
<svg width="24px" height="24px" viewBox="0 0 24 24" version="1.1" xmlns="http://www.w3.org/2000/svg" xmlns:xlink="http://www.w3.org/1999/xlink">
    <!-- Generator: sketchtool 61 (101010) - https://sketch.com -->
    <title>41EF0562-CD7C-4012-83F1-976DE672DEE9</title>
    <desc>Created with sketchtool.</desc>
    <g id="Layout-FIWOO" stroke="none" stroke-width="1" fill="none" fill-rule="evenodd">
        <g id="Mobile-Dashboard-menu-user" transform="translate(-16.000000, -554.000000)" fill-rule="nonzero" stroke="#2B334A" stroke-width="0.4">
            <g id="Menu-usuariodesplegao" transform="translate(0.000000, 112.000000)">
                <g id="Nav/Menu/List--#3-Nav/Menu/List-" transform="translate(0.000000, 426.000000)">
                    <g id="Nav/Menu/List-">
                        <g id="icon-device-icon-Servicios" transform="translate(12.000000, 12.000000)">
                            <g id="servicios" transform="translate(4.000000, 4.000000)">
                                <g>
                                    <path d="M21.5510204,24 L1.95918367,24 C0.881632653,24 0,23.1183673 0,22.0408163 L0,18.122449 C0,17.044898 0.881632653,16.1632653 1.95918367,16.1632653 L21.5510204,16.1632653 C22.6285714,16.1632653 23.5102041,17.044898 23.5102041,18.122449 L23.5102041,22.0408163 C23.5102041,23.1183673 22.6285714,24 21.5510204,24 Z M1.95918367,17.1428571 C1.42040816,17.1428571 0.979591837,17.5836735 0.979591837,18.122449 L0.979591837,22.0408163 C0.979591837,22.5795918 1.42040816,23.0204082 1.95918367,23.0204082 L21.5510204,23.0204082 C22.0897959,23.0204082 22.5306122,22.5795918 22.5306122,22.0408163 L22.5306122,18.122449 C22.5306122,17.5836735 22.0897959,17.1428571 21.5510204,17.1428571 L1.95918367,17.1428571 Z" id="Shape" fill="#2B334A"></path>
                                    <path d="M11.755102,17.1428571 C11.4612245,17.1428571 11.2653061,16.9469388 11.2653061,16.6530612 L11.2653061,8.32653061 C11.2653061,8.03265306 11.4612245,7.83673469 11.755102,7.83673469 C12.0489796,7.83673469 12.244898,8.03265306 12.244898,8.32653061 L12.244898,16.6530612 C12.244898,16.8979592 12.0489796,17.1428571 11.755102,17.1428571 Z" id="Path" fill="#2B334A"></path>
                                    <g id="Group" transform="translate(2.448980, 19.591837)" fill="#2B334A">
                                        <path d="M1.46938776,1 L0.489795918,1 C0.195918367,1 0,0.8 0,0.5 C0,0.2 0.195918367,0 0.489795918,0 L1.46938776,0 C1.76326531,0 1.95918367,0.2 1.95918367,0.5 C1.95918367,0.8 1.76326531,1 1.46938776,1 Z" id="Path"></path>
                                        <path d="M4.89795918,1 L3.91836735,1 C3.6244898,1 3.42857143,0.8 3.42857143,0.5 C3.42857143,0.2 3.6244898,0 3.91836735,0 L4.89795918,0 C5.19183673,0 5.3877551,0.2 5.3877551,0.5 C5.3877551,0.8 5.19183673,1 4.89795918,1 Z" id="Path"></path>
                                        <path d="M14.6938776,1 L13.7142857,1 C13.4204082,1 13.2244898,0.8 13.2244898,0.5 C13.2244898,0.2 13.4204082,0 13.7142857,0 L14.6938776,0 C14.9877551,0 15.1836735,0.2 15.1836735,0.5 C15.1836735,0.8 14.9877551,1 14.6938776,1 Z" id="Path"></path>
                                        <path d="M11.0204082,1 L7.59183673,1 C7.29795918,1 7.10204082,0.8 7.10204082,0.5 C7.10204082,0.2 7.29795918,0 7.59183673,0 L11.0204082,0 C11.3142857,0 11.5102041,0.2 11.5102041,0.5 C11.5102041,0.8 11.3142857,1 11.0204082,1 Z" id="Path"></path>
                                        <path d="M18.122449,1 L17.1428571,1 C16.8489796,1 16.6530612,0.8 16.6530612,0.5 C16.6530612,0.2 16.8489796,0 17.1428571,0 L18.122449,0 C18.4163265,0 18.6122449,0.2 18.6122449,0.5 C18.6122449,0.8 18.4163265,1 18.122449,1 Z" id="Path"></path>
                                    </g>
                                    <g id="Group" transform="translate(6.367347, 0.000000)" fill="#303957">
                                        <path d="M0.881632653,3.33061224 C0.734693878,3.33061224 0.636734694,3.28163265 0.53877551,3.18367347 C0.342857143,2.9877551 0.342857143,2.69387755 0.53877551,2.49795918 C3.23265306,-0.195918367 7.54285714,-0.195918367 10.2367347,2.49795918 C10.4326531,2.69387755 10.4326531,2.9877551 10.2367347,3.18367347 C10.0408163,3.37959184 9.74693878,3.37959184 9.55102041,3.18367347 C7.24897959,0.881632653 3.52653061,0.881632653 1.2244898,3.18367347 C1.12653061,3.28163265 1.02857143,3.33061224 0.881632653,3.33061224 Z" id="Path"></path>
                                        <path d="M8.17959184,5.04489796 C8.03265306,5.04489796 7.93469388,4.99591837 7.83673469,4.89795918 C6.51428571,3.5755102 4.31020408,3.5755102 2.9877551,4.89795918 C2.79183673,5.09387755 2.49795918,5.09387755 2.30204082,4.89795918 C2.10612245,4.70204082 2.10612245,4.40816327 2.30204082,4.2122449 C4.01632653,2.49795918 6.80816327,2.49795918 8.52244898,4.2122449 C8.71836735,4.40816327 8.71836735,4.70204082 8.52244898,4.89795918 C8.4244898,4.99591837 8.27755102,5.04489796 8.17959184,5.04489796 Z" id="Path"></path>
                                        <path d="M6.41632653,6.80816327 C6.26938776,6.80816327 6.17142857,6.75918367 6.07346939,6.66122449 C5.68163265,6.26938776 5.04489796,6.26938776 4.70204082,6.66122449 C4.50612245,6.85714286 4.2122449,6.85714286 4.01632653,6.66122449 C3.82040816,6.46530612 3.82040816,6.17142857 4.01632653,5.9755102 C4.8,5.19183673 6.0244898,5.19183673 6.80816327,5.9755102 C7.00408163,6.17142857 7.00408163,6.46530612 6.80816327,6.66122449 C6.66122449,6.75918367 6.56326531,6.80816327 6.41632653,6.80816327 Z" id="Path"></path>
                                    </g>
                                </g>
                            </g>
                        </g>
                    </g>
                </g>
            </g>
        </g>
    </g>
</svg>