<?xml version="1.0" encoding="UTF-8"?>
<svg width="90px" height="90px" viewBox="0 0 90 90" version="1.1" xmlns="http://www.w3.org/2000/svg" xmlns:xlink="http://www.w3.org/1999/xlink">
    <!-- Generator: sketchtool 55.2 (78181) - https://sketchapp.com -->
    <title>8A7BD768-5890-4D9F-854D-3A77C4175040</title>
    <desc>Created with sketchtool.</desc>
    <defs>
        <linearGradient x1="50%" y1="0%" x2="50%" y2="100%" id="linearGradient-1">
            <stop stop-color="#FB9B51" offset="0%"></stop>
            <stop stop-color="#FBAE46" offset="100%"></stop>
        </linearGradient>
        <rect id="path-2" x="0" y="0" width="48" height="48" rx="24"></rect>
        <filter x="-31.2%" y="-31.2%" width="162.5%" height="162.5%" filterUnits="objectBoundingBox" id="filter-3">
            <feOffset dx="0" dy="0" in="SourceAlpha" result="shadowOffsetOuter1"></feOffset>
            <feGaussianBlur stdDeviation="5" in="shadowOffsetOuter1" result="shadowBlurOuter1"></feGaussianBlur>
            <feColorMatrix values="0 0 0 0 0.996078431   0 0 0 0 0.619607843   0 0 0 0 0.329411765  0 0 0 0.7 0" type="matrix" in="shadowBlurOuter1"></feColorMatrix>
        </filter>
    </defs>
    <g id="-⚙-Design-Guideline" stroke="none" stroke-width="1" fill="none" fill-rule="evenodd">
        <g id="-⚙-Iconos" transform="translate(-454.000000, -374.000000)">
            <g id="Devices-management" transform="translate(454.000000, 374.000000)">
                <g id="Group" transform="translate(21.000000, 19.000000)">
                    <g id="Rectangle">
                        <g>
                            <use fill="black" fill-opacity="1" filter="url(#filter-3)" xlink:href="#path-2"></use>
                            <use fill="url(#linearGradient-1)" fill-rule="evenodd" xlink:href="#path-2"></use>
                        </g>
                    </g>
                    <path d="M40.7142857,52 L6.42857143,52 C4.54285714,52 3,50.4571429 3,48.5714286 L3,41.7142857 C3,39.8285714 4.54285714,38.2857143 6.42857143,38.2857143 L40.7142857,38.2857143 C42.6,38.2857143 44.1428571,39.8285714 44.1428571,41.7142857 L44.1428571,48.5714286 C44.1428571,50.4571429 42.6,52 40.7142857,52 Z M6.42857143,40 C5.48571429,40 4.71428571,40.7714286 4.71428571,41.7142857 L4.71428571,48.5714286 C4.71428571,49.5142857 5.48571429,50.2857143 6.42857143,50.2857143 L40.7142857,50.2857143 C41.6571429,50.2857143 42.4285714,49.5142857 42.4285714,48.5714286 L42.4285714,41.7142857 C42.4285714,40.7714286 41.6571429,40 40.7142857,40 L6.42857143,40 Z" id="Shape" fill="#2B334A" fill-rule="nonzero"></path>
                    <path d="M23.5714286,40 C23.0571429,40 22.7142857,39.6571429 22.7142857,39.1428571 L22.7142857,24.5714286 C22.7142857,24.0571429 23.0571429,23.7142857 23.5714286,23.7142857 C24.0857143,23.7142857 24.4285714,24.0571429 24.4285714,24.5714286 L24.4285714,39.1428571 C24.4285714,39.5714286 24.0857143,40 23.5714286,40 Z" id="Path" fill="#2B334A" fill-rule="nonzero"></path>
                    <g transform="translate(7.285714, 44.285714)" fill="#2B334A" fill-rule="nonzero" id="Path">
                        <path d="M2.57142857,1.71428571 L0.857142857,1.71428571 C0.342857143,1.71428571 0,1.37142857 0,0.857142857 C0,0.342857143 0.342857143,0 0.857142857,0 L2.57142857,0 C3.08571429,0 3.42857143,0.342857143 3.42857143,0.857142857 C3.42857143,1.37142857 3.08571429,1.71428571 2.57142857,1.71428571 Z"></path>
                        <path d="M8.57142857,1.71428571 L6.85714286,1.71428571 C6.34285714,1.71428571 6,1.37142857 6,0.857142857 C6,0.342857143 6.34285714,0 6.85714286,0 L8.57142857,0 C9.08571429,0 9.42857143,0.342857143 9.42857143,0.857142857 C9.42857143,1.37142857 9.08571429,1.71428571 8.57142857,1.71428571 Z"></path>
                        <path d="M25.7142857,1.71428571 L24,1.71428571 C23.4857143,1.71428571 23.1428571,1.37142857 23.1428571,0.857142857 C23.1428571,0.342857143 23.4857143,0 24,0 L25.7142857,0 C26.2285714,0 26.5714286,0.342857143 26.5714286,0.857142857 C26.5714286,1.37142857 26.2285714,1.71428571 25.7142857,1.71428571 Z"></path>
                        <path d="M19.2857143,1.71428571 L13.2857143,1.71428571 C12.7714286,1.71428571 12.4285714,1.37142857 12.4285714,0.857142857 C12.4285714,0.342857143 12.7714286,0 13.2857143,0 L19.2857143,0 C19.8,0 20.1428571,0.342857143 20.1428571,0.857142857 C20.1428571,1.37142857 19.8,1.71428571 19.2857143,1.71428571 Z"></path>
                        <path d="M31.7142857,1.71428571 L30,1.71428571 C29.4857143,1.71428571 29.1428571,1.37142857 29.1428571,0.857142857 C29.1428571,0.342857143 29.4857143,0 30,0 L31.7142857,0 C32.2285714,0 32.5714286,0.342857143 32.5714286,0.857142857 C32.5714286,1.37142857 32.2285714,1.71428571 31.7142857,1.71428571 Z"></path>
                    </g>
                    <g transform="translate(14.142857, 10.000000)" fill="#2B334A" fill-rule="nonzero" id="Path">
                        <path d="M1.54285714,5.82857143 C1.28571429,5.82857143 1.11428571,5.74285714 0.942857143,5.57142857 C0.6,5.22857143 0.6,4.71428571 0.942857143,4.37142857 C5.65714286,-0.342857143 13.2,-0.342857143 17.9142857,4.37142857 C18.2571429,4.71428571 18.2571429,5.22857143 17.9142857,5.57142857 C17.5714286,5.91428571 17.0571429,5.91428571 16.7142857,5.57142857 C12.6857143,1.54285714 6.17142857,1.54285714 2.14285714,5.57142857 C1.97142857,5.74285714 1.8,5.82857143 1.54285714,5.82857143 Z"></path>
                        <path d="M14.3142857,8.82857143 C14.0571429,8.82857143 13.8857143,8.74285714 13.7142857,8.57142857 C11.4,6.25714286 7.54285714,6.25714286 5.22857143,8.57142857 C4.88571429,8.91428571 4.37142857,8.91428571 4.02857143,8.57142857 C3.68571429,8.22857143 3.68571429,7.71428571 4.02857143,7.37142857 C7.02857143,4.37142857 11.9142857,4.37142857 14.9142857,7.37142857 C15.2571429,7.71428571 15.2571429,8.22857143 14.9142857,8.57142857 C14.7428571,8.74285714 14.4857143,8.82857143 14.3142857,8.82857143 Z"></path>
                        <path d="M11.2285714,11.9142857 C10.9714286,11.9142857 10.8,11.8285714 10.6285714,11.6571429 C9.94285714,10.9714286 8.82857143,10.9714286 8.22857143,11.6571429 C7.88571429,12 7.37142857,12 7.02857143,11.6571429 C6.68571429,11.3142857 6.68571429,10.8 7.02857143,10.4571429 C8.4,9.08571429 10.5428571,9.08571429 11.9142857,10.4571429 C12.2571429,10.8 12.2571429,11.3142857 11.9142857,11.6571429 C11.6571429,11.8285714 11.4857143,11.9142857 11.2285714,11.9142857 Z"></path>
                    </g>
                </g>
            </g>
        </g>
    </g>
</svg>