<?xml version="1.0" encoding="UTF-8"?>
<svg width="80px" height="80px" viewBox="0 0 80 80" version="1.1" xmlns="http://www.w3.org/2000/svg" xmlns:xlink="http://www.w3.org/1999/xlink">
    <title>Widget parametrized text</title>
    <g id="Widget-parametrized" stroke="none" stroke-width="1" fill="none" fill-rule="evenodd">
        <g id="Pie2" transform="translate(-982.000000, -732.000000)" fill="#6C7A88" fill-rule="nonzero">
            <g id="Group-27" transform="translate(982.000000, 732.000000)">
                <path d="M62,20 C63.6568542,20 65,21.3431458 65,23 C65,23.1885044 64.9826141,23.3729481 64.9493583,23.551815 C64.9825413,23.6956073 65,23.8457648 65,24 L65,57 C65,58.1045695 64.1045695,59 63,59 L18,59 C16.8954305,59 16,58.1045695 16,57 L16,24 C16,23.8457648 16.0174587,23.6956073 16.0505077,23.551396 C16.0173859,23.3729481 16,23.1885044 16,23 C16,21.3431458 17.3431458,20 19,20 L62,20 Z M62,26 L19,26 C18.7589768,26 18.5245921,25.9715768 18.3000151,25.9178995 L18.3,56.7 L62.7,56.7 L62.7009934,25.9176583 C62.4761096,25.9714917 62.241384,26 62,26 Z M37.3156737,32.4978697 C37.9508011,32.4978697 38.4656737,33.0127422 38.4656737,33.6478697 C38.4656737,34.2406553 38.0171625,34.7286855 37.4409789,34.7911216 L37.3156737,34.7978697 L34.991,34.797 L34.991,48.694 L37.3156737,48.6946115 C37.9508011,48.6946115 38.4656737,49.2094841 38.4656737,49.8446115 C38.4656737,50.4373972 38.0171625,50.9254274 37.4409789,50.9878635 L37.3156737,50.9946115 L30.3683053,50.9946115 C29.7331778,50.9946115 29.2183053,50.479739 29.2183053,49.8446115 C29.2183053,49.2518259 29.6668165,48.7637957 30.2430001,48.7013596 L30.3683053,48.6946115 L32.691,48.694 L32.691,34.797 L30.3683053,34.7978697 C29.7331778,34.7978697 29.2183053,34.2829971 29.2183053,33.6478697 C29.2183053,33.055084 29.6668165,32.5670538 30.2430001,32.5046177 L30.3683053,32.4978697 L37.3156737,32.4978697 Z M28.6315789,35.737218 C29.2667064,35.737218 29.7815789,36.2520906 29.7815789,36.887218 C29.7815789,37.4800037 29.3330678,37.9680339 28.7568841,38.03047 L28.6315789,38.037218 L25.15,38.037 L25.15,45.455 L28.6315789,45.4552632 C29.2243646,45.4552632 29.7123948,45.9037743 29.7748309,46.479958 L29.7815789,46.6052632 C29.7815789,47.1980488 29.3330678,47.686079 28.7568841,47.7485151 L28.6315789,47.7552632 L24,47.7552632 C23.4072144,47.7552632 22.9191841,47.306752 22.856748,46.7305683 L22.85,46.6052632 L22.85,36.887218 C22.85,36.2944324 23.2985112,35.8064022 23.8746948,35.7439661 L24,35.737218 L28.6315789,35.737218 Z M56.9998842,35.737218 C57.5926698,35.737218 58.0807001,36.1857292 58.1431362,36.7619129 L58.1498842,36.887218 L58.1498842,46.6052632 C58.1498842,47.1980488 57.701373,47.686079 57.1251894,47.7485151 L56.9998842,47.7552632 L39.0525158,47.7552632 C38.4173883,47.7552632 37.9025158,47.2403906 37.9025158,46.6052632 C37.9025158,46.0124775 38.351027,45.5244473 38.9272106,45.4620112 L39.0525158,45.4552632 L55.8504,45.4554812 L55.8504,38.0374812 L39.0525158,38.037218 C38.4597302,38.037218 37.9716999,37.5887069 37.9092638,37.0125232 L37.9025158,36.887218 C37.9025158,36.2944324 38.351027,35.8064022 38.9272106,35.7439661 L39.0525158,35.737218 L56.9998842,35.737218 Z" id="Combined-Shape"></path>
            </g>
        </g>
    </g>
</svg>