<?xml version="1.0" encoding="UTF-8"?>
<svg width="22px" height="22px" viewBox="0 0 22 22" version="1.1" xmlns="http://www.w3.org/2000/svg" xmlns:xlink="http://www.w3.org/1999/xlink">
    <title>3906221B-8544-4388-953B-218A93960D20</title>
    <g id="✅-Reglas---Ventana-temporal" stroke="none" stroke-width="1" fill="none" fill-rule="evenodd">
        <g id="Reglas---Numero-de-veces-2" transform="translate(-1215.000000, -390.000000)" fill="#577EE8" fill-rule="nonzero">
            <g id="hourglass" transform="translate(1214.000000, 390.000000)">
                <g id="Group-8" transform="translate(0.758359, 0.000000)">
                    <path d="M16.7416412,0 C19.2269226,0 21.2416412,2.01471863 21.2416412,4.5 C21.2416412,6.98528137 19.2269226,9 16.7416412,9 C16.275122,9 15.8251837,8.92900918 15.4020396,8.79724099 C15.2148327,9.25327197 14.9384825,9.67147604 14.5860776,10.0257906 L14.5860776,10.0257906 L14.0834976,10.5283782 C13.6548727,10.9595917 13.4135147,11.5423905 13.4117647,12.1503882 L13.4117647,12.1503882 L13.4117647,12.9225959 C13.4127172,13.419015 13.5736388,13.9019086 13.8706647,14.2996629 L13.8706647,14.2996629 L14.9411765,15.7275141 C15.1544097,16.0171673 15.3255068,16.3355848 15.4493618,16.6732641 C15.4596776,16.6946453 15.4684488,16.7154606 15.4768071,16.7379124 C15.6260155,17.1493106 15.703499,17.5832684 15.7058824,18.0208824 L15.7058824,18.0208824 L15.7058824,19.2956471 L16.4705882,19.2956471 C16.8929236,19.2956471 17.2353018,19.6380175 17.2353018,20.0603529 C17.2353018,20.4826883 16.8929236,20.8250588 16.4705882,20.8250588 L16.4705882,20.8250588 L5.76470588,20.8250588 C5.34237049,20.8250588 5,20.4826883 5,20.0603529 C5,19.6380175 5.34237049,19.2956471 5.76470588,19.2956471 L5.76470588,19.2956471 L6.52941176,19.2956471 L6.52941176,18.0208824 C6.53180686,17.5831484 6.60930536,17.149072 6.75853294,16.7375529 C6.76679176,16.7153382 6.77552471,16.6947524 6.78569529,16.6735624 C6.90952885,16.3357984 7.08057671,16.0172756 7.29374294,15.7274835 L7.29374294,15.7274835 L8.36500412,14.2996553 C8.6617601,13.9017833 8.82253351,13.4189402 8.82352941,12.9225882 L8.82352941,12.9225882 L8.82352941,12.1503882 C8.82177141,11.5424048 8.58041694,10.9596217 8.15180412,10.5284165 L8.15180412,10.5284165 L7.64921647,10.0258288 C7.06528014,9.43872022 6.69016595,8.67619311 6.58145765,7.85530294 L6.58145765,7.85530294 L6.57534,7.82505882 L6.57749647,7.81452118 C6.55091004,7.65169827 6.53485103,7.48733036 6.52941941,7.32244059 L6.52941941,7.32244059 L6.52941941,5.53094118 L5.76471353,5.53094118 C5.34237813,5.53094118 5,5.18857069 5,4.76623529 C5,4.3438999 5.34237813,4.00152941 5.76471353,4.00152941 L5.76471353,4.00152941 L12.2689619,4.00130159 C12.5170921,1.75069972 14.4249177,0 16.7416412,0 Z M14.1556553,17.7662353 L8.07963882,17.7662353 C8.06790182,17.850657 8.06095227,17.9356753 8.05882353,18.0208824 L8.05882353,18.0208824 L8.05882353,19.2956471 L14.1764706,19.2956471 L14.1764706,18.0208824 C14.1743418,17.9356753 14.1673923,17.850657 14.1556553,17.7662353 L14.1556553,17.7662353 Z M11.8909406,13.178 L10.3443535,13.178 C10.2934524,13.9160444 10.031083,14.6238163 9.58861,15.2167059 L9.58861,15.2167059 L8.82324647,16.2368235 L13.4118565,16.2368235 L12.6470588,15.2167059 C12.2043153,14.6239329 11.9417991,13.9161159 11.8909406,13.178 L11.8909406,13.178 Z M13.7929476,8.58976471 L8.44234647,8.58976471 C8.52624593,8.71739528 8.6228046,8.83623811 8.73055647,8.94448882 L8.73055647,8.94448882 L9.23313647,9.447 C9.82964041,10.0400126 10.2121193,10.8144716 10.3204259,11.6485882 L10.3204259,11.6485882 L11.9148376,11.6485882 C12.0231696,10.8144967 12.4056551,10.0400675 13.00215,9.44707647 L13.00215,9.44707647 L13.5047376,8.94448882 C13.6124873,8.83623609 13.7090458,8.7173935 13.7929476,8.58976471 L13.7929476,8.58976471 Z M16.7416412,1.5 C15.0847869,1.5 13.7416412,2.84314575 13.7416412,4.5 C13.7416412,6.15685425 15.0847869,7.5 16.7416412,7.5 C18.3984954,7.5 19.7416412,6.15685425 19.7416412,4.5 C19.7416412,2.84314575 18.3984954,1.5 16.7416412,1.5 Z M12.3602563,5.53081468 L8.05882353,5.53094118 L8.05882353,7.06035294 L13.0410738,7.06114285 C12.7248895,6.60515311 12.490819,6.0879124 12.3602563,5.53081468 Z M17.4916412,2.35019456 L17.4916412,6.29564706 L15.9916412,6.29564706 L15.9916412,2.35019456 L17.4916412,2.35019456 Z" id="Combined-Shape"></path>
                </g>
            </g>
        </g>
    </g>
</svg>