<?xml version="1.0" encoding="UTF-8"?>
<svg width="177px" height="177px" viewBox="0 0 177 177" version="1.1" xmlns="http://www.w3.org/2000/svg" xmlns:xlink="http://www.w3.org/1999/xlink">
    <!-- Generator: sketchtool 55.2 (78181) - https://sketchapp.com -->
    <title>61E2D13D-7987-41DB-916D-F90D0FCA143F</title>
    <desc>Created with sketchtool.</desc>
    <defs>
        <path d="M113.5,118 C81.1913421,118 55,91.8086579 55,59.5 C55,27.1913421 81.1913421,1 113.5,1 C145.808658,1 172,27.1913421 172,59.5 C172,91.8086579 145.808658,118 113.5,118 Z M113.5,115.669323 C144.52146,115.669323 169.669323,90.5214603 169.669323,59.5 C169.669323,28.4785397 144.52146,3.33067729 113.5,3.33067729 C82.4785397,3.33067729 57.3306773,28.4785397 57.3306773,59.5 C57.3306773,90.5214603 82.4785397,115.669323 113.5,115.669323 Z" id="path-1"></path>
        <filter x="-3.8%" y="-3.8%" width="107.7%" height="107.7%" filterUnits="objectBoundingBox" id="filter-2">
            <feGaussianBlur stdDeviation="4" in="SourceAlpha" result="shadowBlurInner1"></feGaussianBlur>
            <feOffset dx="0" dy="1" in="shadowBlurInner1" result="shadowOffsetInner1"></feOffset>
            <feComposite in="shadowOffsetInner1" in2="SourceAlpha" operator="arithmetic" k2="-1" k3="1" result="shadowInnerInner1"></feComposite>
            <feColorMatrix values="0 0 0 0 0   0 0 0 0 0   0 0 0 0 0  0 0 0 0.25 0" type="matrix" in="shadowInnerInner1"></feColorMatrix>
        </filter>
    </defs>
    <g id="-⚙--Admin-User---Fase-1" stroke="none" stroke-width="1" fill="none" fill-rule="evenodd">
        <g id="01--Admin-User-Creation-03" transform="translate(-651.000000, -344.000000)">
            <g id="Ilustracion-Ready" transform="translate(651.000000, 344.000000)">
                <g id="Group-2" transform="translate(2.000000, 12.000000)">
                    <g id="Group_138" transform="translate(0.000000, 58.000000)" fill-rule="nonzero">
                        <g id="Group_137">
                            <path d="M86.9873684,83.3546139 L83.1893684,83.3546139 L83.1893684,44.7065347 C83.2094493,43.8807655 83.0810832,43.0581213 82.8104211,42.2780198 C82.1008421,40.3523168 80.4732632,39.3048713 78.0944211,39.3048713 L53.0147368,39.3048713 C55.7500641,36.9408863 57.3328475,33.5056339 57.3555789,29.8835644 C57.4208509,26.22468 55.8606846,22.7262314 53.0981053,20.3367921 C48.3507699,16.1517719 41.2346977,16.1876963 36.5295789,20.4204356 C34.1812489,22.4509455 32.714164,25.3197877 32.4397895,28.417901 C32.0101366,32.5341719 33.6159943,36.6007649 36.7389474,39.3048713 L29.0178947,39.3048713 C23.4284211,39.3048713 17.6248421,39.3048713 11.9065263,39.2630495 C10.5213842,39.1789949 9.16745205,39.6986584 8.19189474,40.6887921 C7.22390956,41.6825875 6.69710764,43.0265612 6.73105263,44.4156832 C6.77273684,53.9624554 6.77273684,63.6346931 6.77273684,73.0141782 L6.77273684,82.3936634 C6.77814589,82.6162396 6.76419832,82.8388651 6.73105263,83.0590099 L6.73105263,83.3099406 L3.26747368,83.3099406 C2.22536842,83.3099406 1.68157895,83.4354059 1.34810526,83.8127525 C1.01368421,84.1482772 0.888631579,84.7337822 0.969157895,85.7812277 C0.969157895,85.9485149 1.01084211,86.0739802 1.01084211,86.200396 L1.01084211,86.3258614 C1.7673624,91.549398 6.2660908,95.4009826 11.5266316,95.3289505 L11.5683158,95.3289505 C25.6329474,95.2871287 39.9476842,95.2871287 53.7622105,95.2871287 L79.1365263,95.2871287 C84.472055,95.0785576 88.7565928,90.7997195 88.9891579,85.447604 C89.0786524,84.8558995 88.9285592,84.2528608 88.5723158,83.7728317 C88.3222105,83.4800792 87.822,83.3546139 86.9873684,83.3546139 Z M44.9611579,60.5341782 C43.9967785,59.9792 43.5057534,58.8582191 43.7504211,57.7701386 C44.0014737,55.4252673 44.2098947,53.0385743 44.4183158,50.7364752 C44.5850526,48.6007129 44.7972632,46.4240792 45.0028421,44.2883168 C44.9960461,44.3877568 45.0102506,44.4875161 45.0445263,44.5810693 C45.1278947,45.6266139 45.2529474,46.7168317 45.3372632,47.7633267 C45.4215789,48.8098218 45.504,49.8544158 45.5873684,50.8619406 C45.7541053,53.2068119 45.9663158,55.6353267 46.2135789,58.0220198 C46.363955,59.0402902 45.8634681,60.0441878 44.9611579,60.5341782 L44.9611579,60.5341782 Z M40.7463158,42.4453069 L41.9153684,42.4453069 L41.7486316,44.4128317 C41.6235789,45.7948515 41.5402105,47.1768713 41.4151579,48.5579406 L41.2901053,50.2745347 C41.0374737,53.3731485 40.7870526,56.4717624 40.5388421,59.5703762 C40.4631094,60.2099877 40.6956824,60.8475262 41.1650526,61.2869703 L42.5425263,62.6689901 C42.9593684,63.0881584 43.3354737,63.5063762 43.7523158,63.8837228 C44.0676772,64.2617437 44.5337662,64.4801536 45.0251053,64.4801536 C45.5164443,64.4801536 45.9825333,64.2617437 46.2978947,63.8837228 C46.6313684,63.5491485 46.9610526,63.2183762 47.2992632,62.9208713 L48.6767368,61.5388515 C49.2996678,60.9644832 49.5969273,60.1167958 49.4696842,59.2776238 C49.0907368,54.8397624 48.7184211,50.3591287 48.3432632,46.0039604 L48.1348421,43.3663366 L48.1348421,42.5707723 C48.636,42.5707723 49.1769474,42.5707723 49.6790526,42.5289505 C50.8757276,42.4520968 52.0768031,42.480084 53.2686316,42.6125941 C60.0802107,43.3583899 65.2606248,49.0956159 65.3295789,55.969901 C65.4129474,58.1474851 65.4129474,60.3659406 65.3712632,62.501703 L65.3712632,65.3531881 C65.3779428,65.4392981 65.3636365,65.5257455 65.3295789,65.6050693 L65.3295789,65.6468911 L59.7789474,65.6468911 L59.7789474,57.9003564 C59.786007,57.6344801 59.7720687,57.3684604 59.7372632,57.1047921 C59.7054255,56.6966279 59.5096931,56.3189495 59.1949531,56.0583693 C58.880213,55.797789 58.4734693,55.6766643 58.068,55.7227723 C57.2292107,55.7861676 56.5964302,56.5133041 56.6469474,57.3557228 L56.6469474,65.5632475 L33.4421053,65.5632475 L33.4421053,57.9003564 C33.4481074,57.6066777 33.4341805,57.3129296 33.4004211,57.0211485 C33.3667812,56.6168548 33.168877,56.2442413 32.8531556,55.9907586 C32.5374341,55.737276 32.1316931,55.625242 31.7311579,55.6809505 C30.929612,55.771535 30.3308875,56.4631255 30.3536842,57.2720792 L30.3536842,65.5632475 L24.8030526,65.5632475 C24.8030526,64.4739802 24.7613684,63.3856634 24.7196842,62.3391683 C24.4618108,59.2214683 24.6022118,56.0834836 25.1374737,53.001505 C26.5803495,46.8003089 32.103924,42.423021 38.4508421,42.4510099 L40.7463158,42.4453069 Z M23.1764211,48.768 C22.968,49.2289901 22.7974737,49.6472079 22.5918947,50.0663762 C21.7729811,52.1730761 21.3760452,54.4210823 21.4237895,56.6818218 L21.4237895,66.6049901 C21.4237895,68.2797624 21.8832632,68.7407525 23.5525263,68.7407525 L66.6227368,68.7407525 C67.9168421,68.7407525 68.5004211,68.154297 68.5004211,66.8986931 L68.5004211,56.1790099 C68.490409,53.6056001 67.890749,51.0689596 66.7477895,48.7651485 C66.7061053,48.6396832 66.6227368,48.5142178 66.5810526,48.3849505 L66.5393684,48.3013069 L74.2187368,48.3013069 L74.2187368,77.4026139 L15.9157895,77.4026139 L15.9157895,48.3013069 L23.4701053,48.3013069 C23.355937,48.4467102 23.2562995,48.603027 23.1726316,48.768 L23.1764211,48.768 Z M27.7673684,43.0317624 C27.0577895,43.7018614 26.3898947,44.3719604 25.6831579,44.9992871 C25.4982487,45.0741553 25.2979859,45.1028587 25.0995789,45.0829307 L14.7912632,45.0829307 C13.122,45.0829307 12.5791579,45.6275644 12.5791579,47.3023366 L12.5791579,78.4129901 C12.5791579,80.0877624 13.122,80.632396 14.7495789,80.632396 L75.1395789,80.632396 C76.7671579,80.632396 77.31,80.0877624 77.31,78.4548119 L77.31,47.2605149 C77.31,45.6693861 76.7671579,45.0829307 75.1812632,45.0829307 L65.0813684,45.0829307 C64.5777445,45.1084724 64.0886779,44.9090681 63.7455789,44.538297 C63.2444211,43.9936634 62.7034737,43.5336238 62.1596842,43.0308119 C61.973849,42.8529468 61.7787323,42.6851066 61.5751579,42.528 C61.7002105,42.528 61.8252632,42.4861782 61.9095789,42.4861782 L78.1863158,42.4861782 C79.5637895,42.4861782 80.064,42.9889901 80.064,44.3700594 L80.064,82.6835644 C80.0707236,82.8380923 80.0567032,82.9928257 80.0223158,83.143604 L80.0223158,83.3108911 L9.90852632,83.3108911 L9.90852632,44.538297 C9.90852632,42.9471683 10.3263158,42.4861782 11.9538947,42.4861782 L28.3556842,42.4861782 C28.1696767,42.679387 27.9726058,42.8615571 27.7654737,43.0317624 L27.7673684,43.0317624 Z M44.9621053,20.378612 C47.399442,20.3770716 49.7390762,21.3398529 51.4733684,23.0580594 C53.27499,24.8678918 54.2814462,27.3247556 54.2691658,29.8826139 C54.2613368,35.0663483 50.0870183,39.2731176 44.9204211,39.3039386 L44.9204211,39.3039386 C42.4288123,39.3088021 40.039684,38.3092917 38.2896436,36.5298837 C36.5396033,34.7504756 35.5753553,32.3403362 35.6134737,29.8407921 C35.6260937,24.6753431 39.7722809,20.4782094 44.9204211,20.4194851 C44.8768421,20.378612 44.9185263,20.378612 44.9621053,20.378612 L44.9621053,20.378612 Z M11.4498947,92.1895142 C8.23642105,92.1895142 5.73252632,90.2209901 4.73021053,86.8714455 C4.73021053,86.787802 4.68852632,86.7459802 4.68852632,86.6195644 L4.68852632,86.5359208 L35.4884211,86.5359208 L35.4884211,86.7868515 C35.4884211,87.0387327 35.5301053,87.2478416 35.5301053,87.4569505 C35.6227344,89.4943318 37.2953148,91.0987616 39.3281053,91.100198 C43.0010526,91.1420198 46.7573684,91.1420198 50.4710526,91.100198 C52.497882,91.083945 54.1619379,89.4876923 54.2690526,87.4569505 C54.2690526,87.2478416 54.3107368,87.0387327 54.3107368,86.8286733 L54.3107368,86.5767921 L85.1523158,86.5767921 C84.9466978,87.7323767 84.4430442,88.8137919 83.6914737,89.7134257 C82.4412402,91.3435055 80.4811554,92.2646079 78.4326316,92.1847129 L35.4457895,92.1847129 C27.6404211,92.1476436 19.5025263,92.1476436 11.448,92.1895142 L11.4498947,92.1895142 Z M51.0972632,87.6270891 C50.9305263,87.836198 50.6377895,87.9198416 50.0958947,87.9198416 L39.996,87.9198416 C39.6354353,87.9599664 39.2713418,87.8869074 38.9538947,87.7107327 C38.7871579,87.5434455 38.7454737,87.2079208 38.8288421,86.5805941 L51.1825263,86.5805941 C51.2621053,87.0805545 51.2621053,87.457901 51.0953684,87.6251881 L51.0972632,87.6270891 Z" id="Path_546" stroke="#FFFFFF" stroke-width="0.5" fill="#577EE8"></path>
                            <path d="M89.0734737,6.22669307 C89.1794253,4.79741162 88.6594926,3.39273432 87.6493804,2.37928836 C86.6392681,1.3658424 85.2392114,0.844193734 83.8146316,0.95049505 L65.2850526,0.95049505 C63.9918947,0.95049505 62.6144211,0.95049505 61.2786316,0.992316832 C58.7540905,1.05176286 56.7089844,3.0670227 56.6043158,5.59841584 C56.5209474,9.57623762 56.5209474,13.2194851 56.6043158,16.8617822 C56.6092385,18.1628805 57.1409194,19.4061185 58.077355,20.306214 C59.0137906,21.2063095 60.2745827,21.6859841 61.5704211,21.6351683 L64.0335789,21.6351683 L64.0335789,26.5340198 C63.9683207,27.2889619 64.4377972,27.9869834 65.16,28.2087921 C65.3093638,28.2532853 65.4631117,28.2813317 65.6185263,28.2924356 C66.1216031,28.2545677 66.5881807,28.0146832 66.9126316,27.6270891 C67.4137895,27.1242772 67.914,26.6642376 68.4151579,26.1614257 C69.7509474,24.8630495 71.1284211,23.4819802 72.5049474,22.183604 C72.8208121,21.9117016 73.2160687,21.7499421 73.6313684,21.7226139 C76.1769474,21.6807921 78.7225263,21.6807921 81.2273684,21.6807921 L83.898,21.6807921 C85.2877627,21.7818848 86.652689,21.271874 87.6379791,20.2833321 C88.6232691,19.2947903 89.1316023,17.9253593 89.0308421,16.5310099 C89.0734737,13.2185347 89.0734737,9.79009901 89.0734737,6.22669307 Z M67.2053684,20.3377426 C67.2791861,19.8189106 67.105253,19.2954842 66.7358835,18.9248957 C66.3665141,18.5543072 65.8448095,18.3798001 65.3276842,18.4538614 L61.6547368,18.4538614 C61.127919,18.5202351 60.6000862,18.3387016 60.2246441,17.9620204 C59.849202,17.5853392 59.6682656,17.0557644 59.7344211,16.5272079 L59.7344211,5.97671287 C59.6646447,5.47732544 59.8295736,4.97369873 60.1809647,4.61314816 C60.5323557,4.25259759 61.0304994,4.07586765 61.5296842,4.13465347 L84.024,4.13465347 C84.5270128,4.07417825 85.0298573,4.24871476 85.3880856,4.60812535 C85.7463139,4.96753594 85.9202763,5.47204001 85.86,5.97671287 L85.86,16.611802 C85.924662,17.1251049 85.7460342,17.6391723 85.3773205,18.0008906 C85.0086067,18.3626088 84.4923499,18.5302421 83.9823158,18.4538614 L81.4367368,18.4538614 C78.7234737,18.4538614 75.9277895,18.4538614 73.1321053,18.4120396 C72.1652411,18.3287295 71.2176039,18.7179521 70.5865263,19.4575842 C69.8352632,20.3367921 69.084,21.1741782 68.3327368,22.0115644 C68.0409474,22.3470891 67.7482105,22.6816634 67.4147368,23.0162376 L67.122,22.8489505 L67.122,22.1370297 C67.1914988,21.5396271 67.219356,20.9380864 67.2053684,20.3367921 L67.2053684,20.3377426 Z" id="Path_547" stroke="#FFFFFF" stroke-width="0.5" fill="#577EE8"></path>
                            <g id="Group_134" transform="translate(77.177368, 8.834851)" fill="#FFFFFF">
                                <path d="M1.50442105,4.08712871 L1.50442105,4.08712871 C2.34646625,4.08260226 3.04038379,3.4229933 3.09031579,2.57964356 C3.10669947,2.15618573 2.95199616,1.74402558 2.6612772,1.43660009 C2.37055824,1.1291746 1.96844804,0.952523268 1.54610526,0.946693069 L1.54610526,0.946693069 C0.698581242,0.959443651 0.014603376,1.64567887 0.00189473684,2.496 C-0.0171800069,2.90908137 0.132229579,3.3121449 0.415703198,3.61233466 C0.699176818,3.91252443 1.09226903,4.08395345 1.50442105,4.08712871 L1.50442105,4.08712871 Z" id="Path_548"></path>
                            </g>
                            <g id="Group_135" transform="translate(71.247789, 9.827168)" fill="#FFFFFF">
                                <path d="M1.59063158,3.09861386 L1.59063158,3.09861386 C2.4381556,3.08586328 3.12213347,2.39962806 3.13484678,1.54930693 C3.13585161,1.13809552 2.97348267,0.743434489 2.6836679,0.452663232 C2.39385312,0.161891974 2.00049032,-0.00101284059 1.59063158,-4.69478989e-06 C1.15874449,0.00806272668 0.744149456,0.17168172 0.422526316,0.460990099 C0.12393405,0.757381554 -0.0286701711,1.17112076 0.00568421053,1.59112871 C0.0832886356,2.42088857 0.760638706,3.06513405 1.59063158,3.09861386 L1.59063158,3.09861386 Z" id="Path_549"></path>
                            </g>
                            <g id="Group_136" transform="translate(65.451789, 9.868990)" fill="#FFFFFF">
                                <path d="M3.08842105,1.55025743 C3.10595107,1.14150686 2.95469241,0.743595659 2.67031796,0.450367316 C2.38594351,0.157138973 1.99362782,-0.00544816768 1.58589474,0.00095049505 C0.750837841,0.0294807948 0.0853851038,0.711100309 0.0742455482,1.5493243 C0.0631059925,2.38754829 0.710208658,3.0867263 1.54421053,3.13758416 L1.54421053,3.13758416 C2.37848232,3.06254394 3.03387146,2.38885556 3.08842105,1.55025743 L3.08842105,1.55025743 Z" id="Path_550"></path>
                            </g>
                        </g>
                    </g>
                    <circle id="Oval" fill="#FFFFFF" cx="113.5" cy="59.5" r="59.5"></circle>
                    <path d="M108.967304,70.4422311 C108.498256,70.4422311 108.028801,70.2616211 107.670286,69.8995764 L99.53864,61.6904812 C98.8212018,60.9663918 98.8203861,59.7916022 99.5366007,59.0662757 C100.252815,58.3413617 101.415237,58.340537 102.132267,59.0646263 L108.967304,65.9645053 L125.234267,49.543016 C125.951297,48.8181019 127.113311,48.819339 127.829933,49.5446654 C128.546148,50.2699919 128.545332,51.4447815 127.827894,52.1688709 L110.264321,69.8995764 C109.905806,70.2616211 109.436351,70.4422311 108.967304,70.4422311" id="checkmark" fill="#00D3A4"></path>
                    <path d="M113.5,118 C81.1913421,118 55,91.8086579 55,59.5 C55,27.1913421 81.1913421,1 113.5,1 C145.808658,1 172,27.1913421 172,59.5 C172,91.8086579 145.808658,118 113.5,118 Z M113.5,115.669323 C144.52146,115.669323 169.669323,90.5214603 169.669323,59.5 C169.669323,28.4785397 144.52146,3.33067729 113.5,3.33067729 C82.4785397,3.33067729 57.3306773,28.4785397 57.3306773,59.5 C57.3306773,90.5214603 82.4785397,115.669323 113.5,115.669323 Z" id="Combined-Shape" fill="#FFFFFF"></path>
                    <g id="Combined-Shape" style="mix-blend-mode: multiply;">
                        <use fill="#00D3A4" fill-rule="evenodd" xlink:href="#path-1"></use>
                        <use fill="black" fill-opacity="1" filter="url(#filter-2)" xlink:href="#path-1"></use>
                    </g>
                </g>
            </g>
        </g>
    </g>
</svg>