<?xml version="1.0" encoding="UTF-8"?>
<svg width="90px" height="90px" viewBox="0 0 90 90" version="1.1" xmlns="http://www.w3.org/2000/svg">
    <title>78B42890-0E24-4216-AA3C-B9BF5351235F</title>
    <desc>Created with sketchtool.</desc>
    <defs>
        <linearGradient x1="50%" y1="0%" x2="50%" y2="100%" id="linearGradient-1">
            <stop stop-color="#4A90DD" offset="0%"></stop>
            <stop stop-color="#6CBDE4" offset="100%"></stop>
        </linearGradient>
        <rect id="path-2" x="0" y="0" width="48" height="48" rx="24"></rect>
        <filter x="-31.2%" y="-31.2%" width="162.5%" height="162.5%" filterUnits="objectBoundingBox" id="filter-3">
            <feOffset dx="0" dy="0" in="SourceAlpha" result="shadowOffsetOuter1"></feOffset>
            <feGaussianBlur stdDeviation="5" in="shadowOffsetOuter1" result="shadowBlurOuter1"></feGaussianBlur>
            <feColorMatrix values="0 0 0 0 0.333333333   0 0 0 0 0.619607843   0 0 0 0 0.874509804  0 0 0 0.7 0" type="matrix" in="shadowBlurOuter1"></feColorMatrix>
        </filter>
    </defs>
    <g id="-⚙-Design-Guideline" stroke="none" stroke-width="1" fill="none" fill-rule="evenodd">
        <g id="-⚙-Iconos" transform="translate(-340.000000, -374.000000)">
            <g id="Usuarios" transform="translate(340.000000, 374.000000)">
                <g id="Group" transform="translate(21.000000, 17.000000)">
                    <g id="Rectangle">
                        <use fill="black" fill-opacity="1" filter="url(#filter-3)" href="#path-2"></use>
                        <use fill="url(#linearGradient-1)" fill-rule="evenodd" href="#path-2"></use>
                    </g>
                    <path d="M23.9059729,14.1084426 C24.1486396,13.9638525 24.4589729,13.9638525 24.7016396,14.1084426 L41.2286396,23.862541 C41.4829729,24.0117213 41.6183063,24.282541 41.6043063,24.5556557 C41.2333063,31.5258197 39.5906396,37.5572951 36.7579729,42.7051639 C33.9206396,47.8622131 29.8909729,52.1287705 24.7529729,55.5507377 C24.4146396,55.7412295 24.1929729,55.7435246 23.8546396,55.5507377 C18.7143063,52.1287705 14.6869729,47.8622131 11.8496396,42.7051639 C9.01697293,37.5572951 7.37430627,31.5258197 7.00097293,24.5556557 C6.98697293,24.282541 7.1246396,24.0117213 7.3766396,23.862541 L23.9036396,14.1084426 L23.9059729,14.1084426 Z M32.9733063,45.7530328 C31.5313063,42.2231967 28.1783063,40.0887705 24.3049729,40.0038525 C20.4853063,40.0107377 17.0576396,42.287459 15.6366396,45.7530328 C17.9769729,48.9110656 20.8749729,51.6536885 24.3049729,53.9992623 C27.7349729,51.6536885 30.6353063,48.9110656 32.9733063,45.7530328 Z M14.6123063,44.2910656 C16.4626396,40.7589344 20.1889729,38.477623 24.3049729,38.477623 C28.5049729,38.5992623 32.1426396,40.690082 34.0023063,44.2864754 C34.4946396,43.5382787 34.9589729,42.7717213 35.3929729,41.9822131 C38.0553063,37.1441803 39.6256396,31.4753279 40.0316396,24.9343443 L24.3049729,15.6530328 L8.57830627,24.9343443 C8.98430627,31.4753279 10.5546396,37.1441803 13.2169729,41.9822131 C13.6533063,42.7740164 14.1176396,43.5428689 14.6123063,44.2910656 Z" id="Shape" fill="#2B334A" fill-rule="nonzero"></path>
                    <path d="M24.3049729,24.1081148 C27.8423063,24.1081148 30.7216396,26.9402459 30.7216396,30.4195902 C30.7216396,33.9035246 27.8446396,36.7310656 24.3049729,36.7310656 C20.7653063,36.7310656 17.8883063,33.9012295 17.8883063,30.4195902 C17.8883063,26.9402459 20.7676396,24.1081148 24.3049729,24.1081148 Z M24.3049729,25.6389344 C21.6169729,25.6389344 19.4446396,27.7756557 19.4446396,30.4195902 C19.4446396,33.0589344 21.6193063,35.2002459 24.3049729,35.2002459 C26.9906396,35.2002459 29.1653063,33.0635246 29.1653063,30.4195902 C29.1653063,27.7756557 26.9929729,25.6389344 24.3049729,25.6389344 Z" id="Shape" fill="#2B334A" fill-rule="nonzero"></path>
                </g>
            </g>
        </g>
    </g>
</svg>