<?xml version="1.0" encoding="UTF-8"?>
<svg width="25px" height="24px" viewBox="0 0 25 24" version="1.1" xmlns="http://www.w3.org/2000/svg" xmlns:xlink="http://www.w3.org/1999/xlink">
    <!-- Generator: sketchtool 61 (101010) - https://sketch.com -->
    <title>21C6B168-F4E4-44E1-9AB1-F67F78CF3E05</title>
    <desc>Created with sketchtool.</desc>
    <g id="Layout-FIWOO" stroke="none" stroke-width="1" fill="none" fill-rule="evenodd">
        <g id="Mobile-Dashboard-menu-user" transform="translate(-16.000000, -134.000000)" fill="#2B334A" fill-rule="nonzero" stroke="#2B334A">
            <g id="Menu-usuariodesplegao" transform="translate(0.000000, 112.000000)">
                <g id="Nav/Menu/List-" transform="translate(0.000000, 6.000000)">
                    <g id="icon-device-icon-user">
                        <g transform="translate(12.000000, 12.000000)">
                            <g id="icon-user" transform="translate(4.000000, 4.000000)">
                                <path d="M8.6504,13.9880868 C9.00602857,13.9880868 9.29454286,14.2687634 9.29454286,14.616832 C9.29454286,14.8360412 9.1796,15.0285897 9.00448571,15.1411566 C7.51177143,16.1683292 6.48114286,17.7931428 6.29291429,19.6630857 C6.29291429,19.6638263 6.29368571,19.6638263 6.29368571,19.6638263 C6.29368571,20.0111543 6.00517143,20.2925714 5.64954286,20.2925714 C5.29314286,20.2925714 5.0054,20.0111543 5.0054,19.6638263 L5,19.6667886 C5.19054286,17.3717577 6.43717143,15.3729554 8.26082857,14.1184274 C8.3696,14.0377052 8.50382857,13.9880868 8.6504,13.9880868 M20.4177714,19.6638263 L20.4285714,19.7771337 C20.4254857,19.7423268 20.4200857,19.7082606 20.417,19.6727132 C20.4108286,20.0155977 20.1261714,20.2925714 19.7736286,20.2925714 C19.418,20.2925714 19.1294857,20.0104137 19.1294857,19.6638263 L19.1279429,19.6638263 C18.8078,16.4786286 16.0592,13.989568 12.7142857,13.9880868 L12.7112,13.9873463 C12.7050286,13.9873463 12.6996286,13.9880868 12.6934571,13.9880868 C9.86925714,13.9880868 7.57965714,11.7515612 7.57965714,8.99367314 C7.57965714,6.23578514 9.86925714,4 12.6934571,4 C12.6965429,4 12.6996286,4.00074057 12.7019429,4.00074057 C12.7050286,4.00074057 12.7081143,4 12.7112,4 C15.5338571,4 17.8226857,6.23504457 17.8226857,8.992192 C17.8226857,10.023808 17.4940571,10.9754423 16.9440286,11.7700754 C16.9386286,11.7782217 16.9332286,11.7856274 16.9278286,11.7937737 C16.8476,11.9085623 16.7627429,12.019648 16.6724857,12.1270308 C16.6416286,12.1648 16.6092286,12.2003474 16.5776,12.237376 C16.4958286,12.3292068 16.4140571,12.4210377 16.3253429,12.5076846 C16.2613143,12.5713737 16.1918857,12.6298788 16.124,12.6898652 C16.0244857,12.7779932 15.9218857,12.8638994 15.8138857,12.9446217 C15.7058857,13.025344 15.5978857,13.1038446 15.4829429,13.1764206 C15.4628857,13.1890103 15.4451429,13.2053028 15.4243143,13.217152 C18.1235429,14.2065554 20.1022571,16.6222994 20.4008,19.52608 C20.4108286,19.5705143 20.4177714,19.6164297 20.4177714,19.6638263 M12.7112,12.7268937 C12.8400286,12.7268937 12.9673143,12.7202286 13.0938286,12.7076388 C15.0177714,12.512128 16.5174286,10.9243428 16.5174286,8.99367314 C16.5174286,6.93118172 14.8056286,5.259712 12.6934571,5.259712 C12.5646286,5.259712 12.4365714,5.26637714 12.3108286,5.27822628 C10.3868857,5.47373714 8.88645714,7.06152228 8.88645714,8.992192 C8.88645714,11.0546834 10.5982571,12.7268937 12.7112,12.7268937" id="Shape"></path>
                            </g>
                        </g>
                    </g>
                </g>
            </g>
        </g>
    </g>
</svg>