<?xml version="1.0" encoding="UTF-8"?>
<svg width="30px" height="30px" viewBox="0 0 30 30" version="1.1" xmlns="http://www.w3.org/2000/svg" xmlns:xlink="http://www.w3.org/1999/xlink">
    <title>2330C1F7-E721-4E7F-BD7C-F49C3B107920</title>
    <g id="New-Dashboards" stroke="none" stroke-width="1" fill="none" fill-rule="evenodd">
        <g id="Map-design-evolution" transform="translate(-1332.000000, -855.000000)">
            <g id="ico-device-centered" transform="translate(1332.000000, 855.000000)">
                <rect id="Rectangle" x="0" y="0" width="30" height="30"></rect>
                <g id="border-out" transform="translate(6.000000, 6.000000)" fill="#2B334A" fill-rule="nonzero">
                    <path d="M9,6 C9.55228475,6 10,5.55228475 10,5 C10,4.44771525 9.55228475,4 9,4 C8.44771525,4 8,4.44771525 8,5 C8,5.55228475 8.44771525,6 9,6 Z M9,10 C9.55228475,10 10,9.55228475 10,9 C10,8.44771525 9.55228475,8 9,8 C8.44771525,8 8,8.44771525 8,9 C8,9.55228475 8.44771525,10 9,10 Z M13,10 C13.5522847,10 14,9.55228475 14,9 C14,8.44771525 13.5522847,8 13,8 C12.4477153,8 12,8.44771525 12,9 C12,9.55228475 12.4477153,10 13,10 Z M9,14 C9.55228475,14 10,13.5522847 10,13 C10,12.4477153 9.55228475,12 9,12 C8.44771525,12 8,12.4477153 8,13 C8,13.5522847 8.44771525,14 9,14 Z M17,0 L1,0 C0.44771525,0 0,0.44771525 0,1 L0,17 C0,17.5522847 0.44771525,18 1,18 L17,18 C17.5522847,18 18,17.5522847 18,17 L18,1 C18,0.44771525 17.5522847,0 17,0 Z M16,16 L2,16 L2,2 L16,2 L16,16 Z M5,10 C5.55228475,10 6,9.55228475 6,9 C6,8.44771525 5.55228475,8 5,8 C4.44771525,8 4,8.44771525 4,9 C4,9.55228475 4.44771525,10 5,10 Z" id="Shape"></path>
                </g>
            </g>
        </g>
    </g>
</svg>